<svg width="20" height="20" viewBox="0 0 20 20" fill="none" xmlns="http://www.w3.org/2000/svg">
<path fill-rule="evenodd" clip-rule="evenodd" d="M18.3325 12.9975H17.9128C19.0691 12.9975 20 13.9065 20 15.0277V15.4354C20 15.8868 19.6266 16.2469 19.1661 16.2469H0.833912C0.372891 16.2469 0 15.8836 0 15.4354V15.0277C0 13.907 0.934461 12.9975 2.08718 12.9975H1.66754C2.12572 12.9975 2.5 12.6335 2.5 12.1845V7.31082C2.5 3.27144 5.85786 0 10 0C14.143 0 17.5 3.27316 17.5 7.31082V12.1845C17.5 12.6364 17.8727 12.9975 18.3325 12.9975ZM7.08333 17.0593H12.9167C12.9167 18.6295 11.6108 19.9025 10 19.9025C8.38917 19.9025 7.08333 18.6295 7.08333 17.0593Z" fill="#505857"/>
</svg>
