<svg width="20" height="13" viewBox="0 0 20 13" fill="none" xmlns="http://www.w3.org/2000/svg">
<path d="M19.3014 1.71035C19.1088 1.50261 18.904 1.30771 18.6882 1.1268C16.3018 -0.737101 12.8879 0.125169 11.0318 0.787114C10.8703 0.848472 10.7309 0.961047 10.633 1.10928C10.535 1.2575 10.4833 1.43406 10.4849 1.61455V12.0663C10.4846 12.2143 10.5202 12.36 10.5884 12.4895C10.6565 12.619 10.7549 12.7282 10.8744 12.8066C10.9938 12.8851 11.1302 12.9303 11.2709 12.9379C11.4115 12.9455 11.5517 12.9153 11.6781 12.8502C12.5133 12.4433 13.4116 12.1984 14.3297 12.1273C14.5534 12.1273 14.7606 12.1273 14.976 12.1273C16.1218 12.1335 17.2526 12.401 18.2905 12.9112C18.417 12.9763 18.5571 13.0065 18.6978 12.9988C18.8384 12.9912 18.9749 12.9461 19.0943 12.8676C19.2137 12.7892 19.3121 12.68 19.3802 12.5505C19.4484 12.4209 19.484 12.2753 19.4837 12.1273V2.30262C19.4944 2.08833 19.4295 1.87743 19.3014 1.71035Z" fill="#229A87"/>
<path d="M8.46379 0.790822C6.6077 0.125759 3.21725 -0.740575 0.833201 1.13211C0.615581 1.31358 0.408941 1.50941 0.214504 1.71841C0.0750688 1.88113 -0.001504 2.09358 2.23883e-05 2.31347V12.1232C-0.000258447 12.2719 0.0351937 12.4182 0.103032 12.5484C0.17087 12.6785 0.268855 12.7882 0.387738 12.867C0.506621 12.9458 0.642479 12.9912 0.782485 12.9988C0.922492 13.0065 1.06203 12.9762 1.18792 12.9107C2.43039 12.2915 3.80428 12.029 5.17233 12.1494C6.08632 12.2208 6.98061 12.4669 7.8121 12.8757C7.93799 12.9412 8.07753 12.9715 8.21754 12.9638C8.35754 12.9562 8.4934 12.9108 8.61228 12.832C8.73117 12.7532 8.82915 12.6435 8.89699 12.5134C8.96483 12.3832 9.00028 12.2369 9 12.0882V1.58715C8.99558 1.41285 8.94218 1.24393 8.84664 1.10204C8.7511 0.96016 8.61779 0.851786 8.46379 0.790822Z" fill="#229A87"/>
</svg>
