<svg width="40" height="40" viewBox="0 0 40 40" fill="none" xmlns="http://www.w3.org/2000/svg">
<circle cx="20" cy="20" r="20" fill="#DEF9F1"/>
<path d="M29.3014 14.7104C29.1088 14.5026 28.904 14.3077 28.6882 14.1268C26.3018 12.2629 22.8879 13.1252 21.0318 13.7871C20.8703 13.8485 20.7309 13.961 20.633 14.1093C20.535 14.2575 20.4833 14.4341 20.4849 14.6145V25.0663C20.4846 25.2143 20.5202 25.36 20.5884 25.4895C20.6565 25.619 20.7549 25.7282 20.8744 25.8066C20.9938 25.8851 21.1302 25.9303 21.2709 25.9379C21.4115 25.9455 21.5517 25.9153 21.6781 25.8502C22.5133 25.4433 23.4116 25.1984 24.3297 25.1273C24.5534 25.1273 24.7606 25.1273 24.976 25.1273C26.1218 25.1335 27.2526 25.401 28.2905 25.9112C28.417 25.9763 28.5571 26.0065 28.6978 25.9988C28.8384 25.9912 28.9749 25.9461 29.0943 25.8676C29.2137 25.7892 29.3121 25.68 29.3802 25.5505C29.4484 25.4209 29.484 25.2753 29.4837 25.1273V15.3026C29.4944 15.0883 29.4295 14.8774 29.3014 14.7104Z" fill="#229A87"/>
<path d="M18.4638 13.7908C16.6077 13.1258 13.2172 12.2594 10.8332 14.1321C10.6156 14.3136 10.4089 14.5094 10.2145 14.7184C10.0751 14.8811 9.9985 15.0936 10 15.3135V25.1232C9.99974 25.2719 10.0352 25.4182 10.103 25.5484C10.1709 25.6785 10.2689 25.7882 10.3877 25.867C10.5066 25.9458 10.6425 25.9912 10.7825 25.9988C10.9225 26.0065 11.062 25.9762 11.1879 25.9107C12.4304 25.2915 13.8043 25.029 15.1723 25.1494C16.0863 25.2208 16.9806 25.4669 17.8121 25.8757C17.938 25.9412 18.0775 25.9715 18.2175 25.9638C18.3575 25.9562 18.4934 25.9108 18.6123 25.832C18.7312 25.7532 18.8292 25.6435 18.897 25.5134C18.9648 25.3832 19.0003 25.2369 19 25.0882V14.5871C18.9956 14.4129 18.9422 14.2439 18.8466 14.102C18.7511 13.9602 18.6178 13.8518 18.4638 13.7908Z" fill="#229A87"/>
</svg>
