<svg width="56" height="55" viewBox="0 0 56 55" fill="none" xmlns="http://www.w3.org/2000/svg">
<g filter="url(#filter0_d)">
<rect x="8" y="5.00012" width="40" height="40" rx="6" fill="white"/>
</g>
<path d="M30.6922 19.4616H32.6153C32.8276 19.4616 32.9999 19.2893 32.9999 19.077V16.4859C32.9999 16.2844 32.8449 16.1167 32.6441 16.1024C32.0322 16.059 30.8368 16.0001 29.9772 16.0001C27.6153 16.0001 26.0769 17.4155 26.0769 19.9878V22.5385H23.3846C23.1723 22.5385 23 22.7108 23 22.9231V25.6154C23 25.8277 23.1723 26 23.3846 26H26.0769V33.3076C26.0769 33.52 26.2492 33.6923 26.4615 33.6923H29.1538C29.3661 33.6923 29.5384 33.52 29.5384 33.3076V26H32.3161C32.5122 26 32.6768 25.8527 32.6984 25.6577L32.9976 22.9654C33.023 22.7377 32.8445 22.5385 32.6153 22.5385H29.5384V20.6155C29.5384 19.9782 30.0549 19.4616 30.6922 19.4616Z" fill="#505857"/>
<defs>
<filter id="filter0_d" x="0.761905" y="0.476313" width="54.4762" height="54.4762" filterUnits="userSpaceOnUse" color-interpolation-filters="sRGB">
<feFlood flood-opacity="0" result="BackgroundImageFix"/>
<feColorMatrix in="SourceAlpha" type="matrix" values="0 0 0 0 0 0 0 0 0 0 0 0 0 0 0 0 0 0 127 0"/>
<feOffset dy="2.71429"/>
<feGaussianBlur stdDeviation="3.61905"/>
<feColorMatrix type="matrix" values="0 0 0 0 0.847059 0 0 0 0 0.854902 0 0 0 0 0.882353 0 0 0 0.8 0"/>
<feBlend mode="normal" in2="BackgroundImageFix" result="effect1_dropShadow"/>
<feBlend mode="normal" in="SourceGraphic" in2="effect1_dropShadow" result="shape"/>
</filter>
</defs>
</svg>
