<svg width="10" height="19" viewBox="0 0 10 19" fill="none" xmlns="http://www.w3.org/2000/svg">
<path d="M7.69223 3.64283H9.61529C9.82759 3.64283 9.9999 3.46753 9.9999 3.25153V0.615311C9.9999 0.410268 9.8449 0.239659 9.64413 0.225181C9.03222 0.180963 7.83684 0.121094 6.97724 0.121094C4.61534 0.121094 3.07689 1.56109 3.07689 4.17814V6.77327H0.384611C0.172306 6.77327 0 6.94857 0 7.16457V9.9037C0 10.1197 0.172306 10.295 0.384611 10.295H3.07689V17.7298C3.07689 17.9458 3.2492 18.1211 3.4615 18.1211H6.15378C6.36609 18.1211 6.5384 17.9458 6.5384 17.7298V10.295H9.31606C9.51221 10.295 9.67682 10.1451 9.69836 9.94675L9.99759 7.20762C10.023 6.97596 9.84452 6.77327 9.61529 6.77327H6.5384V4.81675C6.5384 4.16835 7.05493 3.64283 7.69223 3.64283Z" fill="white"/>
</svg>
