<svg width="24" height="24" viewBox="0 0 24 24" fill="none" xmlns="http://www.w3.org/2000/svg">
<rect width="24" height="24" rx="6" fill="#157DC3"/>
<path d="M14.1538 7.93478H15.6922C15.8621 7.93478 15.9999 7.7887 15.9999 7.6087V5.41185C15.9999 5.24098 15.8759 5.0988 15.7153 5.08674C15.2258 5.04989 14.2695 5 13.5818 5C11.6923 5 10.4615 6.2 10.4615 8.38087V10.5435H8.30769C8.13784 10.5435 8 10.6896 8 10.8696V13.1522C8 13.3322 8.13784 13.4783 8.30769 13.4783H10.4615V19.6739C10.4615 19.8539 10.5994 20 10.7692 20H12.923C13.0929 20 13.2307 19.8539 13.2307 19.6739V13.4783H15.4528C15.6098 13.4783 15.7415 13.3534 15.7587 13.188L15.9981 10.9054C16.0184 10.7124 15.8756 10.5435 15.6922 10.5435H13.2307V8.91304C13.2307 8.37272 13.6439 7.93478 14.1538 7.93478Z" fill="white"/>
</svg>
