<svg width="24" height="24" viewBox="0 0 24 24" fill="none" xmlns="http://www.w3.org/2000/svg">
<rect width="24" height="24" rx="6" fill="#03A9F4"/>
<path d="M18 8.18241C17.559 8.38448 17.0847 8.51931 16.5845 8.5831C17.0931 8.27069 17.4844 7.77241 17.668 7.18379C17.1921 7.47241 16.6648 7.68448 16.1038 7.79621C15.6559 7.30483 15.0169 7 14.309 7C12.9491 7 11.8468 8.13034 11.8468 9.52414C11.8468 9.72138 11.8692 9.91345 11.9112 10.1C9.86534 9.99379 8.05083 8.98759 6.83693 7.46069C6.62361 7.83379 6.50362 8.27069 6.50362 8.73172C6.50362 9.60793 6.93726 10.3793 7.59853 10.8338C7.1949 10.821 6.81493 10.7048 6.48229 10.5186C6.48229 10.5262 6.48229 10.5376 6.48229 10.5483C6.48229 11.7728 7.33122 12.7924 8.45646 13.0245C8.25081 13.0828 8.0335 13.1152 7.80952 13.1152C7.65053 13.1152 7.49554 13.0966 7.34555 13.0686C7.65886 14.0693 8.56779 14.8007 9.6447 14.8224C8.8021 15.4983 7.74085 15.9031 6.58695 15.9031C6.38763 15.9031 6.19265 15.8914 6 15.8672C7.09024 16.5814 8.3848 17 9.77435 17C14.3023 17 16.7794 13.1531 16.7794 9.81586C16.7794 9.70655 16.7761 9.59759 16.7711 9.49C17.2544 9.1369 17.671 8.69138 18 8.18241Z" fill="white"/>
</svg>
