<svg width="28" height="28" viewBox="0 0 28 28" fill="none" xmlns="http://www.w3.org/2000/svg">
<path d="M14 0C6.27789 0 0 6.27789 0 14C0 21.7221 6.27789 28 14 28C21.7221 28 28 21.7221 28 14C28 6.27789 21.7221 0 14 0ZM21.6926 19.1874C21.4274 19.8358 20.9558 20.4842 20.6611 20.7789C18.9811 22.4589 14.4716 20.9558 10.7579 17.2421C7.04421 13.5284 5.54105 9.04842 7.22105 7.33895C7.51579 7.04421 8.19368 6.57263 8.81263 6.30737C9.28421 6.10105 9.84421 6.24842 10.1684 6.66105L12.0253 9.01895C12.4084 9.49053 12.3495 10.1979 11.8779 10.6105C11.4063 11.0232 11.0821 11.3179 10.9937 11.4063C10.2863 12.1137 11.3179 13.6168 12.88 15.1789C14.4421 16.7411 15.9158 17.8021 16.6526 17.0653C16.7411 16.9768 17.0358 16.6526 17.4484 16.1811C17.8611 15.7095 18.5389 15.6505 19.04 16.0337L21.3979 17.8905C21.7811 18.1263 21.8989 18.6863 21.6926 19.1874Z" fill="#229A87"/>
</svg>
