<svg width="40" height="40" viewBox="0 0 40 40" fill="none" xmlns="http://www.w3.org/2000/svg">
<circle cx="20" cy="20" r="20" fill="#DEF9F1"/>
<path fill-rule="evenodd" clip-rule="evenodd" d="M19.9227 10.5929C19.2436 10.5933 18.6932 11.1438 18.6928 11.8229L18.8265 18.5588L11.754 18.6688C11.3056 18.6639 10.89 18.9032 10.6693 19.2936C10.4485 19.684 10.4576 20.1635 10.6929 20.5453C10.9283 20.927 11.3526 21.1506 11.8005 21.1288L18.8033 20.9956L18.6701 27.9984C18.6483 28.4463 18.8719 28.8707 19.2537 29.106C19.6354 29.3413 20.115 29.3504 20.5053 29.1297C20.8957 28.9089 21.135 28.4933 21.1301 28.0449L21.2401 20.9725L27.976 21.1061C28.424 21.128 28.8483 20.9044 29.0836 20.5227C29.3189 20.1409 29.3279 19.6614 29.1072 19.271C28.8864 18.8807 28.4708 18.6413 28.0224 18.6462L21.2168 18.4893L21.0599 11.6837C20.9938 11.0933 20.5153 10.6344 19.9227 10.5929Z" fill="#229A87"/>
</svg>
