<svg width="28" height="28" viewBox="0 0 28 28" fill="none" xmlns="http://www.w3.org/2000/svg">
<path d="M14 28C21.732 28 28 21.732 28 14C28 6.26801 21.732 0 14 0C6.26801 0 0 6.26801 0 14C0 21.732 6.26801 28 14 28Z" fill="url(#paint0_linear)"/>
<path d="M13.6671 7.12791C13.7719 6.80545 14.2281 6.80545 14.3329 7.12791L15.4024 10.4197C15.6233 11.0995 16.2569 11.5598 16.9717 11.5598H20.4329C20.7719 11.5598 20.9129 11.9937 20.6386 12.193L17.8384 14.2274C17.2601 14.6476 17.0181 15.3923 17.239 16.0722L18.3086 19.364C18.4134 19.6864 18.0443 19.9546 17.77 19.7553L14.9698 17.7208C14.3915 17.3007 13.6085 17.3007 13.0302 17.7208L10.23 19.7553C9.95569 19.9546 9.58662 19.6864 9.69139 19.364L10.761 16.0722C10.9819 15.3923 10.7399 14.6476 10.1616 14.2274L7.36139 12.193C7.08709 11.9937 7.22806 11.5598 7.56712 11.5598H11.0283C11.7431 11.5598 12.3767 11.0995 12.5976 10.4197L13.6671 7.12791Z" stroke="white" stroke-width="1.3"/>
<defs>
<linearGradient id="paint0_linear" x1="28" y1="-11" x2="-7" y2="43.5" gradientUnits="userSpaceOnUse">
<stop stop-color="#FFF120"/>
<stop offset="0.709228" stop-color="#FCD400"/>
</linearGradient>
</defs>
</svg>
