<svg width="28" height="26" viewBox="0 0 28 26" fill="none" xmlns="http://www.w3.org/2000/svg">
<path d="M14.9444 0.00026158C7.89711 0.090853 2.11471 5.8887 2.11471 13.0001C2.11471 15.2649 2.70198 17.4391 3.74101 19.2962C3.46996 19.9757 3.06338 20.6098 2.56646 21.1987C2.25023 21.561 1.88883 21.8781 1.43708 22.1499C1.03051 22.4216 0.578755 22.6934 0.0818295 22.8746C-0.0536956 22.9199 -0.00852057 23.0558 0.127005 23.1011C0.307705 23.1917 0.44323 23.237 0.62393 23.3276C0.940155 23.4634 1.30156 23.554 1.66296 23.6446C2.25023 23.8258 2.88268 23.9164 3.56031 23.9164C4.23793 23.9617 4.91556 23.8711 5.54801 23.7805C6.13528 23.6899 6.72256 23.554 7.26466 23.3728C9.43306 25.0035 12.1436 26 15.0799 26C22.2176 26 28 20.1569 28 13.0001C28 5.79811 22.1724 -0.0450341 14.9444 0.00026158ZM14.9896 20.5192C14.2668 20.5192 13.6343 19.8851 13.6343 19.1603C13.6343 18.4356 14.2216 17.8015 14.9896 17.8015C15.7576 17.8015 16.3448 18.345 16.3448 19.1151C16.3448 19.9304 15.8027 20.5192 14.9896 20.5192ZM17.3387 13.2266C16.8869 13.6343 16.39 14.0419 16.2997 14.7214C16.2997 15.1743 16.2545 15.7179 16.2545 16.2161C16.2545 16.4879 16.1641 16.5785 15.8931 16.5785C15.5769 16.5785 15.2606 16.5785 14.9444 16.5785C14.583 16.5785 14.2216 16.5785 13.9054 16.5785C13.7247 16.5785 13.6343 16.4879 13.6343 16.3067C13.5892 15.3102 13.5892 14.0419 13.9957 13.136C14.5378 11.9583 15.8027 11.6413 16.5255 10.5995C18.3325 8.10819 13.7699 6.47755 12.8212 9.51236C12.6857 9.96532 12.6405 9.96532 12.1887 9.92002C11.6015 9.82943 11.0142 9.78414 10.4269 9.69354C10.201 9.64825 10.1107 9.60295 10.1559 9.37647C10.5173 5.48104 15.9834 4.39395 18.6036 6.70403C19.3716 7.38346 19.9137 8.42526 19.9137 9.46707C19.9137 11.0977 18.4681 12.2301 17.3387 13.2266Z" fill="url(#paint0_linear)"/>
<defs>
<linearGradient id="paint0_linear" x1="28" y1="-10.2143" x2="5.18066" y2="30.7435" gradientUnits="userSpaceOnUse">
<stop stop-color="#FFC085"/>
<stop offset="1" stop-color="#FF9633"/>
</linearGradient>
</defs>
</svg>
