<svg width="44" height="30" viewBox="0 0 44 30" fill="none" xmlns="http://www.w3.org/2000/svg">
<path d="M35.0617 10.7527C36.0806 8.93272 37.9332 6.97619 41.0827 5.11066C41.9627 4.61016 42.5185 3.70015 42.5185 2.74463C42.5185 0.788104 40.4806 -0.576915 38.628 0.242097C33.2554 2.56263 24.3164 8.34121 24.3164 20.3079C24.3164 25.677 28.7164 29.9995 34.1817 29.9995C39.6469 29.9995 44.0006 25.677 44.0006 20.3534C44.0006 15.3028 40.0638 11.2078 35.0617 10.7527Z" fill="#229A87"/>
<path d="M10.6989 10.7527C11.7179 8.93272 13.5705 6.97619 16.72 5.11066C17.6 4.61016 18.1558 3.70015 18.1558 2.74463C18.1558 0.788104 16.1179 -0.576915 14.2653 0.242097C8.93895 2.56263 0 8.34121 0 20.3079C0 25.677 4.4 29.9995 9.81895 29.9995C15.2379 29.9995 19.6842 25.677 19.6842 20.3079C19.6842 15.3028 15.7474 11.2078 10.6989 10.7527Z" fill="#229A87"/>
</svg>
