<svg width="28" height="28" viewBox="0 0 28 28" fill="none" xmlns="http://www.w3.org/2000/svg">
<circle cx="14" cy="14.0002" r="14" fill="url(#paint0_linear)"/>
<path d="M19.421 14.0349C19.1 14.0136 18.8218 14.2701 18.8004 14.6122C18.7149 16.9428 16.8104 18.7815 14.478 18.7815C12.1028 18.7815 10.1555 16.8359 10.1555 14.4626C10.1555 12.0893 12.1028 10.1436 14.478 10.1436C15.1199 10.1436 15.7191 10.2719 16.2754 10.5498L14.585 11.1699C14.2854 11.2768 14.1142 11.6189 14.2426 11.9396C14.3282 12.1748 14.5636 12.3245 14.799 12.3245C14.8631 12.3245 14.9273 12.3031 15.0129 12.2817L18.0515 11.1699C18.2013 11.1057 18.3083 10.9988 18.3939 10.8705C18.4581 10.7209 18.4581 10.5712 18.4153 10.4215L17.3026 7.38544C17.1956 7.0861 16.8532 6.91505 16.5322 7.04334C16.2326 7.15024 16.0615 7.49234 16.1898 7.81306L16.8318 9.52354C16.1043 9.18144 15.3125 9.01039 14.4994 9.01039C11.4608 9.01039 9 11.4692 9 14.5053C9 17.5414 11.4608 20.0002 14.4994 20.0002C17.4737 20.0002 19.8918 17.6697 19.9988 14.6977C20.0202 14.3129 19.7634 14.0349 19.421 14.0349Z" fill="white" stroke="white" stroke-width="0.333333"/>
<defs>
<linearGradient id="paint0_linear" x1="28" y1="-10.9998" x2="2.5" y2="31.5002" gradientUnits="userSpaceOnUse">
<stop stop-color="#9ECCFF"/>
<stop offset="1" stop-color="#4692E8"/>
</linearGradient>
</defs>
</svg>
