<svg width="133" height="134" viewBox="0 0 133 134" fill="none" xmlns="http://www.w3.org/2000/svg">
<path d="M56.4498 22.9743C57.5899 21.0958 60.0977 20.6039 61.8615 21.9129L68.8724 27.116C70.0425 27.9844 71.6113 28.0914 72.8891 27.3902L80.5456 23.1884C82.4718 22.1313 84.889 22.9594 85.7618 24.9753L89.2308 32.9884C89.8098 34.3257 91.1146 35.203 92.5715 35.2346L101.301 35.4238C103.497 35.4714 105.176 37.3975 104.924 39.5802L103.922 48.2561C103.755 49.7041 104.446 51.1165 105.691 51.8724L113.155 56.4019C115.033 57.5414 115.524 60.0495 114.214 61.8141L109.009 68.8282C108.141 69.9988 108.033 71.5679 108.733 72.8456L112.931 80.5017C113.988 82.4278 113.159 84.8458 111.143 85.7195L103.13 89.1923C101.792 89.7719 100.915 91.0773 100.882 92.5344L100.69 101.266C100.641 103.462 98.7148 105.142 96.5326 104.891L87.8585 103.892C86.4108 103.725 84.9983 104.417 84.242 105.663L79.7103 113.13C78.5702 115.009 76.0624 115.5 74.2986 114.191L67.2877 108.988C66.1177 108.12 64.5489 108.013 63.2711 108.714L55.6146 112.916C53.6883 113.973 51.2711 113.145 50.3984 111.129L46.9293 103.116C46.3503 101.779 45.0456 100.901 43.5886 100.87L34.8589 100.681C32.6627 100.633 30.9838 98.7069 31.2359 96.5242L32.2382 87.8482C32.4055 86.4003 31.7143 84.9879 30.4687 84.2319L23.0049 79.7025C21.1271 78.563 20.6364 76.0549 21.9458 74.2903L27.1509 67.2762C28.0196 66.1056 28.1273 64.5365 27.4267 63.2587L23.2287 55.6027C22.1725 53.6766 23.0014 51.2586 25.0174 50.3849L33.0305 46.9121C34.3679 46.3325 35.2456 45.0271 35.2777 43.5699L35.4704 34.8387C35.5188 32.6421 37.4453 30.9621 39.6275 31.2135L48.3017 32.2124C49.7493 32.3791 51.1618 31.6873 51.9181 30.4412L56.4498 22.9743Z" fill="#505857"/>
<path d="M53.4498 20.9743C54.5899 19.0958 57.0977 18.6039 58.8615 19.9129L65.8724 25.116C67.0425 25.9844 68.6113 26.0914 69.8891 25.3902L77.5456 21.1884C79.4718 20.1313 81.889 20.9594 82.7618 22.9753L86.2308 30.9884C86.8098 32.3257 88.1146 33.203 89.5715 33.2346L98.3012 33.4238C100.497 33.4714 102.176 35.3975 101.924 37.5802L100.922 46.2561C100.755 47.7041 101.446 49.1165 102.691 49.8724L110.155 54.4019C112.033 55.5414 112.524 58.0495 111.214 59.8141L106.009 66.8282C105.141 67.9988 105.033 69.5679 105.733 70.8456L109.931 78.5017C110.988 80.4278 110.159 82.8458 108.143 83.7195L100.13 87.1923C98.7923 87.7719 97.9146 89.0773 97.8824 90.5344L97.6898 99.2656C97.6413 101.462 95.7148 103.142 93.5326 102.891L84.8585 101.892C83.4108 101.725 81.9983 102.417 81.242 103.663L76.7103 111.13C75.5702 113.009 73.0624 113.5 71.2986 112.191L64.2877 106.988C63.1177 106.12 61.5489 106.013 60.2711 106.714L52.6146 110.916C50.6883 111.973 48.2711 111.145 47.3984 109.129L43.9293 101.116C43.3503 99.7786 42.0456 98.9013 40.5886 98.8698L31.8589 98.6806C29.6627 98.633 27.9838 96.7069 28.2359 94.5242L29.2382 85.8482C29.4055 84.4003 28.7143 82.9879 27.4687 82.2319L20.0049 77.7025C18.1271 76.563 17.6364 74.0549 18.9458 72.2903L24.1509 65.2762C25.0196 64.1056 25.1273 62.5365 24.4267 61.2587L20.2287 53.6027C19.1725 51.6766 20.0014 49.2586 22.0174 48.3849L30.0305 44.9121C31.3679 44.3325 32.2456 43.0271 32.2777 41.5699L32.4704 32.8387C32.5188 30.6421 34.4453 28.9621 36.6275 29.2135L45.3017 30.2124C46.7493 30.3791 48.1618 29.6873 48.9181 28.4412L53.4498 20.9743Z" fill="#FF3D00"/>
</svg>
