<svg width="13" height="16" viewBox="0 0 13 16" fill="none" xmlns="http://www.w3.org/2000/svg">
<path d="M11.987 14.1536C11.987 10.6066 7.61877 9.58187 7.61877 8C7.61877 6.41813 11.987 5.39342 11.987 1.8464C12.5464 1.8464 13 1.43307 13 0.9232C13 0.413333 12.5464 0 11.987 0H1.01304C0.453556 0 0 0.413333 0 0.9232C0 1.43307 0.453556 1.8464 1.01304 1.8464C1.01304 5.39342 5.38103 6.41813 5.38103 8C5.38103 9.58187 1.01304 10.6066 1.01304 14.1536C0.453556 14.1536 0 14.5669 0 15.0768C0 15.5867 0.453556 16 1.01304 16H11.987C12.5464 16 13 15.5867 13 15.0768C13 14.5669 12.5464 14.1536 11.987 14.1536Z" fill="#229A87"/>
</svg>
