<svg width="40" height="40" viewBox="0 0 40 40" fill="none" xmlns="http://www.w3.org/2000/svg">
<circle cx="20" cy="20" r="20" fill="#DEF9F1"/>
<path d="M25.987 26.1536C25.987 22.6066 21.6188 21.5819 21.6188 20C21.6188 18.4181 25.987 17.3934 25.987 13.8464C26.5464 13.8464 27 13.4331 27 12.9232C27 12.4133 26.5464 12 25.987 12H15.013C14.4536 12 14 12.4133 14 12.9232C14 13.4331 14.4536 13.8464 15.013 13.8464C15.013 17.3934 19.381 18.4181 19.381 20C19.381 21.5819 15.013 22.6066 15.013 26.1536C14.4536 26.1536 14 26.5669 14 27.0768C14 27.5867 14.4536 28 15.013 28H25.987C26.5464 28 27 27.5867 27 27.0768C27 26.5669 26.5464 26.1536 25.987 26.1536Z" fill="#229A87"/>
</svg>
