<svg width="50" height="50" viewBox="0 0 50 50" fill="none" xmlns="http://www.w3.org/2000/svg">
<rect width="50" height="50" rx="10" fill="#64E1F1"/>
<mask id="mask0" mask-type="alpha" maskUnits="userSpaceOnUse" x="0" y="0" width="50" height="50">
<rect width="50" height="50" rx="10" fill="#57DDEE"/>
</mask>
<g mask="url(#mask0)">
<path d="M48 20V59.9965V60H4V59.9965V26C4 22.6863 6.68629 20 10 20H48Z" fill="#87EDF5"/>
<path d="M54 11V53H15V17C15 13.6863 17.6863 11 21 11H54Z" fill="#DDF6F9"/>
<path d="M36.1191 21C35.7758 21.0006 35.4341 21.0443 35.1025 21.13L34.9996 21.1633C34.8399 21.2283 34.7064 21.3419 34.6191 21.4869L26.1403 35.4379C26.069 35.5584 26.0324 35.6952 26.0343 35.8341L26 40.2405C26.0023 40.3574 26.0319 40.4723 26.0865 40.5765C26.1411 40.6808 26.2193 40.7717 26.3154 40.8424C26.4114 40.9131 26.5227 40.9618 26.6409 40.9848C26.7591 41.0079 26.8811 41.0046 26.9979 40.9754L27.1008 40.9421L27.1912 40.8967L31.1235 38.689C31.2437 38.6214 31.3437 38.5244 31.4135 38.4078L39.8923 24.4628C39.9984 24.2854 40.0275 24.0744 39.9734 23.8761C39.7473 23.0519 39.247 22.3231 38.55 21.803C37.853 21.283 36.9985 21.0007 36.1191 21Z" fill="#50DBEE"/>
</g>
</svg>
