<svg width="50" height="50" viewBox="0 0 50 50" fill="none" xmlns="http://www.w3.org/2000/svg">
<rect width="50" height="50" rx="10" fill="#3FD199"/>
<mask id="mask0" mask-type="alpha" maskUnits="userSpaceOnUse" x="0" y="0" width="50" height="50">
<rect width="50" height="50" rx="10" fill="#FF9633"/>
</mask>
<g mask="url(#mask0)">
<path d="M56 17V50H14V23C14 19.6863 16.6863 17 20 17H56Z" fill="#64DEAF"/>
<path d="M65 7V44H34C30.6863 44 28 41.3137 28 38V13C28 9.68629 30.6863 7 34 7H65Z" fill="#F0FFF9"/>
<path d="M22.1225 22H7.87745C6.84056 22 6 22.6716 6 23.5C6 24.3284 6.84056 25 7.87745 25H22.1225C23.1594 25 24 24.3284 24 23.5C24 22.6716 23.1594 22 22.1225 22Z" fill="#85FFCE"/>
<path d="M22.1225 28H7.87745C6.84056 28 6 28.6716 6 29.5C6 30.3284 6.84056 31 7.87745 31H22.1225C23.1594 31 24 30.3284 24 29.5C24 28.6716 23.1594 28 22.1225 28Z" fill="#85FFCE"/>
<path d="M22.1225 34H7.87745C6.84056 34 6 34.6716 6 35.5C6 36.3284 6.84056 37 7.87745 37H22.1225C23.1594 37 24 36.3284 24 35.5C24 34.6716 23.1594 34 22.1225 34Z" fill="#85FFCE"/>
</g>
</svg>
