<svg width="50" height="50" viewBox="0 0 50 50" fill="none" xmlns="http://www.w3.org/2000/svg">
<rect width="50" height="50" rx="10" fill="#FF8145"/>
<mask id="mask0" mask-type="alpha" maskUnits="userSpaceOnUse" x="0" y="0" width="50" height="50">
<rect width="50" height="50" rx="10" fill="#FF9633"/>
</mask>
<g mask="url(#mask0)">
<path d="M70.1836 7C75.7064 7 80.1836 11.4772 80.1836 17V44C80.1836 49.5228 75.7064 54 70.1836 54H22.187C22.1851 54 22.1836 53.9985 22.1836 53.9966V17C22.1836 11.4772 26.6607 7 32.1836 7H70.1836Z" fill="#FFA87D"/>
<path d="M60.6738 13.1226C66.1967 13.1226 70.6738 17.5997 70.6738 23.1226V50.1226C70.6738 55.6454 66.1967 60.1226 60.6738 60.1226H22.6738C17.151 60.1226 12.6738 55.6454 12.6738 50.1226V23.1226C12.6738 17.5997 17.151 13.1226 22.6738 13.1226H60.6738Z" fill="#FFDDCC"/>
<path d="M65 19.2449V66.2449H7V66.2415V29.2449C7 23.722 11.4772 19.2449 17 19.2449H65Z" fill="#FFF7F0"/>
<path d="M34.7734 30.6052C34.4904 30.4035 34.1417 30.3257 33.8034 30.3889C33.4651 30.452 33.1647 30.651 32.9678 30.9424L28.3593 37.7413L26.0523 34.3418C25.8546 34.0507 25.5532 33.8527 25.2143 33.7913C24.8754 33.7299 24.5269 33.8103 24.2453 34.0146C23.9637 34.219 23.7722 34.5306 23.7128 34.881C23.6535 35.2314 23.7312 35.5918 23.9288 35.8829L27.3126 40.8207C27.5048 41.1014 27.7937 41.2952 28.12 41.3622C28.4463 41.4291 28.7849 41.3641 29.0662 41.1804L29.1045 41.1578C29.1374 41.1323 29.1648 41.1039 29.195 41.0785L29.2881 40.9963L29.3402 40.9311C29.3742 40.8953 29.4063 40.8575 29.4361 40.8178L35.094 32.475C35.2898 32.1826 35.366 31.822 35.306 31.4719C35.2459 31.1217 35.0545 30.8102 34.7734 30.6052Z" fill="#FF8845"/>
</g>
</svg>
