<svg width="50" height="50" viewBox="0 0 50 50" fill="none" xmlns="http://www.w3.org/2000/svg">
<rect y="0.000244141" width="50" height="50" rx="10" fill="#FF9633"/>
<mask id="mask0" mask-type="alpha" maskUnits="userSpaceOnUse" x="0" y="0" width="50" height="51">
<rect y="0.000244141" width="50" height="50" rx="10" fill="#FF9633"/>
</mask>
<g mask="url(#mask0)">
<path d="M50 23.0002V54.9974V55.0002H6V54.9974V29.0002C6 25.6865 8.68629 23.0002 12 23.0002H50Z" fill="#FFC085"/>
<path d="M54 14.0002V56.0002H15V20.0002C15 16.6865 17.6863 14.0002 21 14.0002H54Z" fill="#FFF7F0"/>
<path d="M43.5431 26.0002H22.4569C21.6523 26.0002 21 26.6718 21 27.5002C21 28.3287 21.6523 29.0002 22.4569 29.0002H43.5431C44.3477 29.0002 45 28.3287 45 27.5002C45 26.6718 44.3477 26.0002 43.5431 26.0002Z" fill="#FFC085"/>
<path d="M43.5431 31.4148H22.4569C21.6523 31.4148 21 32.0864 21 32.9148C21 33.7432 21.6523 34.4148 22.4569 34.4148H43.5431C44.3477 34.4148 45 33.7432 45 32.9148C45 32.0864 44.3477 31.4148 43.5431 31.4148Z" fill="#FFC085"/>
</g>
</svg>
