<svg width="50" height="50" viewBox="0 0 50 50" fill="none" xmlns="http://www.w3.org/2000/svg">
<rect y="0.000244141" width="50" height="50" rx="10" fill="#9ECCFF"/>
<mask id="mask0" mask-type="alpha" maskUnits="userSpaceOnUse" x="0" y="0" width="50" height="51">
<rect y="0.000244141" width="50" height="50" rx="10" fill="#4692E8"/>
</mask>
<g mask="url(#mask0)">
<path d="M73.7354 20.1116H23.5846C19.5619 20.1116 16.3008 23.3727 16.3008 27.3954V65.8428C16.3008 69.8656 19.5619 73.1267 23.5846 73.1267H73.7354C77.7582 73.1267 81.0193 69.8656 81.0193 65.8428V27.3954C81.0193 23.3727 77.7582 20.1116 73.7354 20.1116Z" fill="#DFEEFF"/>
<g style="mix-blend-mode:multiply" opacity="0.24">
<path d="M41.8757 30.3771C41.8787 33.3426 40.9945 36.2412 39.3369 38.7002C37.6793 41.1592 35.324 43.066 32.5739 44.1756C29.8237 45.2852 26.8046 45.5467 23.9046 44.9265C21.0047 44.3064 18.3566 42.8329 16.3008 40.6956V27.4143C16.2983 26.4562 16.4849 25.507 16.8498 24.6211C17.2148 23.7352 17.7509 22.93 18.4275 22.2516C19.1041 21.5733 19.9079 21.0351 20.7929 20.6678C21.6778 20.3006 22.6265 20.1116 23.5847 20.1116H37.7626C40.4081 22.8737 41.882 26.5525 41.8757 30.3771Z" fill="#4692E8"/>
</g>
<path d="M24 41.0002C32.2843 41.0002 39 34.2845 39 26.0002C39 17.716 32.2843 11.0002 24 11.0002C15.7157 11.0002 9 17.716 9 26.0002C9 34.2845 15.7157 41.0002 24 41.0002Z" fill="#4692E8"/>
<path d="M19.0313 20.0576V31.2618C19.0308 31.5098 19.0964 31.7535 19.2213 31.9677C19.3461 32.182 19.5258 32.359 19.7416 32.4806C19.9575 32.6021 20.2018 32.6639 20.4495 32.6594C20.6971 32.655 20.939 32.5845 21.1504 32.4553L30.3604 26.855C30.5652 26.7302 30.7345 26.5547 30.852 26.3453C30.9695 26.136 31.0312 25.8998 31.0312 25.6597C31.0312 25.4195 30.9695 25.1834 30.852 24.974C30.7345 24.7647 30.5652 24.5892 30.3604 24.4643L21.1504 18.8641C20.939 18.7348 20.6971 18.6643 20.4495 18.6599C20.2018 18.6554 19.9575 18.7172 19.7416 18.8388C19.5258 18.9603 19.3461 19.1374 19.2213 19.3516C19.0964 19.5658 19.0308 19.8095 19.0313 20.0576Z" fill="#F5F4F4"/>
</g>
</svg>
