<svg width="56" height="56" viewBox="0 0 56 56" fill="none" xmlns="http://www.w3.org/2000/svg">
<g filter="url(#filter0_d)">
<rect x="8" y="5" width="40" height="40" rx="6" fill="white"/>
</g>
<path fill-rule="evenodd" clip-rule="evenodd" d="M23.7174 15.2L25.0374 19.16V21.8H25.9174V19.16L27.2374 15.2H26.3574L25.4774 17.84L24.5974 15.2H23.7174ZM28.5574 16.96C28.0882 16.96 27.8579 17.0339 27.5709 17.2693C27.2959 17.5014 27.2202 17.6801 27.2374 18.28V20.48C27.2374 20.9182 27.3096 21.207 27.5743 21.4631C27.8493 21.7192 28.1088 21.8 28.5574 21.8C29.0266 21.8 29.2827 21.7192 29.5474 21.4631C29.8224 21.2173 29.8774 20.9182 29.8774 20.48V18.28C29.8774 17.8915 29.8087 17.5237 29.5423 17.2779C29.2673 17.0253 28.9837 16.96 28.5574 16.96ZM30.7574 16.96V20.92C30.7574 21.3479 31.1888 21.8 31.6374 21.8C32.086 21.8 32.3232 21.5748 32.5174 21.36V21.8H33.3974V16.96H32.5174V20.48C32.5123 20.7807 32.1582 20.92 32.0774 20.92C31.9863 20.92 31.6374 20.901 31.6374 20.48V16.96H30.7574ZM28.5574 17.84C28.6898 17.84 28.9974 17.8382 28.9974 18.28V20.48C28.9974 20.9062 28.7001 20.92 28.5574 20.92C28.4251 20.92 28.1174 20.9148 28.1174 20.48V18.28C28.1174 17.9207 28.3082 17.84 28.5574 17.84ZM22.3974 22.68C20.8162 22.68 19.7574 23.7284 19.7574 25.32V29.5C19.7574 31.0915 20.8162 32.36 22.3974 32.36H35.5974C37.1787 32.36 38.2374 31.3115 38.2374 29.72V25.32C38.2374 23.7284 37.1787 22.68 35.5974 22.68H22.3974ZM23.2774 24.44H25.9174V25.32H25.0374V30.6H24.1574V25.32H23.2774V24.44ZM29.4374 24.44H30.3174V26.2C30.4188 26.0418 30.5701 25.9164 30.7144 25.8459C30.8554 25.7737 30.998 25.7325 31.1424 25.7325C31.4277 25.7325 31.6512 25.8356 31.8041 26.0281C31.9571 26.2223 32.0774 26.4801 32.0774 26.86V29.5C32.0774 29.8265 31.9674 30.0293 31.823 30.2029C31.6821 30.3765 31.4707 30.5965 31.1974 30.6C30.7351 30.6051 30.4876 30.3576 30.3174 30.16V30.6H29.4374V24.44ZM25.9174 25.76H26.7974V29.28C26.7974 29.3814 26.916 29.7234 27.2374 29.72C27.5949 29.7165 27.5984 29.3831 27.6774 29.28V25.76H28.5574V30.6H27.6774V30.16C27.5141 30.3525 27.4299 30.4126 27.246 30.5037C27.0638 30.6068 26.8782 30.6 26.7063 30.6C26.4932 30.6 26.2509 30.4075 26.1374 30.2631C26.036 30.1307 25.9174 29.995 25.9174 29.72V25.76ZM33.9251 25.76C34.3427 25.76 34.6366 25.8493 34.8584 26.0831C35.0852 26.3168 35.1574 26.5901 35.1574 27.0301V28.4H33.3974V29.0806C33.3974 29.3264 33.4301 29.4828 33.4937 29.5756C33.5538 29.677 33.6759 29.7217 33.8374 29.72C34.0162 29.7182 34.1296 29.6821 34.1898 29.6014C34.2516 29.5292 34.2774 29.3246 34.2774 29.06V28.84H35.1574V29.1012C35.1574 29.5807 35.1196 29.9382 34.8824 30.172C34.659 30.4178 34.3101 30.5312 33.8529 30.5312C33.4352 30.5312 33.1087 30.4075 32.8749 30.1531C32.6412 29.8987 32.5191 29.5498 32.5191 29.1012V27.0301C32.5191 26.6314 32.6584 26.3357 32.9144 26.0728C33.1207 25.8614 33.5074 25.76 33.9251 25.76ZM30.7574 26.42C30.5151 26.42 30.3209 26.6382 30.3174 26.86V29.5C30.3209 29.6271 30.5151 29.72 30.7574 29.72C30.9998 29.72 31.1974 29.5326 31.1974 29.2903V27.08C31.1974 26.64 30.9998 26.42 30.7574 26.42ZM33.8374 26.64C33.5951 26.64 33.4009 26.8445 33.3974 27.08V27.52H34.2774V27.08C34.2774 26.8101 34.0798 26.64 33.8374 26.64Z" fill="#505857"/>
<defs>
<filter id="filter0_d" x="0" y="0" width="56" height="56" filterUnits="userSpaceOnUse" color-interpolation-filters="sRGB">
<feFlood flood-opacity="0" result="BackgroundImageFix"/>
<feColorMatrix in="SourceAlpha" type="matrix" values="0 0 0 0 0 0 0 0 0 0 0 0 0 0 0 0 0 0 127 0"/>
<feOffset dy="3"/>
<feGaussianBlur stdDeviation="4"/>
<feColorMatrix type="matrix" values="0 0 0 0 0.847059 0 0 0 0 0.854902 0 0 0 0 0.882353 0 0 0 0.8 0"/>
<feBlend mode="normal" in2="BackgroundImageFix" result="effect1_dropShadow"/>
<feBlend mode="normal" in="SourceGraphic" in2="effect1_dropShadow" result="shape"/>
</filter>
</defs>
</svg>
