<svg width="24" height="24" viewBox="0 0 24 24" fill="none" xmlns="http://www.w3.org/2000/svg">
<circle cx="12" cy="12.0001" r="12" fill="#DEF9F1"/>
<path fill-rule="evenodd" clip-rule="evenodd" d="M16.7122 7.31137C16.369 6.96856 15.813 6.96856 15.4698 7.31137L12.1351 10.781L8.50748 7.26448C8.28347 7.0355 7.95266 6.9465 7.64401 7.03217C7.33536 7.11783 7.09774 7.36462 7.02378 7.6763C6.94982 7.98798 7.05123 8.31523 7.28849 8.53045L10.8927 12.0001L7.28849 15.4698C7.05123 15.685 6.94982 16.0123 7.02378 16.3239C7.09774 16.6356 7.33536 16.8824 7.64401 16.9681C7.95266 17.0537 8.28347 16.9647 8.50748 16.7358L12.1351 13.2192L15.4698 16.6889C15.685 16.9261 16.0122 17.0276 16.3239 16.9536C16.6355 16.8796 16.8823 16.642 16.968 16.3333C17.0536 16.0247 16.9646 15.6938 16.7357 15.4698L13.3776 11.9532L16.7357 8.43667C17.0004 8.10507 16.9906 7.63166 16.7122 7.31137Z" fill="#229A87"/>
</svg>
