<svg width="24" height="18" viewBox="0 0 24 18" fill="none" xmlns="http://www.w3.org/2000/svg">
<path d="M20.8229 10.4857L20.6502 10.1688C20.0173 9.00912 19.0848 7.90454 17.9657 6.97542L20.0087 5.69834C20.2102 5.57202 20.2715 5.30717 20.1455 5.10631C20.0199 4.90544 19.7548 4.84409 19.553 4.96943L17.2394 6.41505C17.1317 6.3382 17.0223 6.26366 16.9123 6.19044C15.9652 5.55784 14.9724 5.0852 13.9644 4.77945L14.9704 1.68437C15.0437 1.45844 14.9201 1.21536 14.6941 1.14214C14.4684 1.06892 14.2261 1.19294 14.1522 1.41788L13.1293 4.56671C12.5103 4.43676 11.8886 4.37047 11.2722 4.37047C10.6549 4.37047 10.0336 4.43676 9.41421 4.56572L8.39125 1.41821C8.31802 1.19294 8.07512 1.06925 7.84945 1.14214C7.62378 1.21536 7.50051 1.45811 7.57308 1.68437L8.57881 4.77978C7.57109 5.0852 6.57829 5.55816 5.63154 6.19044C5.52086 6.26366 5.41151 6.33952 5.30414 6.41538L2.9898 4.96943C2.78799 4.84311 2.52322 4.90412 2.3973 5.10664C2.27171 5.3075 2.33268 5.57268 2.53416 5.69867L4.57776 6.97542C3.63367 7.7604 2.82411 8.67072 2.21571 9.63282C2.10072 9.81422 1.99335 9.99596 1.89294 10.1783L1.83197 10.2895L1.72494 10.4775C1.64507 10.617 1.64507 10.7892 1.72494 10.9297L1.90388 11.2417C2.72271 12.7457 4.0469 14.1547 5.63154 15.2131C7.41833 16.4051 9.36915 17.0354 11.2719 17.0354C13.174 17.0354 15.1245 16.4051 16.9123 15.2131C18.4986 14.1547 19.8254 12.7434 20.6506 11.2368L20.8229 10.9211C20.8968 10.7852 20.8968 10.6223 20.8229 10.4857ZM19.8516 10.8001C18.4035 13.4469 14.991 16.1261 11.2719 16.1261C7.54657 16.1261 4.14035 13.4469 2.70084 10.8014C2.69952 10.7994 2.69753 10.7951 2.6962 10.7931L2.64451 10.7024L2.6962 10.6114C2.69753 10.6094 2.69952 10.6061 2.70084 10.6032C2.78601 10.4458 2.87813 10.2905 2.97589 10.1348C4.5549 7.65453 7.77754 5.28969 11.2722 5.28969C14.9969 5.28969 18.4038 7.96786 19.8423 10.614C19.8443 10.6164 19.846 10.6193 19.8476 10.6223L19.8864 10.6912H19.898L19.905 10.7041L19.8516 10.8001ZM11.2722 7.25214C9.36617 7.25214 7.82128 8.79737 7.82128 10.7034C7.82128 12.6085 9.36583 14.1544 11.2722 14.1544C13.1777 14.1544 14.7229 12.6085 14.7229 10.7034C14.7225 8.79737 13.1773 7.25214 11.2722 7.25214ZM11.2722 13.2441C9.87085 13.2441 8.73158 12.1032 8.73158 10.7024C8.73158 9.302 9.87085 8.16114 11.2722 8.16114C12.6733 8.16114 13.8129 9.30035 13.8129 10.7024C13.8126 12.1032 12.6733 13.2441 11.2722 13.2441Z" fill="#229A87" stroke="#229A87" stroke-width="0.6"/>
<rect x="0.179777" y="-0.678601" width="2.99771" height="25.1696" rx="1.49886" transform="matrix(0.508641 0.860979 -0.868195 0.496223 21.4831 2.91107)" fill="#229A87" stroke="white"/>
</svg>
