<svg width="80" height="25" viewBox="0 0 80 25" fill="none" xmlns="http://www.w3.org/2000/svg">
<path fill-rule="evenodd" clip-rule="evenodd" d="M44.6999 15.6274C44.4845 15.6655 44.289 15.7732 44.1657 15.7087C43.7553 15.494 43.3116 15.4871 42.8849 15.393C42.3619 15.2774 41.7994 15.3086 41.2994 15.1726C40.6125 14.9859 39.9099 14.848 39.2239 14.7312C38.5167 14.6105 37.8275 14.3644 37.1035 14.3269C36.7796 14.31 36.464 14.1096 36.1418 14.0017C36.1073 13.9902 36.0556 14.0407 36 14.0687C36.0043 14.142 36.0091 14.2202 36.0151 14.3199C36.4403 14.3866 36.8904 14.3624 37.2594 14.5435C37.5907 14.7058 37.9551 14.5489 38.2017 14.7169C38.4982 14.9189 38.8369 14.7175 39.0586 14.9211C39.3195 15.1609 39.6214 14.8985 39.8548 15.0926C40.1345 15.3251 40.4778 15.091 40.7384 15.2257C41.1042 15.415 41.5465 15.2257 41.8245 15.4261C42.2012 15.6976 42.6578 15.3321 42.9623 15.7294C43.3746 15.6271 43.7479 15.8529 44.142 15.9028C44.5875 15.9593 45.0578 15.9384 45.4699 16.1C45.8214 16.2382 46.2056 16.1226 46.4864 16.2826C46.7469 16.4313 47.0097 16.3096 47.2067 16.4386C47.4723 16.6123 47.7377 16.5589 48.0051 16.6031C48.228 16.6399 48.452 16.6888 48.6741 16.7476C49.0824 16.8559 49.4897 17.0258 49.926 16.9448C50.027 16.9261 50.19 16.8946 50.2273 16.9502C50.4608 17.2967 50.8195 16.9874 51.0815 17.1824C51.38 17.4044 51.7281 17.2468 52.0523 17.2865C52.1548 17.2993 52.2977 17.2399 52.3562 17.2973C52.5763 17.5117 52.8662 17.3688 53.0674 17.4816C53.3448 17.6365 53.5588 17.4133 53.8034 17.4593C54.1689 17.5273 54.5371 17.5813 54.9052 17.6337C55.2194 17.6785 55.5347 17.7121 55.888 17.7556C55.8989 17.7455 55.9522 17.695 55.9825 17.6664C56.1651 17.7709 56.3281 17.8643 56.4511 17.9351C56.7755 17.7556 57.0586 17.741 57.34 17.9208C57.6505 18.119 57.9145 17.8941 58.1844 17.8011C58.4952 17.694 58.7252 18.2041 59.0991 17.8655C59.2866 17.6959 59.671 17.7947 60 17.7699C59.5006 17.4504 58.9969 17.3901 58.5035 17.4749C57.9958 17.5629 57.5258 17.1513 57.023 17.3926C56.7285 17.1506 56.4622 17.3275 56.1863 17.479C56.0541 17.3485 55.9248 17.2205 55.7767 17.0738C55.6049 17.149 55.4506 17.217 55.2885 17.2881C55.0613 17.1112 54.8239 16.9871 54.5844 17.277C54.4863 17.1681 54.3947 17.0661 54.2874 16.9464C53.7038 16.9143 53.0948 17.0191 52.5066 16.7762C52.2581 16.6736 51.9838 16.624 51.7179 16.6018C51.2187 16.5605 50.7248 16.5488 50.2222 16.4598C49.686 16.3652 49.1478 16.1273 48.5793 16.2375C48.4871 16.2556 48.3713 16.121 48.2605 16.053C48.1915 16.1181 48.1316 16.2213 48.0793 16.2169C47.6621 16.1813 47.2455 16.1315 46.8308 16.0695C46.7678 16.06 46.7147 15.9654 46.6565 15.9101C46.6039 15.9634 46.5483 16.0193 46.4641 16.1051C46.2689 15.9939 46.0612 15.8755 45.8528 15.757C45.8354 15.7767 45.8195 15.8104 45.7983 15.8154C45.4607 15.8917 45.1491 15.6217 44.8041 15.7202C44.7619 15.7322 44.6908 15.6189 44.6999 15.6274ZM12.3434 8.66276C12.3176 8.55948 12.3002 8.49064 12.2733 8.38344C12.2119 8.42878 12.164 8.46461 12.1101 8.50491C11.7302 8.2936 11.3489 8.06858 10.956 7.86678C10.4289 7.59614 9.88971 7.3644 9.38417 7.03442C8.95517 6.75454 8.41233 6.59389 8.05286 6.22865C7.71275 5.88412 7.16655 5.92358 6.90606 5.49956C6.38705 5.43015 6.13134 4.94232 5.69477 4.73549C5.56635 4.67476 5.47999 4.56392 5.3067 4.55413C5.13202 4.54377 5.13426 4.50207 4.93883 4.13487C4.88527 4.12731 4.81518 4.11528 4.74452 4.10884C4.69433 4.10408 4.60712 4.12367 4.59759 4.10352C4.36711 3.61569 3.72249 3.738 3.44742 3.32154C3.42135 3.28235 3.40452 3.20679 3.3762 3.20287C2.5712 3.09679 2.0878 2.39682 1.37476 2.12841C1.10783 2.02765 0.999879 1.74973 0.748928 1.64114C0.641537 1.5944 0.542278 1.52779 0.426476 1.46314C0.395914 1.34363 0.383296 1.19389 0.318806 1.0713C0.254035 0.948158 0.137673 0.851599 -6.06103e-08 0.693188C0.410214 0.511826 0.794071 0.655124 1.14232 0.469564C0.860804 0.45641 0.57929 0.443255 0.277588 0.428981C0.260765 0.366848 0.242259 0.298277 0.223753 0.230547C1.19419 -0.0795599 1.20765 -0.112306 2.34604 0.352854C3.15133 0.682273 4.01886 0.8975 4.70891 1.47461C5.37063 1.62351 5.89553 2.05424 6.48659 2.34728C7.29244 2.74694 8.05679 3.22834 8.85395 3.64564C9.85719 4.17125 10.8725 4.6742 11.8889 5.17434C12.8403 5.64258 13.8211 6.03917 14.8106 6.42484C15.4634 6.67925 16.1094 6.97845 16.7635 7.24377C17.418 7.5091 18.0814 7.75259 18.7428 8.00113C19.2279 8.18305 19.7037 8.42402 20.2065 8.51694C20.7384 8.61518 21.1365 8.98994 21.6575 9.0851C21.9861 9.14527 22.2808 9.36274 22.6386 9.29977C22.6879 9.29081 22.7552 9.27766 22.7892 9.30145C23.3513 9.70028 24.0414 9.72407 24.6664 9.93705C25.3158 10.1582 25.9803 10.3362 26.6429 10.5161C27.0093 10.6158 27.3856 10.6667 27.7409 10.8195C28.1601 10.9998 28.6309 10.974 29.0677 11.1204C29.6069 11.3009 30.1719 11.4238 30.7254 11.5357C31.2663 11.6452 31.8052 11.7663 32.339 11.8996C33.3801 12.159 34.454 12.2768 35.473 12.6348C35.7424 12.7297 36.0329 12.6698 36.3279 12.784C36.7255 12.9382 37.2532 12.7997 37.6141 12.9933C38.0125 13.2069 38.4749 12.9264 38.8038 13.2673C39.5931 13.245 40.335 13.573 41.1232 13.5805C41.3573 13.5825 41.5903 13.6768 41.8244 13.7249C42.0832 13.7784 42.3417 13.833 42.6022 13.8764C42.8389 13.9161 43.1128 13.7806 43.3029 14.0309C43.7033 13.9774 44.0791 14.1442 44.464 14.168C44.9573 14.1985 45.4227 14.449 45.9285 14.3362C46.2078 14.6469 46.6646 14.3323 46.9587 14.6273C47.01 14.6788 47.1533 14.6385 47.2542 14.6418C47.5464 14.6513 47.8273 14.6315 48.1159 14.7793C48.3629 14.9058 48.6806 14.7191 48.9772 14.9254C49.1483 15.044 49.4693 14.9466 49.7119 14.9466C49.8125 15.0474 49.9028 15.1372 49.9956 15.2301C50.4128 14.9469 50.758 15.1355 51.0948 15.3978C51.3101 15.14 51.6553 15.1803 51.8513 15.2884C52.1036 15.4269 52.3324 15.3958 52.5707 15.4C53.2667 15.4123 53.9416 15.6396 54.6493 15.5738C54.8313 15.5568 55.0317 15.7404 55.2182 15.8291C55.3116 15.7933 55.4167 15.7367 55.5286 15.7132C55.8415 15.6472 56.1396 15.8084 56.4769 15.735C56.7564 15.6743 57.1041 15.7865 57.3812 15.9114C57.5337 15.9799 57.5858 15.8758 57.6585 15.8823C58.0704 15.9195 58.5033 15.7149 58.9017 16.0046C59.0018 16.0771 59.1998 16.0155 59.3526 16.0155C60.4484 16.0155 61.5441 16.0121 62.6399 16.0183C62.8869 16.0194 63.1505 16.0062 63.3759 16.0857C63.6075 16.1675 63.7469 15.9005 63.969 16.0088C64.1125 16.079 64.2869 16.086 64.4745 16.1269C64.6416 16.0952 64.8514 16.0244 65.0622 16.0208C65.8773 16.0074 66.6963 15.9704 67.5078 16.027C68.5178 16.0975 69.5025 15.8809 70.5018 15.8344C71.2219 15.8011 71.9299 15.5058 72.6995 15.3135C72.8409 15.3653 73.0554 15.444 73.2864 15.5285C73.3136 15.5047 73.3677 15.4566 73.4336 15.3981C73.5727 15.5652 73.7112 15.7317 73.8735 15.9268C73.4409 16.037 73.0775 16.1294 72.6519 16.238C72.7621 16.3922 72.8308 16.4882 72.9135 16.6041L73.7017 16.6041C73.8004 16.7029 73.8724 16.7751 74 16.9021C73.8245 17.0326 73.6492 17.163 73.4471 17.3136C73.599 17.3723 73.6865 17.4062 73.7824 17.4434C73.8752 17.866 73.5979 18.1196 73.3447 18.3813C73.393 18.4348 73.4403 18.4882 73.4524 18.5017C73.2682 18.683 73.0904 18.8579 72.8781 19.067C72.676 19.0186 72.4245 18.7547 72.1233 18.9864C72.1713 19.0404 72.2195 19.0944 72.3104 19.1963C71.9764 19.1426 71.6859 19.0956 71.3957 19.0488C71.3865 19.0872 71.3769 19.1263 71.3674 19.165C71.5084 19.1988 71.6495 19.2327 71.8357 19.2772C71.645 19.376 71.4902 19.4563 71.2897 19.5602C71.2468 19.4712 71.2095 19.3947 71.1378 19.247C71.0158 19.2397 70.8282 19.2285 70.5991 19.2151C70.6633 19.3668 70.7102 19.4773 70.796 19.6794C70.6095 19.6794 70.49 19.6878 70.372 19.678C69.5188 19.6072 68.6933 19.8966 67.8353 19.8437C66.972 19.7905 66.1019 19.8554 65.2375 19.8129C65.0535 19.8039 64.9411 20.0894 64.7252 19.8803C64.6585 19.8157 64.3926 19.9573 64.3245 19.8924C64.0783 19.6584 63.992 20.0141 63.794 19.9996C63.4502 19.9741 63.1513 19.8031 62.7877 19.8171C61.6936 19.8588 60.5964 19.8456 59.5009 19.8249C59.0882 19.8174 58.678 19.7099 58.2644 19.685C57.8402 19.6595 57.4134 19.6794 56.9892 19.6489C57.6133 19.4751 59.0848 19.4947 59.7505 19.5867C59.6363 19.5526 59.5225 19.5185 59.4084 19.4843C59.442 19.4476 59.476 19.411 59.5096 19.374C59.0523 19.374 58.593 19.3488 58.1379 19.3799C57.4852 19.4247 56.8675 19.1087 56.213 19.2215C55.984 19.0183 55.6523 19.1644 55.4473 19.048C55.1206 18.8627 54.8464 19.2089 54.5119 19.011C54.2593 18.8616 53.8844 18.9181 53.4955 18.8756C53.4652 18.8509 53.376 18.7785 53.2869 18.706C53.3028 18.6724 53.3188 18.6388 53.3345 18.6052C54.0722 18.6827 54.81 18.7603 55.5847 18.842C55.6068 18.8227 55.6823 18.7572 55.7577 18.6917C55.6761 18.6102 55.604 18.5383 55.532 18.4667C55.4577 18.5218 55.3834 18.5769 55.2227 18.6964C55.1792 18.521 55.1389 18.3578 55.0985 18.1946L54.9406 18.3281C54.8711 18.3626 54.8013 18.3973 54.7135 18.4406C54.6975 18.3637 54.6832 18.294 54.6625 18.1938C54.3574 18.1193 54.0327 18.0404 53.7044 17.9604C53.6385 18.0997 53.5891 18.2041 53.533 18.3228C53.2661 18.2257 53.0054 18.1311 52.7536 18.0396C52.6787 18.0838 52.5977 18.1322 52.4847 18.1991C52.3307 18.0046 52.1908 17.8274 52.0506 17.6503C51.9668 17.7337 51.9306 17.7698 51.8779 17.8224C51.7478 17.7589 51.611 17.6922 51.4657 17.6214C51.5425 17.547 51.6154 17.4765 51.6951 17.3995C51.7447 17.4426 51.7974 17.4885 51.8782 17.5587C52.0086 17.4994 52.1558 17.432 52.3203 17.3569C52.3624 17.477 52.3933 17.5657 52.4263 17.6601C52.6406 17.5876 52.8528 17.5156 53.0881 17.4359C53.3858 17.6735 53.7731 17.4762 54.1592 17.5618C54.241 17.6393 54.349 17.7415 54.4572 17.8434C54.6695 17.5663 54.9802 17.7633 55.2729 17.6637C55.2771 17.596 55.2824 17.5092 55.2917 17.3547C55.1832 17.4392 55.133 17.4779 55.0418 17.5489C54.9673 17.4381 54.8857 17.3172 54.7993 17.189C54.67 17.3259 54.5834 17.4177 54.4839 17.5232C54.3224 17.4406 54.1628 17.3589 53.9949 17.2727C53.7719 17.4918 53.5532 17.367 53.3037 17.2456C53.0937 17.1431 52.8461 17.1176 52.5993 17.0544C52.5489 16.9657 52.4861 16.8557 52.3607 16.6357C52.2693 16.8568 52.2281 16.9564 52.1661 17.1065C51.9429 17.074 51.7052 17.0396 51.4674 17.0043C51.2274 16.9688 50.9428 17.0004 50.7583 16.88C50.5107 16.718 50.3568 17.0927 50.1044 16.8946C49.9353 16.7616 49.6437 16.784 49.409 16.7373C49.3016 16.8937 49.2215 17.011 49.0712 17.231C49.3552 17.2055 49.5276 17.1899 49.789 17.1661C49.7744 17.1526 49.8431 17.2162 49.9308 17.2971C49.8919 17.3471 49.8535 17.3961 49.8036 17.4608C49.84 17.5053 49.8823 17.5568 49.9236 17.6069C49.8969 17.634 49.8658 17.6922 49.8386 17.6903C49.6157 17.6743 49.3939 17.6332 49.171 17.6276C48.9315 17.622 48.634 17.7398 48.4647 17.636C48.2076 17.4784 47.9701 17.6013 47.7135 17.5252C47.6241 17.4403 47.515 17.3365 47.3734 17.2022C47.2607 17.2831 47.1449 17.3662 46.9696 17.4918C47.7421 17.8621 48.5423 17.896 49.4261 18.0768C49.0165 18.1991 48.6957 18.1753 48.3979 18.1364C48.2207 18.1135 48.0592 17.9769 47.847 17.9928C47.6785 18.0057 47.4396 17.8725 47.3468 17.9469C47.1104 18.1364 47.0459 17.8425 46.8908 17.8462C46.6873 17.8509 46.4806 17.8669 46.2801 17.8423C46.0435 17.8134 45.8138 17.7328 45.5778 17.6984C45.363 17.6671 45.1589 17.6354 44.9449 17.5699C44.6028 17.4655 44.2052 17.5422 43.8284 17.6609C44.0827 17.6819 44.3367 17.7032 44.7038 17.7339C43.9952 18.0429 43.4333 17.6262 42.8546 17.6945C42.7416 17.5408 42.6507 17.3642 42.51 17.247C42.439 17.1879 42.2781 17.2369 41.9971 17.2369C42.2473 17.3592 42.3432 17.4059 42.4405 17.4535C42.4048 17.4848 42.3698 17.5405 42.3401 17.5377C42.0269 17.51 41.7156 17.5982 41.3991 17.4062C41.1658 17.2646 40.8464 17.4219 40.5371 17.2769C40.1796 17.1093 39.7246 17.1613 39.3202 17.0779C38.9226 16.9956 38.5214 16.9377 38.1263 16.8302C37.5484 16.6732 36.9428 16.6186 36.3638 16.465C35.7862 16.3119 35.164 16.372 34.6172 16.0695C34.3419 15.917 34.0149 16.0057 33.7006 15.8879C33.0361 15.6393 32.3172 15.5374 31.6243 15.3608C31.2545 15.2668 30.9051 15.1078 30.5103 15.0936C30.0379 15.0762 29.7286 14.8674 29.5312 14.4837C29.4771 14.5943 29.4311 14.6889 29.3812 14.791C29.3245 14.7406 29.2715 14.6936 29.2183 14.6463C29.1667 14.6925 29.1128 14.7406 29.1145 14.7389C28.8325 14.6477 28.5849 14.4988 28.3418 14.5058C28.0095 14.515 27.8121 14.2903 27.382 14.2047C26.7071 14.344 26.0316 13.7129 25.1958 13.7093C25.1756 13.5735 25.1543 13.4333 25.1133 13.1601C24.993 13.3695 24.9213 13.4946 24.9016 13.5287C24.2158 13.4246 23.6864 13.175 23.1744 12.8769L23.1744 12.6656C23.06 12.7221 22.9756 12.7876 22.8823 12.8041C22.7586 12.826 22.6285 12.8097 22.4788 12.8097C22.4061 12.7261 22.3231 12.6309 22.2284 12.5217L21.5552 12.5217C21.5159 12.4115 21.4845 12.3227 21.4452 12.2122C21.3693 12.2603 21.2975 12.306 21.1805 12.3801C21.0311 12.2458 20.871 12.1016 20.7429 11.9863C20.7249 11.8184 20.7123 11.7014 20.6896 11.4912C20.5272 11.7342 20.4221 11.8912 20.3111 12.0574C19.854 11.8775 19.4385 11.6102 18.9273 11.5187C18.4764 11.438 18.1055 11.0848 17.6358 10.9511C17.3767 10.8772 17.167 10.604 16.8376 10.6723C16.6797 10.4179 16.399 10.3947 16.1531 10.295C15.8455 10.1708 15.4412 10.248 15.2261 9.96812C15.0091 9.68628 14.5675 9.84721 14.4225 9.4912C14.1068 9.45566 13.8528 9.23511 13.5679 9.16738C13.2396 9.08958 12.9866 8.95607 12.7424 8.74365C12.6639 8.67536 12.5103 8.69327 12.3434 8.66276Z" fill="#229A87"/>
<path fill-rule="evenodd" clip-rule="evenodd" d="M79.9507 14.2589C79.9218 14.3249 79.8316 14.4333 79.8564 14.4888C80.1214 15.0708 79.9599 15.6464 79.8456 16.2206C79.7516 16.6935 79.6789 17.1888 79.3991 17.5872C78.8804 18.325 78.5601 19.234 77.6846 19.6764C77.6595 20.1463 76.9861 20.0754 76.9647 20.5488C76.4774 20.7865 76.1824 21.2518 75.7675 21.5749C75.5068 21.7779 75.2535 21.9877 75.0079 22.2091C74.9136 22.2942 74.7562 22.3083 74.5841 22.3708C74.5303 22.4814 74.4504 22.645 74.3502 22.8513C74.1659 22.9689 73.9366 23.1154 73.6732 23.2839C73.6662 23.4095 73.657 23.5755 73.6476 23.7527C73.5627 23.7837 73.4776 23.8149 73.3926 23.8462C73.2518 24.1323 73.5519 24.0551 73.6416 24.1513C73.4652 24.5378 73.1511 24.7829 72.7813 25C72.5454 24.8187 72.3061 24.6353 72.0438 24.4334L72.0438 23.4412C71.9425 23.3342 71.8423 23.2285 71.7372 23.1173C71.7983 22.6483 71.6521 22.1673 71.8771 21.6942C71.9855 21.467 72.0171 21.1977 72.2232 21.0268C72.3547 20.9178 72.3042 20.6577 72.5743 20.6441C72.6338 20.6411 72.6756 20.3621 72.7324 20.2126C72.845 19.9156 73.1027 19.7273 73.3034 19.505C73.7807 18.9751 74.2664 18.4416 74.8145 17.9905C75.3585 17.5435 75.8429 17.0157 76.4769 16.6774C76.6622 16.5785 76.8002 16.3915 76.9653 16.2516C77.1252 16.1163 77.2924 15.9893 77.5012 15.823C77.2408 15.71 76.979 15.5967 76.6792 15.4665C76.6422 15.5665 76.6127 15.6472 76.5817 15.7317C75.9401 15.6717 75.3785 15.2948 74.7143 15.1673L74.7143 14.8366C74.2124 14.6792 73.7362 14.5301 73.2599 14.3809C73.0627 14.3156 72.8799 14.6124 72.6251 14.3847C72.7278 14.3363 72.8258 14.2901 72.9239 14.2442C72.5714 14.3094 72.2688 13.705 71.8934 14.2311C71.4282 13.6833 70.5813 13.9425 70.1902 13.2925C70.1518 13.3273 70.1005 13.374 70.0306 13.4379C69.6618 13.2971 69.2901 13.1036 68.8952 13.0191C68.4852 12.9308 68.3555 12.4974 67.8601 12.3889C67.3722 12.4653 66.8185 12.3256 66.3487 11.9316C66.2793 11.7196 66.2156 11.5242 66.1472 11.3158C66.1842 11.2533 66.228 11.1791 66.2715 11.1049C66.185 11.0174 66.0981 10.9302 66 10.8316C66.1983 10.7313 66.3925 10.6332 66.5886 10.534C66.4965 10.4416 66.4098 10.3544 66.3009 10.2448C66.43 10.1688 66.5543 10.0957 66.7164 10C67.0141 10.3633 67.48 10.097 67.8898 10.2823C68.4657 10.543 69.1351 10.5864 69.754 10.7609C70.4768 10.9644 71.1878 11.2115 71.9052 11.4348C72.6686 11.6723 73.4301 11.9128 74.2097 12.1009C74.8491 12.2547 75.4469 12.5656 76.0998 12.6911C76.3199 12.9626 76.7181 12.7077 76.9385 12.9789C77.4928 12.9216 77.948 13.32 78.4917 13.3238C78.6001 13.3246 78.7062 13.4012 78.817 13.4213C79.3129 13.5115 79.7784 13.6412 79.9507 14.2589Z" fill="#229A87"/>
</svg>
