<svg width="159" height="39" viewBox="0 0 159 39" fill="none" xmlns="http://www.w3.org/2000/svg">
<path d="M24.82 12.6285C25.463 6.23526 21.3915 1.93323 15.2358 0.824899C8.73948 -0.344928 -0.65822 4.21062 0.885178 13.6965C1.77812 19.1842 5.01466 19.8673 8.70802 24.5675C11.0419 27.5391 11.941 31.7461 16.1705 31.2972C21.2687 30.7569 20.5409 26.4721 22.2141 21.7973C23.5517 18.06 24.5076 15.7353 24.82 12.6285Z" fill="#F9ED35"/>
<path d="M21.8514 23.6308C18.8688 22.4629 11.9267 22.6561 9.19312 25.6292L12.1232 29.8952L13.6572 30.9561L15.1845 31.3193L16.9389 31.092L19.3861 30.0865L20.1495 29.2095L21.2596 26.3637L21.8514 23.6308Z" fill="#E88128"/>
<path d="M11.5469 20.0291C7.51658 19.7177 4.50669 16.2623 4.82454 12.3114" stroke="#FDF5A3" stroke-width="1.98589" stroke-miterlimit="10"/>
<path d="M10.7989 28.0747C10.397 28.2272 10.1977 28.671 10.3536 29.0645C10.5096 29.4583 10.9613 29.6538 11.3633 29.501L11.8383 29.3203C12.2401 29.1676 12.4393 28.7242 12.2833 28.3304C12.1275 27.9366 11.6754 27.7413 11.2738 27.8934L10.7989 28.0747Z" fill="#344A48"/>
<path d="M9.40482 38.2452C9.39948 38.4865 9.61594 38.6859 9.88815 38.6913L11.0284 38.7151C11.3004 38.7208 11.5254 38.5306 11.5305 38.2892C11.5356 38.049 11.3192 37.8493 11.0474 37.8436L9.90708 37.8201C9.63498 37.8145 9.40997 38.0049 9.40482 38.2452Z" fill="#344A48"/>
<path d="M20.744 38.1185C20.7017 38.3568 20.8853 38.5806 21.1543 38.6179L22.2808 38.7773C22.5496 38.8151 22.8024 38.6532 22.8452 38.4151C22.8871 38.1774 22.7035 37.9541 22.4347 37.916L21.3082 37.757C21.0394 37.7186 20.7867 37.8809 20.744 38.1185Z" fill="#344A48"/>
<path d="M17.4236 15.612C17.4751 15.9677 17.8111 16.2155 18.1744 16.1651C18.5373 16.1148 18.7899 15.7852 18.7388 15.4293L18.4795 13.6358C18.4281 13.28 18.092 13.032 17.7289 13.0826C17.3657 13.1329 17.1128 13.4624 17.1644 13.8184L17.4236 15.612Z" fill="#344A48"/>
<path d="M24.4712 12.5974C24.4712 12.5974 24.4773 12.5146 24.4886 12.354C24.4987 12.1955 24.5105 11.9694 24.5139 11.6644C24.5183 11.3617 24.5078 10.9881 24.4668 10.553C24.4281 10.1179 24.3497 9.62141 24.2173 9.07886C24.082 8.53727 23.8888 7.9494 23.607 7.34354C23.3247 6.73845 22.9536 6.11631 22.479 5.51083C22.0068 4.90393 21.4262 4.31673 20.7391 3.78427C20.052 3.25219 19.2542 2.78199 18.3694 2.39672C17.4848 2.01096 16.5125 1.71194 15.4805 1.51125C15.4162 1.49802 15.3514 1.48612 15.2863 1.4747L15.0989 1.44147C14.9641 1.42081 14.8199 1.39587 14.6993 1.38264C14.4506 1.34817 14.1787 1.32523 13.9144 1.3079C13.3806 1.27858 12.8346 1.28049 12.2828 1.32418C10.0792 1.49259 7.76841 2.2303 5.79374 3.57406C4.81136 4.24809 3.91851 5.07776 3.21125 6.05309C2.50359 7.02681 1.98036 8.14047 1.6999 9.32819C1.55646 9.9212 1.47702 10.5322 1.44527 11.1489C1.41604 11.7661 1.44459 12.3901 1.51762 13.0126C1.53296 13.1684 1.55947 13.3237 1.58171 13.4791L1.59696 13.5842L1.61852 13.7066L1.66144 13.9516L1.683 14.074L1.70718 14.1859L1.75506 14.41C1.78409 14.559 1.831 14.7118 1.86518 14.8634C1.90189 15.0153 1.94841 15.1632 1.98929 15.3138C2.03697 15.4612 2.08397 15.6093 2.13554 15.7554C2.24197 16.0458 2.35181 16.3355 2.48835 16.6129C2.74948 17.174 3.0883 17.6983 3.46879 18.2049C3.85413 18.7094 4.28948 19.1892 4.74513 19.6653C5.1998 20.1419 5.66983 20.616 6.13917 21.0946C6.60948 21.5721 7.06629 22.0648 7.51641 22.5602C7.62944 22.6834 7.73889 22.81 7.84863 22.9358C7.9604 23.06 8.06849 23.1871 8.17647 23.314C8.28563 23.4399 8.39158 23.5683 8.49636 23.6972C8.60202 23.8257 8.70787 23.9534 8.80993 24.084L8.96454 24.2785L9.04242 24.3779L9.11671 24.4749C9.21907 24.6117 9.31783 24.7464 9.41251 24.8829C9.60334 25.1554 9.7828 25.4322 9.95615 25.7094C10.6486 26.8172 11.2329 27.9469 11.9545 28.9247C12.3155 29.4107 12.712 29.8579 13.1721 30.2026C13.6296 30.5496 14.1477 30.7889 14.6963 30.9003C14.97 30.9574 15.2507 30.9837 15.5323 30.9853C15.673 30.9871 15.8142 30.9803 15.9551 30.9711C16.0245 30.9644 16.0988 30.9592 16.1635 30.9514L16.3847 30.9244C16.9424 30.849 17.493 30.71 17.9793 30.4878C18.4684 30.2668 18.8917 29.9526 19.2309 29.5682C19.57 29.1828 19.827 28.7323 20.0302 28.2607C20.2332 27.7879 20.3872 27.2957 20.5211 26.8038C20.6547 26.3114 20.7687 25.8187 20.8806 25.3334C21.103 24.3621 21.3219 23.42 21.5935 22.5358C21.7266 22.0942 21.8805 21.6629 22.026 21.2612C22.1722 20.8553 22.3142 20.4612 22.4518 20.0791C23.0032 18.553 23.4681 17.2262 23.7862 16.1216C23.8689 15.846 23.9366 15.5833 24.0026 15.3362C24.0625 15.0883 24.1201 14.8557 24.1644 14.6379C24.2585 14.2032 24.3223 13.8305 24.362 13.5266C24.3823 13.3748 24.4002 13.2408 24.4155 13.125C24.4278 13.0088 24.4382 12.9111 24.4466 12.8324C24.4633 12.6751 24.4719 12.5938 24.4719 12.5938L24.4712 12.5974ZM25.1668 12.6639C25.1648 12.6792 25.1547 12.7612 25.1367 12.9072C25.1266 12.9885 25.1141 13.0893 25.0993 13.2092C25.0812 13.3285 25.0604 13.467 25.0368 13.6237C25.0149 13.7805 24.9817 13.9544 24.9473 14.1459C24.9171 14.3383 24.8744 14.5464 24.8297 14.7717C24.7363 15.2211 24.6199 15.7361 24.4641 16.3046C24.3094 16.8734 24.1183 17.4966 23.8926 18.166C23.6646 18.8348 23.4063 19.5515 23.1296 20.3148C22.9914 20.6961 22.8487 21.0897 22.702 21.4949C22.5531 21.9037 22.4081 22.3077 22.2776 22.7373C22.013 23.5928 21.7965 24.5143 21.572 25.4872C21.4587 25.9735 21.3424 26.4731 21.2032 26.9827C21.0634 27.4918 20.9008 28.0121 20.6776 28.53C20.4537 29.0461 20.1621 29.5624 19.7598 30.018C19.3584 30.4732 18.8436 30.851 18.2744 31.1084C17.7033 31.3682 17.0973 31.5198 16.4721 31.6049C15.8669 31.6908 15.199 31.7083 14.5517 31.5726C13.9013 31.4421 13.2734 31.1505 12.7443 30.7483C12.2126 30.3463 11.7681 29.8562 11.3781 29.3395C10.5992 28.3017 10.0024 27.1673 9.31696 26.0966C9.14604 25.8288 8.97085 25.5643 8.78702 25.3069C8.69554 25.1776 8.60066 25.0511 8.50685 24.928L8.43178 24.8317L8.35788 24.7393L8.2058 24.5521C8.10519 24.4267 8.00255 24.3025 7.89621 24.1811C7.79143 24.0584 7.68567 23.9364 7.57671 23.8166C7.36239 23.5742 7.14019 23.3376 6.9113 23.1059C6.0001 22.1725 4.98907 21.3288 3.97746 20.4224C3.47335 19.9679 2.97886 19.4813 2.51564 18.9506C2.0563 18.4168 1.63629 17.8312 1.2964 17.2002L1.16947 16.9634L1.05245 16.7221C0.971364 16.562 0.90659 16.3963 0.835213 16.2324C0.769468 16.0671 0.709162 15.8999 0.648468 15.7329C0.595153 15.5645 0.536206 15.3969 0.488233 15.2274L0.419284 14.9726C0.396268 14.8879 0.374127 14.8025 0.355578 14.7142L0.296923 14.4519L0.267886 14.3207L0.245065 14.1984L0.19952 13.9538L0.176795 13.8317L0.169512 13.7878L0.164657 13.7555L0.155237 13.6908C0.131153 13.5183 0.103185 13.3466 0.0865786 13.1729C0.00820937 12.4805 -0.0207297 11.7803 0.0153958 11.0817C0.0540463 10.3836 0.148148 9.68691 0.315471 9.00737C0.642835 7.64638 1.25357 6.36069 2.06912 5.25074C2.88427 4.13784 3.90006 3.20535 5.00141 2.45688C6.10469 1.70784 7.29752 1.1413 8.51277 0.74184C9.72958 0.3459 10.9682 0.105994 12.1888 0.0292619C12.7989 -0.0121504 13.4048 -0.00796172 14.0003 0.0314514C14.3003 0.0548708 14.5881 0.0812413 14.8906 0.127033C15.0464 0.147977 15.175 0.17292 15.3129 0.196244L15.4266 0.217855L15.5319 0.238608C15.6021 0.252317 15.6719 0.266217 15.7415 0.281639C16.8557 0.517452 17.9114 0.86027 18.8774 1.30057C19.8435 1.74021 20.72 2.27581 21.4772 2.88243C22.2357 3.48734 22.8732 4.1626 23.3791 4.86051C23.6302 5.21085 23.8536 5.56329 24.0437 5.91648C24.2324 6.27025 24.3929 6.62125 24.5283 6.96483C24.7997 7.65199 24.9697 8.30745 25.0783 8.90303C25.1858 9.49946 25.2301 10.0367 25.2512 10.5026C25.2715 10.9687 25.2612 11.3645 25.2471 11.6842C25.2322 12.0019 25.21 12.2524 25.1937 12.4147C25.1764 12.5748 25.1674 12.6574 25.1674 12.6574L25.1668 12.6639Z" fill="#344A48"/>
<path d="M21.8533 23.623C18.9117 22.5375 12.3358 22.8467 9.40686 25.3864" stroke="#344A48" stroke-width="0.45469" stroke-miterlimit="10"/>
<path d="M21.3882 25.6242C18.7214 24.6899 12.9658 24.4949 10.405 27.4285" stroke="#344A48" stroke-width="0.45469" stroke-miterlimit="10"/>
<path d="M20.7353 27.9286C17.6305 26.7073 13.714 27.0822 11.6404 29.2804" stroke="#344A48" stroke-width="0.45469" stroke-miterlimit="10"/>
<path d="M19.519 29.8893C16.7551 28.8917 14.6276 29.3042 13.3663 30.797" stroke="#344A48" stroke-width="0.45469" stroke-miterlimit="10"/>
<path d="M8.87382 25.1925C8.87382 25.1925 8.8307 25.1914 8.74991 25.1894C8.73136 25.1895 8.70339 25.1871 8.68601 25.189C8.66833 25.1906 8.64901 25.1922 8.62813 25.1941C8.60676 25.1962 8.58608 25.1959 8.55986 25.1995C8.53286 25.2039 8.50412 25.2085 8.47382 25.2134C8.3532 25.2354 8.20637 25.2717 8.04594 25.347C7.88532 25.4202 7.71003 25.5264 7.53407 25.6696C7.358 25.8123 7.18126 25.9917 7.01763 26.203C6.85399 26.4141 6.6992 26.6539 6.56984 26.9169C6.4401 27.1793 6.33153 27.4634 6.26394 27.7541C6.23112 27.8992 6.20733 28.0457 6.1981 28.1882C6.19043 28.3297 6.1981 28.4678 6.22519 28.5849L6.22723 28.5961L6.2284 28.6017L6.22888 28.6045C6.2352 28.6269 6.22092 28.5771 6.22286 28.5836L6.23267 28.6138L6.25229 28.6743C6.25598 28.6879 6.25773 28.6856 6.25967 28.6889C6.26171 28.6913 6.26336 28.6938 6.26491 28.6963C6.26919 28.7022 6.26724 28.7049 6.27453 28.7144C6.29929 28.751 6.32386 28.7883 6.36338 28.8211C6.43661 28.889 6.54333 28.9495 6.66773 28.9948C6.91906 29.0851 7.2203 29.1243 7.51532 29.1307C7.81132 29.1389 8.10586 29.118 8.38457 29.0844C8.66357 29.0507 8.92772 29.0036 9.17011 28.9519C9.65538 28.8486 10.0536 28.7264 10.3295 28.6362C10.4671 28.5895 10.5751 28.5526 10.6481 28.5253C10.7213 28.4988 10.7602 28.4845 10.7602 28.4845L11.0603 29.2707C11.0603 29.2707 11.0181 29.2854 10.9394 29.3129C10.8607 29.3412 10.7444 29.3795 10.5961 29.4278C10.2985 29.5212 9.87028 29.6471 9.34239 29.7529C9.07853 29.8059 8.78982 29.854 8.47974 29.8876C8.16976 29.9212 7.83841 29.9414 7.48765 29.9277C7.31236 29.9212 7.13241 29.9065 6.94722 29.8756C6.76242 29.845 6.57247 29.8013 6.37941 29.7278C6.18761 29.6542 5.98853 29.5492 5.81305 29.3836C5.72449 29.3036 5.64777 29.2021 5.58387 29.0943C5.5525 29.039 5.51706 28.9574 5.49773 28.9047L5.47889 28.844L5.46947 28.8137C5.47054 28.8178 5.45597 28.7654 5.4617 28.7852L5.46063 28.7801L5.45859 28.7702L5.45461 28.7503C5.36673 28.322 5.42441 27.9387 5.50822 27.5804C5.5964 27.2225 5.72886 26.8912 5.88491 26.5848C6.04068 26.2784 6.225 25.9996 6.42321 25.7503C6.62151 25.5011 6.83875 25.2844 7.06375 25.1064C7.28818 24.9281 7.52066 24.7895 7.74257 24.6919C7.96359 24.5921 8.17598 24.5398 8.35155 24.5107C8.39593 24.5043 8.43789 24.4983 8.47731 24.4927C8.51752 24.4877 8.56015 24.4868 8.59715 24.4844C8.63473 24.4827 8.66959 24.4812 8.70145 24.4797C8.73369 24.4785 8.75097 24.481 8.77273 24.4812C8.85352 24.4842 8.89664 24.4859 8.89664 24.4859L8.87382 25.1925Z" fill="#344A48"/>
<path d="M22.0205 22.5922C22.0205 22.5922 22.0299 22.6011 22.0476 22.6181C22.0566 22.6268 22.0677 22.6374 22.0808 22.65C22.0931 22.6613 22.1122 22.6815 22.122 22.6873C22.1621 22.7204 22.2525 22.7906 22.3765 22.8533C22.5017 22.9166 22.6683 22.9798 22.8789 23.0187C23.089 23.058 23.3399 23.0764 23.6205 23.0619C23.9006 23.0492 24.2094 23.0041 24.5334 22.9303C24.8577 22.8566 25.1969 22.7522 25.5415 22.6226C26.2305 22.3618 26.9386 21.9969 27.6001 21.5634C28.2627 21.1308 28.8787 20.6303 29.4035 20.1136C29.9289 19.597 30.3616 19.0644 30.6873 18.5831C31.0148 18.1022 31.2355 17.6737 31.3738 17.3691C31.4429 17.2167 31.4938 17.0957 31.5255 17.0123C31.5581 16.9291 31.5755 16.8848 31.5755 16.8848L32.4935 17.2203C32.4935 17.2203 32.4733 17.2702 32.4353 17.364C32.3981 17.4579 32.3392 17.5938 32.2592 17.7642C32.0994 18.1048 31.8466 18.5804 31.479 19.1064C31.1132 19.6329 30.6333 20.2083 30.0576 20.7607C29.4824 21.3133 28.8134 21.8434 28.0947 22.3005C27.3766 22.7586 26.6092 23.1436 25.8494 23.4212C25.469 23.5591 25.091 23.6709 24.7224 23.7501C24.3539 23.8294 23.9955 23.8783 23.6564 23.8897C23.3179 23.9033 22.9986 23.8782 22.7147 23.8215C22.4307 23.7654 22.1835 23.6718 21.9896 23.5701C21.794 23.4665 21.6592 23.3637 21.5547 23.2706C21.5264 23.2469 21.5172 23.2357 21.5026 23.2219C21.4895 23.209 21.4787 23.1983 21.4698 23.1896C21.4521 23.1722 21.4431 23.1633 21.4431 23.1633L22.0205 22.5922Z" fill="#344A48"/>
<path d="M13.06 30.5355C13.06 30.5355 13.0421 30.5626 13.0088 30.6134C12.992 30.6389 12.9714 30.6702 12.9471 30.707C12.9234 30.7435 12.9109 30.7735 12.8883 30.8133C12.8472 30.8826 12.792 31.0017 12.7339 31.1287C12.7063 31.1953 12.6769 31.2661 12.646 31.3409C12.6176 31.4181 12.5877 31.4992 12.5565 31.584C12.528 31.6709 12.4983 31.7613 12.4676 31.8551C12.4395 31.9506 12.4105 32.0493 12.3806 32.1508C12.3244 32.356 12.2686 32.5744 12.2166 32.8033C12.165 33.0322 12.115 33.2703 12.0696 33.5144C12.0231 33.7582 11.9809 34.0075 11.9418 34.2578C11.7836 35.2586 11.6819 36.2744 11.6204 37.036C11.5896 37.4169 11.5692 37.7346 11.5564 37.9562C11.5451 38.1753 11.5386 38.3004 11.5386 38.3004L10.2779 38.2353C10.2779 38.2353 10.2882 38.1027 10.3062 37.871C10.3253 37.642 10.3548 37.3161 10.3966 36.9258C10.48 36.1452 10.611 35.107 10.8022 34.0709C10.8497 33.8119 10.9005 33.553 10.9558 33.2982C11.01 33.0436 11.0693 32.793 11.1306 32.5508C11.1922 32.3085 11.2583 32.0745 11.3254 31.8528C11.3611 31.742 11.3959 31.6342 11.4294 31.53C11.4667 31.4257 11.5026 31.3252 11.537 31.2286C11.5755 31.132 11.6122 31.0396 11.6473 30.9516C11.6863 30.8638 11.7234 30.7805 11.7584 30.7021C11.8357 30.5442 11.8988 30.4142 11.9756 30.2892C12.0105 30.2313 12.0446 30.1711 12.0701 30.1342C12.0953 30.0981 12.1167 30.0672 12.1341 30.0422C12.1689 29.9922 12.1875 29.9655 12.1875 29.9655L13.06 30.5355Z" fill="#344A48"/>
<path d="M19.3737 30.1219C19.3737 30.1219 19.4407 30.2309 19.5582 30.4214C19.5876 30.4691 19.62 30.5219 19.6555 30.5792C19.691 30.6358 19.7294 30.6977 19.7678 30.7737C19.8458 30.9209 19.9337 31.0868 20.0296 31.2679C20.1202 31.4487 20.2051 31.6433 20.302 31.8501C20.3983 32.0565 20.4802 32.2796 20.5756 32.5076C20.6686 32.7363 20.7483 32.9766 20.838 33.2189C20.9216 33.4626 20.9998 33.7117 21.08 33.9604C21.1517 34.2108 21.2295 34.4602 21.2947 34.708C21.3597 34.9557 21.4269 35.1989 21.4815 35.4363C21.5098 35.5548 21.5377 35.6714 21.565 35.7854C21.5901 35.8999 21.6147 36.0119 21.6386 36.1209C21.6881 36.3388 21.7266 36.5464 21.7657 36.7374C21.8391 37.1204 21.8945 37.4409 21.9293 37.6677C21.9463 37.7818 21.9597 37.8715 21.9689 37.9326C21.9777 37.9968 21.9824 38.031 21.9824 38.031L20.7271 38.1631C20.7271 38.1631 20.7242 38.1341 20.7187 38.08C20.7122 38.0229 20.7026 37.9391 20.6904 37.8325C20.6651 37.6179 20.623 37.3095 20.5656 36.9401C20.5344 36.7558 20.5046 36.5553 20.4644 36.3448C20.4451 36.2394 20.4254 36.131 20.4051 36.0203C20.3827 35.9101 20.3598 35.7973 20.3366 35.6828C20.2923 35.453 20.2361 35.2185 20.1822 34.979C20.128 34.7397 20.0622 34.4999 20.0023 34.2581C19.9341 34.0194 19.8681 33.7796 19.797 33.5459C19.7202 33.3149 19.6527 33.0834 19.5727 32.8661C19.4908 32.6501 19.421 32.4359 19.3381 32.2419C19.2554 32.0485 19.181 31.8599 19.1057 31.6957C19.0281 31.5351 18.957 31.388 18.894 31.2576C18.8653 31.193 18.8291 31.1296 18.7949 31.0707C18.7615 31.0122 18.731 30.9583 18.7033 30.9097C18.5925 30.7154 18.5292 30.6043 18.5292 30.6043L19.3737 30.1219Z" fill="#344A48"/>
<path d="M11.4043 17.6173C10.9982 18.2798 11.0354 19.7369 12.0183 20.326C13.5392 21.3358 15.4602 21.3559 16.9799 20.3288C17.998 19.6358 18.0382 18.0801 17.6252 17.5242C17.2121 16.9687 16.4762 17.0286 15.9396 17.2735C15.1383 17.6385 13.9426 17.6687 13.0904 17.2465C12.5196 16.963 11.8107 16.9551 11.4043 17.6173Z" fill="white" stroke="#344A48" stroke-width="0.45469" stroke-miterlimit="10"/>
<path d="M15.7989 17.3278L16.4534 20.6251" stroke="#344A48" stroke-width="0.45469" stroke-miterlimit="10"/>
<path d="M14.5177 17.7273L14.4919 20.9128" stroke="#344A48" stroke-width="0.45469" stroke-miterlimit="10"/>
<path d="M13.2077 17.2993L12.4891 20.6333" stroke="#344A48" stroke-width="0.45469" stroke-miterlimit="10"/>
<path d="M16.2209 9.43754C16.1097 8.7619 16.5069 8.13738 17.1074 8.04227C17.7083 7.94755 18.2857 8.41822 18.3962 9.09377" stroke="#344A48" stroke-width="0.364824" stroke-miterlimit="10"/>
<path d="M7.87088 12.9326C7.67666 12.2752 7.99227 11.6079 8.57669 11.4415C9.1613 11.2754 9.79282 11.6734 9.98743 12.3306" stroke="#344A48" stroke-width="0.364824" stroke-miterlimit="10"/>
<path d="M36.9123 2.44225L36.9848 1.54175C36.3434 9.51653 37.0345 10.9132 40.4926 11.1806C37.0345 10.9132 36.1311 12.1554 35.505 19.9421C36.1311 12.1554 35.4532 10.791 32.0619 10.5288C35.4531 10.791 36.3331 9.64543 36.9123 2.44225Z" fill="#F9ED35" stroke="#F9ED35" stroke-width="0.678343" stroke-miterlimit="10"/>
<path d="M31.5882 16.8885C31.4519 16.2584 31.4087 14.8472 31.751 14.5117C32.0933 14.1762 32.2591 14.3387 32.3488 14.7491C32.4385 15.1593 32.4317 15.3988 32.3488 15.4802C32.2659 15.5616 34.89 14.0106 35.2189 14.5117C35.5478 15.0129 33.528 15.7002 33.485 15.848C33.4422 15.996 34.1578 16.83 32.4088 17.46L31.5882 16.8885Z" fill="#344A48"/>
<path d="M9.39789 15.3851C11.4299 15.3851 11.4299 16.0441 11.4299 16.0441C11.4299 16.0441 9.79071 15.9046 9.41576 16.4813" stroke="#344A48" stroke-width="0.452229" stroke-miterlimit="10"/>
<path d="M47.1417 27.1897C47.1417 20.9243 48.2292 12.7286 48.6195 10.0091C48.7456 9.18712 49.227 8.6486 50.0183 9.50636C50.8096 10.3641 56.2758 15.9657 56.2758 15.9657" stroke="white" stroke-width="2.78161" stroke-miterlimit="10"/>
<path d="M63.9337 27.1897C63.9337 20.9243 62.8478 12.7286 62.4574 10.0091C62.3299 9.18712 61.8499 8.6486 61.0586 9.50636C60.2673 10.3641 54.7996 15.9642 54.7996 15.9642" stroke="white" stroke-width="2.78161" stroke-miterlimit="10"/>
<path d="M83.7931 9.34058H99.8924" stroke="white" stroke-width="2.78161" stroke-miterlimit="10"/>
<path d="M91.8417 27.191V9.34058" stroke="white" stroke-width="2.78161" stroke-miterlimit="10"/>
<path d="M120.259 27.1909V8.9198C125.398 8.9198 129.639 9.27185 129.639 13.4712C129.631 17.7182 125.119 17.7107 120.259 18.6356" stroke="white" stroke-width="2.78161" stroke-miterlimit="10"/>
<path d="M132.127 26.6821C129.184 25.0949 126.242 19.553 126.242 17.7793" stroke="white" stroke-width="2.78161" stroke-miterlimit="10"/>
<path d="M69.9218 26.6649C69.9218 26.6649 75.7585 10.4958 75.959 9.87966C76.3873 8.59078 77.4246 8.37448 77.9577 9.87966C78.4908 11.3848 83.9965 26.6679 83.9965 26.6679" stroke="white" stroke-width="2.78161" stroke-miterlimit="10"/>
<path d="M72.0388 19.2798C73.3085 20.594 80.696 20.4732 81.8412 19.2798" stroke="white" stroke-width="2.78161" stroke-miterlimit="10"/>
<path d="M72.0179 17.3701L68.4381 27.1904H71.0702L73.3742 20.6311L72.0179 17.3701Z" fill="white"/>
<path d="M81.8899 17.3701H79.8669L82.865 27.1904L85.4834 27.1829L81.8899 17.3701Z" fill="white"/>
<path d="M103.636 7.88147V27.1908" stroke="white" stroke-width="2.78161" stroke-miterlimit="10"/>
<path d="M114.35 7.88147V27.1908" stroke="white" stroke-width="2.78161" stroke-miterlimit="10"/>
<path d="M103.929 19.5522C105.24 20.9083 112.861 20.777 114.044 19.5522" stroke="white" stroke-width="2.78161" stroke-miterlimit="10"/>
<path d="M144.869 7.55322H141.79L155.874 27.1907H158.978L144.869 7.55322Z" fill="white"/>
<path d="M159 7.55322H155.912L141.813 27.1907H144.907L159 7.55322Z" fill="white"/>
<path d="M137.404 16.4432V27.1914" stroke="white" stroke-width="2.78161" stroke-miterlimit="10"/>
<path d="M137.403 7.53235C136.614 7.53235 135.843 7.7621 135.187 8.19254C134.531 8.62299 134.02 9.2348 133.718 9.9506C133.416 10.6664 133.337 11.4541 133.491 12.2139C133.645 12.9738 134.025 13.6718 134.583 14.2197C135.14 14.7676 135.851 15.1406 136.625 15.2918C137.398 15.443 138.2 15.3654 138.929 15.0689C139.658 14.7724 140.281 14.2703 140.719 13.6261C141.157 12.9819 141.391 12.2245 141.391 11.4497C141.391 10.4108 140.971 9.41436 140.223 8.67972C139.475 7.94507 138.461 7.53235 137.403 7.53235ZM136.236 13.3219V9.86546L139.362 11.6063L136.236 13.3219Z" fill="#F9ED35"/>
<path d="M48.8077 33.912L48.671 33.4928H47.3041L47.1674 33.912H45.8536L47.2601 30.3318H48.7105L50.1154 33.912H48.8077ZM47.9845 31.3924L47.6079 32.547H48.3673L47.9845 31.3924Z" fill="#F9ED35"/>
<path d="M51.5762 32.1212C51.5762 31.0143 52.4783 30.267 53.6721 30.267C54.673 30.267 55.1757 30.8144 55.4036 31.3112L54.4103 31.7468C54.3552 31.5968 54.2552 31.4667 54.1235 31.3735C53.9917 31.2803 53.8344 31.2285 53.6721 31.2247C53.5525 31.2247 53.434 31.2478 53.3234 31.2928C53.2128 31.3378 53.1124 31.4037 53.0277 31.4868C52.9431 31.5699 52.876 31.6686 52.8302 31.7772C52.7844 31.8858 52.7608 32.0022 52.7608 32.1197C52.7608 32.2373 52.7844 32.3537 52.8302 32.4623C52.876 32.5708 52.9431 32.6695 53.0277 32.7526C53.1124 32.8357 53.2128 32.9017 53.3234 32.9467C53.434 32.9916 53.5525 33.0148 53.6721 33.0148C53.8342 33.0111 53.9914 32.9595 54.1231 32.8666C54.2549 32.7737 54.3549 32.6439 54.4103 32.4942L55.4081 32.9268C55.1849 33.4056 54.6776 33.971 53.6767 33.971C52.4783 33.9755 51.5762 33.2221 51.5762 32.1212Z" fill="#F9ED35"/>
<path d="M58.0372 33.91V31.2726H57.015V30.3253H60.2045V31.2726H59.1869V33.91H58.0372Z" fill="#F9ED35"/>
<path d="M62.0764 33.9115V30.3313H63.2306V33.9115H62.0764Z" fill="#F9ED35"/>
<path d="M66.2962 33.9115L64.8913 30.3313H66.199L67.0222 32.745L67.8439 30.3313H69.1531L67.7466 33.9115H66.2962Z" fill="#F9ED35"/>
<path d="M70.816 33.9115V30.3313H73.7018V31.2786H71.9688V31.6321H73.6653V32.5779H71.9688V32.9702H73.7063V33.916L70.816 33.9115Z" fill="#F9ED35"/>
<path d="M79.4031 33.91V31.2726H78.3809V30.3253H81.5704V31.2726H80.5528V33.91H79.4031Z" fill="#F9ED35"/>
<path d="M83.2426 32.1212C83.2426 31.0188 84.1539 30.267 85.3279 30.267C86.502 30.267 87.4133 31.0128 87.4133 32.1212C87.4133 33.2296 86.502 33.9755 85.3279 33.9755C84.1539 33.9755 83.2426 33.2221 83.2426 32.1212ZM86.2423 32.1212C86.2423 31.9442 86.1888 31.7711 86.0887 31.624C85.9885 31.4768 85.8462 31.362 85.6797 31.2943C85.5132 31.2266 85.33 31.2088 85.1532 31.2434C84.9764 31.2779 84.814 31.3631 84.6866 31.4883C84.5592 31.6135 84.4724 31.773 84.4372 31.9466C84.402 32.1202 84.4201 32.3002 84.4891 32.4637C84.558 32.6273 84.6748 32.7671 84.8247 32.8654C84.9745 32.9638 85.1507 33.0163 85.331 33.0163C85.4514 33.0196 85.5711 32.9987 85.683 32.9548C85.7948 32.911 85.8963 32.8451 85.9813 32.7612C86.0662 32.6774 86.1328 32.5773 86.1769 32.4673C86.221 32.3572 86.2417 32.2394 86.2377 32.1212H86.2423Z" fill="#F9ED35"/>
<path d="M91.8429 33.91L90.4365 32.0945V33.91H89.2838V30.3298H90.4715L91.7974 32.0289V30.3253H92.9502V33.9055L91.8429 33.91Z" fill="#F9ED35"/>
<path d="M101.309 33.9104V31.7638L100.457 33.9179H99.9435L99.093 31.7638V33.9179H97.9326V30.3376H99.5258L100.194 32.0576L100.862 30.3376H102.457V33.9179L101.309 33.9104Z" fill="#F9ED35"/>
<path d="M104.332 32.1212C104.332 31.0188 105.243 30.267 106.417 30.267C107.591 30.267 108.503 31.0128 108.503 32.1212C108.503 33.2296 107.591 33.9755 106.417 33.9755C105.243 33.9755 104.332 33.2221 104.332 32.1212ZM107.332 32.1212C107.332 31.9442 107.278 31.7711 107.178 31.624C107.078 31.4768 106.936 31.362 106.769 31.2943C106.603 31.2266 106.419 31.2088 106.243 31.2434C106.066 31.2779 105.904 31.3631 105.776 31.4883C105.649 31.6135 105.562 31.773 105.527 31.9466C105.492 32.1202 105.51 32.3002 105.579 32.4637C105.648 32.6273 105.764 32.7671 105.914 32.8654C106.064 32.9638 106.24 33.0163 106.42 33.0163C106.541 33.0202 106.661 32.9998 106.774 32.9562C106.886 32.9126 106.988 32.8468 107.074 32.7629C107.159 32.679 107.226 32.5787 107.271 32.4684C107.315 32.358 107.336 32.2398 107.332 32.1212Z" fill="#F9ED35"/>
<path d="M110.371 33.9115V30.3313H112.073C113.273 30.3313 114.165 30.9772 114.165 32.1214C114.165 33.2656 113.273 33.9115 112.079 33.9115H110.371ZM112.994 32.1214C112.994 31.6381 112.69 31.2786 112.082 31.2786H111.528V32.9702H112.076C112.195 32.9776 112.313 32.961 112.425 32.9213C112.536 32.8817 112.638 32.8199 112.724 32.7398C112.81 32.6598 112.879 32.5631 112.925 32.456C112.971 32.3488 112.995 32.2334 112.994 32.1169V32.1214Z" fill="#F9ED35"/>
<path d="M116.033 33.9115V30.3313H118.918V31.2786H117.187V31.6321H118.883V32.5779H117.187V32.9702H118.924V33.916L116.033 33.9115Z" fill="#F9ED35"/>
<path d="M127.177 33.9104V31.7638L126.332 33.9104H125.818L124.966 31.7638V33.9179H123.811V30.3376H125.406L126.074 32.0576L126.743 30.3376H128.336V33.9179L127.177 33.9104Z" fill="#F9ED35"/>
<path d="M132.949 33.9115L132.812 33.4923H131.445L131.308 33.9115H129.999L131.406 30.3313H132.856L134.261 33.9115H132.949ZM132.125 31.3919L131.749 32.5466H132.508L132.125 31.3919Z" fill="#F9ED35"/>
<path d="M135.714 32.1212C135.714 31.0143 136.617 30.267 137.81 30.267C138.81 30.267 139.312 30.8144 139.542 31.3112L138.547 31.7468C138.492 31.5968 138.393 31.4666 138.261 31.3734C138.13 31.2802 137.972 31.2283 137.81 31.2247C137.691 31.2247 137.572 31.2478 137.462 31.2928C137.351 31.3378 137.251 31.4037 137.166 31.4868C137.081 31.5699 137.014 31.6686 136.968 31.7772C136.923 31.8858 136.899 32.0022 136.899 32.1197C136.899 32.2373 136.923 32.3537 136.968 32.4623C137.014 32.5708 137.081 32.6695 137.166 32.7526C137.251 32.8357 137.351 32.9017 137.462 32.9467C137.572 32.9916 137.691 33.0148 137.81 33.0148C137.972 33.011 138.129 32.9593 138.261 32.8664C138.392 32.7735 138.492 32.6437 138.547 32.4942L139.546 32.9268C139.323 33.4056 138.814 33.971 137.815 33.971C136.617 33.9755 135.714 33.2221 135.714 32.1212Z" fill="#F9ED35"/>
<path d="M143.881 33.9115V32.5421H142.514V33.9115H141.36V30.3313H142.514V31.6008H143.881V30.3313H145.036V33.9115H143.881Z" fill="#F9ED35"/>
<path d="M147.108 33.9115V30.3313H148.263V33.9115H147.108Z" fill="#F9ED35"/>
<path d="M152.894 33.91L151.489 32.0945V33.91H150.33V30.3298H151.519L152.844 32.0289V30.3253H153.998V33.9055L152.894 33.91Z" fill="#F9ED35"/>
<path d="M156.078 33.9115V30.3313H158.964V31.2786H157.233V31.6321H158.929V32.5779H157.233V32.9702H158.969V33.916L156.078 33.9115Z" fill="#F9ED35"/>
</svg>
