<svg width="159" height="39" viewBox="0 0 159 39" fill="none" xmlns="http://www.w3.org/2000/svg">
<path d="M24.8217 12.6992C25.4647 6.27019 21.3932 1.9441 15.2376 0.829569C8.74143 -0.346803 -0.656122 4.23423 0.88725 13.7732C1.78018 19.2916 5.01667 19.9785 8.70996 24.705C11.0438 27.6932 11.9429 31.9238 16.1723 31.4723C21.2704 30.929 20.5427 26.6202 22.2159 21.9193C23.5534 18.161 24.5093 15.8233 24.8217 12.6992Z" fill="#F9ED35"/>
<path d="M21.8495 23.7634C18.867 22.589 11.925 22.7833 9.19141 25.773L12.1214 30.0629L13.6555 31.1297L15.1827 31.495L16.9371 31.2663L19.3842 30.2552L20.1476 29.3733L21.2577 26.5116L21.8495 23.7634Z" fill="#E88128"/>
<path d="M11.5461 20.1418C7.5158 19.8286 4.50597 16.3539 4.82381 12.3809" stroke="#FDF5A3" stroke-width="1.7349" stroke-miterlimit="10"/>
<path d="M10.7992 28.2323C10.3972 28.3856 10.198 28.8318 10.3538 29.2276C10.5099 29.6236 10.9615 29.8202 11.3636 29.6665L11.8385 29.4848C12.2403 29.3313 12.4396 28.8854 12.2835 28.4894C12.1277 28.0934 11.6756 27.897 11.274 28.05L10.7992 28.2323Z" fill="#344A48"/>
<path d="M9.40635 38.4589C9.40101 38.7015 9.61746 38.9021 9.88966 38.9075L11.0299 38.9315C11.3019 38.9371 11.5268 38.7458 11.532 38.5031C11.5371 38.2616 11.3207 38.0608 11.0489 38.055L9.9086 38.0314C9.6365 38.0257 9.41149 38.2173 9.40635 38.4589Z" fill="#344A48"/>
<path d="M20.7444 38.3321C20.702 38.5718 20.8856 38.7968 21.1546 38.8343L22.2811 38.9946C22.5499 39.0326 22.8027 38.8698 22.8454 38.6303C22.8874 38.3913 22.7037 38.1668 22.4349 38.1285L21.3085 37.9685C21.0397 37.93 20.787 38.0932 20.7444 38.3321Z" fill="#344A48"/>
<path d="M17.4221 15.6986C17.4737 16.0563 17.8096 16.3054 18.173 16.2548C18.5358 16.2042 18.7885 15.8727 18.7373 15.5148L18.478 13.7113C18.4266 13.3536 18.0905 13.1042 17.7274 13.155C17.3642 13.2056 17.1114 13.537 17.1629 13.8949L17.4221 15.6986Z" fill="#344A48"/>
<path d="M24.4709 12.6679C24.4709 12.6679 24.4769 12.5846 24.4882 12.4231C24.4983 12.2638 24.5101 12.0364 24.5135 11.7297C24.518 11.4252 24.5074 11.0496 24.4664 10.6121C24.4277 10.1745 24.3493 9.67524 24.2169 9.12965C24.0816 8.58502 23.8884 7.99387 23.6067 7.38462C23.3244 6.77614 22.9532 6.15052 22.4786 5.54166C22.0065 4.93136 21.4259 4.34087 20.7388 3.80544C20.0517 3.27038 19.2539 2.79756 18.3691 2.41012C17.4846 2.02221 16.5123 1.72151 15.4803 1.51971C15.4159 1.5064 15.3511 1.49443 15.2861 1.48295L15.0987 1.44953C14.9639 1.42876 14.8197 1.40368 14.699 1.39037C14.4503 1.35572 14.1784 1.33264 13.9142 1.31522C13.3804 1.28573 12.8344 1.28765 12.2826 1.33159C10.079 1.50094 7.76829 2.24278 5.79365 3.59406C4.81128 4.27185 3.91845 5.10617 3.2112 6.08696C2.50355 7.06612 1.98032 8.18601 1.69987 9.38038C1.55644 9.9767 1.477 10.5911 1.44525 11.2113C1.41602 11.8319 1.44457 12.4594 1.51759 13.0854C1.53294 13.2421 1.55945 13.3982 1.58169 13.5545L1.59693 13.6602L1.61849 13.7833L1.66141 14.0297L1.68297 14.1527L1.70715 14.2653L1.75503 14.4906C1.78406 14.6404 1.83097 14.7941 1.86515 14.9465C1.90186 15.0993 1.94837 15.2481 1.98926 15.3994C2.03694 15.5477 2.08394 15.6966 2.13551 15.8435C2.24194 16.1355 2.35177 16.4269 2.48831 16.7058C2.74944 17.2701 3.08825 17.7974 3.46873 18.3067C3.85407 18.814 4.28941 19.2965 4.74505 19.7753C5.19972 20.2545 5.66974 20.7313 6.13907 21.2126C6.60937 21.6927 7.06618 22.1883 7.51629 22.6864C7.62932 22.8103 7.73877 22.9376 7.8485 23.0641C7.96027 23.189 8.06836 23.3168 8.17634 23.4444C8.2855 23.571 8.39144 23.7002 8.49623 23.8298C8.60188 23.9589 8.70773 24.0874 8.80979 24.2188L8.96439 24.4143L9.04228 24.5143L9.11657 24.6118C9.21892 24.7494 9.31768 24.8849 9.41236 25.0221C9.60318 25.2962 9.78264 25.5744 9.95599 25.8532C10.6485 26.9672 11.2327 28.1032 11.9543 29.0865C12.3153 29.5752 12.7118 30.0249 13.1719 30.3716C13.6294 30.7205 14.1475 30.9612 14.696 31.0732C14.9698 31.1306 15.2504 31.157 15.5321 31.1587C15.6728 31.1605 15.814 31.1536 15.9549 31.1443C16.0242 31.1376 16.0985 31.1323 16.1633 31.1246L16.3844 31.0974C16.9421 31.0216 17.4927 30.8818 17.979 30.6584C18.4681 30.4361 18.8914 30.1202 19.2306 29.7336C19.5697 29.3461 19.8267 28.893 20.0299 28.4188C20.2329 27.9434 20.3869 27.4484 20.5208 26.9538C20.6543 26.4585 20.7683 25.9631 20.8803 25.4751C21.1027 24.4984 21.3216 23.551 21.5932 22.6619C21.7262 22.2178 21.8801 21.7841 22.0256 21.3802C22.1719 20.972 22.3138 20.5756 22.4515 20.1915C23.0028 18.6568 23.4677 17.3225 23.7858 16.2118C23.8685 15.9347 23.9362 15.6704 24.0022 15.422C24.0621 15.1727 24.1197 14.9388 24.164 14.7198C24.2581 14.2827 24.3219 13.9079 24.3616 13.6023C24.3819 13.4496 24.3998 13.3148 24.4151 13.1984C24.4274 13.0815 24.4378 12.9833 24.4462 12.9042C24.4629 12.746 24.4715 12.6642 24.4715 12.6642L24.4709 12.6679ZM25.1664 12.7348C25.1644 12.7501 25.1543 12.8326 25.1363 12.9794C25.1262 13.0611 25.1137 13.1625 25.0989 13.283C25.0808 13.4031 25.06 13.5423 25.0364 13.6999C25.0145 13.8576 24.9813 14.0324 24.9469 14.2251C24.9167 14.4185 24.874 14.6278 24.8293 14.8543C24.7359 15.3063 24.6195 15.8241 24.4637 16.3958C24.309 16.9678 24.118 17.5945 23.8922 18.2676C23.6643 18.9401 23.4059 19.6609 23.1292 20.4284C22.991 20.8119 22.8483 21.2077 22.7016 21.6151C22.5527 22.0262 22.4077 22.4325 22.2772 22.8645C22.0126 23.7248 21.7962 24.6514 21.5716 25.6298C21.4584 26.1188 21.3421 26.6212 21.2029 27.1337C21.0631 27.6456 20.9005 28.1688 20.6772 28.6896C20.4534 29.2086 20.1618 29.7277 19.7595 30.1859C19.3581 30.6436 18.8433 31.0236 18.2742 31.2825C17.7031 31.5437 17.097 31.6961 16.4719 31.7817C15.8667 31.8681 15.1988 31.8857 14.5514 31.7493C13.9011 31.618 13.2732 31.3248 12.7441 30.9203C12.2124 30.5161 11.7679 30.0232 11.3779 29.5036C10.599 28.46 10.0022 27.3193 9.31681 26.2426C9.14589 25.9733 8.97071 25.7073 8.78688 25.4485C8.6954 25.3185 8.60052 25.1912 8.50671 25.0674L8.43165 24.9706L8.35775 24.8777L8.20567 24.6895C8.10507 24.5633 8.00242 24.4385 7.89608 24.3164C7.7913 24.193 7.68555 24.0703 7.57659 23.9499C7.36227 23.7061 7.14008 23.4681 6.91119 23.2351C6.00001 22.2965 4.98899 21.4481 3.9774 20.5367C3.4733 20.0796 2.97881 19.5902 2.5156 19.0566C2.05626 18.5199 1.63626 17.9309 1.29638 17.2964L1.16945 17.0583L1.05244 16.8156C0.971349 16.6547 0.906576 16.488 0.8352 16.3232C0.769456 16.157 0.709151 15.9889 0.648457 15.8209C0.595144 15.6516 0.536198 15.483 0.488225 15.3126L0.419277 15.0563C0.396262 14.9712 0.374121 14.8853 0.355573 14.7965L0.296918 14.5327L0.267882 14.4008L0.245061 14.2778L0.199517 14.0319L0.176793 13.909L0.169509 13.8649L0.164654 13.8325L0.155234 13.7674C0.131151 13.5939 0.103183 13.4213 0.0865772 13.2466C0.00820924 12.5503 -0.0207294 11.8462 0.0153956 11.1437C0.0540455 10.4417 0.148145 9.7411 0.315466 9.05775C0.642825 7.68915 1.25355 6.39627 2.06908 5.28011C2.88423 4.16099 3.9 3.22328 5.00133 2.47063C6.10459 1.7174 7.2974 1.14769 8.51264 0.74599C9.72943 0.347835 10.9681 0.106587 12.1886 0.0294256C12.7987 -0.0122184 13.4046 -0.00800626 14 0.0316274C14.3001 0.0551778 14.5879 0.0816957 14.8904 0.127743C15.0461 0.148805 15.1748 0.173887 15.3127 0.197342L15.4264 0.219073L15.5317 0.239943C15.6019 0.253729 15.6717 0.267706 15.7412 0.283215C16.8555 0.520346 17.9112 0.865082 18.8771 1.30785C19.8432 1.74995 20.7197 2.28854 21.4769 2.89856C22.2354 3.50685 22.8728 4.18588 23.3788 4.8877C23.6298 5.24 23.8532 5.59441 24.0433 5.94958C24.232 6.30532 24.3925 6.65829 24.5279 7.0038C24.7993 7.6948 24.9693 8.35392 25.0779 8.95283C25.1854 9.5526 25.2297 10.0928 25.2508 10.5613C25.2711 11.0301 25.2608 11.4281 25.2467 11.7496C25.2318 12.069 25.2096 12.3209 25.1933 12.4841C25.176 12.6452 25.167 12.7282 25.167 12.7282L25.1664 12.7348Z" fill="#344A48"/>
<path d="M21.8525 23.7549C18.9109 22.6633 12.3351 22.9742 9.40625 25.5281" stroke="#344A48" stroke-width="0.397223" stroke-miterlimit="10"/>
<path d="M21.3892 25.7679C18.7225 24.8284 12.9669 24.6323 10.4062 27.5823" stroke="#344A48" stroke-width="0.397223" stroke-miterlimit="10"/>
<path d="M20.7354 28.0851C17.6307 26.8569 13.7142 27.2339 11.6406 29.4444" stroke="#344A48" stroke-width="0.397223" stroke-miterlimit="10"/>
<path d="M19.5198 30.0558C16.7559 29.0526 14.6285 29.4674 13.3672 30.9686" stroke="#344A48" stroke-width="0.397223" stroke-miterlimit="10"/>
<path d="M8.86931 25.3343C8.86931 25.3343 8.82619 25.3332 8.7454 25.3312C8.72685 25.3313 8.69888 25.3288 8.6815 25.3307C8.66382 25.3324 8.6445 25.334 8.62362 25.3359C8.60226 25.338 8.58157 25.3377 8.55535 25.3414C8.52836 25.3458 8.49961 25.3504 8.46931 25.3554C8.3487 25.3775 8.20187 25.4139 8.04144 25.4897C7.88082 25.5633 7.70554 25.67 7.52958 25.8141C7.35352 25.9576 7.17678 26.138 7.01315 26.3505C6.84951 26.5627 6.69472 26.8039 6.56537 27.0684C6.43563 27.3322 6.32706 27.6179 6.25947 27.9103C6.22665 28.0562 6.20286 28.2034 6.19363 28.3467C6.18596 28.4891 6.19363 28.6279 6.22073 28.7457L6.22277 28.7569L6.22393 28.7626L6.22442 28.7654C6.23073 28.7879 6.21645 28.7378 6.2184 28.7444L6.2282 28.7748L6.24782 28.8355C6.25151 28.8492 6.25326 28.8469 6.2552 28.8503C6.25724 28.8527 6.25889 28.8552 6.26044 28.8577C6.26472 28.8636 6.26277 28.8664 6.27006 28.8759C6.29482 28.9127 6.31939 28.9502 6.35891 28.9832C6.43213 29.0515 6.53886 29.1123 6.66326 29.1579C6.91458 29.2487 7.21581 29.2881 7.51084 29.2945C7.80683 29.3028 8.10136 29.2818 8.38007 29.248C8.65907 29.2141 8.92321 29.1667 9.16559 29.1147C9.65085 29.0108 10.0491 28.888 10.325 28.7973C10.4626 28.7503 10.5706 28.7132 10.6435 28.6857C10.7167 28.6591 10.7557 28.6447 10.7557 28.6447L11.0557 29.4353C11.0557 29.4353 11.0136 29.4501 10.9348 29.4777C10.8562 29.5063 10.7398 29.5447 10.5916 29.5933C10.294 29.6872 9.86576 29.8138 9.33787 29.9202C9.07402 29.9735 8.78531 30.0219 8.47524 30.0557C8.16526 30.0895 7.83392 30.1098 7.48316 30.096C7.30787 30.0895 7.12793 30.0747 6.94274 30.0436C6.75794 30.0129 6.56799 29.9689 6.37494 29.895C6.18314 29.8209 5.98407 29.7153 5.80859 29.5489C5.72003 29.4684 5.64331 29.3663 5.57941 29.2579C5.54804 29.2023 5.5126 29.1203 5.49327 29.0673L5.47443 29.0062L5.46501 28.9758C5.46608 28.9799 5.45152 28.9272 5.45725 28.9471L5.45618 28.942L5.45414 28.932L5.45016 28.912C5.36227 28.4813 5.41996 28.0959 5.50376 27.7356C5.59194 27.3757 5.7244 27.0425 5.88045 26.7344C6.03622 26.4263 6.22053 26.1459 6.41873 25.8952C6.61703 25.6447 6.83427 25.4267 7.05927 25.2477C7.28369 25.0684 7.51618 24.9291 7.73807 24.8309C7.9591 24.7306 8.17148 24.6779 8.34705 24.6486C8.39143 24.6422 8.43338 24.6362 8.47281 24.6306C8.51301 24.6256 8.55564 24.6246 8.59264 24.6222C8.63023 24.6205 8.66509 24.6191 8.69694 24.6175C8.72918 24.6163 8.74647 24.6188 8.76822 24.6191C8.84901 24.622 8.89213 24.6238 8.89213 24.6238L8.86931 25.3343Z" fill="#344A48"/>
<path d="M22.0149 22.7179C22.0149 22.7179 22.0242 22.7268 22.042 22.744C22.0509 22.7527 22.0621 22.7633 22.0752 22.776C22.0875 22.7873 22.1066 22.8077 22.1164 22.8136C22.1565 22.8468 22.2469 22.9174 22.3708 22.9804C22.4961 23.0441 22.6626 23.1077 22.8733 23.1468C23.0833 23.1863 23.3343 23.2048 23.6148 23.1902C23.895 23.1774 24.2038 23.1321 24.5277 23.0579C24.852 22.9838 25.1912 22.8788 25.5358 22.7485C26.2248 22.4862 26.9329 22.1192 27.5944 21.6833C28.257 21.2483 28.8729 20.745 29.3977 20.2254C29.9232 19.706 30.3558 19.1703 30.6815 18.6863C31.0091 18.2028 31.2297 17.7719 31.368 17.4656C31.4371 17.3123 31.488 17.1907 31.5198 17.1068C31.5523 17.0231 31.5697 16.9785 31.5697 16.9785L32.4877 17.316C32.4877 17.316 32.4675 17.3661 32.4295 17.4604C32.3923 17.5548 32.3334 17.6915 32.2534 17.8629C32.0936 18.2053 31.8408 18.6836 31.4733 19.2125C31.1074 19.7421 30.6275 20.3207 30.0519 20.8761C29.4767 21.4318 28.8077 21.9649 28.089 22.4246C27.3709 22.8852 26.6035 23.2723 25.8437 23.5515C25.4633 23.6902 25.0853 23.8026 24.7167 23.8822C24.3483 23.962 23.9898 24.0112 23.6507 24.0227C23.3122 24.0363 22.9929 24.0111 22.7091 23.954C22.4251 23.8976 22.1779 23.8035 21.9839 23.7012C21.7884 23.597 21.6536 23.4937 21.5491 23.4001C21.5208 23.3763 21.5116 23.365 21.497 23.3511C21.4839 23.3382 21.473 23.3274 21.4642 23.3187C21.4465 23.3011 21.4375 23.2921 21.4375 23.2921L22.0149 22.7179Z" fill="#344A48"/>
<path d="M13.0555 30.7061C13.0555 30.7061 13.0376 30.7333 13.0043 30.7844C12.9875 30.81 12.9669 30.8415 12.9426 30.8785C12.9189 30.9152 12.9064 30.9454 12.8838 30.9854C12.8427 31.0551 12.7875 31.1749 12.7295 31.3026C12.7018 31.3695 12.6724 31.4407 12.6415 31.516C12.6131 31.5936 12.5832 31.6752 12.552 31.7604C12.5235 31.8478 12.4938 31.9387 12.4631 32.033C12.435 32.129 12.406 32.2283 12.3761 32.3304C12.3199 32.5368 12.2641 32.7564 12.2121 32.9865C12.1605 33.2167 12.1105 33.4562 12.0651 33.7017C12.0186 33.9467 11.9765 34.1975 11.9373 34.4491C11.7791 35.4556 11.6775 36.4771 11.6159 37.2429C11.5851 37.626 11.5647 37.9454 11.5519 38.1683C11.5406 38.3886 11.5341 38.5144 11.5341 38.5144L10.2734 38.4489C10.2734 38.4489 10.2837 38.3156 10.3017 38.0826C10.3208 37.8523 10.3503 37.5246 10.3921 37.1321C10.4755 36.3472 10.6065 35.3031 10.7977 34.2612C10.8452 34.0007 10.896 33.7404 10.9514 33.4842C11.0056 33.2282 11.0648 32.9762 11.1262 32.7326C11.1877 32.489 11.2539 32.2537 11.321 32.0307C11.3566 31.9193 11.3915 31.8109 11.425 31.7061C11.4623 31.6013 11.4981 31.5002 11.5326 31.403C11.571 31.3059 11.6077 31.213 11.6428 31.1245C11.6818 31.0362 11.7189 30.9524 11.7539 30.8736C11.8312 30.7148 11.8943 30.5841 11.9711 30.4584C12.006 30.4001 12.0402 30.3396 12.0656 30.3025C12.0909 30.2662 12.1122 30.2352 12.1296 30.21C12.1644 30.1597 12.183 30.1328 12.183 30.1328L13.0555 30.7061Z" fill="#344A48"/>
<path d="M19.3718 30.291C19.3718 30.291 19.4388 30.4005 19.5563 30.5922C19.5857 30.6401 19.6182 30.6932 19.6536 30.7508C19.6892 30.8078 19.7275 30.87 19.766 30.9464C19.844 31.0944 19.9318 31.2613 20.0278 31.4434C20.1183 31.6252 20.2033 31.8208 20.3001 32.0289C20.3964 32.2364 20.4784 32.4607 20.5737 32.69C20.6668 32.9199 20.7464 33.1617 20.8361 33.4053C20.9198 33.6504 20.9979 33.9008 21.0781 34.151C21.1498 34.4028 21.2276 34.6536 21.2928 34.9027C21.3578 35.1518 21.425 35.3964 21.4796 35.6351C21.5079 35.7542 21.5358 35.8715 21.5631 35.9862C21.5883 36.1013 21.6128 36.2139 21.6367 36.3236C21.6862 36.5426 21.7247 36.7514 21.7638 36.9434C21.8373 37.3287 21.8926 37.6509 21.9274 37.8789C21.9445 37.9937 21.9579 38.0839 21.967 38.1454C21.9758 38.2099 21.9805 38.2444 21.9805 38.2444L20.7252 38.3771C20.7252 38.3771 20.7223 38.348 20.7168 38.2936C20.7103 38.2361 20.7008 38.1519 20.6885 38.0447C20.6633 37.8289 20.6211 37.5188 20.5637 37.1473C20.5326 36.962 20.5028 36.7604 20.4626 36.5487C20.4432 36.4427 20.4235 36.3337 20.4032 36.2224C20.3809 36.1115 20.358 35.9982 20.3348 35.883C20.2905 35.6519 20.2343 35.4161 20.1804 35.1752C20.1262 34.9346 20.0603 34.6935 20.0004 34.4503C19.9322 34.2102 19.8662 33.9691 19.7951 33.7342C19.7183 33.5018 19.6508 33.269 19.5709 33.0505C19.4889 32.8333 19.4191 32.6179 19.3363 32.4228C19.2535 32.2284 19.1791 32.0387 19.1039 31.8736C19.0263 31.7121 18.9552 31.5642 18.8922 31.433C18.8634 31.368 18.8272 31.3043 18.793 31.2451C18.7596 31.1862 18.7291 31.132 18.7015 31.0832C18.5907 30.8878 18.5273 30.7761 18.5273 30.7761L19.3718 30.291Z" fill="#344A48"/>
<path d="M11.4074 17.7167C11.0013 18.3829 11.0385 19.8481 12.0214 20.4405C13.5423 21.456 15.4632 21.4763 16.9829 20.4434C18.001 19.7465 18.0412 18.1821 17.6282 17.6231C17.2151 17.0645 16.4792 17.1247 15.9427 17.3709C15.1413 17.7381 13.9457 17.7684 13.0935 17.3438C12.5227 17.0588 11.8138 17.0508 11.4074 17.7167Z" fill="white" stroke="#344A48" stroke-width="0.397223" stroke-miterlimit="10"/>
<path d="M15.8008 17.4258L16.4553 20.7416" stroke="#344A48" stroke-width="0.397223" stroke-miterlimit="10"/>
<path d="M14.5219 17.8262L14.4961 21.0295" stroke="#344A48" stroke-width="0.397223" stroke-miterlimit="10"/>
<path d="M13.2108 17.3965L12.4922 20.7492" stroke="#344A48" stroke-width="0.397223" stroke-miterlimit="10"/>
<path d="M16.2218 9.49143C16.1106 8.81201 16.5078 8.184 17.1083 8.08836C17.7092 7.99311 18.2865 8.46641 18.3971 9.14574" stroke="#344A48" stroke-width="0.318715" stroke-miterlimit="10"/>
<path d="M7.87369 13.0061C7.67947 12.345 7.99508 11.6739 8.57948 11.5067C9.16409 11.3396 9.7956 11.7398 9.9902 12.4007" stroke="#344A48" stroke-width="0.318715" stroke-miterlimit="10"/>
<path d="M36.9129 2.45632L36.9853 1.55078C36.3439 9.57018 37.035 10.9747 40.493 11.2436C37.035 10.9747 36.1316 12.2238 35.5055 20.054C36.1316 12.2238 35.4538 10.8518 32.0625 10.5881C35.4537 10.8518 36.3336 9.6998 36.9129 2.45632Z" fill="#F9ED35" stroke="#F9ED35" stroke-width="0.59261" stroke-miterlimit="10"/>
<path d="M31.5853 16.9837C31.449 16.3501 31.4059 14.931 31.7481 14.5937C32.0904 14.2563 32.2562 14.4197 32.3459 14.8323C32.4356 15.2448 32.4288 15.4857 32.3459 15.5676C32.263 15.6494 34.8871 14.0897 35.216 14.5937C35.5449 15.0976 33.5251 15.7888 33.4821 15.9374C33.4393 16.0862 34.1549 16.9249 32.4059 17.5584L31.5853 16.9837Z" fill="#344A48"/>
<path d="M9.39844 15.4707C11.4304 15.4707 11.4304 16.1334 11.4304 16.1334C11.4304 16.1334 9.79125 15.9931 9.41631 16.573" stroke="#344A48" stroke-width="0.395073" stroke-miterlimit="10"/>
<path d="M47.1406 27.3412C47.1406 21.0408 48.2281 12.7992 48.6184 10.0645C48.7445 9.23794 49.2259 8.69641 50.0172 9.55897C50.8085 10.4215 56.2746 16.0544 56.2746 16.0544" stroke="#282929" stroke-width="2.43005" stroke-miterlimit="10"/>
<path d="M63.9347 27.3412C63.9347 21.0408 62.8488 12.7992 62.4585 10.0645C62.3309 9.23794 61.851 8.69641 61.0597 9.55897C60.2684 10.4215 54.8008 16.0529 54.8008 16.0529" stroke="#282929" stroke-width="2.43005" stroke-miterlimit="10"/>
<path d="M83.793 9.39258H99.892" stroke="#282929" stroke-width="2.43005" stroke-miterlimit="10"/>
<path d="M91.8398 27.3428V9.39258" stroke="#282929" stroke-width="2.43005" stroke-miterlimit="10"/>
<path d="M120.25 27.344V8.9707C125.39 8.9707 129.63 9.32473 129.63 13.5475C129.622 17.8183 125.11 17.8108 120.25 18.7409" stroke="#282929" stroke-width="2.43005" stroke-miterlimit="10"/>
<path d="M132.124 26.8315C129.18 25.2354 126.238 19.6625 126.238 17.8789" stroke="#282929" stroke-width="2.43005" stroke-miterlimit="10"/>
<path d="M69.918 26.8152C69.918 26.8152 75.7546 10.5556 75.9551 9.93607C76.3834 8.63998 77.4207 8.42246 77.9538 9.93607C78.4869 11.4497 83.9925 26.8182 83.9925 26.8182" stroke="#282929" stroke-width="2.43005" stroke-miterlimit="10"/>
<path d="M72.0352 19.3887C73.3049 20.7103 80.6922 20.5888 81.8374 19.3887" stroke="#282929" stroke-width="2.43005" stroke-miterlimit="10"/>
<path d="M72.0134 17.4668L68.4336 27.342H71.0656L73.3696 20.746L72.0134 17.4668Z" fill="#282929"/>
<path d="M81.8863 17.4668H79.8633L82.8614 27.342L85.4797 27.3345L81.8863 17.4668Z" fill="#282929"/>
<path d="M103.633 7.92578V27.3431" stroke="#282929" stroke-width="2.43005" stroke-miterlimit="10"/>
<path d="M114.344 7.92578V27.3431" stroke="#282929" stroke-width="2.43005" stroke-miterlimit="10"/>
<path d="M103.922 19.6621C105.233 21.0257 112.854 20.8937 114.037 19.6621" stroke="#282929" stroke-width="2.43005" stroke-miterlimit="10"/>
<path d="M144.864 7.5957H141.785L155.869 27.3431H158.973L144.864 7.5957Z" fill="#282929"/>
<path d="M158.995 7.5957H155.907L141.809 27.3431H144.902L158.995 7.5957Z" fill="#282929"/>
<path d="M137.395 16.5352V27.3434" stroke="#282929" stroke-width="2.43005" stroke-miterlimit="10"/>
<path d="M137.395 7.57422C136.606 7.57422 135.835 7.80525 135.179 8.23811C134.523 8.67096 134.012 9.28619 133.71 10.006C133.408 10.7258 133.329 11.5179 133.483 12.282C133.637 13.0462 134.017 13.7481 134.574 14.299C135.132 14.8499 135.843 15.2251 136.616 15.3771C137.39 15.5291 138.192 15.4511 138.921 15.1529C139.65 14.8548 140.272 14.3498 140.711 13.702C141.149 13.0542 141.383 12.2926 141.383 11.5135C141.383 10.4687 140.963 9.46676 140.215 8.72801C139.467 7.98925 138.452 7.57422 137.395 7.57422ZM136.228 13.3961V9.92038L139.354 11.671L136.228 13.3961Z" fill="#F9ED35"/>
<path d="M48.8056 34.1003L48.6689 33.6787H47.302L47.1653 34.1003H45.8516L47.258 30.5H48.7084L50.1133 34.1003H48.8056ZM47.9824 31.5666L47.6058 32.7277H48.3651L47.9824 31.5666Z" fill="#F9ED35"/>
<path d="M51.5742 32.3002C51.5742 31.1871 52.4764 30.4355 53.6701 30.4355C54.671 30.4355 55.1737 30.9861 55.4015 31.4856L54.4083 31.9237C54.3532 31.7728 54.2532 31.642 54.1215 31.5483C53.9898 31.4546 53.8324 31.4024 53.6701 31.3986C53.5505 31.3986 53.432 31.4219 53.3214 31.4671C53.2108 31.5124 53.1104 31.5787 53.0258 31.6622C52.9412 31.7458 52.874 31.845 52.8282 31.9542C52.7824 32.0634 52.7589 32.1805 52.7589 32.2987C52.7589 32.4169 52.7824 32.5339 52.8282 32.6431C52.874 32.7523 52.9412 32.8515 53.0258 32.9351C53.1104 33.0187 53.2108 33.085 53.3214 33.1302C53.432 33.1755 53.5505 33.1987 53.6701 33.1987C53.8322 33.1951 53.9894 33.1431 54.1211 33.0497C54.2529 32.9563 54.3529 32.8257 54.4083 32.6752L55.4061 33.1102C55.1828 33.5918 54.6756 34.1603 53.6747 34.1603C52.4764 34.1648 51.5742 33.4073 51.5742 32.3002Z" fill="#F9ED35"/>
<path d="M58.0339 34.0989V31.4467H57.0117V30.4941H60.2012V31.4467H59.1836V34.0989H58.0339Z" fill="#F9ED35"/>
<path d="M62.0742 34.1003V30.5H63.2285V34.1003H62.0742Z" fill="#F9ED35"/>
<path d="M66.2916 34.1003L64.8867 30.5H66.1944L67.0176 32.9272L67.8392 30.5H69.1484L67.742 34.1003H66.2916Z" fill="#F9ED35"/>
<path d="M70.8125 34.1003V30.5H73.6982V31.4526H71.9653V31.8081H73.6617V32.7592H71.9653V33.1537H73.7027V34.1048L70.8125 34.1003Z" fill="#F9ED35"/>
<path d="M79.401 34.0989V31.4467H78.3789V30.4941H81.5683V31.4467H80.5508V34.0989H79.401Z" fill="#F9ED35"/>
<path d="M83.2422 32.3002C83.2422 31.1916 84.1535 30.4355 85.3275 30.4355C86.5015 30.4355 87.4128 31.1856 87.4128 32.3002C87.4128 33.4148 86.5015 34.1648 85.3275 34.1648C84.1535 34.1648 83.2422 33.4073 83.2422 32.3002ZM86.2418 32.3002C86.2418 32.1222 86.1883 31.9481 86.0882 31.8001C85.9881 31.6521 85.8458 31.5368 85.6792 31.4686C85.5127 31.4005 85.3295 31.3827 85.1527 31.4174C84.976 31.4521 84.8136 31.5379 84.6861 31.6637C84.5587 31.7896 84.4719 31.95 84.4368 32.1246C84.4016 32.2992 84.4196 32.4802 84.4886 32.6446C84.5576 32.8091 84.6744 32.9497 84.8242 33.0486C84.9741 33.1475 85.1503 33.2002 85.3305 33.2002C85.4509 33.2036 85.5707 33.1825 85.6825 33.1384C85.7944 33.0943 85.8959 33.0281 85.9808 32.9438C86.0658 32.8594 86.1323 32.7589 86.1764 32.6482C86.2205 32.5375 86.2412 32.4191 86.2372 32.3002H86.2418Z" fill="#F9ED35"/>
<path d="M91.8404 34.0989L90.434 32.2733V34.0989H89.2812V30.4986H90.4689L91.7948 32.2073V30.4941H92.9476V34.0944L91.8404 34.0989Z" fill="#F9ED35"/>
<path d="M101.302 34.0986V31.94L100.45 34.1061H99.9366L99.0861 31.94V34.1061H97.9258V30.5059H99.519L100.187 32.2355L100.856 30.5059H102.45V34.1061L101.302 34.0986Z" fill="#F9ED35"/>
<path d="M104.328 32.3002C104.328 31.1916 105.239 30.4355 106.413 30.4355C107.587 30.4355 108.499 31.1856 108.499 32.3002C108.499 33.4148 107.587 34.1648 106.413 34.1648C105.239 34.1648 104.328 33.4073 104.328 32.3002ZM107.328 32.3002C107.328 32.1222 107.274 31.9481 107.174 31.8001C107.074 31.6521 106.932 31.5368 106.765 31.4686C106.599 31.4005 106.415 31.3827 106.239 31.4174C106.062 31.4521 105.9 31.5379 105.772 31.6637C105.645 31.7896 105.558 31.95 105.523 32.1246C105.488 32.2992 105.506 32.4802 105.575 32.6446C105.644 32.8091 105.76 32.9497 105.91 33.0486C106.06 33.1475 106.236 33.2002 106.416 33.2002C106.537 33.2042 106.657 33.1836 106.77 33.1398C106.882 33.096 106.984 33.0298 107.07 32.9454C107.155 32.8611 107.222 32.7603 107.267 32.6493C107.311 32.5383 107.332 32.4194 107.328 32.3002Z" fill="#F9ED35"/>
<path d="M110.363 34.1003V30.5H112.066C113.266 30.5 114.157 31.1495 114.157 32.3001C114.157 33.4507 113.266 34.1003 112.072 34.1003H110.363ZM112.986 32.3001C112.986 31.8141 112.682 31.4526 112.075 31.4526H111.521V33.1537H112.069C112.187 33.1611 112.306 33.1444 112.417 33.1045C112.529 33.0646 112.631 33.0025 112.717 32.922C112.803 32.8415 112.871 32.7443 112.918 32.6365C112.964 32.5288 112.987 32.4127 112.986 32.2956V32.3001Z" fill="#F9ED35"/>
<path d="M116.027 34.1003V30.5H118.913V31.4526H117.182V31.8081H118.878V32.7592H117.182V33.1537H118.919V34.1048L116.027 34.1003Z" fill="#F9ED35"/>
<path d="M127.166 34.1006V31.9419L126.322 34.1006H125.807L124.955 31.9419V34.1081H123.801V30.5078H125.396L126.064 32.2374L126.732 30.5078H128.325V34.1081L127.166 34.1006Z" fill="#F9ED35"/>
<path d="M132.942 34.1003L132.805 33.6787H131.438L131.301 34.1003H129.992L131.399 30.5H132.849L134.254 34.1003H132.942ZM132.118 31.5666L131.742 32.7277H132.501L132.118 31.5666Z" fill="#F9ED35"/>
<path d="M135.707 32.3002C135.707 31.1871 136.609 30.4355 137.803 30.4355C138.802 30.4355 139.305 30.9861 139.534 31.4856L138.54 31.9237C138.485 31.7728 138.385 31.6419 138.254 31.5482C138.122 31.4544 137.965 31.4023 137.803 31.3986C137.683 31.3986 137.565 31.4219 137.454 31.4671C137.344 31.5124 137.243 31.5787 137.159 31.6622C137.074 31.7458 137.007 31.845 136.961 31.9542C136.915 32.0634 136.892 32.1805 136.892 32.2987C136.892 32.4169 136.915 32.5339 136.961 32.6431C137.007 32.7523 137.074 32.8515 137.159 32.9351C137.243 33.0187 137.344 33.085 137.454 33.1302C137.565 33.1755 137.683 33.1987 137.803 33.1987C137.965 33.195 138.122 33.143 138.253 33.0495C138.385 32.9561 138.484 32.8256 138.54 32.6752L139.539 33.1102C139.316 33.5918 138.807 34.1603 137.807 34.1603C136.609 34.1648 135.707 33.4073 135.707 32.3002Z" fill="#F9ED35"/>
<path d="M143.877 34.1003V32.7232H142.51V34.1003H141.355V30.5H142.51V31.7766H143.877V30.5H145.031V34.1003H143.877Z" fill="#F9ED35"/>
<path d="M147.102 34.1003V30.5H148.256V34.1003H147.102Z" fill="#F9ED35"/>
<path d="M152.888 34.0989L151.483 32.2733V34.0989H150.324V30.4986H151.513L152.838 32.2073V30.4941H153.992V34.0944L152.888 34.0989Z" fill="#F9ED35"/>
<path d="M156.07 34.1003V30.5H158.956V31.4526H157.225V31.8081H158.921V32.7592H157.225V33.1537H158.961V34.1048L156.07 34.1003Z" fill="#F9ED35"/>
</svg>
