<svg width="80" height="25" viewBox="0 0 80 25" fill="none" xmlns="http://www.w3.org/2000/svg">
<path fill-rule="evenodd" clip-rule="evenodd" d="M35.3001 15.6274C35.5155 15.6655 35.711 15.7732 35.8343 15.7087C36.2447 15.494 36.6884 15.4871 37.1151 15.393C37.6381 15.2774 38.2006 15.3086 38.7006 15.1726C39.3875 14.9859 40.0901 14.848 40.7761 14.7312C41.4833 14.6105 42.1725 14.3644 42.8965 14.3269C43.2204 14.31 43.536 14.1096 43.8582 14.0017C43.8927 13.9902 43.9444 14.0407 44 14.0687C43.9957 14.142 43.9909 14.2202 43.9849 14.3199C43.5597 14.3866 43.1096 14.3624 42.7406 14.5435C42.4093 14.7058 42.0449 14.5489 41.7983 14.7169C41.5018 14.9189 41.1631 14.7175 40.9414 14.9211C40.6805 15.1609 40.3786 14.8985 40.1452 15.0926C39.8655 15.3251 39.5222 15.091 39.2616 15.2257C38.8958 15.415 38.4535 15.2257 38.1755 15.4261C37.7988 15.6976 37.3422 15.3321 37.0377 15.7294C36.6254 15.6271 36.2521 15.8529 35.858 15.9028C35.4125 15.9593 34.9422 15.9384 34.5301 16.1C34.1786 16.2382 33.7944 16.1226 33.5136 16.2826C33.2531 16.4313 32.9903 16.3096 32.7933 16.4386C32.5277 16.6123 32.2623 16.5589 31.9949 16.6031C31.772 16.6399 31.548 16.6888 31.3259 16.7476C30.9176 16.8559 30.5103 17.0258 30.074 16.9448C29.973 16.9261 29.81 16.8946 29.7727 16.9502C29.5392 17.2967 29.1805 16.9874 28.9185 17.1824C28.62 17.4044 28.2719 17.2468 27.9477 17.2865C27.8452 17.2993 27.7023 17.2399 27.6438 17.2973C27.4237 17.5117 27.1338 17.3688 26.9326 17.4816C26.6552 17.6365 26.4412 17.4133 26.1966 17.4593C25.8311 17.5273 25.4629 17.5813 25.0948 17.6337C24.7806 17.6785 24.4653 17.7121 24.112 17.7556C24.1011 17.7455 24.0478 17.695 24.0175 17.6664C23.8349 17.7709 23.6719 17.8643 23.5489 17.9351C23.2245 17.7556 22.9414 17.741 22.66 17.9208C22.3495 18.119 22.0855 17.8941 21.8156 17.8011C21.5048 17.694 21.2748 18.2041 20.9009 17.8655C20.7134 17.6959 20.329 17.7947 20 17.7699C20.4994 17.4504 21.0031 17.3901 21.4965 17.4749C22.0042 17.5629 22.4742 17.1513 22.977 17.3926C23.2715 17.1506 23.5378 17.3275 23.8137 17.479C23.9459 17.3485 24.0752 17.2205 24.2233 17.0738C24.3951 17.149 24.5494 17.217 24.7115 17.2881C24.9387 17.1112 25.1761 16.9871 25.4156 17.277C25.5137 17.1681 25.6053 17.0661 25.7126 16.9464C26.2962 16.9143 26.9052 17.0191 27.4934 16.7762C27.7419 16.6736 28.0162 16.624 28.2821 16.6018C28.7813 16.5605 29.2752 16.5488 29.7778 16.4598C30.314 16.3652 30.8522 16.1273 31.4207 16.2375C31.5129 16.2556 31.6287 16.121 31.7395 16.053C31.8085 16.1181 31.8684 16.2213 31.9207 16.2169C32.3379 16.1813 32.7545 16.1315 33.1692 16.0695C33.2322 16.06 33.2853 15.9654 33.3435 15.9101C33.3961 15.9634 33.4517 16.0193 33.5359 16.1051C33.7311 15.9939 33.9388 15.8755 34.1472 15.757C34.1646 15.7767 34.1805 15.8104 34.2017 15.8154C34.5393 15.8917 34.8509 15.6217 35.1959 15.7202C35.2381 15.7322 35.3092 15.6189 35.3001 15.6274ZM67.6566 8.66276C67.6824 8.55948 67.6998 8.49064 67.7267 8.38344C67.7881 8.42878 67.836 8.46461 67.8899 8.50491C68.2698 8.2936 68.6511 8.06858 69.044 7.86678C69.5711 7.59614 70.1103 7.3644 70.6158 7.03442C71.0448 6.75454 71.5877 6.59389 71.9471 6.22865C72.2873 5.88412 72.8335 5.92358 73.0939 5.49956C73.6129 5.43015 73.8687 4.94232 74.3052 4.73549C74.4337 4.67476 74.52 4.56392 74.6933 4.55413C74.868 4.54377 74.8657 4.50207 75.0612 4.13487C75.1147 4.12731 75.1848 4.11528 75.2555 4.10884C75.3057 4.10408 75.3929 4.12367 75.4024 4.10352C75.6329 3.61569 76.2775 3.738 76.5526 3.32154C76.5787 3.28235 76.5955 3.20679 76.6238 3.20287C77.4288 3.09679 77.9122 2.39682 78.6252 2.12841C78.8922 2.02765 79.0001 1.74973 79.2511 1.64114C79.3585 1.5944 79.4577 1.52779 79.5735 1.46314C79.6041 1.34363 79.6167 1.19389 79.6812 1.0713C79.746 0.948158 79.8623 0.851599 80 0.693188C79.5898 0.511826 79.2059 0.655124 78.8577 0.469564C79.1392 0.45641 79.4207 0.443255 79.7224 0.428981C79.7392 0.366848 79.7577 0.298277 79.7762 0.230547C78.8058 -0.0795599 78.7924 -0.112306 77.654 0.352854C76.8487 0.682273 75.9811 0.8975 75.2911 1.47461C74.6294 1.62351 74.1045 2.05424 73.5134 2.34728C72.7076 2.74694 71.9432 3.22834 71.1461 3.64564C70.1428 4.17125 69.1275 4.6742 68.1111 5.17434C67.1597 5.64258 66.1789 6.03917 65.1894 6.42484C64.5366 6.67925 63.8906 6.97845 63.2365 7.24377C62.582 7.5091 61.9186 7.75259 61.2572 8.00113C60.7721 8.18305 60.2963 8.42402 59.7935 8.51694C59.2616 8.61518 58.8635 8.98994 58.3425 9.0851C58.0139 9.14527 57.7192 9.36274 57.3614 9.29977C57.3121 9.29081 57.2448 9.27766 57.2108 9.30145C56.6487 9.70028 55.9586 9.72407 55.3336 9.93705C54.6842 10.1582 54.0197 10.3362 53.3571 10.5161C52.9907 10.6158 52.6144 10.6667 52.2591 10.8195C51.8399 10.9998 51.3691 10.974 50.9323 11.1204C50.3931 11.3009 49.8281 11.4238 49.2746 11.5357C48.7337 11.6452 48.1948 11.7663 47.661 11.8996C46.6199 12.159 45.546 12.2768 44.527 12.6348C44.2576 12.7297 43.9671 12.6698 43.6721 12.784C43.2745 12.9382 42.7468 12.7997 42.3859 12.9933C41.9875 13.2069 41.5251 12.9264 41.1962 13.2673C40.4069 13.245 39.665 13.573 38.8768 13.5805C38.6427 13.5825 38.4097 13.6768 38.1756 13.7249C37.9168 13.7784 37.6583 13.833 37.3978 13.8764C37.1611 13.9161 36.8872 13.7806 36.6971 14.0309C36.2967 13.9774 35.9209 14.1442 35.536 14.168C35.0427 14.1985 34.5773 14.449 34.0715 14.3362C33.7922 14.6469 33.3354 14.3323 33.0413 14.6273C32.99 14.6788 32.8467 14.6385 32.7458 14.6418C32.4536 14.6513 32.1727 14.6315 31.8841 14.7793C31.6371 14.9058 31.3194 14.7191 31.0228 14.9254C30.8517 15.044 30.5307 14.9466 30.2881 14.9466C30.1875 15.0474 30.0972 15.1372 30.0044 15.2301C29.5872 14.9469 29.242 15.1355 28.9052 15.3978C28.6899 15.14 28.3447 15.1803 28.1487 15.2884C27.8964 15.4269 27.6676 15.3958 27.4293 15.4C26.7333 15.4123 26.0584 15.6396 25.3507 15.5738C25.1687 15.5568 24.9683 15.7404 24.7818 15.8291C24.6884 15.7933 24.5833 15.7367 24.4714 15.7132C24.1585 15.6472 23.8604 15.8084 23.5231 15.735C23.2436 15.6743 22.8959 15.7865 22.6188 15.9114C22.4663 15.9799 22.4142 15.8758 22.3415 15.8823C21.9296 15.9195 21.4967 15.7149 21.0983 16.0046C20.9982 16.0771 20.8002 16.0155 20.6474 16.0155C19.5516 16.0155 18.4559 16.0121 17.3601 16.0183C17.1131 16.0194 16.8495 16.0062 16.6241 16.0857C16.3925 16.1675 16.2531 15.9005 16.031 16.0088C15.8875 16.079 15.7131 16.086 15.5255 16.1269C15.3584 16.0952 15.1486 16.0244 14.9378 16.0208C14.1227 16.0074 13.3037 15.9704 12.4922 16.027C11.4822 16.0975 10.4975 15.8809 9.49818 15.8344C8.77813 15.8011 8.07014 15.5058 7.30046 15.3135C7.15914 15.3653 6.94464 15.444 6.7136 15.5285C6.6864 15.5047 6.63229 15.4566 6.56639 15.3981C6.42732 15.5652 6.2888 15.7317 6.12646 15.9268C6.5591 16.037 6.92249 16.1294 7.34813 16.238C7.23793 16.3922 7.16924 16.4882 7.08652 16.6041L6.29833 16.6041C6.19964 16.7029 6.12758 16.7751 6 16.9021C6.17553 17.0326 6.35077 17.163 6.55293 17.3136C6.40096 17.3723 6.31348 17.4062 6.21758 17.4434C6.12478 17.866 6.40209 18.1196 6.65528 18.3813C6.60705 18.4348 6.55966 18.4882 6.54761 18.5017C6.73182 18.683 6.90959 18.8579 7.12185 19.067C7.32401 19.0186 7.57553 18.7547 7.87666 18.9864C7.82872 19.0404 7.78049 19.0944 7.68965 19.1963C8.02359 19.1426 8.31408 19.0956 8.60429 19.0488C8.61354 19.0872 8.62307 19.1263 8.6326 19.165C8.49156 19.1988 8.35053 19.2327 8.16435 19.2772C8.35501 19.376 8.50979 19.4563 8.71027 19.5602C8.75317 19.4712 8.79047 19.3947 8.86225 19.247C8.98422 19.2397 9.1718 19.2285 9.40088 19.2151C9.33667 19.3668 9.28984 19.4773 9.20404 19.6794C9.3905 19.6794 9.50995 19.6878 9.62799 19.678C10.4812 19.6072 11.3067 19.8966 12.1647 19.8437C13.028 19.7905 13.8981 19.8554 14.7625 19.8129C14.9465 19.8039 15.0589 20.0894 15.2748 19.8803C15.3415 19.8157 15.6074 19.9573 15.6755 19.8924C15.9217 19.6584 16.008 20.0141 16.206 19.9996C16.5498 19.9741 16.8487 19.8031 17.2123 19.8171C18.3064 19.8588 19.4036 19.8456 20.4991 19.8249C20.9118 19.8174 21.322 19.7099 21.7356 19.685C22.1598 19.6595 22.5866 19.6794 23.0108 19.6489C22.3867 19.4751 20.9152 19.4947 20.2495 19.5867C20.3637 19.5526 20.4775 19.5185 20.5916 19.4843C20.558 19.4476 20.524 19.411 20.4904 19.374C20.9477 19.374 21.407 19.3488 21.8621 19.3799C22.5148 19.4247 23.1325 19.1087 23.787 19.2215C24.016 19.0183 24.3477 19.1644 24.5527 19.048C24.8794 18.8627 25.1536 19.2089 25.4881 19.011C25.7407 18.8616 26.1156 18.9181 26.5045 18.8756C26.5348 18.8509 26.624 18.7785 26.7131 18.706C26.6972 18.6724 26.6812 18.6388 26.6655 18.6052C25.9278 18.6827 25.19 18.7603 24.4153 18.842C24.3932 18.8227 24.3177 18.7572 24.2423 18.6917C24.3239 18.6102 24.396 18.5383 24.468 18.4667C24.5423 18.5218 24.6166 18.5769 24.7773 18.6964C24.8208 18.521 24.8611 18.3578 24.9015 18.1946L25.0594 18.3281C25.1289 18.3626 25.1987 18.3973 25.2865 18.4406C25.3025 18.3637 25.3168 18.294 25.3375 18.1938C25.6426 18.1193 25.9673 18.0404 26.2956 17.9604C26.3615 18.0997 26.4109 18.2041 26.467 18.3228C26.7339 18.2257 26.9946 18.1311 27.2464 18.0396C27.3213 18.0838 27.4023 18.1322 27.5153 18.1991C27.6693 18.0046 27.8092 17.8274 27.9494 17.6503C28.0332 17.7337 28.0694 17.7698 28.1221 17.8224C28.2522 17.7589 28.389 17.6922 28.5343 17.6214C28.4575 17.547 28.3846 17.4765 28.3049 17.3995C28.2553 17.4426 28.2026 17.4885 28.1218 17.5587C27.9914 17.4994 27.8442 17.432 27.6797 17.3569C27.6376 17.477 27.6067 17.5657 27.5737 17.6601C27.3594 17.5876 27.1472 17.5156 26.9119 17.4359C26.6142 17.6735 26.2269 17.4762 25.8408 17.5618C25.759 17.6393 25.651 17.7415 25.5428 17.8434C25.3305 17.5663 25.0198 17.7633 24.7271 17.6637C24.7229 17.596 24.7176 17.5092 24.7083 17.3547C24.8168 17.4392 24.867 17.4779 24.9582 17.5489C25.0327 17.4381 25.1143 17.3172 25.2007 17.189C25.33 17.3259 25.4166 17.4177 25.5161 17.5232C25.6776 17.4406 25.8372 17.3589 26.0051 17.2727C26.2281 17.4918 26.4468 17.367 26.6963 17.2456C26.9063 17.1431 27.1539 17.1176 27.4007 17.0544C27.4511 16.9657 27.5139 16.8557 27.6393 16.6357C27.7307 16.8568 27.7719 16.9564 27.8339 17.1065C28.0571 17.074 28.2948 17.0396 28.5326 17.0043C28.7726 16.9688 29.0572 17.0004 29.2417 16.88C29.4893 16.718 29.6432 17.0927 29.8956 16.8946C30.0647 16.7616 30.3563 16.784 30.591 16.7373C30.6984 16.8937 30.7785 17.011 30.9288 17.231C30.6448 17.2055 30.4724 17.1899 30.211 17.1661C30.2256 17.1526 30.1569 17.2162 30.0692 17.2971C30.1081 17.3471 30.1465 17.3961 30.1964 17.4608C30.16 17.5053 30.1177 17.5568 30.0764 17.6069C30.1031 17.634 30.1342 17.6922 30.1614 17.6903C30.3843 17.6743 30.6061 17.6332 30.829 17.6276C31.0685 17.622 31.366 17.7398 31.5353 17.636C31.7924 17.4784 32.0299 17.6013 32.2865 17.5252C32.3759 17.4403 32.485 17.3365 32.6266 17.2022C32.7393 17.2831 32.8551 17.3662 33.0304 17.4918C32.2579 17.8621 31.4577 17.896 30.5739 18.0768C30.9835 18.1991 31.3043 18.1753 31.6021 18.1364C31.7793 18.1135 31.9408 17.9769 32.153 17.9928C32.3215 18.0057 32.5604 17.8725 32.6532 17.9469C32.8896 18.1364 32.9541 17.8425 33.1092 17.8462C33.3127 17.8509 33.5194 17.8669 33.7199 17.8423C33.9565 17.8134 34.1862 17.7328 34.4222 17.6984C34.637 17.6671 34.8411 17.6354 35.0551 17.5699C35.3972 17.4655 35.7948 17.5422 36.1716 17.6609C35.9173 17.6819 35.6633 17.7032 35.2962 17.7339C36.0048 18.0429 36.5667 17.6262 37.1454 17.6945C37.2584 17.5408 37.3493 17.3642 37.49 17.247C37.561 17.1879 37.7219 17.2369 38.0029 17.2369C37.7527 17.3592 37.6568 17.4059 37.5595 17.4535C37.5952 17.4848 37.6302 17.5405 37.6599 17.5377C37.9731 17.51 38.2844 17.5982 38.6009 17.4062C38.8342 17.2646 39.1536 17.4219 39.4629 17.2769C39.8204 17.1093 40.2754 17.1613 40.6798 17.0779C41.0774 16.9956 41.4786 16.9377 41.8737 16.8302C42.4516 16.6732 43.0572 16.6186 43.6362 16.465C44.2138 16.3119 44.836 16.372 45.3828 16.0695C45.6581 15.917 45.9851 16.0057 46.2994 15.8879C46.9639 15.6393 47.6828 15.5374 48.3757 15.3608C48.7455 15.2668 49.0949 15.1078 49.4897 15.0936C49.9621 15.0762 50.2714 14.8674 50.4688 14.4837C50.5229 14.5943 50.5689 14.6889 50.6188 14.791C50.6755 14.7406 50.7285 14.6936 50.7817 14.6463C50.8333 14.6925 50.8872 14.7406 50.8855 14.7389C51.1675 14.6477 51.4151 14.4988 51.6582 14.5058C51.9905 14.515 52.1879 14.2903 52.618 14.2047C53.2929 14.344 53.9684 13.7129 54.8042 13.7093C54.8244 13.5735 54.8457 13.4333 54.8867 13.1601C55.007 13.3695 55.0787 13.4946 55.0984 13.5287C55.7842 13.4246 56.3136 13.175 56.8256 12.8769L56.8256 12.6656C56.94 12.7221 57.0244 12.7876 57.1177 12.8041C57.2414 12.826 57.3715 12.8097 57.5212 12.8097C57.5939 12.7261 57.6769 12.6309 57.7716 12.5217L58.4448 12.5217C58.4841 12.4115 58.5155 12.3227 58.5548 12.2122C58.6307 12.2603 58.7025 12.306 58.8195 12.3801C58.9689 12.2458 59.129 12.1016 59.2571 11.9863C59.2751 11.8184 59.2877 11.7014 59.3104 11.4912C59.4728 11.7342 59.5779 11.8912 59.6889 12.0574C60.146 11.8775 60.5615 11.6102 61.0727 11.5187C61.5236 11.438 61.8945 11.0848 62.3642 10.9511C62.6233 10.8772 62.833 10.604 63.1624 10.6723C63.3203 10.4179 63.601 10.3947 63.8469 10.295C64.1545 10.1708 64.5588 10.248 64.7739 9.96812C64.9909 9.68628 65.4325 9.84721 65.5775 9.4912C65.8932 9.45566 66.1472 9.23511 66.4321 9.16738C66.7604 9.08958 67.0134 8.95607 67.2576 8.74365C67.3361 8.67536 67.4897 8.69327 67.6566 8.66276Z" fill="#229A87"/>
<path fill-rule="evenodd" clip-rule="evenodd" d="M0.0493082 14.2589C0.0782122 14.3249 0.168434 14.4333 0.143583 14.4888C-0.121412 15.0708 0.0401244 15.6464 0.154388 16.2206C0.248393 16.6935 0.321056 17.1888 0.600907 17.5872C1.11955 18.325 1.43992 19.234 2.3154 19.6764C2.34052 20.1463 3.01395 20.0754 3.03529 20.5488C3.5226 20.7865 3.81758 21.2518 4.23249 21.5749C4.49316 21.7779 4.74654 21.9877 4.99209 22.2091C5.08636 22.2942 5.24385 22.3083 5.41592 22.3708C5.46967 22.4814 5.54963 22.645 5.64985 22.8513C5.83407 22.9689 6.06341 23.1154 6.32678 23.2839C6.33381 23.4095 6.34299 23.5755 6.35244 23.7527C6.43726 23.7837 6.52235 23.8149 6.60744 23.8462C6.74818 24.1323 6.44807 24.0551 6.35839 24.1513C6.53478 24.5378 6.84894 24.7829 7.21874 25C7.45456 24.8187 7.69389 24.6353 7.95619 24.4334L7.95619 23.4412C8.05748 23.3342 8.1577 23.2285 8.26278 23.1173C8.20173 22.6483 8.34787 22.1673 8.12286 21.6942C8.01453 21.467 7.98293 21.1977 7.77682 21.0268C7.64527 20.9178 7.69578 20.6577 7.42566 20.6441C7.36623 20.6411 7.32436 20.3621 7.26763 20.2126C7.15499 19.9156 6.89729 19.7273 6.69659 19.505C6.21927 18.9751 5.73358 18.4416 5.1855 17.9905C4.64146 17.5435 4.15713 17.0157 3.52314 16.6774C3.33783 16.5785 3.1998 16.3915 3.03475 16.2516C2.87483 16.1163 2.70762 15.9893 2.49882 15.823C2.75922 15.71 3.02097 15.5967 3.32081 15.4665C3.35782 15.5665 3.38726 15.6472 3.41833 15.7317C4.05988 15.6717 4.62147 15.2948 5.28571 15.1673L5.28571 14.8366C5.78761 14.6792 6.26384 14.5301 6.74008 14.3809C6.93727 14.3156 7.12014 14.6124 7.37487 14.3847C7.27223 14.3363 7.17417 14.2901 7.07611 14.2442C7.42863 14.3094 7.73117 13.705 8.10665 14.2311C8.57181 13.6833 9.41865 13.9425 9.8098 13.2925C9.84815 13.3273 9.89948 13.374 9.96944 13.4379C10.3382 13.2971 10.7099 13.1036 11.1048 13.0191C11.5148 12.9308 11.6445 12.4974 12.1399 12.3889C12.6278 12.4653 13.1815 12.3256 13.6513 11.9316C13.7207 11.7196 13.7844 11.5242 13.8528 11.3158C13.8158 11.2533 13.772 11.1791 13.7285 11.1049C13.815 11.0174 13.9019 10.9302 14 10.8316C13.8017 10.7313 13.6075 10.6332 13.4114 10.534C13.5035 10.4416 13.5902 10.3544 13.6991 10.2448C13.57 10.1688 13.4457 10.0957 13.2836 10C12.9859 10.3633 12.52 10.097 12.1102 10.2823C11.5343 10.543 10.8649 10.5864 10.246 10.7609C9.52319 10.9644 8.81222 11.2115 8.09476 11.4348C7.33138 11.6723 6.5699 11.9128 5.79031 12.1009C5.15092 12.2547 4.55313 12.5656 3.90023 12.6911C3.68008 12.9626 3.28191 12.7077 3.06149 12.9789C2.50719 12.9216 2.05203 13.32 1.50826 13.3238C1.39994 13.3246 1.29378 13.4012 1.18303 13.4213C0.687078 13.5115 0.221649 13.6412 0.0493082 14.2589Z" fill="#229A87"/>
</svg>
