<svg width="20" height="22" viewBox="0 0 20 22" fill="none" xmlns="http://www.w3.org/2000/svg">
<path fill-rule="evenodd" clip-rule="evenodd" d="M19.1418 19.7457L14.7163 15.2648C17.8172 12.0886 17.9117 6.99 14.9307 3.69697C11.9498 0.403934 6.95036 0.0841182 3.58792 2.97136C0.225486 5.8586 -0.307734 10.9292 2.37814 14.4756C5.06401 18.022 10.0166 18.7868 13.6148 16.2107L18.1264 20.8037C18.4095 21.0722 18.8506 21.0643 19.1242 20.7858C19.3978 20.5073 19.4056 20.0582 19.1418 19.7701V19.7457ZM2.00098 9.33342C2.00098 5.46743 5.13498 2.33342 9.00098 2.33342C12.867 2.33342 16.001 5.46743 16.001 9.33342C16.001 13.1994 12.867 16.3334 9.00098 16.3334C5.13498 16.3334 2.00098 13.1994 2.00098 9.33342Z" fill="white"/>
<path d="M19.1418 19.7457H19.6418V19.5404L19.4976 19.3943L19.1418 19.7457ZM14.7163 15.2648L14.3586 14.9156L14.0156 15.2669L14.3606 15.6162L14.7163 15.2648ZM13.6148 16.2107L13.9715 15.8604L13.6716 15.5551L13.3237 15.8042L13.6148 16.2107ZM18.1264 20.8037L17.7697 21.1541L17.7759 21.1604L17.7823 21.1665L18.1264 20.8037ZM19.1418 19.7701H18.6418V19.9643L18.773 20.1076L19.1418 19.7701ZM19.4976 19.3943L15.0721 14.9135L14.3606 15.6162L18.7861 20.097L19.4976 19.3943ZM15.0741 15.6141C18.3597 12.2487 18.4594 6.85008 15.3014 3.36142L14.56 4.03252C17.3639 7.12993 17.2747 11.9286 14.3586 14.9156L15.0741 15.6141ZM15.3014 3.36142C12.1392 -0.131807 6.83103 -0.472456 3.26219 2.59202L3.91365 3.3507C7.06969 0.640693 11.7603 0.939676 14.56 4.03252L15.3014 3.36142ZM3.26219 2.59202C-0.301952 5.65246 -0.864878 11.0217 1.97955 14.7774L2.77673 14.1737C0.249409 10.8366 0.752924 6.06474 3.91365 3.3507L3.26219 2.59202ZM1.97955 14.7774C4.82753 18.5379 10.0855 19.3524 13.9058 16.6173L13.3237 15.8042C9.94779 18.2211 5.30049 17.506 2.77673 14.1737L1.97955 14.7774ZM13.2581 16.5611L17.7697 21.1541L18.4831 20.4533L13.9715 15.8604L13.2581 16.5611ZM17.7823 21.1665C18.2635 21.6229 19.0164 21.609 19.4809 21.1362L18.7675 20.4354C18.6848 20.5196 18.5555 20.5216 18.4706 20.441L17.7823 21.1665ZM19.4809 21.1362C19.941 20.6678 19.9537 19.9165 19.5106 19.4325L18.773 20.1076C18.8575 20.1999 18.8546 20.3467 18.7675 20.4354L19.4809 21.1362ZM19.6418 19.7701V19.7457H18.6418V19.7701H19.6418ZM2.50098 9.33342C2.50098 5.74357 5.41113 2.83342 9.00098 2.83342V1.83342C4.85884 1.83342 1.50098 5.19128 1.50098 9.33342H2.50098ZM9.00098 2.83342C12.5908 2.83342 15.501 5.74357 15.501 9.33342H16.501C16.501 5.19128 13.1431 1.83342 9.00098 1.83342V2.83342ZM15.501 9.33342C15.501 12.9233 12.5908 15.8334 9.00098 15.8334V16.8334C13.1431 16.8334 16.501 13.4756 16.501 9.33342H15.501ZM9.00098 15.8334C5.41113 15.8334 2.50098 12.9233 2.50098 9.33342H1.50098C1.50098 13.4756 4.85884 16.8334 9.00098 16.8334V15.8334Z" fill="white"/>
</svg>
