<svg width="149" height="32" viewBox="0 0 149 32" fill="none" xmlns="http://www.w3.org/2000/svg">
<path d="M29.9245 3.82698C43.4223 1.71652 59.957 4.46012 73.601 2.54663C89.9783 -3.3545e-06 107.717 0 124.094 0C124.094 1.26628 122.733 3.19384 124.094 3.82698C129.549 5.74047 129.549 8.30117 129.549 10.8619C129.549 12.1422 125.455 10.8619 126.827 12.1422C122.733 12.1422 115.905 12.7894 120 14.0557C121.361 15.3361 126.827 14.0557 128.188 15.9833C129.549 17.9108 126.827 19.8103 128.188 21.7237H133.644C135.016 23.0041 132.282 25.5648 133.644 25.5648C137.738 26.8451 143.204 26.1979 148.66 26.1979C148.66 27.4783 150.021 28.7586 147.299 29.3918C99.5279 30.6721 50.3961 33.2328 2.63657 31.3053C-2.83002 30.6721 1.2643 28.1114 5.35862 26.1979C3.9976 26.8452 3.99759 24.9176 2.63657 25.5648C2.63657 23.6513 5.35861 20.4575 10.8252 19.8103H6.73089C5.35862 19.1771 6.73089 17.8968 6.73089 16.6164C8.09191 16.6164 9.45294 16.6164 9.45294 15.9833V13.4085H3.99759C5.35862 13.4085 6.73089 13.4085 6.73089 12.7754V10.2147C9.45293 9.58153 13.5473 10.8478 16.2806 10.2147V8.30117C13.5473 7.65396 9.45293 8.30117 6.73089 8.30117C8.09191 7.65396 8.09191 7.02082 8.09191 5.74047C12.1862 5.10733 16.2806 7.02082 20.3749 5.10733H16.2806C19.0138 1.91349 25.8302 4.5164 29.9245 3.82698Z" fill="#5F97F0"/>
</svg>
