<svg width="215" height="41" viewBox="0 0 215 41" fill="none" xmlns="http://www.w3.org/2000/svg">
<path d="M43.1797 4.90332C62.6563 2.19929 86.5152 5.71453 106.203 3.26287C129.834 -4.29795e-06 155.43 0 179.062 0C179.062 1.62242 177.098 4.09211 179.062 4.90332C186.933 7.35498 186.933 10.6359 186.933 13.9168C186.933 15.5572 181.025 13.9168 183.006 15.5572C177.098 15.5572 167.246 16.3865 173.154 18.0089C175.118 19.6493 183.006 18.0089 184.969 20.4786C186.933 22.9483 183.006 25.3819 184.969 27.8336H192.841C194.821 29.474 190.877 32.7549 192.841 32.7549C198.749 34.3953 206.637 33.5661 214.509 33.5661C214.509 35.2066 216.473 36.847 212.545 37.6582C143.614 39.2987 72.7192 42.5796 3.80445 40.1099C-4.08359 39.2987 1.82433 36.0178 7.73224 33.5661C5.76835 34.3953 5.76834 31.9257 3.80445 32.7549C3.80445 30.3032 7.73223 26.2111 15.6203 25.3819H9.71235C7.73223 24.5707 9.71235 22.9302 9.71235 21.2898C11.6762 21.2898 13.6401 21.2898 13.6401 20.4786V17.1796H5.76834C7.73223 17.1796 9.71235 17.1796 9.71235 16.3684V13.0875C13.6401 12.2763 19.5481 13.8988 23.4921 13.0875V10.6359C19.5481 9.80664 13.6401 10.6359 9.71235 10.6359C11.6762 9.80664 11.6762 8.99543 11.6762 7.35498C17.5842 6.54377 23.4921 8.99542 29.4 6.54376H23.4921C27.4361 2.45165 37.2718 5.78664 43.1797 4.90332Z" fill="#F9ED35"/>
</svg>
