<svg width="1440" height="1365" viewBox="0 0 1440 1365" fill="none" xmlns="http://www.w3.org/2000/svg">
<path d="M1440 1321.53C1440 1321.53 1225.5 1406.24 664 1339.16C346.591 1301.25 -0.00011827 1321.53 -0.00011827 1321.53L-2.73823e-06 -3.8185e-06C-2.73823e-06 -3.8185e-06 442.434 175.632 721 93.7579C1040 -0.000157039 1440 0.00012207 1440 0.00012207L1440 1321.53Z" fill="#EDFAF6"/>
<mask id="mask0" mask-type="alpha" maskUnits="userSpaceOnUse" x="-1" y="0" width="1442" height="1365">
<path d="M1440 1321.53C1440 1321.53 1225.5 1406.24 664 1339.16C346.591 1301.25 -0.00011827 1321.53 -0.00011827 1321.53L-2.73823e-06 -3.8185e-06C-2.73823e-06 -3.8185e-06 442.434 175.632 721 93.7579C1040 -0.000157039 1440 0.00012207 1440 0.00012207L1440 1321.53Z" fill="#EDFAF6"/>
</mask>
<g mask="url(#mask0)">
<path opacity="0.1" d="M926.78 1182.31C921.93 1235.5 961.118 1282.55 1014.31 1287.4C1067.5 1292.24 1114.55 1253.06 1119.4 1199.87C1124.24 1146.68 1085.06 1099.63 1031.87 1094.78C978.679 1089.93 931.629 1129.12 926.78 1182.31Z" fill="#86C9BE"/>
<path opacity="0.1" d="M952.902 1333.42C941.89 1454.21 1030.88 1561.05 1151.66 1572.06C1272.45 1583.07 1379.29 1494.09 1390.3 1373.3C1401.31 1252.52 1312.32 1145.68 1191.54 1134.66C1070.76 1123.65 963.914 1212.64 952.902 1333.42Z" fill="#86C9BE"/>
<path opacity="0.1" d="M-140.061 150.699C-151.073 271.483 -62.0854 378.324 58.6985 389.336C179.482 400.348 286.324 311.361 297.336 190.577C308.348 69.7928 219.36 -37.0489 98.5766 -48.0609C-22.2073 -59.073 -129.049 29.9148 -140.061 150.699Z" fill="#86C9BE"/>
</g>
</svg>
