<svg width="67" height="78" viewBox="0 0 67 78" fill="none" xmlns="http://www.w3.org/2000/svg">
<path d="M50.0455 23.8659C50.2978 10.9274 40.9374 2.96773 28.6428 1.69977C15.6644 0.37206 -2.12026 10.9937 2.42051 29.7808C5.07593 40.6681 11.5286 41.5377 19.548 50.4068C24.6132 56.0098 27.0495 64.3478 35.3079 62.7612C45.2657 60.8891 43.1547 52.3918 45.7039 42.7393C47.7485 35.0253 49.9194 30.1592 50.0455 23.8659Z" fill="#F9ED35"/>
<path d="M45.2868 46.4833C39.2258 44.5979 24.9662 45.2286 20.6777 52.458L27.1238 60.5769L30.3103 62.4689L33.3773 62.9602L36.7696 62.2366L41.4166 59.8334L42.7775 57.9547L44.5101 52.0663L45.2868 46.4833Z" fill="#E88128"/>
<path d="M24.4217 40.8472C20.587 40.8472 16.9093 39.3238 14.1978 36.6123C11.4862 33.9007 9.96289 30.2231 9.96289 26.3884" stroke="#FDF5A3" stroke-width="4.97346" stroke-miterlimit="10"/>
<path d="M24.2231 57.1248C23.855 57.3026 23.5723 57.6189 23.4367 58.0045C23.3011 58.3901 23.3237 58.8137 23.4995 59.1827C23.5874 59.365 23.7105 59.5282 23.8615 59.6629C24.0126 59.7976 24.1887 59.9012 24.3798 59.9677C24.571 60.0343 24.7733 60.0626 24.9754 60.0509C25.1774 60.0392 25.3752 59.9878 25.5574 59.8997L26.4669 59.4682C26.6492 59.3802 26.8123 59.2572 26.947 59.1061C27.0817 58.9551 27.1853 58.7789 27.2519 58.5878C27.3185 58.3967 27.3468 58.1943 27.3351 57.9922C27.3234 57.7902 27.272 57.5924 27.1839 57.4102C27.0965 57.2274 26.9739 57.0636 26.8231 56.9282C26.6723 56.7928 26.4962 56.6885 26.3051 56.6213C26.1139 56.5541 25.9113 56.5252 25.709 56.5364C25.5066 56.5477 25.3085 56.5987 25.1259 56.6866L24.2231 57.1248Z" fill="#344A48"/>
<path d="M44.4036 57.4964C44.6015 57.5361 44.8053 57.5362 45.0033 57.4969C45.2013 57.4575 45.3895 57.3795 45.5573 57.2673C45.7251 57.155 45.869 57.0107 45.9809 56.8427C46.0928 56.6747 46.1704 56.4863 46.2093 56.2882C46.2489 56.0899 46.2492 55.8857 46.2099 55.6873C46.1707 55.4889 46.0927 55.3001 45.9805 55.1318C45.8683 54.9635 45.7241 54.819 45.556 54.7065C45.388 54.5939 45.1994 54.5156 45.0011 54.4759L44.0119 54.2767C43.6106 54.1986 43.1947 54.2825 42.8551 54.5102C42.5155 54.7378 42.2798 55.0907 42.1996 55.4916C42.16 55.6904 42.16 55.8951 42.1997 56.0938C42.2394 56.2926 42.3179 56.4816 42.4308 56.65C42.5436 56.8184 42.6886 56.9628 42.8574 57.075C43.0262 57.1872 43.2155 57.265 43.4145 57.3039L44.4036 57.4964Z" fill="#344A48"/>
<path d="M23.147 76.8148C23.159 77.0338 23.2572 77.2391 23.4202 77.3859C23.5831 77.5327 23.7976 77.609 24.0166 77.5981H26.0082C26.2272 77.609 26.4417 77.5327 26.6047 77.3859C26.7676 77.2391 26.8658 77.0338 26.8778 76.8148C26.8642 76.597 26.7652 76.3933 26.6024 76.2479C26.4396 76.1026 26.2262 76.0271 26.0082 76.0381H24.0166C23.7987 76.0271 23.5852 76.1026 23.4224 76.2479C23.2596 76.3933 23.1607 76.597 23.147 76.8148Z" fill="#344A48"/>
<path d="M45.9051 76.5093C45.8923 76.6158 45.9012 76.7237 45.9314 76.8265C45.9615 76.9294 46.0123 77.025 46.0806 77.1076C46.149 77.1902 46.2334 77.258 46.3287 77.307C46.4241 77.3559 46.5284 77.3849 46.6353 77.3923L48.6269 77.6645C48.8449 77.7037 49.0696 77.6562 49.2531 77.5322C49.4366 77.4082 49.5645 77.2175 49.6094 77.0006C49.6223 76.8942 49.6134 76.7863 49.5832 76.6834C49.553 76.5806 49.5022 76.4849 49.4339 76.4023C49.3656 76.3197 49.2812 76.2519 49.1858 76.203C49.0905 76.154 48.9861 76.125 48.8792 76.1177L46.8876 75.8455C46.6698 75.808 46.446 75.8561 46.2629 75.9799C46.0798 76.1036 45.9516 76.2933 45.9051 76.5093Z" fill="#344A48"/>
<path d="M35.2969 31.0617C35.3762 31.3995 35.5845 31.6928 35.8773 31.8789C36.1701 32.065 36.5241 32.1291 36.8636 32.0575C37.2014 31.9782 37.4947 31.7699 37.6808 31.4771C37.8669 31.1843 37.931 30.8302 37.8594 30.4908L37.0628 26.9325C36.9835 26.5947 36.7752 26.3014 36.4824 26.1153C36.1896 25.9292 35.8355 25.8651 35.4961 25.9367C35.1583 26.016 34.865 26.2243 34.6789 26.5171C34.4928 26.8099 34.4287 27.1639 34.5003 27.5034L35.2969 31.0617Z" fill="#344A48"/>
<path d="M20.4842 35.3038C20.603 35.6281 20.8434 35.8933 21.1545 36.0433C21.4656 36.1933 21.8228 36.2161 22.1505 36.107C22.476 35.9896 22.7428 35.7497 22.8941 35.4385C23.0454 35.1273 23.0692 34.7692 22.9604 34.4407L21.7522 30.9953C21.6335 30.6695 21.392 30.403 21.0794 30.2529C20.7668 30.1028 20.4078 30.081 20.0793 30.1921C19.755 30.3108 19.4897 30.5512 19.3397 30.8623C19.1898 31.1734 19.1669 31.5307 19.276 31.8583L20.4842 35.3038Z" fill="#344A48"/>
<path d="M24.3423 38.1655C24.0237 39.6658 24.973 42.2947 27.1637 42.8125C30.4365 43.5427 34.0944 42.6399 36.2785 39.7919C37.7456 37.8867 36.8693 35.0122 35.7673 34.2023C34.6719 33.3857 33.3907 33.877 32.521 34.7002C31.8025 35.3507 30.9538 35.841 30.0313 36.1386C29.1088 36.4361 28.1336 36.5342 27.1704 36.4262C25.909 36.2403 24.6544 36.6984 24.3423 38.1921V38.1655Z" stroke="#010101" stroke-width="1.14244" stroke-miterlimit="10"/>
<path d="M49.1965 23.8727V23.3814C49.1965 23.0495 49.1965 22.5649 49.1235 21.9807C48.9939 20.2474 48.6322 18.5393 48.048 16.9022C47.6366 15.7479 47.1142 14.6363 46.488 13.5829C45.7457 12.3629 44.878 11.2237 43.8989 10.184C42.7725 9.01197 41.5164 7.97188 40.1548 7.08379C38.6303 6.10158 36.9947 5.3038 35.2821 4.70719C33.4035 4.05795 31.4605 3.61281 29.4867 3.37948L28.7166 3.29318H28.5174H28.3382H27.9266C27.442 3.29318 26.9175 3.24007 26.3931 3.25335C25.3285 3.26809 24.2662 3.35458 23.2132 3.51225C18.7121 4.17082 14.4606 5.99222 10.8788 8.79654C7.08213 11.7439 4.5286 16.0076 3.72243 20.7459C3.35115 23.1827 3.41183 25.6658 3.90167 28.0815C4.13737 29.3116 4.4545 30.5247 4.85098 31.7128C5.22079 32.8884 5.70554 34.0246 6.29819 35.1051C7.5704 37.2863 9.19697 39.2405 11.1111 40.8873C13.043 42.6731 15.0943 44.4522 17.0194 46.3376C17.9887 47.267 18.9114 48.2428 19.8143 49.2253C20.7238 50.2092 21.5708 51.249 22.3502 52.3388C23.897 54.4698 25.2313 56.6605 26.798 58.4994C27.5366 59.4068 28.4045 60.2008 29.3738 60.8561C30.2905 61.4651 31.3357 61.8536 32.4275 61.9913C33.5255 62.1076 34.6353 62.0312 35.707 61.7655C36.7682 61.5437 37.7906 61.1656 38.7408 60.6436C39.6257 60.1445 40.3967 59.4662 41.0045 58.6521C41.582 57.8147 42.0296 56.8948 42.3323 55.9236C42.8953 53.9551 43.2949 51.9434 43.5272 49.9091C43.8126 47.9175 44.0981 45.9791 44.5031 44.1468C44.908 42.3146 45.4059 40.6417 45.8308 39.0484C46.7469 35.8885 47.6232 33.1866 48.1875 30.9428C48.6543 29.2284 48.9654 27.4753 49.1169 25.7049C49.1633 25.0942 49.1832 24.6229 49.1899 24.3108C49.1965 23.9988 49.1899 23.8329 49.1899 23.8329L49.1965 23.8727ZM50.9026 23.8727C50.9026 23.8727 50.9026 24.0453 50.9026 24.3772C50.9026 24.7092 50.8628 25.2137 50.7964 25.8576C50.6106 27.7109 50.3001 29.5495 49.867 31.361C49.3359 33.6911 48.4663 36.4262 47.5369 39.553C47.0855 41.1064 46.5876 42.7859 46.2092 44.5252C45.8308 46.2645 45.5453 48.1698 45.2466 50.168C44.992 52.2967 44.5657 54.4013 43.972 56.4613C43.611 57.602 43.0782 58.681 42.392 59.6611C41.6455 60.6797 40.6933 61.5301 39.5972 62.1572C38.498 62.7746 37.3118 63.2222 36.0787 63.4849C34.8182 63.7973 33.5122 63.8827 32.2217 63.7372C30.8757 63.5674 29.5861 63.0929 28.451 62.3497C27.3435 61.6066 26.3447 60.7129 25.4836 59.6943C23.7642 57.7028 22.4033 55.5187 20.8764 53.4806C20.1308 52.4553 19.3192 51.4796 18.4467 50.5597C17.5638 49.617 16.6211 48.7341 15.6519 47.8711C13.7068 46.1384 11.5559 44.6314 9.39175 42.9652C7.08484 41.2811 5.09175 39.2049 3.50335 36.8311C1.97288 34.3759 0.937724 31.6448 0.456261 28.7919C-0.0955935 25.9727 -0.147274 23.0785 0.303577 20.2414C0.761774 17.4153 1.7748 14.7079 3.28428 12.2751C4.74499 9.93754 6.59772 7.86922 8.76109 6.16103C12.8144 2.95113 17.6621 0.900092 22.7884 0.226166C23.99 0.0687727 25.2011 -0.00663607 26.413 0.000457467C27.0105 0.000457467 27.6013 0.000459291 28.2187 0.0801219L28.6303 0.119952H28.856H29.0751L29.9248 0.232806C32.1079 0.540684 34.2514 1.08378 36.3177 1.85261C40.0109 3.15914 43.3149 5.37622 45.9237 8.29865C47.8812 10.6066 49.2906 13.3278 50.0462 16.2583C50.5396 18.0988 50.8203 19.9899 50.8827 21.8944C50.8827 22.5583 50.8827 23.0495 50.8827 23.3748C50.8827 23.7001 50.8827 23.8661 50.8827 23.8661L50.9026 23.8727Z" fill="#344A48"/>
<path d="M45.2873 46.4702C39.3126 44.7442 25.7501 45.6404 21.0566 51.9404" stroke="#344A48" stroke-width="1.14244" stroke-miterlimit="10"/>
<path d="M44.6896 50.5592C39.2925 49.0987 28.0932 47.3328 23.3467 55.87" stroke="#344A48" stroke-width="1.14244" stroke-miterlimit="10"/>
<path d="M43.7653 55.2661C36.204 53.3475 29.7115 54.5491 26.0669 59.3886" stroke="#344A48" stroke-width="1.14244" stroke-miterlimit="10"/>
<path d="M41.6828 59.4156C36.0799 57.8422 31.9573 59.004 29.7334 62.1971" stroke="#344A48" stroke-width="1.14244" stroke-miterlimit="10"/>
<path d="M19.9864 51.8009H19.7341C19.5114 51.8087 19.2895 51.8331 19.0703 51.8739L18.6587 51.9469L18.1475 52.0863C17.7442 52.2233 17.3515 52.3897 16.9725 52.5842C16.5245 52.8217 16.1019 53.1042 15.7112 53.4273C15.2848 53.7709 14.9093 54.1732 14.5959 54.6223C14.2814 55.034 14.0821 55.5221 14.0184 56.0363C14.0184 56.1425 14.0184 56.2554 14.0184 56.3616L14.0582 56.5076V56.5806C14.098 56.6869 14.0051 56.4479 14.0184 56.4744V56.5342C14.0914 56.6669 14.1843 56.9126 14.2374 56.8993C14.2905 56.886 14.2972 56.9856 14.43 57.0852C14.8727 57.4595 15.3815 57.7477 15.9303 57.9349C16.5055 58.1573 17.1015 58.3218 17.7094 58.4262C18.805 58.619 19.922 58.6592 21.0287 58.5457L21.6925 58.4527L22.2966 58.3266C22.675 58.2469 22.9605 58.1208 23.2526 58.0478L24.0492 57.7225L24.9321 59.6145C24.9321 59.6145 24.5737 59.7671 23.9364 60.0061C23.6044 60.0924 23.2128 60.2385 22.7547 60.3314L22.0244 60.4775L21.2079 60.5704C19.913 60.6894 18.6078 60.6246 17.331 60.3779C16.5993 60.2421 15.8832 60.033 15.1934 59.7539C14.4243 59.4664 13.7153 59.0387 13.1022 58.4925C12.9059 58.3152 12.7321 58.1146 12.5844 57.8951C12.4648 57.7266 12.3624 57.5464 12.2791 57.3574V57.2976C12.2791 57.2976 12.1928 57.0785 12.2326 57.1781V57.1184L12.1928 56.9391L12.1197 56.574C12.1066 56.333 12.1066 56.0914 12.1197 55.8504C12.2232 55.0114 12.546 54.2145 13.0558 53.5402C13.8631 52.4497 14.9161 51.565 16.1294 50.9578C16.607 50.7162 17.1045 50.5163 17.6165 50.3603L18.2803 50.1877C18.4861 50.1413 18.6985 50.1147 18.8778 50.0881C19.1308 50.0512 19.3857 50.0291 19.6412 50.0218H19.8935L19.9864 51.8009Z" fill="#344A48"/>
<path d="M45.2009 46.2044L46.2033 46.1048C46.6455 46.0791 47.0888 46.0791 47.531 46.1048C47.7766 46.1048 48.0355 46.1579 48.3077 46.2044L49.1641 46.3969C49.4495 46.4898 49.7549 46.5828 50.0603 46.6956C50.3656 46.8085 50.6777 46.9479 50.983 47.1139C51.6289 47.4527 52.2365 47.86 52.7954 48.3287C53.4024 48.8422 53.9362 49.4363 54.382 50.0946C54.6439 50.479 54.8433 50.9025 54.9728 51.3493C55.0121 51.5014 55.0366 51.6571 55.0458 51.814V51.9467C55.0458 51.9866 55.0458 51.8737 55.0458 52.0463V52.2521V52.5243C55.0398 52.6316 55.0242 52.7383 54.9994 52.8429C54.9466 53.0949 54.8778 53.3432 54.7936 53.5864C54.694 53.8055 54.5944 54.0179 54.4882 54.2503L54.0766 54.8212C53.9306 54.9938 53.7646 55.1465 53.6053 55.3058C52.9667 55.8481 52.2328 56.2668 51.4411 56.5406C50.7496 56.7733 50.0352 56.9313 49.3101 57.0119C48.9823 57.0596 48.6521 57.0884 48.321 57.0982C48.009 57.0982 47.697 57.0982 47.4115 57.0982C46.8207 57.0982 46.2962 57.0518 45.8249 57.0186L44.6167 56.8659L43.5811 56.68L44.0192 54.6221L44.9552 54.8079L46.0373 54.9606C46.4555 54.9606 46.9269 55.0469 47.4381 55.0469C47.697 55.0469 47.9625 55.0469 48.2347 55.0469C48.5068 55.0469 48.7857 55.0469 49.0711 54.9872C49.6563 54.9248 50.2343 54.807 50.7972 54.6353C51.3414 54.4535 51.8493 54.1771 52.2975 53.8188C52.3904 53.7259 52.4966 53.6395 52.5829 53.54C52.6692 53.4404 52.7356 53.3275 52.8153 53.228L52.9879 52.8828C53.0277 52.7765 53.041 52.677 53.0808 52.5774C53.113 52.5089 53.1289 52.4339 53.1273 52.3583V52.0861V51.9467V51.8803C53.1273 52.0463 53.1273 51.9268 53.1273 51.96C53.1273 51.96 53.1273 51.9268 53.1273 51.887C53.0509 51.6366 52.9367 51.3993 52.7887 51.1833C52.4518 50.6693 52.0452 50.2046 51.5805 49.8025C51.1349 49.4182 50.6498 49.0821 50.1333 48.8C49.8877 48.6606 49.6288 48.5677 49.3964 48.4548L48.6728 48.2026L48.009 48.0366C47.7899 47.9968 47.5841 47.9835 47.3849 47.9503C47.0585 47.9176 46.7305 47.9021 46.4024 47.9038L45.4 47.9636L45.2009 46.2044Z" fill="#344A48"/>
<path d="M28.9425 61.6188C28.9425 61.6188 28.8363 61.8379 28.6371 62.2296C28.5346 62.4434 28.4502 62.6655 28.3849 62.8934C28.3384 63.0129 28.2919 63.1457 28.2455 63.2785C28.199 63.4112 28.1592 63.5971 28.1127 63.7631C28.0065 64.1299 27.9201 64.5022 27.8538 64.8783C27.7609 65.2767 27.6878 65.7015 27.6214 66.1529C27.482 67.0425 27.3825 68.0117 27.3028 68.981C27.1368 70.9261 27.097 72.8844 27.0904 74.3582C27.0904 75.0884 27.0904 75.6859 27.0904 76.1307C27.0904 76.5755 27.0904 76.7945 27.0904 76.7945L24.9727 76.8543C24.9727 76.8543 24.9727 76.602 24.9727 76.1506C24.9727 75.6992 24.9727 75.0818 24.9727 74.3316C25.0058 72.8247 25.0922 70.8132 25.3112 68.8017C25.4174 67.7927 25.5436 66.8102 25.7162 65.8476C25.7892 65.3762 25.8821 64.9182 25.9884 64.4867C26.0946 64.0552 26.1942 63.6436 26.307 63.2652C26.3601 63.0727 26.4199 62.8934 26.4663 62.7208C26.5128 62.5482 26.6057 62.369 26.6655 62.2097C26.7586 61.9383 26.8718 61.6742 27.0041 61.4197L27.3227 60.8156L28.9425 61.6188Z" fill="#344A48"/>
<path d="M41.3623 59.9601L41.8004 60.5709C41.9332 60.77 42.1058 60.9824 42.2917 61.3011L42.909 62.3168L43.5729 63.5184L44.2367 64.8859C44.6616 65.8419 45.0865 66.8775 45.4715 67.9197C46.2349 70.0042 46.859 72.1286 47.2838 73.7417C47.4896 74.545 47.6556 75.2155 47.7618 75.6935L47.9278 76.4503L45.6906 76.8685C45.6906 76.8685 45.6441 76.6096 45.5578 76.1582C45.4715 75.7068 45.3321 75.0495 45.1529 74.2596C44.7877 72.6929 44.2434 70.615 43.5662 68.5902C43.2277 67.5745 42.8493 66.5987 42.4709 65.656L41.8933 64.3283L41.3291 63.1864L40.8112 62.2836C40.6718 62.0114 40.486 61.7658 40.3665 61.5666L39.9482 60.9426L41.3623 59.9601Z" fill="#344A48"/>
<path d="M24.2094 38.0658C23.8708 39.5861 24.8733 42.3477 27.0839 42.8589C28.7629 43.3553 30.5536 43.3255 32.2152 42.7736C33.8768 42.2217 35.3295 41.1742 36.3779 39.7719C37.845 37.8136 36.9355 34.8129 35.807 34.0097C34.6784 33.1998 33.3374 33.7773 32.4877 34.5806C31.7635 35.2246 30.9132 35.7106 29.9908 36.0078C29.0684 36.305 28.0942 36.4067 27.1304 36.3066C25.8823 36.1207 24.548 36.5456 24.2028 38.0658H24.2094Z" fill="white" stroke="#344A48" stroke-width="1.14244" stroke-miterlimit="10"/>
<path d="M32.2617 34.7725L35.5876 40.6675" stroke="#344A48" stroke-width="1.14244" stroke-miterlimit="10"/>
<path d="M30.1172 36.333L32.0955 42.4405" stroke="#344A48" stroke-width="1.14244" stroke-miterlimit="10"/>
<path d="M27.3892 36.333L28.1659 43.1574" stroke="#344A48" stroke-width="1.14244" stroke-miterlimit="10"/>
<path d="M58.569 7.83368V6.01471C58.569 22.1265 60.149 24.8284 67 24.8284C60.149 24.8284 58.569 27.4838 58.569 43.2039C58.569 27.4639 57.0156 24.8284 50.2974 24.8284C57.0156 24.8284 58.569 22.392 58.569 7.83368Z" fill="#F9ED35"/>
<path d="M16.5754 25.3134C16.501 24.7541 16.5768 24.1851 16.795 23.6648C17.0132 23.1445 17.3658 22.6916 17.8168 22.3526C19.1445 21.4099 20.3859 22.8836 20.6979 24.0786C20.7138 24.1384 20.7527 24.1896 20.8063 24.2207C20.8598 24.2518 20.9235 24.2604 20.9834 24.2445C21.0432 24.2287 21.0944 24.1897 21.1255 24.1362C21.1566 24.0827 21.1652 24.0189 21.1494 23.9591C20.8041 22.6314 19.4698 21.0514 17.9562 21.7485C17.3029 22.0945 16.7747 22.6368 16.446 23.299C16.1172 23.9612 16.0046 24.7099 16.124 25.4395C16.1638 25.7382 16.6152 25.6121 16.5754 25.3134Z" fill="#344A48"/>
<path d="M32.3281 20.0822C32.4808 18.9138 32.8791 17.9313 34.1869 17.7919C35.2823 17.679 35.8134 18.4955 36.3577 19.2922C36.5237 19.5444 36.9286 19.2922 36.7627 19.0598C36.0457 18.0043 35.2823 17.0683 33.8616 17.3604C32.441 17.6524 32.0294 18.7876 31.8701 20.0822C31.8302 20.3809 32.3016 20.3743 32.3414 20.0822H32.3281Z" fill="#344A48"/>
</svg>
