<svg width="53" height="78" viewBox="0 0 53 78" fill="none" xmlns="http://www.w3.org/2000/svg">
<path d="M48.01 35.4765C54.6998 24.933 50.9676 13.7108 41.4675 6.48971C31.4425 -1.10909 11.4756 -1.26273 5.79732 16.5147C2.51965 26.8023 7.42336 30.7649 9.59353 42.0831C10.9635 49.2402 8.81253 57.3127 16.3985 60.1614C25.5401 63.5927 28.056 55.5394 34.9634 48.8625C40.5329 43.5235 44.7644 40.5979 48.01 35.4765Z" fill="#F9ED35"/>
<path d="M32.7926 51.7306C28.7468 47.147 16.6732 40.5277 9.51611 44.3431L10.7965 54.2593L12.4737 57.4153L14.7527 59.3358L17.9535 60.4497L22.9981 60.8018L25.0658 59.9312L29.4445 55.9493L32.7926 51.7306Z" fill="#E88128"/>
<path d="M18.396 36.6483C16.8306 35.6984 15.4677 34.4494 14.385 32.9727C13.3023 31.496 12.5211 29.8206 12.086 28.0419C11.6508 26.2633 11.5703 24.4164 11.8489 22.6067C12.1276 20.7969 12.76 19.0598 13.71 17.4945" stroke="#FDF5A3" stroke-width="3.70658" stroke-miterlimit="10"/>
<path d="M0.368598 59.9758C0.233896 60.1382 0.13264 60.3257 0.0706485 60.5273C0.00865669 60.729 -0.0128587 60.941 0.00737014 61.151C0.0275989 61.361 0.0891655 61.565 0.188512 61.7511C0.287858 61.9373 0.423031 62.1019 0.586253 62.2356C0.914943 62.506 1.3375 62.635 1.76117 62.5942C2.18484 62.5534 2.57501 62.3461 2.84605 62.018L3.48622 61.205C3.75427 60.8748 3.8811 60.4521 3.83914 60.0289C3.79718 59.6058 3.58982 59.2163 3.26215 58.9452C2.93175 58.676 2.50857 58.5479 2.08436 58.5886C1.66015 58.6294 1.26908 58.8357 0.995951 59.1628L0.368598 59.9758Z" fill="#344A48"/>
<path d="M35.3855 41.078C35.6999 41.3642 36.115 41.5142 36.5397 41.495C36.9645 41.4758 37.3643 41.289 37.6517 40.9756C37.7948 40.8201 37.9058 40.638 37.9785 40.4396C38.0511 40.2412 38.0839 40.0304 38.075 39.8194C38.0661 39.6083 38.0156 39.401 37.9265 39.2094C37.8374 39.0179 37.7114 38.8458 37.5556 38.703L36.7746 37.9988C36.6197 37.8555 36.4379 37.7444 36.2397 37.6719C36.0415 37.5994 35.8309 37.5669 35.6201 37.5765C35.4093 37.586 35.2025 37.6373 35.0117 37.7274C34.8208 37.8174 34.6498 37.9445 34.5084 38.1012C34.3651 38.2561 34.254 38.4379 34.1815 38.6361C34.109 38.8343 34.0766 39.0449 34.0861 39.2557C34.0956 39.4665 34.1469 39.6734 34.237 39.8642C34.3271 40.055 34.4542 40.2261 34.6109 40.3674L35.3855 41.078Z" fill="#344A48"/>
<path d="M12.0645 76.5179C12.076 76.7291 12.1708 76.9271 12.3279 77.0686C12.485 77.2102 12.6918 77.2838 12.9031 77.2733H14.8236C14.9279 77.2785 15.0321 77.263 15.1304 77.2278C15.2287 77.1926 15.3191 77.1384 15.3964 77.0683C15.4737 76.9981 15.5364 76.9134 15.5809 76.8189C15.6254 76.7245 15.6509 76.6222 15.6558 76.5179C15.6442 76.3084 15.5502 76.1121 15.3942 75.9717C15.2383 75.8314 15.0331 75.7585 14.8236 75.7689H12.9031C12.6929 75.7584 12.487 75.8311 12.3301 75.9713C12.1731 76.1115 12.0777 76.3079 12.0645 76.5179Z" fill="#344A48"/>
<path d="M25.9111 76.2748C25.8978 76.3774 25.9055 76.4816 25.9338 76.5812C25.9621 76.6807 26.0103 76.7734 26.0756 76.8537C26.1409 76.934 26.2219 77.0001 26.3136 77.0481C26.4052 77.096 26.5057 77.1248 26.6089 77.1326L28.5294 77.3951C28.74 77.4298 28.956 77.3829 29.1332 77.2639C29.3104 77.145 29.4356 76.9629 29.4833 76.7549C29.4948 76.6521 29.4855 76.548 29.4562 76.4488C29.4268 76.3496 29.3778 76.2574 29.3122 76.1774C29.2465 76.0974 29.1656 76.0315 29.074 75.9833C28.9824 75.9352 28.8822 75.9059 28.7791 75.8971L26.8586 75.641C26.6484 75.6032 26.4317 75.6489 26.2547 75.7685C26.0778 75.8881 25.9545 76.072 25.9111 76.2812V76.2748Z" fill="#344A48"/>
<path d="M47.3052 35.048L47.5421 34.6383C47.7021 34.363 47.9326 33.9597 48.1822 33.4475C48.9435 31.9545 49.4991 30.3652 49.8338 28.7231C50.0728 27.5665 50.1993 26.3895 50.2115 25.2086C50.2097 23.8297 50.0659 22.4546 49.7826 21.1051C49.4376 19.5777 48.9222 18.0939 48.2462 16.6815C47.4803 15.1068 46.5305 13.6284 45.4167 12.2772C44.1986 10.7965 42.825 9.4508 41.3196 8.26331L40.7243 7.80238L40.577 7.68716L40.4362 7.58473L40.1097 7.34787C39.7256 7.0854 39.3031 6.81014 38.8678 6.55407C37.9828 6.03096 37.0631 5.56896 36.115 5.1713C32.0446 3.4865 27.605 2.89293 23.2349 3.44925C18.6226 3.9856 14.3788 6.23083 11.3405 9.74209C9.81827 11.5643 8.62863 13.6403 7.82599 15.8749C7.40752 17.0079 7.06325 18.1669 6.79533 19.3446C6.51378 20.4992 6.34441 21.6784 6.28959 22.8656C6.24773 25.3007 6.61118 27.7259 7.36507 30.0418C8.06286 32.4745 8.86307 34.9711 9.50964 37.487C9.84253 38.7673 10.1114 40.0093 10.3675 41.2704C10.6247 42.5381 10.8 43.8211 10.8924 45.1114C11.1037 47.6401 11.1037 50.1111 11.475 52.4157C11.6326 53.5233 11.9518 54.6017 12.4224 55.6166C12.8641 56.5751 13.5214 57.4186 14.3429 58.0812C15.1887 58.7295 16.1422 59.2236 17.1596 59.5408C18.145 59.8882 19.176 60.0888 20.2196 60.1362C21.2048 60.16 22.1841 59.9768 23.094 59.5984C23.991 59.1994 24.8221 58.6662 25.5587 58.0172C27.0051 56.6756 28.339 55.2175 29.5469 53.6577C30.7824 52.1597 31.986 50.7065 33.2343 49.3941C34.4826 48.0818 35.7373 46.9615 36.9088 45.8732C39.2455 43.7286 41.3132 41.9362 42.9072 40.3742C44.1483 39.1973 45.2816 37.9118 46.2937 36.5332C46.6394 36.0594 46.8827 35.6817 47.0491 35.4193L47.2988 35.0352L47.3052 35.048ZM48.7008 35.925L48.4319 36.3219C48.2526 36.5908 47.9838 36.9621 47.6061 37.487C46.5284 38.9243 45.3519 40.2848 44.0852 41.5585C42.4783 43.2165 40.3978 45.0346 38.0676 47.1408C36.9216 48.2034 35.6669 49.3365 34.4698 50.5785C33.2727 51.8204 32.0948 53.2416 30.8529 54.7395C29.5826 56.3714 28.1779 57.8939 26.6534 59.2911C25.7873 60.0513 24.8092 60.6732 23.7534 61.1348C22.6268 61.5941 21.4165 61.8122 20.2004 61.775C18.9873 61.7185 17.7886 61.4878 16.6411 61.09C15.4482 60.7126 14.3303 60.1299 13.3378 59.368C12.3109 58.5554 11.485 57.5171 10.9244 56.3336C10.3828 55.1687 10.0057 53.9341 9.80411 52.6654C9.3816 50.1688 9.35599 47.6785 9.11913 45.233C9.01808 44.0146 8.83631 42.8041 8.575 41.6097C8.31893 40.3934 7.98603 39.1899 7.62113 37.9927C6.88494 35.5921 5.86707 33.2747 4.91962 30.8228C3.85834 28.279 3.25375 25.5681 3.13357 22.8143C3.09821 20.0352 3.60484 17.2759 4.62515 14.6906C5.57858 12.0903 6.98283 9.6784 8.77345 7.56553C10.5655 5.47569 12.7517 3.75936 15.2071 2.51459C17.5818 1.32043 20.143 0.54102 22.7803 0.209996C27.7279 -0.403478 32.7493 0.333128 37.3122 2.34175C38.3832 2.81183 39.4206 3.35513 40.417 3.96778C40.9099 4.26866 41.3772 4.60794 41.8638 4.93442L42.1838 5.17769L42.3631 5.31214L42.5231 5.44016L43.1633 5.95231C44.8165 7.29902 46.319 8.82082 47.6445 10.4911C50.032 13.4175 51.6436 16.8984 52.3305 20.6122C52.818 23.4809 52.6473 26.4229 51.8312 29.216C51.3202 30.9812 50.6048 32.6806 49.6994 34.2798C49.3857 34.8495 49.1361 35.24 48.9632 35.4961L48.7136 35.8994L48.7008 35.925Z" fill="#344A48"/>
<path d="M32.7928 51.7173C28.7341 47.3129 17.1022 41.2569 10.0796 44.1057" stroke="#344A48" stroke-width="0.851424" stroke-miterlimit="10"/>
<path d="M30.2325 54.7968C26.5131 50.8854 18.1782 43.8308 9.97119 48.504" stroke="#344A48" stroke-width="0.851424" stroke-miterlimit="10"/>
<path d="M27.1082 58.2346C21.8397 52.87 15.8797 50.6102 10.4639 52.7804" stroke="#344A48" stroke-width="0.851424" stroke-miterlimit="10"/>
<path d="M23.325 60.5905C19.484 56.487 15.515 55.3795 12.0645 56.8903" stroke="#344A48" stroke-width="0.851424" stroke-miterlimit="10"/>
<path d="M10.2783 43.2742L9.70218 43.9143C9.53574 44.1128 9.27967 44.356 9.06201 44.6313L8.31942 45.5532C8.07615 45.9181 7.78808 46.3022 7.51921 46.7247C7.25034 47.1472 6.96866 47.6017 6.7382 48.101C6.50774 48.6004 6.24527 49.1061 6.02121 49.6374C5.79716 50.1688 5.59871 50.7193 5.42586 51.2891C4.81956 53.4132 4.35546 55.5753 4.03669 57.7612C3.72941 59.5921 3.44134 60.834 3.44134 60.834L1.48242 60.3603C1.48242 60.3603 1.7705 59.2144 2.12259 57.4155C2.49072 55.149 3.01042 52.9098 3.67819 50.7129C3.87665 50.1112 4.11351 49.5094 4.35677 48.9332C4.59551 48.3612 4.86698 47.8033 5.1698 47.2624C5.43227 46.7183 5.76516 46.2382 6.05323 45.7644C6.34131 45.2907 6.6934 44.8938 6.94947 44.4841L7.79449 43.4598C8.05056 43.1397 8.27462 42.9413 8.43466 42.7364L9.0172 42.0963L10.2783 43.2742Z" fill="#344A48"/>
<path d="M32.6076 51.3915L33.523 51.5387C33.8175 51.5899 34.1632 51.6347 34.5537 51.6731C34.9442 51.7116 35.3795 51.7692 35.866 51.7948C36.3794 51.8316 36.8943 51.8423 37.4088 51.8268C37.9601 51.8116 38.5087 51.7452 39.0477 51.6283C39.5587 51.541 40.0427 51.3373 40.4624 51.033C40.8117 50.761 41.0413 50.3638 41.1026 49.9255C41.1653 49.3956 41.1129 48.8584 40.949 48.3507C40.7854 47.7903 40.5712 47.2461 40.3088 46.7247C39.8017 45.7602 39.2059 44.8451 38.5291 43.9911C38.0488 43.3793 37.5359 42.7938 36.9927 42.2371C36.6022 41.8338 36.3526 41.5969 36.3526 41.5969L37.7417 40.1245C37.7417 40.1245 38.0106 40.3678 38.4331 40.8159C39.0156 41.426 39.5648 42.0671 40.0783 42.7364C40.8147 43.6973 41.4578 44.7262 41.9988 45.8092C42.32 46.4459 42.5773 47.1128 42.767 47.8001C42.9969 48.5787 43.0516 49.3985 42.9271 50.2008C42.7655 51.0937 42.2714 51.892 41.5443 52.4349C40.9087 52.8931 40.1778 53.2017 39.4061 53.3376C38.7548 53.4697 38.0926 53.5404 37.428 53.5488C36.7879 53.5488 36.2373 53.5488 35.7124 53.4912C35.1874 53.4336 34.7137 53.4016 34.2848 53.3376C33.8559 53.2736 33.4974 53.2288 33.2093 53.1711C32.6268 53.0751 32.3003 53.0111 32.3003 53.0111L32.6076 51.3915Z" fill="#344A48"/>
<path d="M14.4003 58.2028L14.7588 58.9198C14.8612 59.1631 15.0212 59.3999 15.1493 59.7712C15.2773 60.1425 15.4181 60.5586 15.5782 61.0132C15.7382 61.4677 15.7958 61.9542 15.9175 62.4727C16.0391 62.9913 16.0583 63.5418 16.1415 64.1052C16.2247 64.6685 16.1927 65.2639 16.2247 65.8656C16.2568 66.4674 16.2247 67.0627 16.1607 67.6645C16.0967 68.2663 16.0647 68.8616 15.9687 69.4442C15.8727 70.0267 15.8022 70.6029 15.687 71.1534C15.4821 72.2545 15.2133 73.266 14.9764 74.1302C14.7396 74.9945 14.4963 75.6986 14.3363 76.1916C14.2466 76.4412 14.1698 76.6397 14.125 76.7741C14.0802 76.9086 14.0418 76.9854 14.0418 76.9854L12.1597 76.1916C12.1793 76.1324 12.2028 76.0747 12.2301 76.0187C12.2749 75.8971 12.3453 75.7179 12.435 75.4938C12.6078 75.0393 12.8383 74.3735 13.0751 73.5733C13.312 72.7731 13.5872 71.8064 13.7985 70.7758C13.9137 70.2572 14.0034 69.7195 14.093 69.1753C14.1826 68.6312 14.2274 68.0742 14.2978 67.5173C14.3682 66.9603 14.3683 66.4034 14.3939 65.8593C14.4195 65.3151 14.3939 64.7774 14.3426 64.2588C14.2914 63.7403 14.2658 63.2474 14.1698 62.7864C14.0738 62.3255 14.0034 61.8838 13.9009 61.5061C13.7985 61.1284 13.6769 60.8019 13.5808 60.501C13.4768 60.2214 13.3571 59.9478 13.2224 59.6816L12.8831 58.9582L14.4003 58.2028Z" fill="#344A48"/>
<path d="M23.9653 60.0333L24.4518 60.5711C24.6055 60.7503 24.7975 60.9424 25.0088 61.2112L25.7065 62.1907C25.9568 62.5768 26.1854 62.9764 26.3915 63.3878C26.6342 63.8346 26.848 64.2965 27.0317 64.7706C27.2356 65.2709 27.4129 65.7816 27.563 66.3006C27.7359 66.8255 27.8383 67.3696 27.9727 67.9074C28.1072 68.4451 28.1776 69.0021 28.2416 69.5399C28.3056 70.0776 28.376 70.6089 28.3953 71.1275C28.4145 71.646 28.4529 72.1389 28.4529 72.6127C28.4529 73.0864 28.4529 73.5345 28.4529 73.9442C28.4209 74.77 28.3696 75.455 28.312 75.9415C28.28 76.1848 28.2544 76.3832 28.2416 76.5113C28.2288 76.6393 28.2096 76.7289 28.2096 76.7289L26.0522 76.3256V76.1656C26.0522 76.0504 26.0778 75.8839 26.129 75.6662C26.1931 75.2373 26.2635 74.6036 26.3147 73.8418C26.3147 73.4577 26.3659 73.048 26.3659 72.6062C26.3659 72.1645 26.3659 71.71 26.3659 71.2363C26.3659 70.7626 26.3019 70.2696 26.2635 69.7703C26.2251 69.271 26.1354 68.778 26.065 68.2723C25.9946 67.7666 25.873 67.2865 25.7386 66.8127C25.6175 66.3467 25.4721 65.8873 25.3032 65.4363C25.1535 65.0142 24.9782 64.6016 24.7783 64.2008C24.614 63.842 24.428 63.4936 24.2213 63.1574L23.6964 62.3507C23.5172 62.1011 23.3123 61.8898 23.1651 61.7106L22.6978 61.16L23.9653 60.0333Z" fill="#344A48"/>
<path d="M20.1179 38.4405C20.2203 37.3586 22.4929 37.7299 23.1203 38.0051C24.8487 38.7541 26.494 39.6888 27.3262 41.4556C27.9663 42.7744 29.8869 41.6221 29.2467 40.3161C28.12 37.9155 25.3481 36.0654 22.7618 35.5917C20.5404 35.1884 18.0694 35.9246 17.8325 38.4405C17.6917 39.8872 19.9514 39.8744 20.0923 38.4405H20.1179Z" fill="#F9ED35"/>
<path d="M23.3564 32.878C26.5252 29.946 30.8208 32.0329 31.5698 35.9828C31.7042 36.6934 32.7925 36.3925 32.658 35.6819C31.7362 30.8423 26.3012 28.6401 22.5626 32.0778C22.0248 32.5707 22.8251 33.3581 23.3564 32.878Z" fill="#344A48"/>
<path d="M35.7119 31.3733C35.5525 31.6678 35.5149 32.013 35.6071 32.3349C35.6992 32.6568 35.9138 32.9298 36.2048 33.0954C36.4987 33.2527 36.8423 33.2892 37.1627 33.1972C37.4831 33.1051 37.7549 32.8918 37.9205 32.6024L39.6361 29.5296C39.7954 29.2351 39.8331 28.8899 39.7409 28.568C39.6488 28.2461 39.4342 27.9732 39.1432 27.8076C38.8493 27.6502 38.5056 27.6137 38.1853 27.7057C37.8649 27.7978 37.593 28.0112 37.4275 28.3005L35.7119 31.3733Z" fill="#344A48"/>
<path d="M22.3257 24.92C22.2022 25.2311 22.2054 25.5781 22.3347 25.8868C22.4639 26.1955 22.7088 26.4413 23.0171 26.5717C23.3266 26.6936 23.6713 26.6902 23.9784 26.5624C24.2855 26.4345 24.5308 26.1922 24.6623 25.8867L26.0067 22.6346C26.1305 22.3244 26.1282 21.978 26.0002 21.6694C25.8723 21.3609 25.6287 21.1145 25.3217 20.983C25.0114 20.8591 24.665 20.8614 24.3565 20.9894C24.0479 21.1174 23.8016 21.3609 23.67 21.668L22.3257 24.92Z" fill="#344A48"/>
<path d="M20.8151 18.442C21.961 17.0464 24.0607 17.1937 25.6996 17.0208C26.0581 16.9824 26.0581 16.4191 25.6996 16.4575C23.9135 16.6495 21.6665 16.5215 20.4182 18.0451C20.1877 18.3204 20.5846 18.7237 20.8151 18.442Z" fill="#344A48"/>
<path d="M40.981 24.2224C42.1269 24.9073 43.3496 25.842 43.7721 27.1607C43.8809 27.5064 44.4123 27.3592 44.3162 27.0135C43.8425 25.5411 42.5494 24.4977 41.269 23.7359C41.2045 23.6977 41.1275 23.6866 41.0548 23.7052C40.9822 23.7238 40.9199 23.7706 40.8817 23.8351C40.8435 23.8996 40.8325 23.9766 40.8511 24.0493C40.8697 24.1219 40.9164 24.1842 40.981 24.2224Z" fill="#344A48"/>
<path d="M37.1712 33.5754C37.0816 34.8942 35.9485 39.9771 39.1493 38.844C42.3502 37.7109 38.0227 34.4268 37.3633 33.2937" fill="#55A4DB"/>
<path d="M36.8903 33.5754C36.7494 35.2655 35.7764 39.6954 38.8108 39.2409C40.0911 39.0425 41.0514 37.9606 40.4624 36.6802C39.8223 35.2591 38.4523 34.4268 37.6329 33.1465C37.4344 32.8392 36.9479 33.1465 37.1463 33.4282C38.0106 34.7853 42.1525 37.8581 38.6636 38.6903C36.4294 39.2217 37.3832 34.6637 37.4856 33.569C37.4856 33.2105 36.9479 33.2105 36.9159 33.569L36.8903 33.5754Z" fill="#55A4DB"/>
</svg>
