<svg width="55" height="78" viewBox="0 0 55 78" fill="none" xmlns="http://www.w3.org/2000/svg">
<path d="M50.0028 24.8133C50.2549 11.8792 40.8977 3.92225 28.6073 2.65472C15.6333 1.32746 -2.14533 11.9455 2.3939 30.7263C5.04842 41.6098 11.4989 42.4792 19.5156 51.3386C24.5791 56.9463 27.0146 65.2749 35.2702 63.6954C45.2246 61.824 43.1143 53.3295 45.6626 43.6804C47.7066 35.9623 49.8501 31.0979 50.0028 24.8133Z" fill="#F9ED35"/>
<path d="M45.2451 47.4166C39.1862 45.5319 24.9247 46.1557 20.6377 53.3893L27.0882 61.5055L30.2736 63.3969L33.333 63.8879L36.7507 63.1646L41.3961 60.7622L42.7233 58.8842L44.4554 52.9978L45.2451 47.4166Z" fill="#E88128"/>
<path d="M24.386 41.7823C20.5526 41.7823 16.8762 40.2595 14.1656 37.5489C11.4549 34.8383 9.93213 31.1619 9.93213 27.3284" stroke="#FDF5A3" stroke-width="3.84242" stroke-miterlimit="10"/>
<path d="M24.1872 58.0544C24.0038 58.1411 23.8394 58.2633 23.7036 58.4139C23.5677 58.5646 23.4632 58.7406 23.3959 58.932C23.3286 59.1233 23.3 59.3261 23.3116 59.5286C23.3233 59.7311 23.375 59.9293 23.4638 60.1117C23.5518 60.2939 23.6747 60.457 23.8258 60.5917C23.9768 60.7263 24.1528 60.8299 24.3439 60.8965C24.535 60.963 24.7373 60.9913 24.9393 60.9796C25.1413 60.9679 25.339 60.9165 25.5211 60.8284L26.4303 60.3971C26.7987 60.2181 27.0811 59.9003 27.2155 59.5134C27.3499 59.1264 27.3252 58.702 27.147 58.3332C26.968 57.9664 26.6514 57.6852 26.266 57.551C25.8806 57.4167 25.4578 57.4403 25.0897 57.6164L24.1872 58.0544Z" fill="#344A48"/>
<path d="M44.3618 58.4259C44.7622 58.5039 45.1771 58.4198 45.5156 58.1921C45.854 57.9644 46.0883 57.6117 46.1669 57.2115C46.2065 57.0136 46.2066 56.8099 46.1673 56.612C46.128 56.4141 46.05 56.2259 45.9378 56.0582C45.8256 55.8905 45.6814 55.7466 45.5134 55.6347C45.3455 55.5229 45.1571 55.4453 44.9591 55.4064L43.9703 55.2073C43.7715 55.1677 43.5669 55.1678 43.3682 55.2074C43.1695 55.2471 42.9806 55.3256 42.8123 55.4384C42.644 55.5512 42.4996 55.6962 42.3874 55.8649C42.2752 56.0337 42.1975 56.2229 42.1586 56.4218C42.119 56.6205 42.119 56.8251 42.1587 57.0238C42.1983 57.2225 42.2768 57.4114 42.3896 57.5798C42.5025 57.7481 42.6474 57.8925 42.8162 58.0046C42.9849 58.1168 43.1741 58.1946 43.373 58.2335L44.3618 58.4259Z" fill="#344A48"/>
<path d="M35.4765 29.7444C35.526 30.0877 35.7079 30.3979 35.9832 30.6087C36.2586 30.8196 36.6055 30.9143 36.9498 30.8726C37.293 30.8231 37.6033 30.6412 37.8141 30.3659C38.0249 30.0905 38.1196 29.7436 38.0779 29.3993L37.6068 25.7825C37.5572 25.4406 37.3763 25.1314 37.1025 24.9208C36.8286 24.7101 36.4834 24.6145 36.1401 24.6544C35.797 24.7023 35.4862 24.8826 35.2741 25.1566C35.0621 25.4307 34.9656 25.7768 35.0053 26.121L35.4765 29.7444Z" fill="#344A48"/>
<path d="M20.485 31.5894C20.5741 31.9242 20.7906 32.2108 21.0882 32.3881C21.3858 32.5654 21.7409 32.6194 22.0777 32.5384C22.4124 32.4493 22.6991 32.2328 22.8764 31.9352C23.0537 31.6377 23.1076 31.2825 23.0267 30.9457L22.1374 27.4086C22.0483 27.0738 21.8318 26.7872 21.5342 26.6099C21.2367 26.4326 20.8815 26.3786 20.5447 26.4596C20.2087 26.5473 19.9205 26.7632 19.7419 27.0609C19.5632 27.3587 19.5084 27.7146 19.5891 28.0523L20.485 31.5894Z" fill="#344A48"/>
<path d="M49.1865 24.8133V24.3156C49.1865 23.9904 49.1865 23.506 49.1135 22.922C48.984 21.1892 48.6224 19.4817 48.0384 17.8452C47.6271 16.6913 47.1049 15.5801 46.4789 14.5271C45.7354 13.3064 44.8681 12.1656 43.8907 11.1226C42.7627 9.95504 41.5072 8.91771 40.1479 8.03012C38.6239 7.04824 36.9888 6.25074 35.2768 5.65434C33.3989 5.00531 31.4565 4.56033 29.4833 4.32708L28.7069 4.2408H28.5144H28.3352L27.9238 4.20762C27.4393 4.20762 26.9151 4.15453 26.3908 4.1678C25.3264 4.17923 24.2642 4.26571 23.212 4.42662C18.6961 5.11772 14.4403 6.98025 10.8685 9.82858C7.07309 12.7749 4.52043 17.0372 3.71453 21.7739C3.34338 24.2099 3.40404 26.6921 3.89371 29.107C4.12933 30.3367 4.44635 31.5494 4.8427 32.7371C5.21359 33.9118 5.69812 35.0476 6.28942 36.1282C7.5612 38.3087 9.18721 40.2622 11.1007 41.9085C13.0319 43.6936 15.0825 45.4722 17.007 47.3502C17.976 48.286 18.8984 49.2615 19.8009 50.2437C20.7117 51.2258 21.5585 52.2654 22.336 53.3561C23.8823 55.4864 25.2095 57.6763 26.7823 59.5146C27.5207 60.4217 28.3882 61.2155 29.3572 61.8705C30.2736 62.4793 31.3184 62.8677 32.4099 63.0053C33.5075 63.1215 34.617 63.0452 35.6883 62.7796C36.7491 62.5578 37.7712 62.1799 38.7211 61.6581C39.605 61.1608 40.3739 60.4823 40.9774 59.6672C41.5581 58.8345 42.0059 57.9166 42.3047 56.9463C42.8637 54.9775 43.2632 52.9668 43.4992 50.9338C43.7845 48.9429 44.0699 47.0051 44.4747 45.1735C44.8795 43.3419 45.3773 41.6696 45.802 40.0769C46.7178 36.918 47.5872 34.217 48.1579 31.9739C48.6246 30.2601 48.9355 28.5076 49.087 26.7379C49.1334 26.1273 49.1533 25.6562 49.1533 25.3442V24.8664L49.1865 24.8133ZM50.8854 24.8133V25.3177C50.8854 25.6562 50.8456 26.1473 50.7792 26.791C50.594 28.6437 50.2836 30.4817 49.8501 32.2925C49.3192 34.6284 48.4499 37.3626 47.5208 40.4817C47.0695 42.0412 46.5718 43.7202 46.1935 45.4589C45.8153 47.1976 45.5299 49.1022 45.2313 51.0931C44.9774 53.2234 44.5513 55.3296 43.9571 57.391C43.5962 58.5313 43.0636 59.6099 42.3776 60.5897C41.6314 61.6079 40.6795 62.458 39.5838 63.0849C38.4823 63.6964 37.2974 64.1436 36.0665 64.4122C34.8064 64.7244 33.5008 64.8098 32.2108 64.6644C30.8652 64.4946 29.5761 64.0203 28.4414 63.2774C27.3342 62.5345 26.3358 61.641 25.475 60.6228C23.7562 58.632 22.3957 56.4486 20.8694 54.4046C20.1223 53.383 19.311 52.41 18.4405 51.4913C17.5579 50.5489 16.6155 49.6663 15.6466 48.8036C13.7022 47.0715 11.552 45.5584 9.38857 43.8994C7.08245 42.2159 5.09003 40.1404 3.50217 37.7674C1.97221 35.3129 0.937412 32.5828 0.456112 29.7309C-0.0955553 26.9127 -0.147228 24.0194 0.30347 21.1833C0.758433 18.3573 1.77135 15.6502 3.28317 13.2197C4.7431 10.8808 6.59519 8.81093 8.75813 7.10105C12.8113 3.89547 17.657 1.84756 22.7806 1.17483C23.9819 1.01749 25.1925 0.942097 26.4041 0.949188C27.0013 0.949188 27.592 0.98237 28.2091 1.02219L28.6206 1.06201H28.8462H29.0652L29.908 1.17483C32.0919 1.48276 34.2365 2.02337 36.3054 2.78745C39.9899 4.12517 43.2785 6.36856 45.8683 9.31095C47.8402 11.5925 49.2716 14.2897 50.0559 17.2015C50.5491 19.0414 50.8296 20.9319 50.892 22.8357C50.892 23.4994 50.892 23.9904 50.892 24.309C50.892 24.6275 50.892 24.8067 50.892 24.8067L50.8854 24.8133Z" fill="#344A48"/>
<path d="M45.244 47.3771C39.2713 45.6517 25.7134 46.5476 21.0215 52.8454" stroke="#344A48" stroke-width="0.882629" stroke-miterlimit="10"/>
<path d="M44.6468 51.4914C39.2448 50.0314 28.056 48.2596 23.311 56.8005" stroke="#344A48" stroke-width="0.882629" stroke-miterlimit="10"/>
<path d="M43.7246 56.2165C36.1659 54.3052 29.6756 55.5064 26.0322 60.3443" stroke="#344A48" stroke-width="0.882629" stroke-miterlimit="10"/>
<path d="M41.6412 60.3444C36.0401 58.7716 31.919 59.933 29.6958 63.125" stroke="#344A48" stroke-width="0.882629" stroke-miterlimit="10"/>
<path d="M19.9866 52.7323H19.7344C19.5117 52.7401 19.2899 52.7645 19.0708 52.8053L18.6593 52.8783L18.1483 53.0177C17.7451 53.1546 17.3525 53.321 16.9737 53.5154C16.5244 53.7504 16.1017 54.0329 15.7128 54.3582C15.2865 54.7016 14.9112 55.1038 14.5979 55.5527C14.2835 55.9644 14.0842 56.4522 14.0205 56.9663C14.0205 57.0725 14.0205 57.1853 14.0205 57.2914C14.0348 57.3393 14.0458 57.3881 14.0537 57.4374V57.5104C14.0537 57.464 14.1002 57.6299 14.0073 57.4043L14.0405 57.464C14.1135 57.5967 14.2064 57.8423 14.2595 57.829C14.3125 57.8157 14.3192 57.9153 14.4453 58.0148C14.8905 58.3887 15.4013 58.6767 15.9517 58.8642C16.5268 59.0865 17.1226 59.251 17.7302 59.3553C18.8255 59.5481 19.9421 59.5883 21.0484 59.4748L21.712 59.3819L22.3226 59.2492C22.7008 59.1762 22.9862 59.0501 23.2782 58.9771L24.0746 58.6453L24.9572 60.5432L23.9617 60.9348C23.6299 61.021 23.2384 61.1671 22.7805 61.26L22.0505 61.406L21.2342 61.4989C19.9397 61.6145 18.6353 61.5497 17.3586 61.3064C16.6272 61.1706 15.9113 60.9616 15.2217 60.6826C14.4529 60.3952 13.7441 59.9676 13.1313 59.4217C12.935 59.2444 12.7612 59.0439 12.6137 58.8244C12.489 58.6593 12.3864 58.4786 12.3084 58.2869V58.2272C12.2155 58.0015 12.3084 58.1608 12.2619 58.1077V58.048L12.2221 57.8688L12.1491 57.4972C12.1358 57.2584 12.1358 57.0192 12.1491 56.7805C12.2526 55.9398 12.5753 55.141 13.0848 54.4644C13.8949 53.3772 14.9469 52.4934 16.1574 51.8829C16.6361 51.646 17.1333 51.4485 17.644 51.2922L18.3076 51.1197C18.5133 51.0732 18.7257 51.0467 18.9049 51.0201C19.1573 50.9798 19.4124 50.9576 19.668 50.9538H19.9202L19.9866 52.7323Z" fill="#344A48"/>
<path d="M45.1583 47.1384L46.1604 47.0323C46.5188 47.0323 46.9899 47.0323 47.4877 47.0323C47.7332 47.0654 47.992 47.0853 48.2641 47.1318L49.1202 47.3176C49.4056 47.4172 49.7108 47.5101 50.0161 47.6229C50.3214 47.7357 50.6333 47.8751 50.9386 48.041C51.5856 48.3773 52.1933 48.7846 52.7503 49.2554C53.357 49.7687 53.8907 50.3626 54.3363 51.0207C54.5982 51.405 54.7975 51.8283 54.927 52.2749C54.9657 52.4249 54.9902 52.5782 55 52.7328V53.1376V53.4097C54.9939 53.5171 54.9784 53.6237 54.9535 53.7283C54.8999 53.9799 54.8312 54.2281 54.7478 54.4715C54.6482 54.6905 54.5487 54.9029 54.4425 55.1352L54.0311 55.7059C53.8851 55.8784 53.7192 56.0311 53.5599 56.1903C52.9216 56.7325 52.1879 57.151 51.3964 57.4247C50.7052 57.6573 49.9911 57.8153 49.2662 57.8959C48.9385 57.9435 48.6084 57.9723 48.2774 57.9822C47.9655 57.9822 47.6536 57.9822 47.3682 57.9822C46.7776 57.9822 46.2533 57.9357 45.7821 57.9025L44.5743 57.7499L43.5391 57.5641L43.9771 55.5068L44.9128 55.6926L45.9945 55.8453C46.4126 55.8785 46.8838 55.9315 47.3948 55.9315C47.6514 55.9315 47.9168 55.9315 48.1911 55.9315C48.4654 55.9315 48.7442 55.9116 49.0273 55.8718C49.6123 55.8095 50.19 55.6917 50.7527 55.5201C51.2974 55.3397 51.8053 55.0633 52.2525 54.7038C52.3454 54.6109 52.4516 54.5246 52.5379 54.4251C52.6242 54.3255 52.6905 54.2127 52.7702 54.1132C52.8498 54.0136 52.883 53.8809 52.9427 53.7681C53.0024 53.6553 52.9958 53.5624 53.0423 53.4628C53.0678 53.3926 53.0812 53.3185 53.0821 53.2438V52.9717V52.8324V52.766C53.0821 52.7992 53.0821 52.6798 53.0821 52.839C53.0821 52.839 53.0821 52.8058 53.0821 52.766C53.0028 52.5168 52.8889 52.28 52.7436 52.0626C52.4068 51.5488 52.0004 51.0842 51.5358 50.6822C51.0903 50.298 50.6054 49.9621 50.0891 49.6801C49.8435 49.5408 49.5847 49.4479 49.3458 49.3284L48.6291 49.0762L47.9655 48.917C47.7465 48.8771 47.5341 48.8572 47.3417 48.8307C47.0153 48.7982 46.6875 48.7826 46.3595 48.7842L45.364 48.8705L45.1583 47.1384Z" fill="#344A48"/>
<path d="M28.9057 62.5475L28.6004 63.158C28.4973 63.3723 28.4108 63.5942 28.3416 63.8217L28.2089 64.2066C28.1625 64.3592 28.1226 64.5251 28.0762 64.691C27.9833 65.0295 27.8837 65.4011 27.8107 65.8059C27.7377 66.2107 27.6515 66.6288 27.5851 67.0801C27.4457 67.9694 27.3462 68.9383 27.2666 69.9072C27.1006 71.845 27.0608 73.8093 27.0608 75.2826C27.0608 76.0126 27.0608 76.6098 27.0608 77.0545C27.0608 77.4991 27.0608 77.7181 27.0608 77.7181L24.9438 77.7778C24.9438 77.7778 24.9438 77.5256 24.9438 77.0744C24.9438 76.6231 24.9438 76.0059 24.9438 75.256C24.9438 73.743 25.0699 71.7388 25.2823 69.728C25.3885 68.7193 25.5146 67.7371 25.6871 66.7748C25.7601 66.3037 25.853 65.8457 25.9592 65.4144C26.0654 64.983 26.1649 64.5716 26.2777 64.1933C26.3308 64.0009 26.3906 63.8217 26.437 63.6491C26.4835 63.4766 26.5764 63.2974 26.6361 63.1315C26.7303 62.8628 26.8434 62.6011 26.9746 62.3484C27.1736 61.9635 27.2931 61.7445 27.2931 61.7445L28.9057 62.5475Z" fill="#344A48"/>
<path d="M41.322 60.8886L41.7534 61.4991C41.931 61.7328 42.095 61.9765 42.2445 62.2291C42.4303 62.5278 42.636 62.8928 42.8616 63.2445L43.5253 64.4457C43.731 64.8837 43.9566 65.3416 44.1889 65.8127C44.6136 66.7684 45.0384 67.8036 45.4166 68.8455C46.1864 70.9293 46.8102 73.0529 47.235 74.6589C47.4407 75.4685 47.6066 76.1388 47.7128 76.6166L47.8787 77.3732L45.6423 77.7913L45.5095 77.0812C45.4232 76.6233 45.2839 75.9729 45.1047 75.1832C44.7397 73.617 44.1955 71.5399 43.5186 69.5092C43.1802 68.5004 42.8019 67.5183 42.4236 66.5825L41.8463 65.2553C41.6406 64.8505 41.4547 64.4656 41.2756 64.1138L40.7646 63.2113C40.6252 62.9392 40.4394 62.6937 40.3133 62.4946L39.9019 61.8708L41.322 60.8886Z" fill="#344A48"/>
<path d="M25.0305 36.5402C25.9662 39.4602 29.2512 40.2897 32.0252 40.1039C34.7992 39.9181 36.5047 37.6153 37.3342 35.1864C37.5798 34.4763 36.4516 34.171 36.2061 34.8745C35.5424 36.8056 34.4607 38.2922 32.4101 38.8562C30.2467 39.4469 26.8688 38.5178 26.1321 36.2017C25.8999 35.485 24.7717 35.7969 25.004 36.5136L25.0305 36.5402Z" fill="#344A48"/>
<path d="M16.7418 21.4218C16.6689 20.8628 16.7453 20.2945 16.9633 19.7746C17.1812 19.2547 17.533 18.8018 17.9828 18.462C19.3101 17.5196 20.5577 18.9929 20.8696 20.1941C20.9426 20.4861 21.3938 20.36 21.3209 20.068C20.9758 18.7407 19.6352 17.1613 18.1288 17.8581C17.4758 18.2046 16.9476 18.7465 16.618 19.4082C16.2883 20.0698 16.1738 20.8179 16.2905 21.5479C16.337 21.8465 16.7883 21.7204 16.7418 21.4218Z" fill="#344A48"/>
<path d="M32.4893 16.1863C32.6486 15.0183 33.0468 14.0361 34.3541 13.8968C35.4425 13.7839 35.98 14.6068 36.5176 15.3966C36.6901 15.6487 37.0949 15.3966 36.9224 15.1643C36.2057 14.1091 35.4491 13.1734 34.029 13.4654C32.6088 13.7574 32.1973 14.8922 32.0381 16.1863C31.9982 16.4849 32.4628 16.4783 32.5026 16.1863H32.4893Z" fill="#344A48"/>
</svg>
