<svg width="46" height="58" viewBox="0 0 46 58" fill="none" xmlns="http://www.w3.org/2000/svg">
<path d="M36.2584 18.881C37.1962 9.31779 31.2504 2.8695 22.2398 1.22468C12.7507 -0.522032 -0.963364 6.29014 1.27478 20.4773C2.57996 28.682 7.30761 29.6961 12.7023 36.7363C16.0861 41.1807 17.4252 47.4689 23.603 46.7993C31.0474 45.989 29.9887 39.5844 32.4299 32.5927C34.4022 27.0032 35.7992 23.5244 36.2584 18.881Z" fill="#F8EB35"/>
<path d="M31.9219 35.3333C27.5713 33.5866 17.4199 33.8777 13.4318 38.3222L17.7099 44.7025L19.9529 46.2891L22.1814 46.8325L24.7482 46.4929L28.3206 44.9888L29.4372 43.6642L31.0566 39.409L31.9219 35.3333Z" fill="#E78127"/>
<path d="M16.8672 29.9481C14.0403 29.724 11.4179 28.3821 9.57672 26.2174C7.73555 24.0528 6.82645 21.2427 7.04934 18.4053" stroke="#FDF5A4" stroke-width="2.30098" stroke-miterlimit="10"/>
<path d="M15.7715 41.9815C15.4896 42.091 15.2625 42.3084 15.1402 42.5859C15.0178 42.8633 15.0101 43.1782 15.1189 43.4613C15.2281 43.7443 15.4446 43.9722 15.7211 44.095C15.9975 44.2178 16.3112 44.2255 16.5933 44.1163L17.2894 43.8446C17.429 43.7904 17.5565 43.7091 17.6646 43.6053C17.7728 43.5015 17.8595 43.3773 17.9197 43.2398C17.9798 43.1023 18.0124 42.9542 18.0154 42.804C18.0184 42.6539 17.9918 42.5046 17.9372 42.3648C17.8289 42.0868 17.6164 41.8625 17.3453 41.7401C17.0742 41.6176 16.766 41.6067 16.487 41.7097L15.7715 41.9815Z" fill="#354A47"/>
<path d="M13.7403 57.1925C13.7466 57.3748 13.8242 57.5473 13.9563 57.6726C14.0884 57.798 14.2644 57.866 14.4461 57.8621L16.109 57.896C16.1989 57.9033 16.2894 57.8926 16.3752 57.8645C16.461 57.8364 16.5404 57.7915 16.6087 57.7323C16.6771 57.6732 16.733 57.6011 16.7734 57.5201C16.8137 57.439 16.8376 57.3508 16.8438 57.2604C16.8374 57.0781 16.7598 56.9056 16.6277 56.7803C16.4957 56.655 16.3197 56.5869 16.138 56.5909L14.4751 56.5569C14.3852 56.5496 14.2947 56.5604 14.2089 56.5885C14.1231 56.6166 14.0437 56.6615 13.9754 56.7206C13.907 56.7797 13.8511 56.8519 13.8107 56.9329C13.7704 57.0139 13.7464 57.1021 13.7403 57.1925Z" fill="#354A47"/>
<path d="M30.3039 57.0028C30.2932 57.0916 30.3003 57.1816 30.3248 57.2676C30.3493 57.3536 30.3907 57.4337 30.4465 57.5034C30.5024 57.573 30.5716 57.6307 30.6501 57.6731C30.7285 57.7155 30.8146 57.7416 30.9033 57.75L32.5517 57.9878C32.7314 58.0213 32.9171 57.9841 33.0701 57.8838C33.2231 57.7835 33.3318 57.6278 33.3735 57.4492C33.3849 57.3603 33.3783 57.2701 33.3541 57.1838C33.3298 57.0976 33.2885 57.0171 33.2325 56.9474C33.1765 56.8776 33.107 56.8198 33.0282 56.7777C32.9495 56.7355 32.863 56.7098 32.7741 56.702L31.1305 56.4643C30.9502 56.4306 30.7639 56.4677 30.6101 56.5679C30.4563 56.6681 30.3466 56.8238 30.3039 57.0028Z" fill="#354A47"/>
<path d="M22.9536 17.8709C22.9708 17.9975 23.0128 18.1194 23.0771 18.2297C23.1414 18.3399 23.2267 18.4364 23.3282 18.5135C23.4297 18.5905 23.5454 18.6468 23.6686 18.6789C23.7918 18.711 23.9201 18.7183 24.0461 18.7006C24.1727 18.6833 24.2946 18.6411 24.4048 18.5762C24.515 18.5114 24.6114 18.4253 24.6882 18.3229C24.7651 18.2205 24.821 18.1038 24.8527 17.9796C24.8843 17.8553 24.8911 17.726 24.8727 17.5992L24.4957 14.9209C24.4785 14.7938 24.4364 14.6714 24.3718 14.5608C24.3072 14.4502 24.2214 14.3535 24.1194 14.2764C24.0173 14.1992 23.9011 14.1431 23.7773 14.1113C23.6536 14.0796 23.5248 14.0727 23.3984 14.0912C23.2718 14.1084 23.1499 14.1507 23.0396 14.2155C22.9294 14.2804 22.8331 14.3665 22.7562 14.4689C22.6794 14.5713 22.6235 14.688 22.5918 14.8122C22.5602 14.9364 22.5534 15.0657 22.5718 15.1926L22.9536 17.8709Z" fill="#354A47"/>
<path d="M13.7743 19.652C13.8063 19.7758 13.8624 19.892 13.9394 19.994C14.0163 20.0959 14.1126 20.1816 14.2227 20.2461C14.3328 20.3106 14.4544 20.3526 14.5807 20.3697C14.707 20.3868 14.8355 20.3787 14.9586 20.3458C15.0825 20.3137 15.1988 20.2572 15.3007 20.1796C15.4027 20.1021 15.4883 20.005 15.5526 19.8939C15.6169 19.7829 15.6586 19.6602 15.6753 19.5329C15.692 19.4055 15.6834 19.2762 15.6499 19.1522L14.9586 16.537C14.9266 16.4132 14.8705 16.297 14.7935 16.195C14.7166 16.093 14.6203 16.0073 14.5102 15.9429C14.4001 15.8784 14.2785 15.8364 14.1522 15.8193C14.0259 15.8022 13.8974 15.8103 13.7743 15.8432C13.6509 15.8753 13.5351 15.9316 13.4335 16.0089C13.3319 16.0861 13.2466 16.1828 13.1823 16.2932C13.1181 16.4037 13.0763 16.5259 13.0592 16.6526C13.0422 16.7794 13.0503 16.9083 13.083 17.0319L13.7743 19.652Z" fill="#354A47"/>
<path d="M36.7651 18.9197C36.7651 18.9197 36.7651 18.7936 36.7989 18.5558C36.8328 18.3181 36.8617 17.9639 36.8811 17.4738C36.9522 16.0811 36.8679 14.6847 36.6297 13.3108C36.2586 11.1386 35.4098 9.07664 34.1451 7.27496C32.4582 4.94772 30.1908 3.10702 27.5708 1.93778C26.1054 1.26346 24.5701 0.754128 22.993 0.419109L22.3694 0.29296C22.1664 0.254144 21.9779 0.22018 21.7507 0.186216C21.3108 0.118288 20.8902 0.0794756 20.4503 0.0455118C19.57 -0.0151706 18.6865 -0.0151706 17.8062 0.0455118C14.0457 0.286021 10.419 1.53795 7.3067 3.66994C5.65203 4.80696 4.20347 6.21988 3.02378 7.84749C1.8128 9.53468 0.942448 11.4434 0.461769 13.4661C-0.00865936 15.5076 -0.121529 17.6157 0.128223 19.696C0.326778 21.7971 0.927502 23.8399 1.89745 25.7125C2.39391 26.6466 2.9904 27.5235 3.67636 28.3277C4.34276 29.1054 5.05634 29.841 5.81301 30.5305C7.28738 31.889 8.76657 33.1457 10.0959 34.5479C11.4221 35.9085 12.5987 37.4083 13.6054 39.0215C14.6012 40.6226 15.4713 42.3208 16.6073 43.8734C17.1722 44.6708 17.8459 45.3845 18.6086 45.9938C19.3866 46.6007 20.2928 47.0206 21.2576 47.2213C22.1855 47.4027 23.138 47.4175 24.071 47.265C24.9795 47.1475 25.8656 46.8957 26.7007 46.5178C27.5285 46.1305 28.2675 45.5754 28.8711 44.8875C29.4263 44.2168 29.8778 43.4661 30.2102 42.6604C30.7745 41.1838 31.2112 39.6611 31.5154 38.1093C31.8441 36.6537 32.1631 35.2806 32.5498 33.9997C32.9366 32.7187 33.4006 31.5203 33.7922 30.3752C34.6043 28.0948 35.3004 26.0861 35.7258 24.3782C35.8466 23.9561 35.9385 23.5436 36.0255 23.1652C36.1125 22.7867 36.2092 22.4228 36.2623 22.0832C36.3784 21.4088 36.5041 20.8362 36.5669 20.3704L36.7602 18.9149L36.7651 18.9197ZM35.7499 18.8275C35.7499 18.8275 35.6919 19.3127 35.5856 20.2249C35.3941 21.5366 35.1131 22.8335 34.7445 24.1065C34.2611 25.7562 33.5988 27.7406 32.8109 30.0259C32.4193 31.171 31.9649 32.3645 31.5588 33.6988C31.1528 35.0331 30.8386 36.4305 30.5147 37.8812C30.2254 39.3697 29.8097 40.8306 29.2724 42.248C28.985 42.9508 28.5921 43.6054 28.1074 44.1888C27.6004 44.7716 26.976 45.2396 26.2753 45.5619C25.5327 45.8907 24.7461 46.1081 23.9405 46.2072C23.126 46.341 22.2941 46.3262 21.4848 46.1636C20.6766 45.9917 19.9189 45.6347 19.2708 45.1204C18.5907 44.5728 17.9917 43.9307 17.4919 43.2136C16.4381 41.758 15.5583 40.0695 14.5625 38.415C14.0551 37.5715 13.4948 36.7612 12.8851 35.989C12.2809 35.2127 11.6573 34.4461 10.9999 33.7086C9.6947 32.219 8.27834 30.7974 6.94899 29.3806C5.59874 28.061 4.475 26.5265 3.62319 24.8391C3.23562 23.9989 2.92966 23.1231 2.70956 22.2239C2.59838 21.7387 2.50171 21.336 2.4147 20.8605C2.37602 20.6276 2.32285 20.3462 2.29868 20.1521C2.27451 19.958 2.22617 19.6669 2.202 19.4534C1.97371 17.6159 2.0653 15.7525 2.4727 13.9464C2.88154 12.1841 3.63041 10.5192 4.677 9.04593C5.71814 7.60237 6.99645 6.3472 8.45719 5.33417C11.2672 3.39771 14.5341 2.23498 17.9318 1.96204C18.7262 1.8967 19.5241 1.88698 20.3198 1.93293C20.7017 1.95719 21.1029 1.99115 21.4655 2.04453C21.6395 2.04453 21.8522 2.09789 22.0504 2.13186L22.6063 2.2386C24.0578 2.52322 25.4732 2.96912 26.8264 3.56805C28.0613 4.11568 29.2239 4.81484 30.2875 5.64954C31.2355 6.40227 32.0893 7.26735 32.8302 8.22594C34.0335 9.80981 34.8961 11.6272 35.3632 13.5631C35.6693 14.8336 35.8138 16.1378 35.7934 17.4447C35.7934 17.8862 35.7934 18.2453 35.7596 18.483C35.7258 18.7208 35.7596 18.8518 35.7596 18.8518L35.7499 18.8275Z" fill="#354A47"/>
<path d="M31.9219 35.3248C27.6245 33.6994 18.0193 34.1603 13.7412 37.9594" stroke="#354A47" stroke-width="0.526906" stroke-miterlimit="10"/>
<path d="M31.2422 38.3275C27.346 36.9301 18.9397 36.639 15.1982 41.0252" stroke="#354A47" stroke-width="0.526906" stroke-miterlimit="10"/>
<path d="M30.2891 41.7633C25.7548 39.939 20.0362 40.497 17.0052 43.7866" stroke="#354A47" stroke-width="0.526906" stroke-miterlimit="10"/>
<path d="M28.5117 44.6943C24.4753 43.2047 21.3671 43.8209 19.5253 46.0528" stroke="#354A47" stroke-width="0.526906" stroke-miterlimit="10"/>
<path d="M12.9916 36.6096H12.808C12.6228 36.6002 12.4372 36.6002 12.252 36.6096C12.1215 36.6096 11.9717 36.6096 11.817 36.6484L11.3336 36.7358C10.956 36.8228 10.5858 36.9396 10.2266 37.0851C9.31724 37.458 8.50766 38.0396 7.86278 38.7833C7.46368 39.2365 7.19027 39.787 7.07 40.3796C7.04983 40.5406 7.03853 40.7026 7.03616 40.8648L7.06516 41.1268V41.253V41.2966C7.06516 41.2336 7.09416 41.384 7.08933 41.3694V41.4131C7.1347 41.5556 7.19634 41.6924 7.27302 41.8207C7.36432 41.9807 7.4747 42.1289 7.60173 42.2622C8.01745 42.691 8.50927 43.0382 9.05193 43.2859C9.53641 43.526 10.0432 43.7178 10.565 43.8585C11.4782 44.1096 12.4218 44.232 13.3687 44.2224L13.9681 44.1981L14.5095 44.135C14.8479 44.0914 15.1379 44.0089 15.3796 43.9652C15.863 43.8245 16.1289 43.7372 16.1289 43.7372L15.689 42.5581L15.0703 42.7571C14.8624 42.7959 14.6207 42.8735 14.3307 42.9075L13.8473 42.9706L13.3252 42.9997C12.4924 43.0162 11.6613 42.9183 10.855 42.7086C10.406 42.5876 9.96905 42.4252 9.54984 42.2234C9.14047 42.039 8.7672 41.7826 8.44768 41.4665C8.39376 41.4118 8.34369 41.3534 8.29782 41.2918C8.25432 41.2918 8.20116 41.0977 8.15765 40.9958V40.9473C8.15765 40.9473 8.19632 41.0783 8.15765 41.0104V40.9473V40.8211C8.15765 40.7338 8.15765 40.6416 8.15765 40.5543C8.24181 40.1565 8.42659 39.7873 8.69422 39.482C8.95845 39.1561 9.26966 38.8715 9.61753 38.6378C9.93006 38.4148 10.2655 38.2261 10.6181 38.0749C10.9185 37.9519 11.2271 37.8497 11.5414 37.7692L11.933 37.6965C12.0539 37.6965 12.1554 37.6722 12.252 37.6625C12.4129 37.6493 12.5746 37.6493 12.7354 37.6625H12.924L12.9916 36.6096Z" fill="#354A47"/>
<path d="M31.9539 36.3049L32.1279 36.2807C32.1859 36.2807 32.2488 36.2807 32.3454 36.2516L32.6983 36.1643C32.9961 36.0739 33.2781 35.9381 33.5346 35.7615C33.8749 35.5283 34.159 35.2216 34.366 34.8639C34.6064 34.4461 34.7455 33.9774 34.7721 33.4957C34.8 32.9759 34.7159 32.4563 34.5256 31.9721C34.1104 30.9808 33.4103 30.1362 32.5146 29.5461C32.0901 29.2459 31.6385 28.986 31.1659 28.7698C30.7136 28.5665 30.2486 28.3931 29.7738 28.2507C29.2904 28.11 28.865 28.0081 28.4396 27.9159C28.0142 27.8237 27.6081 27.7606 27.2359 27.7266C26.8637 27.6927 26.5156 27.6442 26.2111 27.6296C25.9066 27.6151 25.6407 27.5859 25.4232 27.5859H24.7367V28.8475H25.3893C25.5972 28.8475 25.8437 28.8475 26.1338 28.8766C26.4238 28.9057 26.7429 28.9154 27.1006 28.9591C27.4583 29.0027 27.8257 29.0609 28.2221 29.1192C28.6184 29.1774 29.0293 29.2841 29.445 29.4103C29.8705 29.5302 30.2872 29.6793 30.6922 29.8567C31.1033 30.0358 31.4966 30.2535 31.8669 30.5068C32.5828 30.9604 33.1481 31.6174 33.4911 32.3943C33.6302 32.7004 33.6977 33.0345 33.6885 33.3708C33.6793 33.7072 33.5936 34.037 33.4379 34.335C33.3202 34.5562 33.1551 34.7484 32.9545 34.8979C32.8627 34.9658 32.7612 35.0095 32.679 35.0628C32.5968 35.1162 32.4953 35.1405 32.418 35.1647L32.2246 35.2181L32.0216 35.2521L31.8476 35.2763L31.9539 36.3049Z" fill="#354A47"/>
<path d="M17.7954 44.8291L17.5151 45.2803C17.3979 45.4758 17.293 45.6783 17.2009 45.8868L17.022 46.2847L16.8673 46.6971C16.7469 47.0032 16.6436 47.3159 16.5579 47.6335C16.4468 47.9635 16.3598 48.3128 16.2679 48.6767C16.1761 49.0406 16.0939 49.4142 16.0117 49.7927C15.9295 50.1711 15.8619 50.5593 15.7845 50.9475C15.5041 52.5001 15.3011 54.0527 15.1948 55.2172C15.1319 55.8043 15.0884 56.2895 15.0594 56.6291C15.0304 56.9688 15.0207 57.1774 15.0207 57.1774L16.8625 57.2744C16.8625 57.2744 16.8625 57.0852 16.8625 56.7601C16.8625 56.435 16.9108 55.9498 16.9592 55.3822C17.0462 54.2419 17.196 52.7233 17.4426 51.2289C17.5054 50.8553 17.5537 50.4768 17.6311 50.1178C17.7084 49.7587 17.7616 49.3948 17.8438 49.0552C17.926 48.7155 17.9985 48.3807 18.0855 48.0848C18.1561 47.799 18.2416 47.5172 18.3417 47.2405L18.4674 46.8718L18.6124 46.5758C18.6725 46.4072 18.7485 46.2447 18.8396 46.0906L19.1055 45.6345L17.7954 44.8291Z" fill="#354A47"/>
<path d="M27.0705 45.7659L27.3219 46.222C27.3992 46.3676 27.5152 46.5471 27.6022 46.7412L27.9116 47.3962C28.0228 47.6437 28.1291 47.9251 28.25 48.2162C28.3708 48.5073 28.4772 48.8227 28.5932 49.1478C28.8204 49.8028 29.0283 50.516 29.2216 51.2293C29.5625 52.5521 29.8368 53.8913 30.0434 55.2419C30.1304 55.795 30.1933 56.2559 30.2271 56.5761L30.2803 57.0613L32.1172 56.8624C32.1172 56.8624 32.0882 56.6635 32.0399 56.319C31.9915 55.9745 31.9045 55.499 31.7982 54.9265C31.5806 53.7863 31.2422 52.2676 30.7975 50.7732C30.5703 50.0308 30.3141 49.2885 30.0579 48.6043C29.9177 48.2599 29.8017 47.9251 29.6615 47.634C29.5213 47.3428 29.3957 47.0323 29.2603 46.7655C29.125 46.4986 28.9944 46.2414 28.8784 46.0231C28.7624 45.8048 28.656 45.6446 28.5739 45.4991L28.3032 45.0479L27.0705 45.7659Z" fill="#354A47"/>
<path d="M21.9952 23.7034C20.1567 23.3677 18.2605 23.582 16.5424 24.3196C15.8802 24.6059 15.3001 23.6258 15.972 23.3492C17.9605 22.4805 20.1621 22.227 22.2949 22.6214C23.0103 22.7476 22.7058 23.8393 21.9952 23.7131V23.7034Z" fill="#354A47"/>
<path d="M24.7268 27.2547C24.6591 26.3959 24.954 25.5614 24.809 24.7026L25.3262 24.8385C24.7365 25.5905 25.1522 26.6483 25.244 27.4876C25.2827 27.8127 24.8186 27.8855 24.6688 27.6429C23.6682 26.0272 21.8216 26.7793 20.468 26.2455C20.9206 26.363 21.3892 26.4056 21.8554 26.3717C22.6124 26.4652 23.363 26.6046 24.1032 26.789C24.0452 26.9927 23.9921 27.1917 23.9389 27.3906L23.7358 27.3227C23.2959 27.1286 22.9914 27.3227 22.827 27.8515C22.8853 27.8863 22.9306 27.9393 22.9559 28.0024C22.9812 28.0656 22.9852 28.1353 22.9672 28.2009C22.7981 28.8316 22.8754 29.1034 23.5086 28.8074C23.9754 28.5862 24.3805 28.2529 24.6881 27.837C24.7993 27.6817 24.8767 27.5944 24.6881 27.5507C24.5154 27.5239 24.3409 27.5094 24.1661 27.5071C23.6827 27.4779 24.3642 27.6332 24.4851 27.7108C24.5867 27.7716 24.6916 27.8267 24.7993 27.8758C24.5712 27.7158 24.3036 27.6218 24.0259 27.6041C23.1268 27.5362 24.606 28.2057 23.8325 27.6526C23.6633 27.5313 23.0833 27.4391 23.0881 27.8224L22.479 27.7399C22.479 27.6429 22.479 27.541 22.5177 27.444C22.5467 27.2159 22.856 26.9588 23.0446 27.2208C23.3636 27.638 23.1944 27.7788 23.2911 28.3125H22.6965C22.7739 28.1038 23.1316 27.9437 23.1799 27.7885C23.2766 27.3955 23.8519 27.5653 23.7745 27.9534C23.7745 28.0602 23.441 28.7346 23.383 28.6958C23.5351 28.7916 23.6495 28.9373 23.7068 29.1082L23.412 28.8802C24.0887 28.8219 24.2386 27.9098 24.5189 27.4246C24.5508 27.3736 24.5966 27.3329 24.6508 27.3072C24.705 27.2816 24.7654 27.272 24.8249 27.2796C24.8844 27.2873 24.9404 27.3119 24.9864 27.3504C25.0324 27.389 25.0665 27.44 25.0845 27.4973C25.5244 28.6424 24.3594 28.1815 23.9389 28.7831C23.7987 28.982 23.4265 28.9966 23.3733 28.7103C23.2379 27.9922 23.5086 27.051 22.7497 26.658C22.3968 26.4736 22.7062 25.935 23.0639 26.1194C24.0984 26.658 23.789 27.575 23.9679 28.5454L23.4023 28.4726C23.5811 28.2154 24.5624 27.8515 24.4899 27.6623L25.0555 27.7351C24.5721 28.5211 24.4609 29.3945 23.412 29.4867C23.344 29.487 23.2778 29.4648 23.2236 29.4236C23.1694 29.3824 23.1303 29.3244 23.1123 29.2586C23.0446 29.0936 22.827 28.9966 22.7449 28.7734C22.6095 28.458 23.1219 28.0359 23.1799 27.7497L23.7745 27.9146C23.7068 28.196 23.3878 28.2203 23.2911 28.4386C23.1944 28.657 22.7545 28.7734 22.6965 28.4386C22.6579 28.2348 22.7207 27.7691 22.6095 27.6235L23.1364 27.4052C23.1364 27.5604 23.0977 27.7108 23.0736 27.8661C23.0252 28.2251 22.4693 28.1232 22.4693 27.7836C22.4693 26.721 23.8712 26.6822 24.4416 27.3372C25.1232 28.1136 24.079 28.8656 23.3733 28.1863C23.3043 28.123 23.2484 28.0466 23.2089 27.9616C23.1693 27.8766 23.1469 27.7845 23.1429 27.6908C23.1388 27.597 23.1533 27.5034 23.1853 27.4153C23.2174 27.3271 23.2665 27.2462 23.3298 27.1771C23.7455 26.7598 24.5044 26.9636 24.9685 27.1771C26.032 27.6138 25.6646 28.8947 24.4851 28.395C23.5473 27.9971 22.8802 26.789 24.3594 26.8763C25.0894 26.92 25.713 27.2402 25.2924 28.0408C24.606 29.3459 21.7249 30.4668 22.392 28.0117C22.4403 28.133 22.4887 28.2494 22.5322 28.3659C22.4183 28.3126 22.3178 28.2344 22.238 28.137C22.1582 28.0397 22.1012 27.9256 22.071 27.8032C22.0409 27.6809 22.0385 27.5532 22.0639 27.4298C22.0893 27.3063 22.1419 27.1901 22.2179 27.0898C22.5757 26.4348 23.557 26.5803 24.1225 26.7647C24.1619 26.7755 24.1988 26.794 24.231 26.8192C24.2632 26.8443 24.2902 26.8755 24.3104 26.9111C24.3306 26.9467 24.3436 26.986 24.3487 27.0266C24.3538 27.0673 24.3509 27.1085 24.3401 27.148C24.3293 27.1875 24.3109 27.2245 24.2858 27.2568C24.2608 27.2892 24.2297 27.3163 24.1942 27.3366C24.1587 27.3568 24.1196 27.3699 24.0791 27.375C24.0387 27.3801 23.9976 27.3772 23.9582 27.3663C23.272 27.1931 22.5764 27.0603 21.8748 26.9685C21.4784 26.9685 21.0868 26.9442 20.6953 26.8957C20.3037 26.8472 19.6028 26.5755 19.9992 26.0612C20.4826 25.4158 21.7104 25.7361 22.3726 25.8186C23.5376 25.969 24.5673 26.2504 25.2247 27.3033L24.6446 27.4634C24.5238 26.3668 24.1612 25.3188 24.9105 24.3775C24.9487 24.339 24.9962 24.3113 25.0485 24.297C25.1007 24.2828 25.1557 24.2825 25.208 24.2962C25.2604 24.31 25.3082 24.3373 25.3467 24.3754C25.3853 24.4135 25.4132 24.4611 25.4277 24.5134C25.5824 25.4353 25.2924 26.3086 25.3649 27.2305C25.3939 27.6284 24.7752 27.6284 24.7461 27.2305L24.7268 27.2547Z" fill="#354A47"/>
<path d="M14.8923 15.4842C14.4428 14.999 13.2391 14.999 12.6687 14.9601C11.7684 14.9055 10.8649 14.9806 9.98581 15.1833C9.28004 15.3483 8.9755 14.2566 9.6861 14.0916C10.9119 13.805 12.1785 13.7377 13.4276 13.8927C14.1672 13.9849 15.1437 14.1159 15.6948 14.6787C16.2458 15.2416 15.4047 16.0082 14.8923 15.4842Z" fill="#354A47"/>
<path d="M26.6436 13.5827C25.7058 12.1271 23.2888 12.5007 22.5686 13.9903C22.2447 14.6501 21.2731 14.0727 21.6018 13.4177C22.7184 11.1179 26.2666 10.8801 27.6297 13.0102C28.0261 13.6264 27.0497 14.194 26.6629 13.5827H26.6436Z" fill="#354A47"/>
<path d="M40.3872 9.6469C40.5037 9.25368 40.5565 8.93066 40.5458 8.67784C40.535 8.42502 40.4466 8.12048 40.2805 7.76421L39.8445 6.89404C39.6668 6.49434 39.6344 6.11535 39.7471 5.75708C39.8557 5.41196 40.0308 5.17107 40.2724 5.03441C40.5152 4.89445 40.8089 4.87914 41.1538 4.98846C41.4889 5.09465 41.7303 5.26877 41.8781 5.51081C42.0259 5.75285 42.0528 6.02342 41.9587 6.32252L42.8701 6.61143C43.0311 6.07688 42.9772 5.58808 42.7084 5.14503C42.4374 4.69766 42.0029 4.37923 41.4051 4.18975C40.7843 3.99298 40.2487 4.00756 39.7984 4.2335C39.3458 4.45512 39.0279 4.85681 38.8449 5.43859C38.6639 6.01379 38.7516 6.66511 39.1079 7.39254L39.4774 8.09523C39.6334 8.43747 39.6329 8.85839 39.4757 9.35799L40.3872 9.6469ZM39.9349 11.2223C39.9814 11.0744 39.9758 10.9371 39.9182 10.8104C39.8583 10.6793 39.7396 10.5857 39.5622 10.5295C39.3849 10.4732 39.2342 10.4815 39.1101 10.5542C38.9871 10.6237 38.9024 10.7324 38.8558 10.8803C38.8093 11.0282 38.8165 11.166 38.8775 11.2938C38.9394 11.4183 39.0591 11.5086 39.2365 11.5648C39.4139 11.6211 39.5635 11.6161 39.6855 11.5499C39.8052 11.4794 39.8883 11.3702 39.9349 11.2223Z" fill="#229A87"/>
<path d="M41.8872 24.975C42.0037 24.5818 42.0565 24.2588 42.0458 24.006C42.035 23.7531 41.9466 23.4486 41.7805 23.0923L41.3445 22.2222C41.1668 21.8225 41.1344 21.4435 41.2471 21.0852C41.3557 20.7401 41.5308 20.4992 41.7724 20.3625C42.0152 20.2226 42.3089 20.2073 42.6538 20.3166C42.9889 20.4228 43.2303 20.5969 43.3781 20.8389C43.5259 21.081 43.5528 21.3515 43.4587 21.6506L44.3701 21.9396C44.5311 21.405 44.4772 20.9162 44.2084 20.4732C43.9374 20.0258 43.5029 19.7074 42.9051 19.5179C42.2843 19.3211 41.7487 19.3357 41.2984 19.5616C40.8458 19.7832 40.5279 20.1849 40.3449 20.7667C40.1639 21.3419 40.2516 21.9932 40.6079 22.7207L40.9774 23.4234C41.1334 23.7656 41.1329 24.1865 40.9757 24.6861L41.8872 24.975ZM41.4349 26.5504C41.4814 26.4025 41.4758 26.2652 41.4182 26.1385C41.3583 26.0074 41.2396 25.9138 41.0622 25.8576C40.8849 25.8014 40.7342 25.8096 40.6101 25.8824C40.4871 25.9518 40.4024 26.0605 40.3558 26.2084C40.3093 26.3563 40.3165 26.4942 40.3775 26.6219C40.4394 26.7464 40.5591 26.8367 40.7365 26.893C40.9139 26.9492 41.0635 26.9442 41.1855 26.878C41.3052 26.8075 41.3883 26.6983 41.4349 26.5504Z" fill="#229A87"/>
</svg>
