<svg width="78" height="69" viewBox="0 0 78 69" fill="none" xmlns="http://www.w3.org/2000/svg">
<path opacity="0.5" fill-rule="evenodd" clip-rule="evenodd" d="M43.7323 25.0005C43.3566 24.4672 41.8961 23.9804 41.2656 24.1476C41.1526 24.1779 41.0214 24.215 41.0487 24.3383C41.0678 24.423 41.1935 24.5524 41.2536 24.54C42.1619 24.3536 42.8785 24.8711 43.7323 25.0005ZM17.7323 6.00049C17.1353 5.16164 16.3209 4.68508 15.3784 4.42467C15.1297 4.35584 14.726 4.00611 14.6298 4.46712C14.5411 4.89439 15.0412 4.60238 15.2442 4.72056C15.3479 4.78085 15.4505 4.85057 15.5627 4.88685C16.3503 5.14172 16.9305 5.7902 17.7323 6.00049ZM23.4999 25.402C23.7784 25.9571 25.974 27.2361 26.4394 27.1467C26.513 27.1329 26.6189 27.0789 26.6378 27.0214C26.7073 26.8122 26.5449 26.7053 26.3936 26.6393C25.4471 26.2267 24.4954 25.8261 23.4999 25.402ZM52.4978 48.2071C52.7352 48.5749 52.9362 48.626 53.1377 48.6781C54.9192 49.1365 56.7072 49.4815 58.5448 49.5698C61.0266 49.6883 63.5114 49.6397 65.9926 49.9299C66.4064 49.9779 66.8354 50.2954 67.394 50.003C66.4979 49.668 65.6983 49.518 64.8785 49.4942C63.0292 49.44 61.1799 49.4156 59.3312 49.3328C57.0677 49.2315 54.8336 48.839 52.4978 48.2071ZM70.4965 67.5155C69.6649 67.2517 69.5286 66.8977 70.1093 66.2473C71.0603 65.1833 72.1232 64.2299 73.4046 63.5776C73.7349 63.4095 73.6749 63.1036 73.8314 62.8826C74.177 62.3944 74.6152 61.9917 74.9739 61.5134C76.1546 59.9383 75.6891 58.3836 75.1059 56.7861C73.8849 53.4408 71.1977 52.0004 67.9941 51.1453C65.6311 50.5146 63.2404 50.6263 60.8487 50.6267C58.2133 50.6274 55.597 50.4352 53.0235 49.8339C48.6755 48.8178 45.938 45.2308 45.8732 40.5922C45.8399 38.2088 46.2785 35.8998 47.028 33.682C47.8278 31.3145 47.0569 29.4858 45.4219 27.8945C43.2253 25.7565 40.5522 25.3746 37.6527 25.9241C35.4297 26.3454 33.3022 27.1043 31.1266 27.6899C26.4087 28.9595 23.6236 27.4797 20.6458 23.8865C19.5546 22.5696 19.5635 21.1338 19.9477 19.6243C20.292 18.2709 20.6852 16.9297 21.0574 15.5834C21.1418 15.2779 21.2425 14.9741 21.1357 14.6521C20.3005 12.1374 19.4189 9.64013 17.6573 7.58534C15.8437 5.47011 12.1773 4.35699 9.15945 5.82389C6.91301 6.91562 4.64815 7.97025 2.39441 9.04704C2.05997 9.20672 1.7169 9.3613 1.34754 9.34246C0.99279 9.3246 0.714896 9.14979 0.553836 8.78418C0.400489 8.43598 0.55135 8.3012 0.83701 8.19253C0.942096 8.15274 1.01163 8.05547 0.978823 7.94195C0.61339 6.67099 1.52979 6.02124 2.3117 5.42521C4.05673 4.09534 6.1176 3.30462 8.05376 2.30383C8.95927 1.8355 9.87279 1.38508 10.8501 1.05615C13.0221 0.32574 15.0965 0.53371 17.2186 1.62715C16.624 1.69891 16.24 1.24078 15.7372 1.33188C16.6685 1.80538 17.6054 2.2568 18.4917 2.82017C18.5918 2.56275 18.1781 2.58124 18.3469 2.25461C19.0646 2.8157 19.86 3.26342 20.0933 4.22807C20.1324 4.38838 20.1999 4.38775 20.3053 4.45905C20.9905 4.92393 21.2946 5.68978 21.7138 6.3599C21.8874 6.63725 21.7585 6.89515 21.3878 7.062C22.1301 7.05623 22.3185 7.5345 22.5095 8.06601C22.8032 8.88391 23.1748 9.6736 23.4801 10.4874C24.1649 12.3134 24.0938 14.17 23.638 16.021C23.386 17.0452 23.0799 18.0568 22.7682 19.0643C22.6282 19.5155 22.7267 19.8711 22.9898 20.2467C24.8474 22.8983 27.1909 23.8435 30.3353 23.2012C32.247 22.8102 34.0744 22.126 35.9534 21.623C38.1324 21.0402 40.3252 20.6521 42.5655 21.3012C43.4441 21.5556 44.2066 22.0546 45.0067 22.4875C46.1999 23.1329 47.101 23.9436 47.8212 25.031C49.9099 28.1846 50.5461 31.5442 49.3754 35.1971C48.9674 36.4706 48.7084 37.7929 48.3832 39.0932C47.8164 41.3575 49.2572 43.5127 51.0178 44.5273C53.0277 45.6852 55.2573 45.9686 57.4912 46.1367C59.9854 46.3246 62.5011 46.2528 64.9859 46.5114C67.9496 46.8197 70.7679 47.7529 73.0965 49.6957C74.2625 50.6685 75.2534 51.8488 75.8578 53.347C76.1949 54.1818 76.6417 54.9933 76.9994 55.8388C77.5337 57.1021 77.8118 58.4258 77.8698 59.7636C77.9782 62.2555 77.0497 64.3349 75.0941 65.915C74.0864 66.7291 72.9473 67.3076 71.7646 67.8159C71.3935 67.9752 71.0056 68.036 70.6166 68.0711C70.4428 68.087 70.1405 68.1529 70.1072 67.8504C70.079 67.5944 70.4802 67.8426 70.4965 67.5155Z" fill="#229A87"/>
</svg>
