<svg width="27" height="26" viewBox="0 0 27 26" fill="none" xmlns="http://www.w3.org/2000/svg">
<path fill-rule="evenodd" clip-rule="evenodd" d="M3.96838 5C3.5356 5.23647 3.23213 5.44944 3.05868 5.75179C3.01143 5.83453 2.94557 5.92902 3.07868 5.988C3.14109 6.01584 3.32662 5.98724 3.32697 5.98188C3.33835 5.60062 4.17046 5.55669 3.96838 5ZM23 20.9308C23.0275 20.9539 23.0549 20.9769 23.0823 21C23.452 20.7273 23.7595 20.3962 24 20C23.8235 20.1316 23.6823 20.2984 23.5275 20.451C23.3583 20.6176 23.1763 20.7714 23 20.9308ZM8 10C8.36201 9.34756 8.80877 8.76187 9 8C8.47114 8.53041 8.25334 9.2825 8 10ZM19 15C18.6158 15.6233 18.065 16.1139 18 17C18.4483 16.4307 18.858 15.8296 19 15ZM4 5C4.97843 3.96678 6.11006 3.17033 7 2C5.87061 2.79989 4.80164 3.69303 4 5ZM22 16C20.9814 17.3583 19.9907 18.6791 19 20C20.9182 18.3097 21.8493 17.0481 22 16ZM5 10C5.04971 9.96265 5.11513 9.9415 5.12806 9.89943C5.61642 8.32226 6.59376 7.17347 7.65798 6.07507C8.18652 5.52947 8.53708 4.79578 9 4C7.52297 4.53795 5.06463 8.32586 5 10ZM12.2977 26C6.30676 25.8977 2.21922 22.5227 0.526932 17.1491C-0.443835 14.066 -0.0227356 11.0747 1.37531 8.24711C2.78743 5.39138 4.89378 3.11129 7.76131 1.65087C8.95915 1.04086 10.2431 0.595048 11.5045 0.118703C11.9964 -0.0670528 12.5186 -0.0213612 13.036 0.162686C13.6927 0.396269 14.3919 0.49363 15.0833 0.470144C16.6163 0.418474 17.986 0.910406 19.2555 1.69271C20.1111 2.2203 21.0346 2.64669 21.8006 3.31455C24.1812 5.3901 25.8308 7.94328 26.7666 10.9596C27.1197 12.0965 26.996 13.2587 26.886 14.4082C26.8225 15.0705 26.5639 15.7254 26.46 16.3606C26.3792 16.8546 25.9762 17.2131 26.0082 17.5426C26.056 18.0405 25.8526 18.3554 25.6524 18.7026C23.7684 21.9678 20.8167 23.8203 17.3391 24.9719C16.1074 25.38 14.8586 25.7216 13.5752 25.9144C13.0793 25.9887 12.5714 25.9831 12.2977 26Z" fill="#229A87"/>
</svg>
