<svg width="308" height="187" viewBox="0 0 308 187" fill="none" xmlns="http://www.w3.org/2000/svg">
<path fill-rule="evenodd" clip-rule="evenodd" d="M89.1213 106.327C87.9888 100.077 91.8565 100.201 99.5717 101.099C116.173 103.03 132.748 103.712 149.104 104.023C171.379 104.451 193.408 103.944 215.607 104.061C229.603 104.136 241.657 100.18 255.171 99.652C267.184 99.1831 276.165 95.2541 285.894 91.9954C287.435 91.4791 288.451 90.31 290.011 89.8284C292.595 89.0308 291.021 83.3027 298.292 87.7226C304.572 91.5383 307.907 94.7047 304.713 99.4045C300.035 106.283 290.63 108.758 281.329 111.228C255.151 118.183 226.305 119.87 197.42 121.294C166.975 122.797 135.779 121.793 104.204 118.594C91.2053 117.277 77.989 116.464 64.7023 112.226C72.0599 110.464 80.395 112.745 88.2248 113.199C96.9476 113.703 105.793 114.803 114.591 115.746C117.256 116.03 119.694 116.28 120.585 114.199C121.738 114.825 122.874 115.807 123.968 115.956C143.522 118.64 162.519 118.893 181.182 117.812C182.782 117.718 182.043 116.447 182.075 115.643C183.415 116.991 184.947 118.076 187.052 118.009C200.68 117.581 214.619 117.905 227.309 115.106C211.869 114.159 197.791 117.525 182.102 115.722C162.078 117.077 141.415 115.885 120.637 114.234C115.117 113.902 109.608 113.62 104.079 113.222C99.3182 112.877 99.8081 112.694 97.0634 108.737C95.88 107.035 92.0256 106.386 89.1213 106.304L89.1213 106.327Z" fill="#F9ED35"/>
<path fill-rule="evenodd" clip-rule="evenodd" d="M84.2445 106.976C82.8887 105.815 81.2496 105.559 80.5458 106.661C79.9259 107.625 81.2896 108.377 82.7396 108.627C84.1532 108.868 85.8334 108.696 86.7474 111.073C80.4215 111.651 73.7578 110.46 67.8557 108.566C63.2422 107.086 57.3609 109.683 53.5367 104.136C52.8393 103.12 50.2817 107.098 46.2541 105.812C41.4258 104.267 36.2094 103.892 31.436 102.242C23.4457 99.4798 15.0833 99.049 7.15861 96.003C4.93955 95.1503 2.61794 94.8867 2.07005 92.6617C1.74953 91.362 2.55014 90.5219 3.88964 90.0101C4.53916 94.2969 9.72366 86.4767 10.1066 92.2308C10.2712 94.7138 12.4286 93.1716 13.2248 92.9221C17.0456 91.7356 21.5757 95.441 25.4793 93.4696C26.2412 93.0871 28.9038 95.4124 28.1132 97.1657C26.8186 100.032 30.0018 100.268 31.8944 100.398C35.3356 100.631 32.5506 98.7816 32.5877 97.7424C32.7376 93.4988 37.7611 95.4083 40.1928 96.0954C45.3816 97.5626 50.0182 99.6681 55.4058 98.1441C58.8861 97.1577 57.5676 101.399 60.88 102.43C62.5757 100.643 65.4988 99.6687 69.4108 99.6874C70.3257 101.466 66.3965 101.949 68.7643 104.298C73.6069 104.975 79.4538 99.7896 84.242 106.992C84.2441 106.995 84.2445 106.976 84.2445 106.976Z" fill="#F9ED35"/>
<path fill-rule="evenodd" clip-rule="evenodd" d="M30.14 105.655C35.3653 104.472 40.5136 105.88 47.3094 108.49C40.3965 110.115 35.3447 106.716 30.14 105.655Z" fill="#F9ED35"/>
</svg>
