<svg width="168" height="174" viewBox="0 0 168 174" fill="none" xmlns="http://www.w3.org/2000/svg">
<circle opacity="0.1" cx="84" cy="84" r="84" transform="rotate(90 84 84)" fill="#FF773C"/>
<path d="M90.7162 94.141C86.9576 93.0909 82.939 93.5229 79.4885 95.3482C76.0379 97.1734 73.4184 100.253 72.1697 103.952C70.9211 107.651 71.1384 111.687 72.7769 115.229C74.4155 118.772 77.3504 121.55 80.9768 122.991L76.4287 139.396C76.3099 139.825 76.3662 140.284 76.5852 140.671C76.8043 141.058 77.1682 141.342 77.5969 141.461C78.0256 141.58 78.484 141.523 78.8712 141.304C79.2584 141.085 79.5427 140.721 79.6616 140.292L84.2096 123.887C87.9146 124.491 91.7125 123.704 94.8732 121.677C98.0339 119.65 100.334 116.526 101.332 112.906V112.906C102.402 109.009 101.885 104.847 99.8961 101.331C97.9069 97.8146 94.6064 95.2296 90.7162 94.141V94.141ZM98.0956 112.008C97.4668 114.274 96.1805 116.303 94.3992 117.838C92.6178 119.374 90.4215 120.346 88.088 120.633C85.7545 120.92 83.3885 120.509 81.2893 119.451C79.1901 118.393 77.4519 116.736 76.2946 114.689C75.1372 112.643 74.6127 110.299 74.7873 107.954C74.9619 105.609 75.8277 103.368 77.2754 101.515C78.7231 99.6614 80.6876 98.2789 82.9205 97.542C85.1533 96.8052 87.5542 96.747 89.8197 97.3749C91.3296 97.7823 92.7435 98.4858 93.9792 99.4445C95.2149 100.403 96.2477 101.598 97.0177 102.959C97.7877 104.321 98.2795 105.822 98.4645 107.375C98.6495 108.929 98.5241 110.503 98.0956 112.008V112.008Z" fill="#FFCAB0"/>
<path d="M78.4856 103.204C76.5265 105.908 75.7957 109.857 77.375 113.131C80.1192 118.831 88.6436 120.034 90.0898 118.084C91.0557 116.793 88.2796 114.94 87.5635 109.871C86.7012 103.871 89.7773 100.694 88.1945 99.2314C86.5382 97.6792 81.186 99.4863 78.4856 103.204Z" fill="#FFE6DA"/>
<path opacity="0.1" d="M132 158.5C132 165.404 126.404 171 119.5 171C112.596 171 107 165.404 107 158.5C107 151.596 112.596 146 119.5 146C126.404 146 132 151.596 132 158.5Z" stroke="#FF773C" stroke-width="6"/>
<path opacity="0.7" d="M47.9469 154.805C41.519 129.324 26.3493 121.221 21.8091 119.34C21.7526 117.641 21.0324 116.031 19.8006 114.848C18.5688 113.666 16.9216 113.004 15.2068 113.002H3.93366C3.6845 112.99 3.43534 113.027 3.20134 113.113C2.96734 113.199 2.7534 113.331 2.57252 113.501C2.39163 113.672 2.2476 113.877 2.14918 114.104C2.05076 114.331 2 114.576 2 114.823C2 115.07 2.05076 115.315 2.14918 115.542C2.2476 115.77 2.39163 115.975 2.57252 116.145C2.7534 116.315 2.96734 116.447 3.20134 116.533C3.43534 116.619 3.6845 116.657 3.93366 116.644H4.09823C5.49795 116.644 6.84041 117.195 7.83062 118.175C8.82083 119.156 9.37776 120.486 9.37905 121.873V125.352C9.36831 128.139 10.0342 130.889 11.3206 133.368C12.607 135.847 14.4761 137.983 16.7703 139.596V153.03C16.7944 153.496 16.9985 153.936 17.3404 154.258C17.6822 154.58 18.1357 154.759 18.6072 154.759C19.0787 154.759 19.5321 154.58 19.874 154.258C20.2158 153.936 20.4199 153.496 20.4441 153.03V142.321C21.2043 143.2 21.8545 144.166 22.3802 145.2C22.3183 145.377 22.2856 145.564 22.2834 145.751V153.034C22.3076 153.501 22.5117 153.941 22.8535 154.263C23.1953 154.585 23.6488 154.764 24.1203 154.764C24.5918 154.764 25.0453 154.585 25.3871 154.263C25.729 153.941 25.9331 153.501 25.9572 153.034V151.571C26.8061 151.952 27.766 152.013 28.6571 151.743C29.5482 151.473 30.3092 150.89 30.7976 150.103L36.4608 156.647C36.8245 157.071 37.277 157.412 37.7868 157.646C38.2967 157.879 38.8517 158 39.4134 158C39.9395 158.001 40.4602 157.895 40.9438 157.69C41.4273 157.484 41.8636 157.184 42.226 156.806C42.5883 156.428 42.8692 155.98 43.0514 155.491C43.2336 155.002 43.3133 154.481 43.2857 153.96C44.0843 155.193 44.5054 156.014 44.52 156.047C44.7206 156.451 45.065 156.766 45.4867 156.933C45.9084 157.099 46.3774 157.105 46.803 156.949C47.2286 156.792 47.5806 156.485 47.791 156.086C48.0014 155.688 48.0552 155.226 47.9421 154.79L47.9469 154.805ZM39.4957 154.325C39.452 154.346 39.4023 154.352 39.3547 154.342C39.3072 154.331 39.2647 154.305 39.2343 154.267L31.7753 145.665L30.846 142.954C32.882 143.736 34.7779 144.838 36.4608 146.217L39.6215 154.157C39.6227 154.195 39.6139 154.233 39.5961 154.266C39.5783 154.3 39.5521 154.328 39.5199 154.349L39.4957 154.325ZM30.6475 139.059C24.7229 137.379 21.9833 132.611 22.1188 130.423C22.1672 129.641 22.5012 129.588 22.7965 129.54C23.0345 129.502 23.2627 129.418 23.4679 129.292C23.6731 129.167 23.8514 129.002 23.9925 128.809C24.1336 128.615 24.2349 128.395 24.2904 128.163C24.346 127.93 24.3548 127.689 24.3164 127.453C24.2779 127.217 24.1929 126.991 24.0663 126.788C23.9397 126.584 23.7739 126.407 23.5784 126.268C23.3828 126.128 23.1614 126.027 22.9268 125.972C22.6922 125.917 22.4489 125.908 22.2108 125.947C20.0278 126.297 18.5902 127.928 18.4499 130.207C18.232 133.844 21.2863 138.632 26.3832 141.27L28.1983 146.572L27.5836 148.27L27.3513 148.117C25.5797 140.968 21.1605 137.979 20.9717 137.854C20.9083 137.813 20.8419 137.776 20.7732 137.744C20.4054 137.557 20.052 137.356 19.7035 137.149C19.6522 137.111 19.5988 137.076 19.5438 137.044C17.5501 135.802 15.9081 134.077 14.7725 132.033C13.6369 129.988 13.0451 127.69 13.0529 125.356V121.878C13.055 119.995 12.4457 118.162 11.3152 116.649H15.1875C15.9604 116.649 16.7021 116.951 17.2514 117.49C17.8006 118.029 18.1131 118.761 18.1207 119.527V120.578C18.1208 120.968 18.2469 121.347 18.4803 121.66C18.7138 121.974 19.0423 122.205 19.4179 122.32C19.5728 122.368 32.7192 126.589 40.8413 145.176C38.1598 142.623 34.7473 140.22 30.6475 139.059Z" fill="#FFB996"/>
</svg>
