<svg width="37" height="33" viewBox="0 0 37 33" fill="none" xmlns="http://www.w3.org/2000/svg">
<path fill-rule="evenodd" clip-rule="evenodd" d="M15.6941 3.73441C15.4592 3.73441 15.3528 3.76659 15.2836 3.72954C14.2784 3.19222 13.4164 3.417 12.6014 4.15227C12.0924 4.61157 11.5614 5.11182 10.9955 5.43265C9.80251 6.10843 9.2082 7.27764 8.38981 8.23427C7.43215 9.35424 6.84471 10.7512 6.18323 12.0876C5.21822 14.0404 4.80437 16.0931 4.61803 18.215C4.4979 19.587 4.78083 20.9172 5.10593 22.2522C5.21283 22.6919 5.55362 23.0883 5.44427 23.5803C6.00425 23.7987 5.34277 24.4857 5.94345 24.7749C6.31759 24.9543 6.54854 25.4282 6.84373 25.7695C6.90061 25.8349 6.97858 25.89 7.01388 25.9651C7.51355 27.0299 8.49033 27.5941 9.41709 28.1957C10.3718 28.8159 11.4967 29.1499 12.5784 29.2182C14.222 29.3211 15.9103 29.4956 17.5378 28.9949C18.4062 28.7272 19.3334 28.638 20.143 28.1987C21.719 27.3434 23.318 26.5843 24.7489 25.42C26.5818 23.928 28.0666 22.2248 29.1983 20.2029C29.7147 19.2794 30.1192 18.274 30.4271 17.2613C30.7414 16.2286 30.9557 15.1501 31.069 14.0764C31.2279 12.5776 30.9601 11.0939 30.5389 9.65556C30.3222 8.91396 30.0667 8.13822 29.6284 7.51753C29.1238 6.80421 28.4785 6.1216 27.7474 5.65254C26.9304 5.12791 26.1253 4.43409 25.0318 4.49406C24.7989 3.89434 24.4262 4.59645 24.0933 4.38533C23.4656 3.98698 22.7365 3.80706 22.0245 3.5818C21.5827 3.44186 21.1693 3.5584 20.7525 3.43943C19.7414 3.15176 19.739 3.17175 18.6769 3.42919C18.6018 3.44723 18.4856 3.29657 18.3827 3.2205C18.2081 3.38287 18.0237 3.55401 17.8384 3.7271C17.4755 3.24293 17.1009 3.51013 16.7326 3.68858C16.5713 3.52768 16.4139 3.37117 16.2516 3.21026C16.0638 3.38677 15.8755 3.56376 15.6941 3.73441ZM18.1364 32.9887C17.4612 32.9887 16.9689 33.0174 16.481 32.9833C14.9594 32.8775 13.459 32.7039 11.9796 32.251C11.194 32.0106 10.3202 31.9516 9.56312 31.6269C8.77219 31.2875 7.9283 31.0544 7.23494 30.4518C6.60239 29.9018 5.88305 29.4269 5.18724 28.9549C4.09229 28.2109 3.25575 27.303 2.67076 26.1397C1.96711 25.8066 1.97887 24.9977 1.55963 24.4624C1.16342 23.9553 1.01681 23.2673 0.736327 22.6861C0.526457 22.2517 0.879509 21.6749 0.331297 21.3877C0.437213 20.8168 0.132705 20.3048 0.0861222 19.768C0.00619506 18.8445 -0.0609829 17.8884 0.0905353 16.9834C0.39063 15.1925 0.795659 13.429 1.48362 11.7156C2.15589 10.0408 3.24055 8.63071 4.09179 7.07631C4.29627 6.70331 4.65325 6.34982 5.02787 6.14991C5.42261 5.9383 5.22892 5.2318 5.84872 5.29567C6.49255 4.33027 7.45315 3.72128 8.36569 3.05233C9.51458 2.21028 10.7915 1.63298 12.1311 1.17905C12.6881 0.990356 13.3089 0.891378 13.8517 0.863586C14.8118 0.814341 15.7033 0.599319 16.5619 0.260939C17.7637 -0.212499 18.9911 0.126855 20.1998 0.0108114C20.5887 0.425253 21.1119 0.324324 21.5556 0.252163C22.0416 0.173663 22.3431 0.532033 22.784 0.563238C24.2928 0.670505 25.6785 1.27657 27.0922 1.75634C28.6358 2.28 30.023 3.10693 31.3685 4.00262C33.3584 5.32688 34.9437 7.01049 35.9234 9.20898C36.2946 10.0418 36.5172 10.915 36.7486 11.8C37.1238 13.2383 36.9791 14.666 36.9389 16.0858C36.9036 17.3189 36.4966 18.5261 36.0396 19.6895C35.6944 20.5661 35.3487 21.4428 34.9971 22.317C34.9667 22.3931 34.8402 22.4511 34.8417 22.516C34.8632 23.8061 33.9688 24.5828 33.2054 25.4341C33.0323 25.6272 32.7974 25.7979 32.7052 26.0251C32.0864 27.5527 30.7051 28.324 29.4968 29.2611C28.2435 30.2334 26.8107 30.9179 25.3858 31.5849C24.1471 32.1647 22.8001 32.4504 21.4576 32.7585C20.2792 33.0291 19.1191 32.9258 18.1364 32.9887Z" fill="#F9ED35"/>
</svg>
