<svg width="28" height="32" viewBox="0 0 28 32" fill="none" xmlns="http://www.w3.org/2000/svg">
<path fill-rule="evenodd" clip-rule="evenodd" d="M1.14517 21.2491C0.787684 20.7967 -0.123486 21.0773 0.0140102 20.2377C0.181468 19.2117 1.04051 18.98 1.85031 18.8956C3.21829 18.7526 4.59818 18.7166 5.97479 18.6752C7.72489 18.6226 9.47704 18.6201 11.228 18.5749C12.6079 18.5389 12.5968 18.5268 12.3284 17.0894C11.7558 14.02 11.4307 10.9273 11.5485 7.7977C11.5998 6.42881 11.75 5.07079 12.1047 3.74413C12.3115 2.97063 12.6074 2.2335 13.0409 1.55993C14.2393 -0.30108 15.8524 -0.464143 17.5778 0.89555C18.4246 1.56285 19.0985 2.23852 19.4761 3.26832C19.7462 4.00587 19.5032 4.49088 18.9011 4.75888C18.088 5.12138 17.8881 5.782 17.7753 6.5693C17.3619 9.45551 17.664 12.3292 17.8951 15.2041C17.9464 15.8442 18.0823 16.4814 18.086 17.1207C18.0925 18.0606 18.5801 18.2412 19.3764 18.1777C21.342 18.0213 23.3207 17.9929 25.2403 17.4502C25.443 17.3925 25.6725 17.2834 25.8453 17.5309C25.9233 17.9528 25.3938 17.9757 25.3019 18.2826C25.5937 18.5373 25.8346 18.3157 26.0772 18.3132C26.4507 18.3094 27.2416 17.5819 26.9399 18.8074C27.5806 18.9069 27.8564 19.3062 27.9578 19.9438C28.0522 20.535 28.0362 21.0146 27.3951 21.237C24.9468 22.0862 22.3914 22.4211 19.8508 22.7915C19.0907 22.9023 18.9938 23.1645 19.1539 23.8C19.692 25.9361 20.1451 28.1107 22.0532 29.5323C22.4058 29.7945 22.4074 30.2715 22.5839 30.6428C22.8528 31.2068 22.389 31.4769 22.1247 31.811C21.8529 32.1551 21.5353 31.9427 21.2102 31.847C17.7884 30.8431 15.8532 28.3461 14.58 25.1279C13.92 23.4601 13.8753 23.5529 12.0423 23.772C10.2355 23.9877 8.40991 24.0271 6.59372 24.1659C5.04391 24.2838 3.66526 23.818 2.39578 22.9538C2.08754 22.7439 1.79736 22.465 1.41032 22.4888C0.947344 22.5177 0.707238 22.2789 0.580413 21.8888C0.433477 21.4352 0.956373 21.4461 1.14517 21.2491Z" fill="#229A87"/>
</svg>
