<svg width="300" height="291" viewBox="0 0 300 291" fill="none" xmlns="http://www.w3.org/2000/svg">
<path fill-rule="evenodd" clip-rule="evenodd" d="M39.6656 73.5788C39.6639 73.7054 39.6622 73.832 39.6605 73.9586C40.2856 74.0857 40.9106 74.2128 41.5357 74.3398C41.5381 74.19 41.54 74.0398 41.5429 73.8902C40.9166 73.7861 40.2914 73.6826 39.6656 73.5788ZM177.381 112.607C177.49 112.401 177.599 112.195 177.708 111.988C177.177 111.682 176.652 111.365 176.105 111.087C176.06 111.064 175.826 111.284 175.759 111.418C175.674 111.588 175.595 111.928 175.644 111.949C176.209 112.196 176.798 112.395 177.381 112.607ZM181.762 89.4114C181.683 89.5674 181.603 89.7236 181.523 89.8793C182.441 90.2725 183.359 90.6643 184.276 91.0573C184.374 90.8655 184.471 90.674 184.569 90.4822L181.762 89.4114ZM191.029 243.752L191.1 243.593C190.228 242.879 189.361 242.161 188.486 241.452C188.347 241.34 188.192 241.239 188.012 241.208C187.955 241.197 187.795 241.428 187.683 241.549C187.802 241.708 187.888 241.924 188.045 242.018C189.03 242.612 190.033 243.177 191.029 243.752ZM135.719 117.487C135.656 117.619 135.595 117.752 135.532 117.885C136.768 118.387 138.002 118.89 139.237 119.393C139.302 119.256 139.367 119.118 139.431 118.98C138.194 118.482 136.956 117.985 135.719 117.487ZM76.3783 35.8803C76.3953 35.7206 76.4121 35.5613 76.4286 35.4012C75.3654 35.3735 74.3028 35.3449 73.2392 35.3169C73.2338 35.4983 73.2283 35.6798 73.2236 35.8611C74.2754 35.8678 75.3275 35.8741 76.3783 35.8803ZM194.378 46.0766C194.318 46.3329 194.258 46.5899 194.198 46.8465C195.02 47.0446 195.83 47.2803 196.676 47.4104C196.85 47.4367 197.195 47.1063 197.388 46.8634C197.449 46.7857 197.33 46.2905 197.201 46.2757C196.274 46.1672 195.322 46.1334 194.378 46.0766ZM163.097 195.903C163.16 195.759 163.223 195.616 163.284 195.472C161.757 194.821 160.228 194.17 158.7 193.519C158.642 193.64 158.585 193.761 158.527 193.882C160.051 194.555 161.574 195.229 163.097 195.903ZM193.004 204.003C192.892 204.193 192.78 204.384 192.668 204.575L195.953 206.858C196.077 206.654 196.199 206.449 196.323 206.245C195.217 205.498 194.11 204.75 193.004 204.003ZM194.251 156.369C194.301 156.233 194.352 156.098 194.402 155.963C193.193 155.437 191.985 154.912 190.776 154.387C190.704 154.558 190.63 154.729 190.557 154.899C191.789 155.389 193.02 155.879 194.251 156.369ZM208.281 51.3035L208.465 50.999C207.394 50.4812 206.332 49.9437 205.245 49.4673C205.087 49.3982 204.81 49.6233 204.588 49.7126C204.739 49.8708 204.863 50.1067 205.042 50.1734C206.114 50.5712 207.2 50.9305 208.281 51.3035ZM173.158 76.7971C173.2 76.6878 173.241 76.5786 173.282 76.4707C171.62 76.0536 169.958 75.6371 168.295 75.2209C168.224 75.4071 168.153 75.5931 168.082 75.7796C169.774 76.1183 171.466 76.4579 173.158 76.7971ZM90.7012 44.3909C90.713 44.2226 90.7249 44.0543 90.7363 43.8866L82.2578 43.0156C82.2151 43.191 82.1731 43.3653 82.1306 43.5393C84.9879 43.8225 87.8447 44.1064 90.7012 44.3909ZM72.4642 161.731C72.8337 160.334 72.189 158.869 71.3779 158.929C71.134 158.947 70.9466 158.732 70.7196 158.651C70.417 158.541 70.1015 158.457 69.791 158.362C69.8174 158.779 69.7003 159.386 69.8951 159.578C70.6679 160.341 71.5382 160.975 72.4642 161.731ZM169.923 138.187C169.815 138.356 169.708 138.523 169.6 138.692L175.663 142.191C175.759 142.015 175.855 141.84 175.951 141.665L169.923 138.187ZM165.824 208.31C165.775 208.392 165.726 208.475 165.678 208.557L176.937 215.053C176.985 214.971 177.033 214.888 177.082 214.805L165.824 208.31ZM209.975 52.0437L209.677 52.598C211.172 53.5925 212.658 54.6003 214.174 55.5627C214.338 55.6665 214.671 55.5073 214.925 55.47C214.875 55.2233 214.907 54.8374 214.762 54.7516C213.182 53.8219 211.575 52.9396 209.975 52.0437ZM176.646 281.384C176.597 281.455 176.548 281.526 176.5 281.597C180.527 283.086 184.547 284.592 188.592 286.04C189.029 286.197 189.612 286.019 190.126 285.997C189.728 285.918 189.33 285.842 188.932 285.762C188.884 285.752 188.843 285.718 188.797 285.701C184.747 284.261 180.697 282.823 176.646 281.384ZM60.0519 60.516C58.623 59.3541 52.9979 59.3766 51.9991 60.4634C54.6426 60.4806 57.1658 60.4978 60.0519 60.516ZM58.5192 53.4535C57.5757 53.2549 56.3573 55.7273 55.754 53.8672C55.5861 54.0244 55.4203 54.1845 55.2497 54.3362C55.1652 54.411 55.0692 54.5029 54.9841 54.5263C54.8122 54.5729 54.5145 54.5557 54.4969 54.6021C54.4017 54.8627 54.2592 55.2775 54.3456 55.376C54.6493 55.7201 54.9741 56.1537 55.4086 56.1981C56.9247 56.3526 57.3829 55.9024 58.5192 53.4535ZM234.036 200.348C234.172 200.049 234.308 199.748 234.443 199.448C231.035 198.082 227.627 196.717 224.219 195.351C224.154 195.482 224.088 195.613 224.022 195.744C227.36 197.279 230.698 198.814 234.036 200.348ZM176.354 134.833C176.441 134.695 176.528 134.557 176.615 134.418C172.077 131.612 167.538 128.806 163 126C167.472 128.913 171.638 132.31 176.354 134.833ZM173.544 101.807C173.455 101.956 173.366 102.103 173.277 102.251C173.574 102.47 173.862 102.702 174.167 102.906C176.278 104.305 178.373 105.727 180.518 107.068C180.904 107.309 181.789 107.442 181.942 107.222C182.583 106.303 182.276 105.688 181.545 105.367C178.872 104.193 176.211 102.996 173.544 101.807ZM46.193 30.2442C46.2603 30.4351 46.3274 30.6252 46.3947 30.8162L62.7955 19.4978C61.4211 20.0498 60.0724 20.7945 58.7141 21.4939C58.3421 21.6857 57.584 22.6183 57.8126 21.2312C57.6471 21.2567 57.4553 21.2224 57.3226 21.3222C57.1469 21.4541 56.881 21.8523 56.8873 21.859C57.5897 22.6106 56.6927 22.7477 56.3403 23.0007C52.9618 25.4266 49.5762 27.8328 46.193 30.2442ZM205.677 218.918C205.758 218.776 205.838 218.635 205.919 218.492L185.519 207.832C185.355 208.137 185.191 208.442 185.026 208.746C191.91 212.136 198.794 215.528 205.677 218.918ZM259.873 125.625C259.96 125.516 260.047 125.407 260.134 125.297C259.831 123.736 259.183 122.234 259.304 120.599C259.502 117.929 258.949 115.668 258.418 113.354C258.379 113.189 258.154 113.122 258.016 113.009C257.887 113.247 257.648 113.514 257.647 113.721C257.629 117.655 257.066 121.831 259.2 124.836C259.402 125.121 259.648 125.363 259.873 125.625ZM235.056 208.995C227.933 206.084 221.217 203.339 214.501 200.594C220.807 204.29 227.355 207.436 235.056 208.995ZM193.929 181.191C194.247 181.278 194.47 181.382 194.718 181.396C195.107 181.417 195.513 181.38 195.912 181.366C195.757 180.945 195.719 180.343 195.428 180.128C191.842 177.492 188.223 174.905 184.59 172.341C184.402 172.21 183.913 172.273 183.739 172.468C183.555 172.675 183.423 173.36 183.542 173.473C184.33 174.215 185.152 174.922 186.038 175.521C187.02 176.184 188.143 176.628 189.096 177.331C190.773 178.571 192.369 179.935 193.929 181.191ZM220.272 195.815C219.938 195.474 219.661 195.031 219.26 194.805C214.47 192.103 209.669 189.42 204.84 186.786C204.51 186.605 203.94 186.85 203.482 186.897C203.669 187.293 203.758 187.843 204.059 188.061C208.931 191.584 214.38 194.05 220.272 195.815ZM152.409 98.0228C152.294 98.2714 152.18 98.5203 152.065 98.7689C154.064 99.71 156.069 100.64 158.059 101.598C158.964 102.034 159.868 102.481 160.72 103.007C161.865 103.713 162.901 104.613 164.088 105.231C166.171 106.316 168.367 107.183 170.447 108.272C171.449 108.795 172.273 109.646 173.225 110.276C173.453 110.427 173.868 110.29 174.197 110.286C174.171 110.073 174.224 109.766 174.107 109.663C173.41 109.054 172.724 108.41 171.94 107.934C170.672 107.164 169.32 106.537 168.025 105.809C166.456 104.93 164.933 103.969 163.351 103.116C161.66 102.206 159.944 101.336 158.202 100.529C156.294 99.6454 154.342 98.8539 152.409 98.0228ZM157.677 83.7515C158.149 84.1595 158.542 84.792 159.122 84.9573C164.643 86.5294 170.218 87.9671 175.73 89.5607C178.31 90.3074 180.783 91.3194 183.319 92.1778C183.522 92.2462 183.838 92.056 184.102 91.9864C184.034 91.741 184.031 91.4142 183.884 91.2693C183.649 91.0365 183.34 90.8787 183.026 90.7694C179.373 89.4946 175.726 88.2078 172.052 86.9819C170.032 86.3083 168.008 85.623 165.907 85.1637C163.242 84.5821 160.497 84.2242 157.677 83.7515ZM101.499 23.3294C109.81 26.2677 118.122 29.2057 126.433 32.1443C119.061 26.928 110.502 24.5888 101.499 23.3294ZM158.305 90.6653L158.066 91.2345C158.419 91.413 158.749 91.6541 159.128 91.7595C160.862 92.2444 162.658 92.5735 164.343 93.172C170.698 95.4316 177.017 97.7787 183.358 100.07C183.566 100.145 183.878 99.973 184.142 99.9167C184.04 99.66 184.012 99.2623 183.825 99.1699C181.759 98.1527 179.751 96.9807 177.569 96.2433C172.852 94.6497 168.053 93.2582 163.267 91.841C161.645 91.3614 159.961 91.0525 158.305 90.6653ZM238.182 217.991C226.448 214.566 215.474 209.448 204.509 204.312C214.975 210.558 225.906 215.769 238.182 217.991ZM159.613 95.1311C160.175 95.5928 160.37 95.9128 160.66 95.9671C163.321 96.4665 165.029 98.8064 168.078 98.7814C170.358 98.7625 172.318 100.221 174.375 101.114C174.809 101.303 175.041 101.896 175.366 102.303C177.024 100.304 176.859 104.049 178.499 102.742C178.839 102.471 179.762 103.789 180.535 104.14C180.968 104.337 181.647 104.053 182.215 103.985C182.136 103.508 182.212 102.798 181.947 102.595C181.172 102.005 180.294 101.549 179.397 101.158C173.242 98.481 166.777 96.5323 159.613 95.1311ZM210.487 222.392C210.558 222.255 210.629 222.119 210.7 221.982C209.499 221.415 208.273 220.896 207.102 220.275C199.674 216.33 192.274 212.334 184.818 208.442C183.983 208.006 182.852 208.119 181.858 207.977C181.79 208.197 181.722 208.419 181.654 208.64C190.767 214.197 200.465 218.612 210.487 222.392ZM234.364 53.9822C212.664 42.9838 190.266 33.565 165.997 28.3906C190.051 34.0516 212.325 43.7507 234.364 53.9822ZM237.416 68.6355C237.501 68.489 237.586 68.3434 237.67 68.1981C236.738 67.0606 235.812 65.9174 234.867 64.796C234.788 64.7044 234.547 64.8152 234.434 64.7457C232.901 63.7913 231.377 62.8242 229.854 61.8537C229.352 61.5331 228.858 61.1992 228.367 60.8604C227.471 60.2409 226.634 59.5131 225.674 59.012C224.43 58.3632 223.096 57.878 221.788 57.3484C220.652 56.8876 219.514 56.4281 218.346 56.0375C217.773 55.8452 217.139 55.7799 216.515 55.7187C216.317 55.6985 215.935 55.8221 215.86 55.9739C215.754 56.1895 215.766 56.5959 215.886 56.7372C216.104 56.9913 216.432 57.1233 216.727 57.2827C218.511 58.2427 220.316 59.1652 222.08 60.1618C223.216 60.8032 224.265 61.5951 225.401 62.2377C227.048 63.1707 228.736 64.0314 230.409 64.9194C232.743 66.1596 235.08 67.3967 237.416 68.6355ZM175.595 230.464C175.546 230.537 175.498 230.61 175.45 230.683C176.258 231.452 176.983 232.348 177.887 232.966C182.293 235.983 187.173 238.141 191.997 240.402C193.833 241.262 195.486 242.479 197.282 243.423C198.369 243.994 199.601 244.953 200.711 244.635C201.734 244.344 202.343 244.557 203.009 244.871C203.634 245.166 204.055 245.88 204.695 246.122C205.456 246.41 206.354 246.394 207.195 246.505C207.411 246.534 207.63 246.549 207.848 246.569C207.798 246.27 207.846 245.804 207.677 245.702C206.982 245.281 206.23 244.953 205.483 244.622C200.487 242.403 195.436 240.29 190.501 237.952C185.474 235.57 180.559 232.97 175.595 230.464ZM193.862 202.701C197.962 207.191 223.247 219.767 231.513 219.49C231.038 219.295 230.736 219.165 230.43 219.045C224.339 216.665 218.154 214.481 212.185 211.847C206.659 209.41 201.091 206.99 196.23 203.302C195.714 202.912 194.899 202.949 193.862 202.701ZM163.437 207.975C176.258 216.987 191.663 225.627 207.308 231.988C192.592 223.933 177.1 215.453 163.437 207.975ZM206.844 240.989C199.896 237.57 192.957 234.376 186.234 230.785C179.459 227.166 172.897 223.153 166.241 219.313C166.165 219.446 166.09 219.578 166.014 219.711C168.462 223.614 200.697 240.441 206.844 240.989ZM257.008 105.493C257.291 106.332 257.574 107.172 257.963 108.328C258.245 106.991 258.432 106.104 258.596 105.328C258.058 105.387 257.506 105.446 256.955 105.506C258.27 104.349 258.479 103.419 257 102C256.995 103.235 256.989 104.366 257.008 105.493ZM64.0964 161.265C63.7834 161.026 63.4706 160.788 63.1591 160.548C62.8613 160.318 62.5847 160.051 62.2607 159.864C62.001 159.714 61.4985 159.493 61.424 159.59C60.7037 160.526 60.2061 161.064 59.459 159.902C59.1321 159.395 58.1378 159.407 57.4069 159.356C56.4251 159.286 56.5928 158.856 57.1088 158.087C57.269 157.848 57.1888 157.434 57.2182 157.1C57.0217 157.218 56.8117 157.43 56.6313 157.436C55.843 157.463 54.8938 157.716 54.3103 157.366C52.1092 156.049 50.1285 154.348 47.8777 153.129C44.5002 151.3 40.8701 149.924 37.5167 148.055C30.8073 144.316 23.1292 142.309 17.2543 137.089C14.8705 134.971 12.337 132.957 10.4008 130.372C8.53123 127.875 7.25827 124.765 5.87834 121.813C3.65307 117.054 1.6661 112.135 0.932959 106.51C-0.0425321 99.0234 -0.491613 91.4402 1.51118 83.3914C2.3202 80.1421 2.85849 76.8584 3.7969 73.634C4.4484 71.3944 5.25575 68.992 6.55787 67.0834C8.78222 63.822 10.0696 60.2636 11.5422 56.7531C16.3745 45.2353 23.5193 35.5856 32.449 27.3164C37.802 22.3586 43.3887 17.8489 49.2654 13.8602C57.1378 8.51712 65.3296 4.55157 73.8648 2.21329C78.3387 0.987381 82.8065 -0.0850375 87.2445 0.164879C92.0423 0.434764 96.9811 0.0921012 101.731 0.538914C109.54 1.2723 117.24 2.50991 123.925 6.30589C128.776 9.06114 133.388 12.2325 138.152 15.1416C140.896 16.8176 143.751 18.3068 146.522 19.9376C152.358 23.3715 159.153 24.4853 165.746 25.9703C179.791 29.1346 193.44 33.2137 206.473 38.8514C214.349 42.2586 222.413 45.3073 230.082 49.1079C240.43 54.2368 249.237 61.5148 254.889 72.5679C257.877 78.4106 259.483 85.0529 260.53 91.9916C261.477 98.2663 262.831 104.392 263.545 110.743C264.082 115.532 265.595 119.742 266.915 124.077C267.84 127.115 269.089 129.978 270.29 132.854C273.361 140.207 278.425 145.741 282.894 151.828C286.282 156.44 289.401 161.316 292.602 166.108C292.788 166.387 292.631 166.977 292.651 167.418C292.656 167.533 292.695 167.685 292.771 167.727C293.929 168.387 294.346 169.55 294.561 171.032C294.703 172.011 295.595 172.681 295.844 173.646C296.984 178.057 298.348 182.398 298.985 187.008C299.538 191.014 299.483 195.31 299.222 199.544C298.955 203.85 298.33 208.247 297.449 212.586C296.555 216.988 295.276 221.39 293.952 225.755C291.326 234.411 287.352 242.579 282.197 250.103C276.936 257.781 270.651 264.434 263.708 270.216C260.963 272.503 258.106 274.613 255.23 276.647C253.713 277.72 252.029 278.414 250.448 279.356C249.357 280.007 248.333 280.859 247.241 281.503C241.016 285.173 234.568 287.253 228.037 288.738C226.868 289.004 225.701 289.395 224.532 289.706C224.175 289.801 223.808 289.857 223.455 289.864C220.319 289.932 217.188 289.962 214.046 290.066C213.57 290.082 212.992 290.626 212.555 290.572C211.153 290.398 209.811 289.957 208.279 290.756C208.218 289.484 207.158 290.533 207.134 290.503C205.952 289.064 204.267 290.81 202.936 290.536C202.411 290.428 201.755 290.564 201.348 290.29C200.9 289.99 199.497 290.983 200.028 289.297C199.46 289.372 198.891 289.457 198.324 289.521C197.655 289.596 196.987 289.654 196.352 289.369C196.668 289.299 196.983 289.228 197.298 289.158C187.472 286.877 177.781 284.357 169.694 278.278C169.586 278.487 169.477 278.695 169.37 278.903C174.082 281.402 178.794 283.903 183.506 286.402C183.503 286.426 183.5 286.449 183.497 286.472C181.473 285.633 179.402 284.887 177.435 283.94C168.672 279.72 161.609 273.175 155.729 265.169C151.54 259.466 147.755 253.368 143.763 247.471C141.708 244.435 139.554 241.489 137.53 238.426C136.64 237.08 136.06 235.452 135.168 234.109C133.961 232.293 132.57 230.645 131.293 228.893C130.222 227.424 128.91 226.085 128.292 224.332C128.026 223.577 127.636 223.416 127.257 222.994C127.031 222.742 127.155 222.116 127.068 221.682C127.026 221.474 126.816 221.14 126.754 221.171C125.65 221.703 125.47 220.763 124.996 220.17C122.886 217.525 120.754 214.9 118.555 212.351C115.808 209.166 113.088 205.945 110.174 202.957C106.899 199.599 103.481 196.406 100.014 193.286C96.6273 190.239 93.1212 187.345 89.6255 184.441C86.7598 182.062 83.8038 179.805 80.9462 177.415C79.7913 176.45 78.8295 175.225 77.6999 174.223C77.2309 173.805 76.3651 173.842 76.0068 173.354C75.0868 172.101 73.4178 171.801 72.8203 170.083C72.6108 169.482 71.417 169.549 70.8512 169.07C70.2561 168.567 69.8756 167.774 69.3947 167.114C69.3228 167.015 69.2202 166.877 69.1185 166.886C67.6686 167.021 67.1555 166.215 67.5277 165.079C66.8333 164.753 66.2222 164.508 65.6557 164.185C65.1315 163.888 64.7092 163.372 64.1454 163.188C62.896 162.783 63.4718 162.061 64.1174 161.268C64.1284 161.717 63.9821 162.488 64.158 162.558C64.7902 162.808 65.5273 162.834 66.2343 162.909C66.3193 162.917 66.5611 162.677 66.5565 162.603C66.5444 162.407 66.4877 162.129 66.3588 162.077C65.6192 161.775 64.8533 161.529 64.0964 161.265Z" fill="#F3FCF9"/>
</svg>
