<svg width="49" height="55" viewBox="0 0 49 55" fill="none" xmlns="http://www.w3.org/2000/svg">
<path fill-rule="evenodd" clip-rule="evenodd" d="M43.5872 24.8874C43.5492 24.4402 43.5194 24.0955 43.491 23.7621C43.2602 23.8596 43.0786 23.937 42.8285 24.0428C42.85 23.7487 42.8628 23.5724 42.8775 23.3697C42.715 23.4831 42.5705 23.5835 42.4349 23.678L42.1766 23.5289C42.2502 23.3272 42.3255 23.1216 42.4147 22.878L41.5434 22.3753C41.5742 21.5918 41.3058 21.1549 40.9403 21.328C40.9584 21.4437 41.0124 21.5667 40.9841 21.6667C40.958 21.7585 40.8439 21.8254 40.6864 21.9882C40.5488 21.6467 40.4735 21.3556 40.3197 21.1157C40.2321 20.9792 40.0162 20.9246 39.7924 20.7954C39.8228 21.0646 39.8384 21.2064 39.8531 21.3376C39.1282 21.6093 39.1272 21.6102 38.7986 21.0697C38.5601 21.0544 38.2952 20.9575 38.1392 21.0482C37.9459 21.1613 37.8391 21.4102 37.6132 21.1576C37.6067 20.9447 37.6013 20.7498 37.5932 20.4541C36.9953 20.7042 36.5176 20.9038 36.0397 21.1038C35.9908 20.9583 35.956 20.8559 35.9065 20.7105C35.6615 20.8422 35.4345 20.9643 35.1968 21.0928C34.9134 21.0676 34.6036 21.0406 34.2923 21.0127C34.3132 21.1556 34.3279 21.2539 34.3447 21.3649C33.8497 21.2466 33.3884 21.1357 32.9124 21.0218C32.9398 21.1474 32.9633 21.2563 32.9768 21.316C32.5326 21.6688 32.1045 22.0083 31.5876 22.4185C32.5446 22.6058 33.1054 21.8774 33.8655 21.8068C34.6244 21.7375 35.3726 21.5541 36.2056 21.4067L35.941 21.8646C35.3787 21.984 34.9362 22.1555 34.4966 22.149C34.0343 22.1428 33.697 22.5094 33.2674 22.4666C32.7837 22.4187 32.4906 22.7832 32.0948 22.9138C31.4382 23.1305 30.9037 23.7477 30.137 23.5095C29.7354 24.0421 29.2835 24.4668 28.6181 24.6435L28.1649 25.4279C27.9991 25.3991 27.8561 25.374 27.7083 25.3486C27.7476 25.7167 27.7521 26.0403 27.3147 26.1659C26.6993 26.3425 26.2769 26.7672 26.0154 27.3247C25.8132 27.7552 25.4309 28.0024 25.1491 28.3465C24.9374 28.6057 24.864 28.9862 24.4586 29.0658C24.4266 29.0718 24.4179 29.1986 24.3991 29.2691C24.4934 29.3794 24.5876 29.4897 24.6808 29.5984C24.5371 29.6802 24.3889 29.729 24.2941 29.8281C24.1883 29.9377 24.1138 30.0875 24.0569 30.2318C24.0001 30.3768 24.0084 30.5503 23.939 30.686C23.878 30.8036 23.6753 30.8758 23.6615 30.9846C23.578 31.6144 23.3561 32.1923 23.1514 32.789C22.8948 33.5351 22.8723 34.3493 23.014 35.0601C23.8422 35.3916 24.6203 35.3114 25.3746 35.5684C26.176 35.8416 27.1049 35.7151 27.967 35.84C29.6004 36.0766 31.2585 35.6654 32.8846 36.06C33.0073 36.0898 33.1677 35.9662 33.3104 35.9138C33.4306 35.8693 33.549 35.7899 33.6707 35.7852C35.2851 35.7197 36.8515 35.4024 38.3981 34.9474C39.2338 34.7017 39.9937 34.3114 40.7533 33.9016C41.1745 33.6743 41.5197 33.2914 41.9536 33.1504C42.7274 32.8994 43.1446 32.2655 43.6033 31.7225C44.1025 31.1319 44.4685 30.4075 44.7909 29.6954C45.1253 28.9574 45.2068 28.1407 45.1202 27.3319C45.0947 27.0931 44.8481 26.8839 44.7913 26.6405C44.7347 26.3976 44.7891 26.1295 44.7958 25.8359C44.6374 25.8618 44.5359 25.8781 44.4163 25.8975C44.3549 25.6913 44.2903 25.4753 44.2249 25.2554L43.5872 24.8874ZM36.699 16.8844C36.5842 17.229 36.8461 17.7134 36.329 17.9773C36.2917 17.8795 36.2557 17.7846 36.2202 17.6915C35.8518 17.963 35.449 17.927 35.0799 17.8398C34.4316 18.038 33.8189 18.2557 33.1912 18.4087C32.533 18.5696 31.8598 18.6693 31.1755 18.7986C31.1563 18.7394 31.1221 18.6355 31.0514 18.4228C30.6656 19.1804 29.9852 19.3816 29.3284 19.5167C29.3149 19.7775 29.3036 19.9975 29.2924 20.218C29.3599 20.2575 29.4276 20.2965 29.535 20.3585C29.6722 20.1996 29.8156 20.0334 29.9998 19.8199C30.4462 20.1767 30.8942 20.0083 31.3704 19.7729C31.356 19.6053 31.3437 19.4643 31.3295 19.3049C31.9312 19.4896 32.4777 19.4858 33.0983 19.219C34.3394 18.6854 35.6931 18.578 37.0303 18.4851C37.254 18.4693 37.4861 18.5978 37.9296 18.7178C37.6856 18.293 37.5579 18.0694 37.4452 17.8732C37.249 17.9589 37.0726 18.0355 36.8063 18.1519C36.8951 17.67 36.9604 17.3178 37.0259 16.9653C37.4888 16.9808 37.9514 16.9962 38.4368 17.0126C38.4744 17.1065 38.5157 17.211 38.5618 17.3273C39.5993 17.2404 40.5053 17.7877 41.5094 18.085C41.5798 18.1937 41.6982 18.3783 41.8168 18.5624L41.5508 19.0228C41.6489 19.1034 41.7536 19.1899 41.9718 19.37C42.0228 19.0556 42.0544 18.8619 42.0865 18.6629C42.1742 18.6389 42.2881 18.6084 42.3983 18.5783C42.9127 18.852 42.6996 19.3875 42.8643 19.8899C43.0243 19.6966 43.1513 19.5434 43.3279 19.3301C43.9867 19.5498 44.1703 20.2716 44.6519 20.6617C44.5557 20.8773 44.4796 21.0488 44.3079 21.4358C44.6379 21.2239 44.8228 21.105 44.8993 21.0555L45.7939 21.5716C45.6431 21.66 45.5398 21.7212 45.3168 21.8516C45.5648 21.924 45.7223 21.9693 46.0251 22.0573C45.9478 21.9831 45.9987 22.015 46.0268 22.0613C46.5006 22.8423 47.0152 23.6017 47.4329 24.4114C47.9986 25.509 48.409 26.6853 48.5938 27.9034C48.7501 28.9341 48.7042 29.9945 48.9182 31.0264C48.9611 31.2345 48.9013 31.4641 48.888 31.697C48.8529 31.7068 48.7768 31.727 48.6032 31.7737C48.8706 32.1209 48.8859 32.514 48.769 32.8951C48.3699 34.1956 48.3623 34.1932 47.8954 34.5247C47.8196 35.0176 47.7543 35.4424 47.6901 35.8619C47.4175 35.8459 47.2427 35.8357 47.0008 35.8219C47.0091 36.0372 47.0159 36.218 47.0189 36.2974C46.3926 37.0309 45.8144 37.708 45.2265 38.3965C45.068 38.3271 44.8973 38.2522 44.6694 38.1528C44.3137 38.8651 43.5985 39.0236 42.7865 39.2221C42.9367 39.4741 43.0365 39.6424 43.172 39.8699C42.9752 39.9748 42.7838 40.0764 42.4946 40.2307C42.5381 40.0138 42.5628 39.8898 42.5973 39.7187C42.3864 39.6918 42.126 39.5761 41.936 39.6484C41.3092 39.887 40.7007 40.1788 40.1028 40.4848C39.9508 40.5624 39.8647 40.7693 39.8354 40.807C39.2867 40.9209 38.7674 40.8958 38.4177 41.128C37.4634 41.7625 36.4011 41.6447 35.3676 41.7489C35.0809 41.7779 34.789 41.7513 34.4852 41.7504C34.505 41.641 34.5309 41.4977 34.5588 41.3449C34.4985 41.3396 34.3959 41.3125 34.386 41.3323C34.2386 41.6271 34.0773 41.8934 33.5607 41.8023L32.9669 41.4597C32.6078 41.5952 32.1708 41.76 31.7369 41.924C31.5333 41.7108 31.3829 41.5539 31.2092 41.372C30.4669 41.8908 29.6137 41.613 28.7532 41.5189C28.7121 41.413 28.6715 41.3079 28.6198 41.1738C28.3046 41.2505 27.9762 41.3301 27.6407 41.4117L26.8348 40.9467C26.447 41.2105 26.0678 41.3961 25.7185 40.9049C25.2421 40.9402 24.7655 40.9759 24.3226 41.0095C24.7405 41.7231 25.1955 42.4993 25.6636 43.2985C25.7732 43.2876 25.8834 43.2765 26.0004 43.2648C26.2012 43.4854 26.4097 43.7144 26.6154 43.9403L26.4862 44.164C26.5279 44.2101 26.587 44.2978 26.6036 44.2898C26.9225 44.1436 27.1343 44.3806 27.3392 44.5258C27.606 44.7143 27.8119 44.9865 28.0647 45.1975C28.2972 45.3917 28.6228 45.506 28.7885 45.7399C29.0158 46.0614 29.3696 45.8928 29.6494 46.0682C29.9609 46.264 30.1184 46.652 30.5726 46.7101C30.9325 46.7564 31.2651 47.046 31.599 47.2452C32.6392 47.8659 33.7959 48.153 34.9558 48.4414C35.667 48.6187 36.358 48.8906 37.0769 49.0228C38.218 49.2332 39.3708 49.4233 40.5267 49.4984C41.0696 49.5335 41.5983 49.8862 42.1645 49.6046C42.3389 49.5178 42.5963 49.8607 42.7535 49.4858C42.7794 49.4237 43.0878 49.5004 43.2583 49.472C43.4904 49.433 43.7125 49.3387 43.9442 49.296C44.3795 49.2144 44.8185 49.153 45.3634 49.0665L44.8987 49.8708C44.3747 49.866 44.3747 49.866 43.5086 50.5103L44.0144 50.8022C44.5776 50.3359 45.3653 50.3895 46.0374 50.0793C46.0708 50.2218 46.0973 50.3358 46.1425 50.5312C45.9273 50.6767 45.6785 50.8448 45.3711 51.0522C45.4896 51.1121 45.6287 51.2445 45.7232 51.2173C45.9913 51.141 46.2407 50.9993 46.6684 50.8066C46.5819 51.1471 46.5335 51.3371 46.4751 51.5685C46.5766 51.7789 46.7026 52.04 46.8903 52.4284C46.4644 52.366 46.1456 52.3194 45.8251 52.2723C45.7774 52.4748 45.7221 52.7105 45.6546 52.9982C45.3218 53.0337 45.0064 53.0667 44.5779 53.1116C44.7202 53.3505 44.8204 53.5201 44.9279 53.7009C44.655 53.7674 44.3897 53.8328 44.1359 53.8948C44.0519 53.7527 43.9619 53.601 43.7706 53.2777C43.6683 53.6351 43.6153 53.821 43.5663 53.9931C43.4424 54.0028 43.2711 54.0162 43.1289 54.0274C43.1377 54.0019 43.1721 53.8974 43.2354 53.7075C42.7621 53.7401 42.3133 53.7717 41.8507 53.804C41.8806 53.943 41.9035 54.0519 41.8948 54.0099C41.6099 54.1386 41.3282 54.2662 40.999 54.4145C40.9245 54.2111 40.8747 54.0762 40.8253 53.9415C40.6021 54.0723 40.379 54.2021 40.1501 54.3356L39.5938 54.0146C38.8528 54.0606 38.1843 54.153 37.521 54.1275C36.9287 54.1055 36.4289 53.5726 35.7186 53.758C35.6676 53.5397 35.6147 53.3143 35.5585 53.0724C35.4089 52.9996 35.2438 52.9194 34.9189 52.7615C35.1288 53.063 35.2283 53.2051 35.3607 53.3947C34.5106 53.3422 33.6018 53.7183 33.0223 52.7656C32.8603 52.8094 32.6699 52.8609 32.4614 52.917C32.4266 52.8192 32.3911 52.7201 32.3306 52.5494C31.7615 52.6079 31.2738 52.4072 31.0119 51.781C30.7469 51.8356 30.491 51.8884 30.201 51.9481C30.0524 51.7866 29.9048 51.6258 29.722 51.4276C29.6586 51.4276 29.4849 51.4788 29.3877 51.4147C29.2799 51.344 29.27 51.1358 29.1668 51.0442C29.0238 50.9161 28.8335 50.8404 28.6637 50.7424C28.5275 50.6638 28.3701 50.6071 28.2617 50.5004C28.161 50.4017 28.1123 50.2494 28.005 50.0561C27.0821 50.372 27.0314 49.2604 26.1433 49.0542C26.6316 48.8308 26.8891 48.7133 27.1459 48.5959C27.0615 48.3182 26.5243 48.3144 25.8903 48.601C25.9343 48.4671 25.9683 48.3624 26.01 48.2341C25.8685 47.7451 25.3781 48.0049 25.0591 47.8509C24.9938 47.6313 24.9283 47.4106 24.8642 47.1942C24.7569 47.216 24.6501 47.2376 24.5052 47.2672C24.5401 47.1335 24.568 47.0274 24.6157 46.8454C24.0562 46.2596 23.4513 45.634 22.8798 44.98C22.5991 44.6577 22.6075 44.4039 22.6488 44.1467C22.3705 43.9791 21.9944 43.8874 21.8849 43.6643C21.2773 42.4259 20.7388 41.1535 20.1659 39.8975C20.0763 39.701 19.9227 39.5352 19.8125 39.3468C19.6813 39.1223 19.5648 38.8888 19.4268 38.6302C19.3592 38.692 19.2588 38.7829 19.0896 38.9368C18.6051 38.5751 17.9196 38.4672 17.6128 37.8031C17.3225 37.791 17.0303 37.7787 16.7145 37.7658C16.3585 36.9942 15.2405 37.0737 14.8856 36.3178C14.6199 36.2517 14.376 36.1911 14.1081 36.1247C14.1465 35.9304 14.1745 35.7878 14.2047 35.6353C13.6869 35.6387 13.4079 35.3359 13.0739 34.9598C12.7584 34.6054 12.2887 34.39 12.1744 33.8616C12.102 33.8754 12.0299 33.8889 11.8794 33.9179C11.8409 33.83 11.7949 33.7223 11.7205 33.5506C11.5993 33.5428 11.4543 33.5338 11.3325 33.5261C10.949 33.1606 10.5357 32.8148 10.1804 32.4169C9.45417 31.6041 8.51425 30.9876 8.00994 29.9625C7.8401 29.6175 7.4979 29.3489 7.20762 29.0742C5.50515 27.4626 4.39363 25.4498 3.34364 23.3918C2.7501 22.2276 2.29908 21.0153 2.02462 19.734C1.93511 19.3155 1.87005 18.8591 1.65104 18.5103C1.41228 18.13 1.57186 17.732 1.41596 17.3499C0.994546 16.316 1.05048 15.1813 0.898955 14.0922C0.751728 13.0336 0.728818 11.9516 0.727946 10.8797C0.727469 9.74851 0.687354 8.5909 0.906543 7.49221C1.11292 6.45627 1.11752 5.36806 1.56483 4.37793C1.61939 4.25758 1.50484 4.05519 1.566 3.94416C1.91413 3.31221 1.90969 2.57556 2.18574 1.93108C2.38668 1.46325 2.68842 1.03854 2.98913 0.518038C3.22627 0.471965 3.52617 0.413992 3.89161 0.342728C4.1518 0.615116 4.45366 0.931088 4.72855 1.21948C4.68054 1.37166 4.64786 1.47658 4.61256 1.5895L5.01365 1.82092C5.06098 2.17594 5.15268 2.50595 5.1347 2.8298C5.11619 3.15284 5.05453 3.50912 4.89582 3.78384C4.31465 4.78894 4.41479 5.93157 4.20816 7.00595C4.05794 7.78666 4.01658 8.59309 3.87149 9.38478C3.79311 9.81059 3.8777 10.2678 3.90507 10.71C3.96734 11.7075 3.9214 12.7092 4.05161 13.7049C4.12367 14.2545 4.06713 14.8247 4.16639 15.3671C4.38258 16.5446 4.61238 17.7244 4.92514 18.879C5.58395 21.3136 6.83927 23.4635 8.24731 25.5226C8.55179 25.9678 9.00351 26.3171 9.40959 26.6867C9.95156 27.1803 10.2645 27.876 10.8718 28.3101C11.7491 28.9375 12.3586 29.8719 13.3132 30.4207C13.6591 30.6198 13.926 30.9532 14.2407 31.2114C14.5553 31.4701 15.0168 31.5174 15.1876 32.0068C15.2452 32.1738 15.6357 32.2518 15.8879 32.3161C16.6167 32.5026 17.067 32.781 17.5392 33.3911C17.6862 33.3793 17.8333 33.3674 18.0411 33.3505C18.0926 33.4859 18.1505 33.6196 18.1937 33.7582C18.2281 33.8688 18.2447 33.9851 18.2603 34.0557C18.5339 33.9715 18.7905 33.8926 19.1363 33.7855C19.1743 33.3128 19.2008 32.7333 19.2727 32.16C19.3452 31.582 19.4916 31.0125 19.5522 30.4336C19.6089 29.8906 19.7018 29.3715 19.96 28.6836C19.9707 28.7248 19.9207 28.5341 19.8602 28.3073C20.0814 27.9244 20.3334 27.5261 20.5451 27.108C20.6952 26.8118 21.0069 26.5763 20.8661 26.1508C20.8241 26.0248 20.9896 25.741 21.1338 25.6563C21.7852 25.274 21.9522 24.5576 22.3495 24.0036C22.7023 23.5122 23.0782 23.0385 23.7858 22.9347C24.0048 22.4813 24.3068 22.0682 24.7747 21.7765C25.0794 21.5865 25.2866 21.1709 25.6012 21.0798C26.0087 20.9617 26.0899 20.5991 26.3475 20.4201C26.8932 20.0404 27.3571 19.4091 28.2272 19.6871C28.196 19.4346 28.1778 19.2898 28.1566 19.1202C28.3672 19.0985 28.5862 19.076 29.0159 19.0318C29.1287 18.941 29.409 18.7149 29.8443 18.3638C30.4372 18.1501 31.2145 17.7027 32.0242 17.6267C32.8206 17.552 33.5134 17.2096 34.2682 17.0904C35.0701 16.9638 35.8887 16.9485 36.699 16.8844Z" fill="#F9ED35"/>
</svg>
