<svg width="159" height="19" viewBox="0 0 159 19" fill="none" xmlns="http://www.w3.org/2000/svg">
<path fill-rule="evenodd" clip-rule="evenodd" d="M150.719 14.5299C158.093 12.9751 156.9 14.0767 156.692 13.3654C157.217 13.1164 157.747 12.8654 158.533 12.4923C157.909 11.9656 157.515 11.6329 157.117 11.2975C157.203 11.1703 157.324 10.9919 157.446 10.8126C157.354 10.7312 157.247 10.5551 157.155 10.5649C154.867 10.8091 152.638 9.86368 150.332 10.0941C148.018 10.3246 145.658 10.4693 143.359 10.1545C141.487 9.89941 139.634 9.83856 137.767 9.78075C137.191 9.76362 136.729 10.3754 136.023 9.90159C135.494 9.54642 134.684 9.8484 133.999 9.85822L131.741 9.89058C131.056 9.9004 130.372 9.91301 129.687 9.91907C129.005 9.92696 128.323 9.93016 127.641 9.9202C127.591 9.91997 127.542 9.80884 127.366 9.59522C128.007 9.48266 128.548 9.38845 129.09 9.29516C129.085 9.18622 129.081 9.07821 129.077 8.97019C128.362 8.95787 127.648 8.9371 126.934 8.93793C126.181 8.93744 125.428 8.95292 124.675 8.97123C124.547 8.97401 124.356 8.96828 124.302 9.0621C123.562 10.3423 122.706 10.1977 121.687 9.56193C121.305 9.32401 120.744 9.53597 120.265 9.54284C113.831 9.63504 107.396 9.74039 100.962 9.80063C100.261 9.80691 99.4585 10.2488 98.8608 9.34206C98.8331 9.30205 98.6937 9.3031 98.6657 9.34486C98.1001 10.2006 97.4236 8.9454 96.9705 9.40016C96.3852 9.9865 95.9845 9.89169 95.4188 9.42615C95.2465 9.28296 94.8042 9.54961 94.5288 9.73023C94.1437 9.98385 94.1734 10.3264 94.5378 10.6219C94.4685 10.7282 94.4136 10.8925 94.3267 10.9257C94.2083 10.9697 93.9936 10.9728 93.9479 10.887C93.8093 10.6277 93.7865 10.2483 93.6186 10.0449C93.3955 9.77372 93.0768 9.46159 92.8011 9.46084C92.3264 9.46012 91.7489 9.96084 91.4024 9.75529C90.8454 9.42402 90.4995 9.47127 89.9565 9.75722C89.5864 9.95141 89.0277 9.50363 88.553 9.50104C86.6413 9.48896 84.7298 9.53984 82.8632 9.56659C82.6803 9.95075 82.526 10.2753 82.3716 10.598C82.1116 10.3301 81.8524 10.0613 81.3667 9.55984C80.5639 9.31948 79.1915 10.2893 78.332 8.57052C78.0913 8.91134 77.8683 9.22748 77.6696 9.5085C76.0374 8.9652 74.4649 8.90598 72.9054 9.59838C71.2694 8.68769 69.5997 9.52545 67.9552 9.22855C67.9974 9.69971 68.0909 10.2331 68.04 10.2545C67.4051 10.5314 67.4971 9.80274 67.3108 9.31767L65.1353 9.34884C65.02 8.97741 64.9284 8.68269 64.832 8.37019C64.7372 8.43075 64.605 8.46084 64.5566 8.55739C64.1771 9.30525 63.5148 9.61922 62.9835 9.29509C61.7392 8.53386 60.4766 8.96451 59.2271 8.89501C58.1511 8.83525 57.071 8.91087 55.9666 8.55548C56.6238 8.46337 57.281 8.37031 57.9382 8.27914C56.4308 8.13628 54.8156 7.1003 53.7138 8.81707C52.9223 8.6865 52.2882 8.49636 51.6537 8.49135C49.6833 8.4773 47.7123 8.53279 45.7832 8.56043C45.6556 8.12621 45.5678 7.8305 45.4386 7.38784C45.1153 8.01648 44.8522 8.52867 44.5891 9.04085C44.4396 8.34005 44.1053 7.61558 43.5249 8.12761C42.9111 8.66925 42.5503 8.30885 41.9795 8.17512C40.9363 7.93164 39.8278 8.13265 38.7105 7.81693C39.219 7.71002 39.7276 7.60312 40.2624 7.48926C40.1749 7.32418 40.1162 7.11827 40.0589 7.11815C38.5529 7.12188 37.0413 7.0599 35.5417 7.19698C34.4356 7.29834 33.3755 7.9319 32.2273 7.72657C32.0407 7.69259 31.8575 7.62849 31.6665 7.34178C32.2146 7.26156 32.7628 7.18229 33.3116 7.103C31.591 6.90681 29.9005 6.3465 28.1809 7.17182C27.4199 7.53701 26.4575 7.25572 25.5293 6.99649C25.9051 6.87551 26.2816 6.75452 26.67 6.62961C26.6011 6.49621 26.5446 6.28839 26.4873 6.28827C25.8046 6.2802 25.1223 6.30407 24.4399 6.31949C24.0886 7.40525 23.5172 5.80832 22.9699 6.52662C22.6134 6.99316 21.8423 5.91877 21.1207 6.77115C20.7273 7.23351 19.7102 6.87218 18.9409 6.55146C19.4675 6.44148 19.994 6.32962 20.5537 6.21259C20.4315 6.05082 20.3565 5.863 20.2804 5.86221C19.2542 5.85812 18.2261 5.93488 17.2006 5.88191C15.2003 5.77994 13.1726 5.81934 11.2142 5.38315C10.1582 5.1483 9.12548 5.11141 8.08218 4.96848C7.18685 4.84692 6.31042 4.46666 5.94053 2.99746C5.58422 3.00257 4.79 2.83821 4.72289 3.04498C4.43071 3.94947 3.50476 4.05671 3.30795 4.8339C3.12258 5.56864 2.8034 5.79875 2.32241 6.14584C1.35222 6.84671 1.16012 8.16326 1.67413 9.4368C1.40957 9.7977 1.14128 10.1615 0.879683 10.5186C0.894388 10.7035 0.855394 10.9268 0.927617 11.0244C1.71078 12.0996 2.61818 12.6429 3.84725 12.8151C5.86072 13.0974 7.83554 13.8368 9.89255 13.6871C11.0851 14.5684 12.3842 14.0057 13.6311 14.1551C14.6062 14.2708 15.5735 14.5257 16.5495 14.5982C17.5036 14.67 18.5602 14.2658 19.4013 14.6532C20.6117 15.2091 21.7888 15.1199 22.9533 14.9923C24.4503 14.828 25.8427 15.5627 27.3117 15.4975C28.8162 15.4327 30.3809 15.1048 31.8173 15.4959C34.5895 16.2512 37.3563 15.4203 40.0811 15.8699C43.4593 16.4276 46.8527 15.7898 50.183 16.274C54.6686 16.9277 59.1187 16.3188 63.5818 16.503C64.1283 16.5252 64.6762 16.4836 65.224 16.4851C65.6851 16.486 66.1891 16.319 66.5063 16.9545C66.7388 16.142 67.2811 17.0242 67.7026 16.6281C67.9606 16.3857 68.6185 16.8706 69.1045 16.9248C69.6478 16.9837 70.1985 16.9241 70.7461 16.9163L72.1834 16.8957L73.8263 16.8721L75.4693 16.8486L76.9065 16.828C77.4542 16.8202 78.0063 16.8621 78.5485 16.7923C79.1893 16.7088 79.8281 16.9694 80.4852 16.3924C80.8014 16.1144 81.5545 16.721 82.1107 16.7328C83.8215 16.7656 85.5334 16.6677 87.2442 16.6996C87.881 16.7102 88.591 16.3082 89.1464 17.1545C89.5099 17.7103 89.7538 16.1665 90.3044 16.9978C90.4777 17.2604 91.3318 17.2923 91.4202 17.1003C91.9223 16.017 92.531 17.6416 92.9155 16.9736C93.461 16.0279 93.8241 17.126 94.274 17.0838C94.5284 17.0604 94.7785 16.9582 95.0308 16.8935C95.4721 16.7781 96.1703 16.3913 96.3111 16.597C96.8852 17.4364 97.5302 16.5964 98.151 16.9127C98.7939 17.2418 99.6232 17.0128 100.37 17.0021C113.786 16.8127 127.202 16.5951 140.619 16.4573C142.408 16.4392 144.247 15.8528 146 16.8633C146.9 15.8711 147.818 16.9453 148.743 16.8813C151.608 16.6833 154.486 16.7417 157.556 16.6977C157.447 16.2998 157.376 15.7267 157.272 15.7159C155.821 15.5713 154.409 15.0954 152.918 15.1853C149.912 15.3656 146.896 15.3149 143.884 15.3458C143.776 15.3464 143.665 15.1892 143.555 15.1052C143.691 15.0178 143.818 14.8956 143.962 14.8485C144.323 14.7315 144.647 14.1592 145.083 14.8005C145.195 14.9671 145.606 14.8183 145.879 14.8144C149.844 14.7576 153.808 14.7008 150.719 14.5299C143.564 14.5065 143.573 14.5975 143.582 14.6876C142.949 14.91 142.326 15.199 141.68 15.3295C141.337 15.3983 139.162 15.3354 138.851 15.3944C138.586 15.4452 138.177 15.5751 138.063 15.4142C137.493 14.6179 136.787 14.9607 136.149 14.968C126.424 15.0876 116.7 15.225 106.977 15.3935C106.406 15.4026 105.75 15.0342 105.242 15.7501C105.145 15.8868 104.788 15.9577 104.715 15.8638C104.08 15.0318 103.298 15.5298 102.59 15.4469C101.141 15.2779 99.6676 15.798 98.2191 15.0331C97.8098 14.8172 97.1952 15.1455 96.6895 15.2946C95.7157 15.5821 94.7483 15.7923 93.7873 15.246C93.4516 15.0554 93.0508 15.7941 92.7667 15.1046C92.2527 15.9371 91.3687 15.8163 90.9079 15.5241C90.1392 15.0352 89.6021 15.9901 88.955 15.6329C88.8396 15.5697 88.6674 15.5929 88.5951 15.4924C88.2508 15.0152 88.0098 15.1286 87.5726 15.4337C87.1489 15.7293 86.4796 15.8206 86.024 15.6204C85.4333 15.3601 84.72 15.1636 84.2704 15.2846C83.5716 15.4723 82.9746 15.2402 82.3339 15.2194C77.3205 15.0619 72.3166 15.674 67.2887 14.9773C63.5359 14.4578 59.7505 15.2901 55.9433 14.6549C52.4805 14.0786 48.9513 14.9177 45.4243 14.2784C42.6437 13.7741 39.7907 14.5866 36.9573 13.8716C35.6431 13.5399 34.2221 13.9587 32.8597 13.8401C31.6096 13.7302 30.396 14.1066 29.0764 13.5597C27.8462 13.0502 26.374 13.4707 25.0087 13.4639C24.7977 13.4622 24.5861 13.3685 24.3752 13.317C24.6489 12.9635 24.9034 12.9504 25.1574 12.9581C27.5702 13.0278 29.9666 12.8525 32.3989 13.2847C35.3199 13.803 38.2919 13.0471 41.2777 13.6687C44.0481 14.2455 46.9342 13.1225 49.7299 14.1519C50.1231 14.2966 50.4398 13.1578 50.8397 14.0937C51.2728 13.2436 51.7022 14.134 52.1325 14.1391C55.5032 14.1782 58.8834 13.6213 62.2452 14.4556C62.6959 14.5676 63.3692 14.6547 63.6217 14.3475C64.1941 13.6514 64.4943 14.7213 64.9963 14.4763C65.4131 14.273 65.9419 14.4224 66.421 14.4155C69.1607 14.3762 71.9 14.3088 74.6388 14.3165C75.3433 14.3187 76.1225 13.9072 76.7664 14.7259C76.8385 14.8169 77.2041 14.5119 77.4427 14.4427C77.7593 14.3508 78.2737 14.1235 78.3724 14.28C78.7632 14.8974 78.9814 14.3502 79.3067 14.2816C79.6304 14.214 80.0149 14.7009 80.3689 14.6959C80.9407 14.6877 81.6139 15.0342 82.0592 14.2441C82.4646 14.8247 83.0089 14.6909 83.5218 14.6779C84.0423 14.6648 84.6247 14.8736 84.9851 14.158C85.3646 14.8799 85.9496 14.6394 86.4679 14.6339C89.8925 14.5979 93.3162 14.4436 96.7395 14.5214C100.108 14.5991 103.496 13.841 106.85 14.8615C107.254 14.3633 107.792 14.6206 108.252 14.5679C108.846 14.4983 109.465 14.7996 110.071 14.7937C110.773 14.7865 111.545 15.0752 112.14 14.3177C112.823 15.2242 113.69 14.7343 114.456 14.7271C123.495 14.6361 132.534 14.4916 141.574 14.3677C142.234 14.3582 142.895 14.3986 150.719 14.5299Z" fill="#25C1A7"/>
</svg>
