<svg width="112" height="102" viewBox="0 0 112 102" fill="none" xmlns="http://www.w3.org/2000/svg">
<path fill-rule="evenodd" clip-rule="evenodd" d="M19.8729 56.6229C19.0765 56.739 18.3214 56.9401 17.5746 57.2851C17.0359 57.5347 16.41 57.6554 15.7594 57.683C15.0454 57.7127 14.3405 58.0265 13.5988 58.0603C13.1407 58.0808 12.6095 58.4691 12.3229 57.7651C12.0135 57.7625 11.7041 57.7599 11.3152 57.7567C11.2615 57.433 11.2061 57.1198 11.1605 56.8061C11.1508 56.7392 11.1897 56.6096 11.1813 56.6076C10.4982 56.4356 10.5775 55.5502 9.94172 55.3061C9.59599 55.1734 9.31328 54.5472 9.49899 54.3067C9.87425 53.8208 9.65345 53.3906 9.53281 52.9086C9.79573 52.1857 10.3215 51.6809 10.9647 51.2511C11.5996 50.8266 12.1624 50.2883 12.8137 49.8943C14.1351 49.0942 15.4912 48.3524 16.8391 47.5967C18.2302 46.8168 19.65 46.0989 21.1014 45.4331C22.4263 44.8249 23.7362 44.1822 25.061 43.5711C25.8681 43.1986 26.6694 42.8123 27.4703 42.4258C27.5047 42.4093 27.5063 42.327 27.5601 42.161C27.2345 42.2121 26.9235 42.3573 26.7001 42.2719C26.4064 42.1602 26.1908 42.02 25.9664 42.3375C25.5949 41.9189 25.1132 42.5959 24.7379 42.2137C24.4496 42.4222 24.0644 42.4524 23.7883 42.3929C23.4639 42.3237 23.2276 42.1854 22.9355 42.4702C22.8531 42.5508 22.5195 42.527 22.4427 42.4339C22.107 42.0263 21.7954 42.5858 21.5046 42.426C21.1529 42.2325 20.882 42.2742 20.6552 42.6033C20.1595 42.4329 19.6823 42.6729 19.1917 42.6762C18.769 42.6784 18.2855 42.6767 17.946 42.8762C17.7284 43.0046 17.6031 43.0236 17.397 42.9821C16.7242 42.8476 16.0759 43.1132 15.4019 43.1091C14.7225 43.1047 14.0425 43.3 13.3609 43.3986C12.5043 43.5229 11.6467 43.6423 10.7884 43.7571C10.2732 43.826 9.95962 43.4637 9.74694 43.1147C9.58561 42.8498 9.57129 42.5474 9.14652 42.5815C9.09003 42.5857 9.00733 42.2725 8.90189 42.0227C9.14828 42.0019 9.36275 41.9841 9.57814 41.9664C9.57753 41.9087 9.57747 41.8508 9.5765 41.7928C9.39338 41.7612 9.21062 41.7299 9.00107 41.6935C9.02016 41.629 9.01851 41.4927 9.08477 41.4367C9.24366 41.3032 9.42041 41.1594 9.61429 41.1044C10.7008 40.7957 11.7827 40.4576 12.8872 40.232C14.746 39.8522 16.6152 39.5099 18.4914 39.2276C19.7749 39.0341 21.0659 38.8707 22.3531 38.709C23.5114 38.5632 24.6901 38.4651 25.853 38.3488C27.3443 38.1997 28.8337 38.1026 30.327 38.0311C31.2764 37.9857 32.2271 37.9783 33.1775 37.956C33.8061 37.9415 34.2629 38.3449 34.7755 38.6136C35.015 39.0039 34.9968 39.4679 35.4269 39.8387C35.9165 40.2615 36.078 42.3386 35.8045 42.9971C35.6019 43.4847 35.1048 43.7749 34.7145 44.1312C34.0312 44.7554 33.2823 45.2672 32.4039 45.5784C32.3093 45.6122 32.1702 45.684 32.1566 45.7575C32.0446 46.3672 31.3426 46.1948 31.0783 46.5913C30.3876 46.5938 29.8395 46.9948 29.2381 47.2478C29.1351 47.2911 28.9602 47.2734 28.9208 47.3425C28.4074 48.2484 27.3947 48.3381 26.6006 48.7807C26.3529 48.919 26.0709 49.0024 25.8415 49.1637C25.6834 49.2742 25.5895 49.475 25.4673 49.6354C25.5979 49.7338 25.6644 49.8233 25.7119 49.8139C26.723 49.6167 27.7247 49.3489 28.7432 49.2167C30.0696 49.045 31.3585 48.6623 32.7092 48.6133C33.3548 48.5895 33.981 48.325 34.6484 48.255C35.8787 48.1264 37.0858 47.7439 38.3162 47.6522C40.4304 47.4954 42.4847 46.8688 44.6182 46.9087C45.4255 46.4823 46.3545 46.6915 47.1948 46.4181C47.4212 46.3441 47.6866 46.3955 47.9324 46.3733C48.2895 46.3413 48.6459 46.3022 49.0009 46.2532C50.4308 46.0562 51.8595 45.8499 53.2896 45.6559C53.8933 45.5745 54.5033 45.5344 55.1052 45.442C56.8049 45.1812 58.5182 45.0535 60.2262 44.8736C61.1147 44.7802 61.9848 44.5398 62.8897 44.6748C63.8391 44.22 64.8815 44.3564 65.8797 44.2196C67.0865 44.0545 68.2997 43.9347 69.5112 43.8029C71.076 43.6326 72.641 43.4668 74.2067 43.3056C75.2006 43.2036 76.1956 43.1089 77.1909 43.0193C78.3977 42.9106 79.6072 42.8437 80.8136 42.7108C82.6474 42.5093 84.4943 42.4244 86.3362 42.2993C88.6357 42.1428 90.9351 41.9839 93.2362 41.8489C94.504 41.7745 95.7744 41.737 97.0439 41.6994C98.5562 41.6547 100.07 41.5982 101.582 41.6022C102.673 41.6053 103.761 41.6717 104.854 41.5716C105.121 41.5474 105.419 41.8718 105.817 42.1013C105.618 42.2037 105.501 42.2996 105.37 42.325C104.976 42.4018 104.576 42.451 104.106 42.5221C104.616 43.2493 105.617 42.564 105.994 43.2473C105.71 43.3235 105.403 43.4055 105.096 43.4874C105.099 43.5663 105.102 43.645 105.105 43.7239C105.346 43.7835 105.588 43.8428 105.908 43.9219C105.747 44.3089 105.59 44.6871 105.372 45.2068C105.016 45.2602 104.452 45.5038 103.997 45.372C103.444 45.2119 102.949 45.7213 102.422 45.3512C102.285 45.2548 102.092 45.8138 101.803 45.4851C101.494 45.1322 101.357 45.8833 101.069 45.5866C100.801 45.3095 100.534 45.7252 100.456 45.6765C99.9653 45.3709 99.5442 45.7845 99.0855 45.7482C98.5964 45.7098 98.0928 45.7404 97.6063 45.8126C97.1723 45.8767 96.7677 45.9081 96.3463 45.7442C96.1976 45.6861 95.9008 45.7007 95.8352 45.7953C95.6161 46.1117 95.4396 45.9429 95.1898 45.8685C95.0102 45.815 94.7563 46.0271 94.5668 45.9842C94.3462 45.9338 94.163 45.7582 94.0414 46.0931C93.3519 45.7448 92.6499 46.5797 91.9542 46.0732C91.8864 46.0241 91.7262 46.0349 91.6458 46.0813C90.706 46.6239 89.6547 46.4268 88.6522 46.5453C87.1914 46.7178 85.731 46.8939 84.2697 47.0565C83.0973 47.1869 81.9249 47.3245 80.7484 47.4105C80.1233 47.4562 79.482 47.8148 78.8577 47.3793C78.8148 47.3492 78.6966 47.3709 78.6494 47.4111C77.7055 48.2168 76.5651 47.4972 75.5576 47.8108C75.3889 47.8636 75.1805 47.8145 75.0276 47.8889C73.6654 48.5525 72.1495 48.3441 70.7235 48.6586C69.6767 48.8893 68.5877 48.9258 67.5204 49.0687C66.1958 49.2456 64.8747 49.4471 63.5511 49.628C63.4177 49.6462 63.2744 49.6027 63.1379 49.5774C62.0213 49.3699 60.9447 49.7369 59.8468 49.8095C59.6049 49.8258 59.3268 49.9273 59.1442 50.082C58.7281 50.4349 58.1861 50.4194 57.8086 50.2962C57.4066 50.164 57.1019 50.2287 56.7466 50.2957C56.0473 50.4276 55.3116 50.4194 54.6931 50.8487C53.5398 50.8887 52.4063 51.1397 51.278 51.3204C50.3486 51.4697 49.3704 51.4359 48.4685 51.8382C47.8763 52.1018 47.1957 52.024 46.5736 51.9179C46.314 51.8737 46.083 51.8016 45.84 51.9019C45.5778 52.0097 45.3309 52.2345 45.0697 52.2453C44.7832 52.2569 44.5722 52.3565 44.3185 52.4472C43.6054 52.7023 42.8574 52.9151 42.1105 52.5073C42.0508 52.4748 41.9727 52.4502 41.908 52.4588C41.4418 52.5215 40.9649 52.549 40.5156 52.676C39.9931 52.823 39.4055 52.8152 38.9776 53.2358C38.931 53.2816 38.8366 53.2836 38.7629 53.2969C38.1526 53.4071 37.5432 53.5249 36.9308 53.6205C36.3176 53.716 35.7525 53.9656 35.1011 53.9922C34.5053 54.016 33.8897 54.1379 33.2787 54.1888C32.9286 54.1995 32.4772 54.0752 32.2479 54.247C31.554 54.7671 30.6426 54.2672 29.9914 54.821C29.2188 54.6035 28.531 55.1056 27.7805 55.0841C27.5712 55.078 27.3141 55.0056 27.1604 55.0987C26.3319 55.6017 25.3067 55.3179 24.4824 55.8014C23.8273 55.5973 23.2728 55.8984 22.6737 56.0935C22.2236 56.2401 21.7003 56.1609 21.2098 56.1819C20.8863 56.7001 20.299 56.4174 19.8729 56.6229Z" fill="#F9ED35"/>
<path fill-rule="evenodd" clip-rule="evenodd" d="M103.917 56.1004C104.27 56.2121 104.624 56.3239 105.141 56.4871C104.85 56.5854 104.751 56.619 104.621 56.663C104.716 56.7704 104.805 56.8717 104.898 56.9765C104.799 57.333 104.7 57.7624 104.248 57.7209C104.016 57.6996 103.811 57.3874 103.504 57.2981C103.591 57.4268 103.679 57.5556 103.776 57.6995C103.092 57.9537 102.508 57.7225 101.968 57.2959C101.819 57.5033 101.714 57.6485 101.566 57.853C101.352 57.2454 100.769 57.5075 100.317 57.2004C100.304 57.4632 100.295 57.6321 100.286 57.8012C100.076 57.8127 99.8253 57.8643 99.587 57.8305C99.2466 57.7823 98.7674 58.1551 98.5895 57.5363C98.5808 57.5074 98.4879 57.4819 98.4395 57.4894C98.3285 57.5061 98.2163 57.5796 98.1128 57.5667C97.733 57.5186 97.341 57.3493 96.9843 57.4088C96.6683 57.4616 96.4077 57.7894 96.0937 57.9348C95.9116 58.0191 95.6705 58.0143 95.4616 57.9926C95.2393 57.97 94.3992 57.9174 94.1876 58.0793C93.957 58.2551 93.8613 58.0712 93.7032 58.0344C93.5008 57.9874 93.2868 57.9232 93.0874 57.9487C92.9361 57.968 92.8007 58.1156 92.6684 58.1998C92.587 57.9572 92.508 57.7204 92.3696 57.3066C92.1887 57.7144 91.7916 57.5612 91.7426 58.0313C91.7135 58.3105 90.907 58.2949 90.6215 57.932C90.4263 57.6835 90.3185 57.9159 90.1804 57.8792C90.0394 58.5865 89.4882 58.3209 89.0666 58.3372C88.858 58.3454 88.2024 58.3925 88.0884 58.4367C87.9887 58.4744 87.8804 58.4888 87.7851 58.5113C87.7428 58.4008 87.7186 58.2878 87.6589 58.1998C87.6245 58.1493 87.5316 58.1387 87.4223 58.0919C87.4078 58.2561 87.3941 58.4066 87.3816 58.5467C87.3114 58.597 87.2567 58.6702 87.1978 58.6729C86.7409 58.6947 86.2772 58.6604 85.8269 58.7237C84.7474 58.8753 83.6749 59.0744 82.5984 59.2483C81.2622 59.4635 79.9214 59.6402 78.6049 59.9754C77.989 60.1325 77.5853 60.2701 77.1373 60.7662C76.8735 60.3532 76.4411 60.1155 76.3088 59.59C76.1921 59.1261 75.7086 59.3181 75.3133 59.254C75.5589 58.4607 76.2289 58.6796 76.6947 58.5124C76.6554 58.3668 76.6164 58.2214 76.5808 58.0875C76.3069 58.1154 76.0349 58.1425 75.6972 58.1766C75.7547 57.9826 75.7519 57.8341 75.8185 57.7908C76.573 57.2991 77.4412 57.1341 78.3058 56.9694C78.5506 56.9232 78.8083 56.9415 79.0508 56.8877C80.9925 56.4563 82.9654 56.2839 84.9399 56.0742C86.7832 55.8786 88.6339 55.8375 90.4731 55.6391C91.0054 55.582 91.5491 55.8208 92.0652 55.5549C93.5683 55.855 95.0689 55.2158 96.576 55.6018C96.5967 55.9744 96.3663 55.8797 96.0858 55.8129C95.9188 55.7734 95.8487 56.0199 95.5571 56.0089C94.3269 55.9634 93.0912 56.0592 91.8578 56.1105C91.7759 56.1139 91.6961 56.1726 91.4115 56.2886C91.7479 56.3522 91.8816 56.3557 91.997 56.4027C92.4106 56.5736 92.8102 56.2601 93.2651 56.4323C93.6275 56.5693 94.1114 56.4584 94.5242 56.3739C95.4061 56.1934 96.2838 56.3672 97.1629 56.3506C97.7566 56.3395 98.3438 56.1873 98.955 56.3307C99.1922 56.3863 99.4958 56.1545 99.7692 56.0537C100.217 56.0516 100.666 56.0654 101.113 56.0421C101.523 56.0214 101.896 56.2003 102.358 56.0142C102.812 55.8314 103.381 56.1955 103.917 56.1004Z" fill="#F9ED35"/>
<path fill-rule="evenodd" clip-rule="evenodd" d="M47.9692 59.0177C48.3946 58.9868 48.9287 59.103 49.2184 58.8886C49.6259 58.5872 50.0223 58.6611 50.4268 58.6148C50.8466 58.5669 51.2735 58.5881 51.6951 58.557C52.1236 58.5256 52.5638 58.5186 52.974 58.4096C53.8573 58.1753 54.7549 58.0876 55.66 58.0367C55.8666 58.0245 56.0768 58.0803 56.285 58.0752C56.4924 58.0696 56.7486 58.0956 56.8966 57.9883C57.6315 57.456 58.4738 57.5851 59.2832 57.5708C59.7495 57.5626 59.9177 57.8022 60.0666 58.4042C59.6613 58.8063 58.9873 58.5927 58.5818 59.0459C58.5189 59.1158 58.1945 58.9529 57.9918 58.8956C57.6817 58.8089 57.5796 59.4148 57.2453 59.1447C56.9508 58.9068 56.8158 59.1588 56.602 59.2449C56.5358 59.2718 56.3681 59.0487 56.213 58.9098C55.9941 59.0537 55.7144 59.2366 55.438 59.418L55.1115 59.2295C54.7276 59.3718 54.3244 59.6733 54.0718 59.5781C53.692 59.4349 53.4521 60.0492 53.1156 59.6521C53.0736 59.603 52.9133 59.6147 52.8289 59.6492C52.6677 59.7154 52.4936 59.921 52.3755 59.8877C51.914 59.7585 51.5059 60.1232 51.0937 60.022C50.3079 59.8289 49.5468 60.1117 48.7728 60.0556C48.6178 60.0441 48.3829 60.151 48.303 60.2779C48.0523 60.6732 47.7923 60.6331 47.3722 60.5422C47.0529 60.4731 46.5958 60.6693 46.313 60.8915C45.935 61.1874 45.653 60.5353 45.3054 60.8947C45.1316 61.0746 44.8277 61.3301 44.7099 60.801C44.5645 60.84 44.3349 60.8351 44.2872 60.9252C44.036 61.4058 43.7918 60.9357 43.542 60.946C43.3275 60.991 43.7212 61.3479 43.2892 61.3697C42.6372 61.4022 41.9956 61.6487 41.3455 61.668C41.1084 61.6751 40.9809 61.6889 40.8116 61.8337C40.7109 61.9195 40.4545 61.9877 40.3973 61.9317C39.9169 61.4616 39.4205 61.7332 38.9205 61.8429C38.9019 61.847 38.8427 61.6669 38.7889 61.5407C38.5164 61.6655 38.444 62.2441 37.9582 61.9564C37.8905 61.9163 37.73 61.9806 37.6391 62.0386C36.7735 62.5877 36.7764 62.5984 35.7961 62.6892C35.6192 62.7056 35.3748 63.2805 35.2448 62.6401C35.2432 62.632 34.9625 62.6245 34.9021 62.6943C34.389 63.2872 33.6362 63.2103 32.9838 63.41C32.5019 63.0285 32.0642 63.4487 31.6052 63.4831C31.3038 63.5057 31.0319 63.4175 30.8086 63.8133C30.6522 64.0908 30.215 64.0072 29.9289 63.6727C30.1851 63.538 30.4365 63.4057 30.7594 63.2358C30.6066 63.1624 30.5504 63.1108 30.5124 63.1219C30.3098 63.1804 30.1162 63.1753 30.0971 62.93C30.0908 62.8464 30.28 62.6678 30.3764 62.6698C31.0059 62.6846 31.4879 62.3402 31.9979 62.0583C32.3695 62.3126 32.3695 62.3126 32.3339 62.699C32.3486 62.7266 32.3757 62.7791 32.3765 62.7786C32.711 62.6159 33.2066 63.0273 33.4815 62.383C33.2118 62.3564 32.9957 62.4689 32.6146 62.531C32.8149 62.3282 32.9037 62.1752 33.0329 62.1221C33.2328 62.04 33.459 62.0094 33.6773 61.9876C34.0986 61.9454 34.4932 61.7863 34.7714 61.5025C35.0022 61.2675 35.17 61.1334 35.5163 61.2013C35.6955 61.2364 35.9087 61.0983 36.1067 61.0386C36.5002 61.3968 36.9495 60.8862 37.3514 61.1187C37.628 60.5882 38.1672 60.8307 38.5221 60.8471C39.0066 60.8695 39.3121 60.4911 39.7954 60.5305C40.3532 60.5766 40.9336 60.4411 41.4944 60.333C42.5391 60.1307 43.5757 59.8884 44.6179 59.6722C44.7511 59.6444 44.8995 59.6923 45.0341 59.6672C45.3955 59.6003 45.7505 59.494 46.1135 59.4386C46.4053 59.3937 46.7249 59.2726 46.9596 59.268C47.3414 59.2603 47.6566 59.2079 47.9692 59.0177Z" fill="#F9ED35"/>
<path fill-rule="evenodd" clip-rule="evenodd" d="M27.5781 63.1587C27.8938 63.4586 28.2058 63.1891 28.5218 63.1587C28.7857 63.1332 29.0629 62.8221 29.3843 63.2511C29.141 63.246 28.9367 63.2419 28.5612 63.2346C28.7846 63.6271 28.8895 63.8125 28.983 63.9769C28.4529 64.2496 27.8056 64.0777 27.6825 65.0034C27.5629 64.6239 27.5314 64.522 27.4815 64.3641C27.0617 65.0357 26.496 65.1879 25.788 64.8112C25.8249 64.9477 25.8443 65.0201 25.8876 65.1829C25.1238 65.3876 24.3475 65.5649 23.5914 65.8066C22.8621 66.0394 22.0619 66.0518 21.4008 66.5277C21.2964 66.6032 21.012 66.429 20.774 66.359C20.7916 66.4768 20.8054 66.5714 20.8201 66.6693C20.5145 66.9013 20.0985 66.829 19.7622 67.1232C19.3786 67.4588 19.1843 67.2768 18.985 66.6553C18.9469 66.5357 18.6698 66.4929 18.4378 66.3843C18.5067 66.3189 18.5993 66.1652 18.7293 66.1198C18.9761 66.0336 19.2429 66.0064 19.3281 65.6998C19.7261 65.5704 20.284 65.7696 20.4483 65.1537C20.4529 65.1358 20.5235 65.1153 20.5514 65.1267C21.2154 65.3933 21.72 64.8299 22.3395 64.7701C23.0396 64.7022 23.7054 64.3137 24.3964 64.0985C25.4523 63.7698 26.5171 63.4706 27.5781 63.1587Z" fill="#F9ED35"/>
<path fill-rule="evenodd" clip-rule="evenodd" d="M47.9692 59.0177C47.6566 59.2079 47.3414 59.2603 46.9596 59.268C46.7249 59.2726 46.4053 59.3937 46.1135 59.4386C45.7505 59.494 45.3955 59.6003 45.0341 59.6672C44.8995 59.6923 44.7511 59.6444 44.6179 59.6722C43.5757 59.8884 42.5391 60.1307 41.4944 60.333C40.9336 60.4411 40.3532 60.5766 39.7954 60.5305C39.3121 60.4911 39.0066 60.8695 38.5221 60.8471C38.1672 60.8307 37.628 60.5882 37.3514 61.1187C36.9495 60.8862 36.5002 61.3968 36.1067 61.0386C36.4404 60.4598 37.1012 60.4353 37.5841 60.4381C38.4028 60.4425 39.1264 60.0855 39.9368 60.0569C40.88 60.0237 41.8084 59.6773 42.7512 59.5123C44.2881 59.2436 45.8297 59.0007 47.3739 58.7797C47.557 58.7534 47.7698 58.9332 47.9692 59.0177Z" fill="#F9ED35"/>
<path fill-rule="evenodd" clip-rule="evenodd" d="M27.5781 63.1587C26.5171 63.4706 25.4523 63.7698 24.3964 64.0986C23.7054 64.3137 23.0396 64.7022 22.3395 64.7701C21.72 64.8299 21.2154 65.3933 20.5514 65.1267C20.5235 65.1154 20.4529 65.1358 20.4483 65.1537C20.284 65.7696 19.7261 65.5704 19.3281 65.6998C18.9821 65.7482 18.6364 65.7969 18.2471 65.8515C18.3009 65.7294 18.3228 65.568 18.3868 65.549C20.1854 65.0134 21.8597 64.0842 23.732 63.8087C24.0637 63.7602 24.1467 63.2901 24.5985 63.4816C24.8007 63.5672 25.1551 63.24 25.4566 63.1577C25.767 63.0724 26.1011 63.0769 26.4164 63.0045C26.7094 62.9369 26.9884 62.8091 27.2787 62.7271C27.5942 62.638 27.9138 62.56 28.2358 62.4976C28.5762 62.4316 28.9214 62.3903 29.4137 62.3154C28.864 62.967 28.0767 62.7573 27.5781 63.1587Z" fill="#F9ED35"/>
<path fill-rule="evenodd" clip-rule="evenodd" d="M19.8729 56.6229C20.299 56.4174 20.8863 56.7 21.2098 56.1819C21.7003 56.1608 22.2236 56.2401 22.6737 56.0934C23.2728 55.8984 23.8273 55.5973 24.4824 55.8014C25.3067 55.3179 26.3319 55.6017 27.1604 55.0986C27.3141 55.0056 27.5712 55.078 27.7805 55.0841C28.531 55.1056 29.2188 54.6035 29.9914 54.821C30.6426 54.2672 31.554 54.7671 32.2479 54.247C32.4772 54.0752 32.9286 54.1995 33.2787 54.1888C33.1511 54.3055 33.0378 54.4974 32.8921 54.5262C32.3259 54.6388 31.8077 54.9183 31.1823 54.8557C30.6159 54.7989 30.0962 55.1656 29.4743 55.1657C28.6515 55.1661 27.8281 55.454 27.0058 55.6216C26.1102 55.8042 25.2221 56.0419 24.3189 56.1632C22.984 56.3429 21.6628 56.5711 20.3424 56.894L19.8729 56.6229Z" fill="#F9ED35"/>
<path fill-rule="evenodd" clip-rule="evenodd" d="M103.917 56.1004C103.381 56.1955 102.812 55.8315 102.358 56.0143C101.896 56.2003 101.523 56.0215 101.113 56.0421C100.666 56.0654 100.217 56.0517 99.7692 56.0537C99.1549 55.8163 98.522 56.0501 97.8988 55.984C97.5571 55.9479 97.2065 55.9942 96.6835 56.0079C96.8776 55.767 96.9545 55.5751 97.0645 55.5535C97.4452 55.4781 97.838 55.4256 98.2258 55.43C99.788 55.4471 101.351 55.4902 102.913 55.5194C103.262 55.5261 103.613 55.4887 103.958 55.5189C104.185 55.5386 104.403 55.6434 104.724 55.7393C104.36 55.9023 104.138 56.0016 103.917 56.1004Z" fill="#F9ED35"/>
</svg>
