<svg width="34" height="23" viewBox="0 0 34 23" fill="none" xmlns="http://www.w3.org/2000/svg">
<path fill-rule="evenodd" clip-rule="evenodd" d="M31.2909 3.5851C31.1337 3.74494 31.0594 3.82074 30.9572 3.92434L30.787 3.92434C30.5664 4.12827 30.3557 4.32765 30.1401 4.52116C29.9583 4.68448 29.7605 4.8313 29.5881 5.00374C29.3961 5.19595 29.1837 5.36383 28.9982 5.56755C28.8309 5.7515 28.7043 5.99736 28.4773 6.11159C28.2131 6.24386 28.1327 6.53467 27.9104 6.70146C27.7051 6.85545 27.5284 7.04809 27.3396 7.22336C27.3437 7.22748 27.3712 7.25506 27.4052 7.2896C26.9108 7.8862 26.3993 8.47325 26.0719 9.23969C26.0519 9.24729 25.9847 9.27335 25.9019 9.30528C25.9361 9.3485 25.9672 9.38802 25.9995 9.42864C25.7918 9.82652 25.605 10.2448 25.3864 10.6347C25.117 11.1146 24.962 11.6524 24.617 12.0961C24.4437 12.3189 24.3324 12.613 24.2702 12.8923C24.2324 13.0634 24.1228 13.0295 24.0342 13.0932C24.0688 13.1499 24.1032 13.2068 24.1496 13.2828C23.985 13.5981 23.8156 13.9228 23.641 14.2573C23.5726 14.1943 23.5314 14.1561 23.466 14.0959C23.3222 14.1984 23.0907 14.1932 23.0309 14.5592C22.9688 14.3798 22.9303 14.2688 22.883 14.1322C22.7278 14.3016 22.6667 14.368 22.5898 14.4519C22.63 14.5185 22.6678 14.5809 22.7093 14.6495C22.6577 14.7414 22.5988 14.8469 22.5418 14.9486C22.4939 14.941 22.4343 14.9468 22.424 14.9273C22.3494 14.7813 22.2845 14.6302 22.217 14.4818C21.9395 14.4304 21.9646 14.7051 21.8472 14.8239C21.8195 14.7959 21.792 14.7679 21.7535 14.7292C21.6845 14.7644 21.611 14.8018 21.5336 14.8411C21.4349 14.6979 21.3418 14.5631 21.2098 14.3715C21.1733 13.8813 21.1761 13.3127 21.0708 12.7654C21.0166 12.4827 21.0611 12.1695 20.9499 11.9328C20.8121 11.6387 20.9439 11.3444 20.8429 11.0877C20.7317 10.8045 20.8048 10.5085 20.7219 10.2487C20.6307 9.96356 20.6898 9.66797 20.6077 9.40822C20.4121 8.7899 20.4402 8.11902 20.1513 7.5272C20.2223 7.26375 19.9948 7.00053 20.1513 6.73708C19.9808 6.4643 19.9378 6.15242 19.8759 5.84489C19.7886 5.41074 19.5625 5.0133 19.5569 4.55395C19.5552 4.42408 19.4546 4.2955 19.3645 4.08549C19.2054 4.64083 19.0687 5.11733 18.9017 5.70025C18.861 5.73326 18.7258 5.84272 18.5893 5.95305C18.6387 6.12571 18.6736 6.24712 18.7106 6.37677C18.5068 6.91018 18.4891 7.55673 18.0504 8.02476C18.2692 8.20502 18.1022 8.4626 18.1626 8.65503C17.8438 9.2866 17.81 9.96226 17.6314 10.6809C17.623 10.6885 17.5512 10.7548 17.4828 10.8177C17.3863 11.0734 17.5166 11.344 17.3528 11.6046C17.2337 11.7935 17.2081 12.0804 17.2328 12.3139C17.2629 12.5989 17.1868 12.8753 17.08 13.0836C16.9473 13.3423 17.0363 13.5781 16.9673 13.8422C16.9183 13.8876 16.8465 13.9541 16.747 14.0462C16.8009 14.6332 16.6874 15.2272 16.641 15.8425C16.566 15.9003 16.4909 15.9578 16.3942 16.0323L16.3942 16.6396C16.3069 16.5642 16.2667 16.5292 16.1829 16.4565C16.2119 16.7603 16.052 16.9341 15.828 17.0959C15.7734 17.0644 15.7104 17.0281 15.6568 16.9975C15.3539 17.2955 15.0429 17.6015 14.7591 17.8808C14.6035 17.8358 14.4854 17.8015 14.333 17.7574C14.3126 17.7146 14.2743 17.6343 14.2361 17.5541L14.0987 17.5541C14.0781 17.616 14.0553 17.6842 14.0207 17.788C13.6746 17.8139 13.4452 17.6067 13.2345 17.3717C13.1883 17.0965 13.1883 17.0965 12.8486 16.9091C12.9196 17.0368 12.9464 17.0852 12.9881 17.1606C12.9353 17.1743 12.8753 17.1901 12.7919 17.2116C12.7721 17.0789 12.756 16.9699 12.7358 16.8348C12.6777 16.8813 12.639 16.9119 12.6104 16.9347C12.3146 16.7184 12.0182 16.5017 11.686 16.2586L11.686 15.995C11.6175 16.0538 11.5773 16.0881 11.5229 16.1348C11.4996 16.0658 11.4779 16.0006 11.4491 15.9146L11.2008 15.9146C11.1247 15.8377 11.0697 15.7819 11.0142 15.7259C11.1204 15.5971 11.1413 15.3882 11.3541 15.3567C11.0929 15.1675 10.9798 15.411 10.7915 15.566C10.7814 15.4487 10.7735 15.3573 10.7653 15.2613C10.5243 15.1141 10.3169 14.918 9.98558 14.9082C9.70912 14.9001 9.57283 14.623 9.4604 14.3452C9.39999 14.3904 9.36344 14.4178 9.29078 14.4725C9.27015 14.3665 9.25209 14.2725 9.22908 14.1526C9.20135 14.1565 9.16029 14.1624 9.03819 14.1793C8.88427 14.0688 8.68993 13.8661 8.45324 13.7738C8.11616 13.6424 8.00351 13.2702 7.65611 13.1414C7.35149 13.0285 7.08041 12.8174 6.82481 12.5826C6.47633 12.2624 6.05262 12.0262 5.63277 11.7343L5.63277 12.0592C5.68866 12.0857 5.76906 12.1239 5.8787 12.1762C5.8241 12.2642 5.77616 12.3411 5.71919 12.4332C5.80626 12.5837 5.88343 12.7533 5.99393 12.8968C6.08637 13.0172 6.0969 13.2287 6.31381 13.228C6.25534 13.4524 6.42001 13.5732 6.54749 13.7048C6.50815 13.7443 6.48063 13.7721 6.45913 13.7938C6.92455 14.2773 7.22401 14.8632 7.48349 15.4757C7.6387 15.6251 7.7937 15.7745 7.94719 15.9226L7.94719 16.119C8.13228 16.3805 8.2933 16.6079 8.47667 16.8665C8.35758 16.9349 8.27309 16.9836 8.1641 17.0463C8.25976 17.216 8.34984 17.3754 8.43325 17.5231C8.58567 17.4853 8.71723 17.4529 8.8475 17.4206C9.08032 17.7735 9.29401 18.0973 9.56724 18.5115C9.34001 18.4591 9.28003 18.3401 9.17749 18.2565C9.03539 18.4902 9.28605 18.5427 9.35571 18.6704C9.31422 18.7284 9.27251 18.7858 9.18351 18.9089C9.29315 18.9376 9.39569 18.9645 9.49823 18.9914C9.46921 19.0216 9.44019 19.0518 9.41138 19.082C9.48641 19.0375 9.56144 18.993 9.6442 18.9441C9.72159 19.1013 9.78544 19.2312 9.84821 19.3594C9.79898 19.4163 9.76158 19.4595 9.72116 19.506C9.75663 19.5448 9.79404 19.5863 9.84262 19.6397C10.0021 19.6095 10.1718 19.5778 10.3263 19.5485C10.6039 20.0248 10.8676 20.4781 11.1316 20.9313C11.1155 20.9474 11.0996 20.9637 11.0837 20.9795C11.0383 20.9465 10.993 20.9137 10.8807 20.8323C10.9351 21.1314 10.9801 21.3781 11.0323 21.6648C10.8074 21.7319 10.5996 21.7938 10.2977 21.8835C10.2911 21.8919 10.2193 21.9842 10.1281 22.1013C9.74589 21.5058 9.26692 21.0373 8.82859 20.5439C8.22193 19.8608 7.75866 19.0814 7.20144 18.3675C6.62123 17.6243 6.13839 16.8029 5.61063 16.0173C5.31031 15.5699 4.99602 15.1317 4.70429 14.6784C4.29498 14.042 3.87514 13.4105 3.51247 12.7476C3.35275 12.4555 3.09736 12.2388 2.98514 11.9024C2.88883 11.6135 2.64462 11.3744 2.46297 11.1153C1.99927 10.4535 1.55534 9.77874 1.01791 9.17041C0.667711 8.77448 0.368896 8.33164 -6.62307e-07 7.84819L-6.93226e-07 7.14083C0.169829 7.1354 0.352773 7.06872 0.538726 7.25724C0.555924 7.10152 0.571832 6.956 0.586881 6.81853C1.06713 6.53532 1.58436 6.48645 2.18737 6.56203C2.22671 6.61763 2.30539 6.72883 2.44985 6.93233C2.46189 6.96274 2.52187 7.11368 2.59367 7.29503C2.77747 7.22813 2.91549 7.17797 3.04555 7.13062C3.25601 7.28786 3.47765 7.43098 3.67177 7.60516C3.8373 7.7535 4.14751 7.74373 4.10688 8.11446C4.19351 8.02737 4.22103 7.99935 4.27262 7.94745C4.3771 8.22197 4.80555 8.15312 4.81071 8.52885C4.91346 8.54123 5.00569 8.5523 5.1149 8.56533C5.12608 8.6142 5.13833 8.66784 5.15187 8.72735C5.84882 8.99514 6.39916 9.50118 6.98905 9.97116C7.03204 9.97116 7.10406 9.94901 7.14705 9.97507C7.32054 10.0806 7.57012 10.1664 7.63354 10.3241C7.7363 10.5804 8.11552 10.5667 8.09015 10.9055C8.23203 10.9137 8.3636 10.9213 8.50462 10.9294C8.52848 10.9952 8.5532 11.0636 8.58352 11.1472C8.65209 11.1509 8.72733 11.1548 8.84342 11.1613C8.97541 11.3018 9.12891 11.4652 9.31056 11.6585C9.179 11.7212 9.10139 11.7581 8.99369 11.8092C9.14094 11.9087 9.2738 11.9984 9.40687 12.088C9.46534 12.0513 9.52339 12.0146 9.61604 11.9558C9.67172 12.05 9.70762 12.1519 9.77749 12.2162C9.83854 12.2724 9.93786 12.2863 10.0189 12.3185C10.0686 12.2839 10.1285 12.242 10.2307 12.171C10.2881 12.2694 10.3369 12.3537 10.4194 12.4953C10.4091 12.532 10.3753 12.6527 10.3369 12.79L10.5744 12.79C10.681 12.9917 10.7539 13.1336 11.0117 13.189C11.4498 13.283 11.8337 13.5595 12.2346 13.7699C12.2961 13.8021 12.3144 13.918 12.352 13.9945C12.4 13.9543 12.4397 13.9211 12.4357 13.9243C12.6276 14.0903 12.8286 14.2197 12.9694 14.3978C13.1128 14.5787 13.1969 14.8078 13.3345 15.0685C13.4626 15.1212 13.4961 14.9966 13.4314 14.6756C13.5959 14.8828 13.6511 14.9523 13.718 15.0367C13.6812 15.111 13.6434 15.1875 13.5714 15.333C13.7337 15.2691 13.8427 15.2264 13.9656 15.1779C14.0039 15.207 14.0484 15.2403 14.1206 15.2948C14.1718 15.2394 14.2855 15.1692 14.2788 15.1141C14.2462 14.8443 14.3741 14.6408 14.4792 14.443C14.3666 14.0095 14.6035 13.6294 14.6482 13.227C14.697 12.7839 14.7692 12.3361 14.9021 11.913C15.0289 11.5077 15.1697 11.0968 15.2071 10.6855C15.2467 10.2487 15.4023 9.84932 15.4713 9.42495C15.5416 8.99232 15.6738 8.56598 15.8189 8.15095C15.9591 7.75111 16.0001 7.32956 16.1476 6.92755C16.2975 6.51903 16.4209 6.08488 16.4997 5.65638C16.578 5.23157 16.7713 4.85627 16.8719 4.44536C16.972 4.03597 17.0918 3.63071 17.2229 3.23022C17.359 2.81453 17.5224 2.40796 17.6675 1.9951C17.807 1.5983 17.9386 1.19847 18.085 0.766273C18.1884 0.661807 18.3249 0.523679 18.4597 0.387504C18.4971 0.421168 18.5399 0.459176 18.5781 0.493709C18.829 0.511951 18.8266 0.294116 18.8924 0.175969C19.1444 0.129056 19.3802 0.0849696 19.6352 0.0374061C19.6567 0.0576049 19.699 0.0971309 19.7381 0.133834C20.0447 -0.142857 20.3061 0.0678111 20.5355 0.243077C20.767 0.420299 20.9553 0.654859 21.177 0.878774C21.2561 1.44932 21.714 1.94449 21.5407 2.59539C21.6273 2.61342 21.6809 2.6245 21.7705 2.64295C21.8275 2.99305 21.8875 3.36335 21.9554 3.78252C21.9689 3.78664 22.0356 3.80684 22.085 3.82183C22.1753 4.15064 22.271 4.46795 22.3466 4.79003C22.3763 4.91665 22.4122 5.0841 22.3563 5.18053C22.2144 5.42573 22.2155 5.63031 22.3563 5.87465C22.421 5.98693 22.3944 6.15242 22.4892 6.28903L22.4892 5.82448C22.5597 5.85814 22.6111 5.87334 22.61 5.88377C22.582 6.19391 22.6988 6.47994 22.7908 6.75837C22.8684 6.99292 22.9094 7.25658 22.8146 7.42707C22.6917 7.64817 22.7843 7.83885 22.6874 8.1301C22.808 8.04235 22.843 8.01694 22.8785 7.9911C23.1018 8.34229 23.164 8.48888 23.0292 8.76471C22.9213 8.98536 23.0053 9.1691 23.0545 9.37499C23.0722 9.21775 23.0898 9.06051 23.1201 8.79012C23.2007 9.17323 23.2573 9.44232 23.337 9.82196C23.7549 8.88568 24.3379 8.18374 24.8382 7.42642C25.3477 6.65499 25.6714 6.2962 26.2697 5.821C26.3783 5.73456 26.4312 5.57928 26.5348 5.48328C26.7145 5.31735 26.9284 5.18748 27.1008 5.01482C27.259 4.85627 27.3586 4.63496 27.5241 4.48684C27.9624 4.09526 28.4633 3.77904 28.8782 3.35575C28.9188 3.31427 29.0257 3.33859 29.1104 3.33186C29.1618 3.24803 29.197 3.12662 29.2772 3.07015C29.6691 2.79412 30.0576 2.50678 30.4774 2.28026C30.8111 2.10021 31.1299 1.89302 31.4839 1.73687C31.8337 1.58245 32.194 1.55812 32.541 1.45865C32.9 1.35593 33.2861 1.45518 33.661 1.63131C33.3043 2.04918 33.756 2.44293 33.7311 2.8647C33.7463 2.66619 33.7616 2.46747 33.7769 2.26875C33.808 2.2707 33.8394 2.27287 33.8706 2.27483L33.8706 2.66685C33.8706 2.78543 33.8686 2.90401 33.871 3.02237C33.874 3.15507 33.8349 3.30167 33.9819 3.3905C33.8091 3.46391 34.012 3.6066 33.9353 3.68066C33.7979 3.81379 34.0888 3.87699 33.9714 4.01642C33.9067 4.09352 33.8873 4.22014 33.8744 4.32765C33.8585 4.46056 33.8706 4.59674 33.8706 4.71901C33.773 4.75354 33.705 4.77765 33.5976 4.81566C33.701 4.85171 33.7663 4.87451 33.8575 4.90601C33.8628 4.96877 33.8693 5.04283 33.8796 5.16402C33.7672 5.27782 33.6339 5.4127 33.5141 5.53388C33.5197 5.63878 33.5238 5.71458 33.5275 5.78386C33.6105 5.81449 33.678 5.83946 33.7715 5.87378C33.6724 5.92177 33.5965 5.95848 33.5206 5.9954L33.5206 6.12528C33.5958 6.16111 33.6762 6.19955 33.765 6.24168C33.6554 6.58245 33.4985 6.89997 33.5073 7.27222C33.5111 7.44076 33.3892 7.61233 33.3172 7.80106C33.3151 7.79802 33.3364 7.82582 33.3688 7.86839C33.2899 8.16658 33.2082 8.47564 33.1074 8.85636C33.004 8.728 32.935 8.64222 32.8707 8.56251C32.8445 8.75146 32.8589 8.87656 32.9326 9.07093C32.9215 9.08592 32.9118 9.10221 32.8991 9.11611C32.8722 9.14478 32.8441 9.17214 32.8116 9.20472C32.8402 9.23122 32.8692 9.25684 32.8967 9.28399C32.9101 9.29724 32.9208 9.31331 32.9335 9.32938C32.8832 9.48532 32.8325 9.64234 32.7658 9.84867L32.2503 9.84867C32.2374 9.87538 32.2247 9.9021 32.212 9.92903C32.2858 9.97768 32.3597 10.0261 32.4646 10.0954C32.507 10.0719 32.5818 10.0302 32.7243 9.95118C32.6573 10.2253 32.6027 10.449 32.5493 10.6661C32.4784 10.682 32.4251 10.6937 32.3696 10.7061C32.57 11.0047 32.4079 11.2243 32.237 11.4476C32.1826 11.5188 32.1409 11.6055 32.1142 11.6915C32.0543 11.8843 32.0074 12.0813 31.9448 12.3167C31.938 12.3187 31.8859 12.3341 31.7784 12.3663C31.7858 12.4762 31.7946 12.608 31.8088 12.8176C31.8367 12.7839 31.7896 12.8178 31.7741 12.8625C31.6484 13.2248 31.5654 13.6016 31.4098 13.9539C31.3951 13.9871 31.407 14.031 31.3979 14.0677C31.3386 14.3066 31.0344 14.4139 31.0583 14.6943C31.0793 14.9418 30.8854 15.0965 30.819 15.3063C30.7476 15.5319 30.6554 15.7508 30.5686 15.9711C30.5419 16.0391 30.4892 16.0986 30.474 16.1678C30.4572 16.243 30.4701 16.3249 30.4701 16.4398C30.3979 16.4949 30.3054 16.5659 30.2369 16.6183L30.2369 17.0201C29.9903 17.2574 29.737 17.4935 29.765 17.8866C29.7676 17.9216 29.7611 17.9718 29.7388 17.9917C29.3598 18.3297 29.3598 18.862 29.0902 19.2651C28.8303 19.6539 28.6994 20.1282 28.4711 20.5419C28.1688 21.0901 27.8276 21.6161 27.5002 22.1499C27.4703 22.199 27.4258 22.2477 27.3764 22.2746C26.9144 22.527 26.4496 22.7743 26.0296 23C25.7413 22.9435 25.5044 22.8971 25.1998 22.8373C25.142 22.7422 25.0471 22.5858 24.9549 22.434C25.0762 22.1169 25.1785 21.8038 25.315 21.5064C25.4522 21.2076 25.6035 20.9109 25.7839 20.6373C26.1783 20.0378 26.4299 19.3646 26.7775 18.7426C26.9832 18.3744 27.0804 17.9435 27.3955 17.6384C27.5776 16.9421 27.9405 16.3262 28.2275 15.6761C28.3515 15.3951 28.5188 15.1297 28.5992 14.8243C28.6729 14.5429 28.7905 14.2733 28.8877 13.9982C29.1921 13.1381 29.5001 12.2798 29.7981 11.4176C29.9533 10.9687 30.0988 10.5156 30.2332 10.0598C30.3684 9.60065 30.4581 9.11915 30.6105 8.67588C30.8775 7.89901 30.9224 7.08197 31.1585 6.3025C31.2831 5.89093 31.2668 5.43224 31.2866 4.99353C31.3061 4.56611 31.2909 4.13696 31.2909 3.5851Z" fill="#F9ED35"/>
</svg>
