<svg width="34" height="46" viewBox="0 0 34 46" fill="none" xmlns="http://www.w3.org/2000/svg">
<path fill-rule="evenodd" clip-rule="evenodd" d="M8.41742 9.35268C8.53038 9.78219 7.79202 10.3242 8.59839 10.6712C8.65464 10.6959 8.71308 10.881 8.68045 10.934C8.28042 11.5906 8.75692 12.1588 8.88712 12.7451C9.14384 13.8959 9.5133 15.0209 9.78162 16.1696C10.0525 17.33 10.4892 18.4365 10.481 19.6868C10.4748 20.5849 10.84 21.521 11.179 22.3845C11.5425 23.3087 11.2803 24.3024 11.6211 25.1951C12.0929 26.4284 11.8141 27.7859 12.3284 29.0028C12.3475 29.0476 12.3709 29.0996 12.3648 29.145C12.1768 30.588 12.6129 31.9985 12.6208 33.4323C12.6239 33.9703 12.372 34.5541 12.8491 35.0302C13.2851 35.0979 13.467 34.6865 13.7787 34.5374C14.7256 34.0843 15.5776 33.4339 16.6035 33.1458C16.7429 32.4855 17.4733 32.7424 17.8504 32.3274C18.1686 31.9782 18.7487 31.6972 19.2587 31.5517C19.7699 31.4064 20.0251 30.8245 20.5993 30.8586C20.958 30.1525 21.792 30.288 22.3537 29.8376C23.3582 29.0321 24.5482 28.4516 25.6303 27.7195C26.2573 27.2948 26.6162 26.7911 26.8859 26.323C26.8404 25.446 26.3752 24.9342 25.9325 24.4982C24.7203 23.3039 23.494 22.1039 22.1501 21.0722C20.047 19.4582 18.0501 17.72 16.0404 15.9958C14.3959 14.5853 12.7866 13.133 11.1689 11.6907C10.2693 10.8892 9.49615 9.93624 8.41742 9.35268ZM27.4593 31.8714C27.2276 32.2724 27.0315 32.6105 26.8359 32.9485C26.7946 32.9273 26.753 32.9051 26.7117 32.884C26.6296 32.8437 26.4814 32.7584 26.4739 32.7698C25.7151 33.8527 24.0997 33.6141 23.3755 34.7659C23.1791 34.6896 22.9122 34.4522 22.7531 34.6687C22.4571 35.0708 22.1666 35.2792 21.6872 35.0114C21.5994 34.9621 21.5032 35.0001 21.5096 35.1279C21.5444 35.8225 21.0556 35.8145 20.5665 35.9655C20.1131 36.1064 19.7524 36.5225 19.3263 36.7777C18.186 37.4615 16.8574 37.8023 15.8098 38.6474C15.4724 38.9195 15.0641 38.3482 14.7154 38.8855C14.5539 39.1349 14.1839 39.5079 13.6798 39.5301C13.2776 39.5484 13.0182 39.9702 12.6129 40.1387C11.8737 40.4456 11.3762 41.0822 11.3208 41.9539C11.2366 41.9053 11.1523 41.8568 11.0686 41.8086C10.5631 42.1435 10.4977 42.4727 11.0809 42.7932C10.9826 42.9624 10.8848 43.1314 10.7863 43.3022C10.6627 43.2397 10.539 43.1773 10.42 43.1175C9.99259 43.4759 10.3314 44.2619 9.78094 44.4582C9.3257 44.6213 8.94913 44.8555 8.63584 45.1305C8.12682 45.0535 8.4106 44.4752 8.03279 44.3641C7.88141 44.5286 7.85914 44.8485 7.40836 44.7269C7.27361 44.3863 6.99057 43.9931 7.31661 43.5019C6.73784 43.2768 6.17359 43.324 5.57028 43.479C4.93645 43.6426 4.29272 43.6405 3.84477 42.977C3.5066 42.4758 2.66819 42.7176 2.44383 41.9576C2.46496 41.9014 2.52881 41.7303 2.58269 41.5553C2.78847 40.8835 3.08738 40.3367 3.82206 39.951C4.9731 39.3466 5.91661 38.3315 7.08554 37.7835C8.07074 37.3207 7.96387 36.5731 7.98674 35.8607C8.00296 35.3708 7.95563 34.8328 7.87877 34.355C7.64131 32.8772 7.79409 31.3533 7.33643 29.9079C7.66178 28.795 6.8817 27.8232 6.94789 26.722C7.01302 25.6522 6.31861 24.6696 6.29474 23.6292C6.25119 21.7095 5.5113 19.9757 5.08516 18.1617C4.66113 16.3578 4.13718 14.5778 3.65729 12.7877C3.16475 10.9504 2.86317 9.03201 2.12654 7.29789C1.38598 5.55537 1.02614 3.73535 0.448593 1.99641C0.764093 1.45129 1.05752 0.944304 1.31098 0.506367C1.66593 0.710794 2.02484 0.917498 2.40862 1.1381C2.65357 0.475184 3.17226 0.378499 3.53932 0.439105C5.05049 0.68782 6.43525 1.15875 7.56918 2.34752C9.29996 4.16321 11.1651 5.85291 12.9939 7.57513C14.3963 8.89702 15.8594 10.161 17.3278 11.3841C19.2197 12.9594 21.0525 14.6283 23.1143 16.0064C23.923 16.5471 24.5341 17.4059 25.4479 17.7651C25.9037 17.9448 25.5013 18.7371 26.2465 18.5858C26.7245 18.4889 26.8295 19.1381 27.2136 19.3042C27.6564 19.4956 27.9407 19.9101 28.3241 20.1414C28.7054 20.3716 28.842 20.8145 29.2661 20.9759C29.6635 21.1268 29.9246 21.4858 30.2487 21.7435C31.0064 22.3474 31.6975 23.0163 32.3579 23.714C33.1483 24.5497 33.3619 25.5688 33.0906 26.6838C33.0582 26.8164 33.0326 26.9933 32.9849 27.0705C32.7368 27.4748 33.1336 27.9992 32.8627 28.2745C32.1907 28.9585 31.7155 29.8653 30.863 30.3247C30.4367 30.5539 30.1127 30.8474 29.7966 31.166C29.4865 31.4796 28.9927 31.3224 28.6857 31.7413C28.4719 32.0325 27.9696 32.2276 27.4593 31.8714Z" fill="#F9ED35"/>
</svg>
