<svg width="91" height="87" viewBox="0 0 91 87" fill="none" xmlns="http://www.w3.org/2000/svg">
<g opacity="0.5">
<path fill-rule="evenodd" clip-rule="evenodd" d="M45.9158 37.2762C46.139 37.2765 45.8857 37.5123 46.1059 37.4754C46.3149 37.4405 46.3801 37.6302 46.5233 37.6909C46.5946 37.7213 46.6328 37.6872 46.6228 37.6257C46.5655 37.4048 46.2484 37.3839 46.237 37.1471C46.2842 37.0651 46.3227 36.9982 46.3636 36.9274C46.0934 36.8063 45.8218 36.9982 45.5806 36.8735C45.3408 36.5132 45.6143 36.3197 45.8013 36.0958C45.8213 36.0715 45.7954 36.0094 45.7905 35.9642C45.5866 35.9445 45.5901 36.2276 45.4501 36.2251C45.0069 36.1606 45.4147 35.8871 45.203 35.663C45.2239 35.7016 45.1129 35.8476 45.0877 35.7004C45.0965 35.5321 45.3497 35.4881 45.2989 35.288C44.875 35.0817 44.6876 34.7594 44.5658 34.0283C44.5106 34.0314 44.4552 34.0343 44.4002 34.0376C44.3298 33.8923 44.5652 33.8194 44.4848 33.6721C44.4052 33.5133 44.2458 33.6048 44.1305 33.557C43.8677 32.7021 43.8677 32.7021 43.5299 32.3718C43.5384 32.1195 43.5493 31.7913 43.5602 31.463C43.4463 31.2004 43.1873 31.3306 43.0443 31.2389C43.0345 30.9081 43.0003 30.5679 42.7391 30.3602C42.5486 30.2089 42.5117 30.009 42.4123 29.8273C42.1775 29.3997 41.9517 28.9666 41.7087 28.5436C41.6671 28.4707 41.5843 28.3624 41.4271 28.469C41.5086 28.7326 41.5899 28.994 41.7467 29.2508C42.0804 29.7985 42.4141 30.3568 42.651 30.9489C42.8905 31.5462 43.3276 32.0533 43.4306 32.7164C43.4528 32.8601 43.5799 33.0411 43.6682 33.1958C44.152 34.0441 44.5155 34.9509 44.8802 35.8584C45.0786 36.3519 45.1773 36.9121 45.5821 37.3122C45.6171 37.347 45.6727 37.361 45.7192 37.3843C45.8084 37.3352 45.898 37.2861 45.9158 37.2762ZM48.0253 32.2682C47.8968 32.2929 47.8271 32.3064 47.7371 32.3241C47.9091 32.609 48.125 32.7797 48.4824 32.7857L48.2937 32.9978C48.3073 33.0512 48.3042 33.1337 48.336 33.1505C48.6071 33.293 48.7154 33.5699 48.7951 33.8168C48.8885 34.1061 48.8353 34.4476 49.1827 34.6089C49.207 34.6202 49.2435 34.6493 49.2415 34.6667C49.1643 35.3346 49.6748 35.8455 49.7151 36.4819C49.7286 36.6908 49.5629 36.5648 49.4437 36.6477C49.8897 37.1119 50.4568 37.5021 50.4829 38.3203C50.4775 38.3278 50.3989 38.4409 50.3224 38.5502C50.2989 38.6414 50.3254 38.6564 50.4083 38.644C50.6487 38.6083 50.8107 38.7433 50.8274 38.9581C50.8777 39.5986 51.2172 40.1348 51.4375 40.7092C51.8431 41.7674 52.1265 42.862 52.4789 43.9348C52.834 45.0155 53.1467 46.1033 53.424 47.2057C53.7898 48.6591 54.1879 50.1024 54.5181 51.5668C54.7322 52.5142 54.9501 53.4712 55.2228 54.4114C55.4831 55.3068 55.5846 56.2478 55.7863 57.1624C56.0235 58.2355 56.1417 59.3307 56.4349 60.3956C56.581 60.9275 56.5374 61.508 56.6597 62.0647C57.1139 64.1304 57.143 66.2444 57.2671 68.3466C57.2892 68.7264 57.3305 69.1101 56.9876 69.4882C56.7447 69.0494 56.5413 68.6572 56.5194 68.1846C56.4872 67.4923 56.4436 66.8005 56.4049 66.1085C56.3856 65.7626 56.4255 65.3988 56.3303 65.0758C56.2347 64.7522 56.2699 64.4233 56.1811 64.1027C56.0934 63.786 56.0917 63.4499 56.0177 63.1203C55.889 62.5502 55.8696 61.9503 55.7975 61.3645C55.7052 60.6158 55.4416 59.9148 55.3514 59.1684C55.2588 58.4058 55.0536 57.6577 54.9117 56.9004C54.8661 56.6565 54.9218 56.4038 54.6768 56.2052C54.5813 56.128 54.5977 55.8865 54.6001 55.7202C54.6095 55.1263 54.402 54.58 54.255 54.0201C54.1032 53.4431 53.9421 52.8686 53.7914 52.2913C53.3593 50.6354 52.8991 48.9859 52.5125 47.3189C52.2667 46.2607 51.8093 45.2702 51.6073 44.2024C51.3145 43.9216 51.5612 43.5053 51.3345 43.1765C51.1625 42.9259 51.0059 42.6342 50.9821 42.2754C50.965 42.0181 50.9781 41.7292 50.8553 41.4739C50.7284 41.2098 50.6069 40.9411 50.5104 40.6648C50.4121 40.3844 50.3157 40.0962 50.277 39.8035C50.2367 39.4965 50.0461 39.2492 49.9956 38.966C49.967 38.8051 49.7266 38.6967 49.8653 38.5241C49.9954 38.3618 49.9363 38.2671 49.8014 38.1822C49.5434 38.0202 49.5185 37.7283 49.402 37.4921C49.4543 37.3566 49.6359 37.3104 49.6296 37.1096C49.0736 36.9854 49.0982 36.3423 48.7096 36.0472C48.9904 35.5978 48.4449 35.405 48.4067 35.0547C48.3669 34.6928 48.0497 34.4642 47.9768 34.1066C47.8582 33.5263 47.5442 33.0171 47.3139 32.4769C47.0942 31.9611 46.8782 31.44 46.7137 30.9051C46.6444 30.6807 46.5521 30.6366 46.2992 30.6748C46.518 30.0509 45.612 29.6864 45.9888 29.0004C45.89 28.9841 45.7365 29.0007 45.7067 28.9474C45.4327 28.4597 45.0786 28.0162 44.9098 27.4693C44.774 27.0298 44.5981 26.5905 44.2461 26.29C44.0709 26.1398 44.0312 25.9285 43.9968 25.7874C43.7778 24.8865 43.1543 24.2327 42.6813 23.4909C42.307 22.9037 41.9819 22.2912 41.6364 21.6888C41.2104 20.9461 40.8339 20.175 40.3027 19.491C39.9778 19.0723 39.7713 18.5635 39.4709 18.123C39.2571 17.8098 39.1294 17.4175 38.771 17.22C38.5032 17.0724 38.5699 16.7195 38.3151 16.5343C38.2221 16.4667 38.1905 16.1351 38.0085 16.0927C37.78 16.0391 38.031 15.6169 37.6814 15.7299C37.4803 15.3947 37.2035 15.0822 37.0952 14.7187C36.9145 14.1118 36.4188 13.7463 36.106 13.2444C35.6028 12.4383 34.7955 11.8529 34.3681 10.9778C33.9444 10.8327 33.9926 10.1769 33.443 10.1385C33.3117 10.1292 33.3548 9.86147 33.2343 9.71852C32.5917 8.95558 32.0274 8.12034 31.2273 7.50679C31.0528 7.37299 31.1101 7.00155 30.7628 7.07006C30.7943 6.71189 30.4668 6.61559 30.2808 6.42129C30.1022 6.23441 29.7989 6.10894 29.7218 5.89425C29.5296 5.35805 28.9267 5.36613 28.6395 4.96851C28.3994 4.63574 27.936 4.48902 27.8401 4.02096C27.8259 3.95296 27.7177 3.85471 27.6529 3.85508C27.2202 3.85837 26.997 3.52232 26.7622 3.268C26.351 2.82283 25.7346 2.69267 25.3238 2.25806C25.2745 2.20616 25.1029 2.26977 24.9176 2.28583C25.3368 2.67673 25.622 3.15098 26.1989 3.30787C26.3493 3.34862 26.4737 3.49921 26.5999 3.61053C27.3553 4.27813 28.0943 4.96563 28.8682 5.61162C29.2181 5.90391 29.3195 6.37209 29.7192 6.63141C30.0777 6.86399 30.4849 7.13724 30.6655 7.49638C30.8656 7.89415 31.2915 8.07108 31.4349 8.45297C31.5897 8.86679 32.0096 8.99232 32.2263 9.31414C32.691 10.0038 33.3512 10.5343 33.811 11.2115C34.1917 11.7728 34.6459 12.2775 34.9931 12.8555C35.0738 12.9898 35.3341 12.8222 35.2828 13.1078C35.2518 13.2794 35.4917 13.3545 35.6099 13.471C35.7181 13.5783 35.6032 13.7651 35.761 13.8432C35.9387 13.9316 35.888 14.1564 35.988 14.2623C36.2729 14.5633 36.5421 14.8682 36.7996 15.1976C37.3017 15.8395 37.7266 16.5296 38.1986 17.1887C38.1331 17.636 38.7226 17.6515 38.76 18.0785C38.7878 18.3944 39.1179 18.6127 39.3017 18.8767C39.9137 19.754 40.4851 20.6642 41.0128 21.5953C41.3832 22.2489 41.6737 22.9397 42.1748 23.5228C42.3879 23.771 42.5067 24.1366 42.6333 24.4473C42.9994 25.3469 43.5518 26.1358 44.0195 26.9718C44.2441 27.3734 44.3773 27.8064 44.573 28.2143C44.8962 28.8861 45.3558 29.4842 45.5747 30.218C45.7179 30.6977 46.1638 31.071 46.1279 31.6338C46.6229 31.8056 46.4451 32.362 46.7235 32.6827C46.9956 32.9966 47.0263 33.4689 47.2551 33.8411C47.4621 34.1777 47.5868 34.5681 47.7244 34.9436C47.8628 35.3202 47.972 35.7075 48.0945 36.0909L47.8249 36.3939C48.025 36.4746 48.2627 36.4706 48.3618 36.6639C48.4236 36.8033 48.2882 36.8696 48.2677 36.9742C48.2929 37.0217 48.3066 37.0816 48.3444 37.1135C48.7977 37.4994 49.0456 38.0504 49.1633 38.575C49.3731 39.5082 49.8218 40.3379 50.1215 41.2287C50.4732 42.2732 50.7837 43.333 51.1567 44.3674C51.5967 45.5872 51.8479 46.859 52.2851 48.0788C52.586 48.9196 52.7487 49.8113 52.9626 50.6826C53.2355 51.7952 53.4579 52.922 53.7771 54.0207C54.0372 54.9155 54.173 55.8346 54.3909 56.7367C54.6103 57.6448 54.837 58.5552 54.9584 59.49C55.0641 60.3065 55.2885 61.1065 55.4484 61.9165C55.6246 62.8097 55.7366 63.7135 55.9206 64.606C56.0435 65.2012 56.1381 65.8253 56.1765 66.4442C56.2424 67.5105 56.2989 68.5777 56.355 69.6446C56.3621 69.7796 56.4252 69.9308 56.2663 70.0589C55.9566 70.0889 55.8652 69.8393 55.8324 69.5629C55.4774 69.7955 55.7703 70.1113 55.5756 70.3239C55.4622 70.4256 55.308 70.3504 55.1724 70.3893C55.2889 70.1126 54.9002 70.2156 54.9116 70.0446C54.9237 69.8613 54.6702 69.7819 54.7582 69.5838C54.5905 69.4629 54.56 69.7627 54.3266 69.6593C54.2481 69.2336 54.1471 68.7551 54.0741 68.2721C54.0247 67.943 54.0415 67.6127 53.9061 67.2873C53.7943 67.0187 53.9731 66.6495 53.6218 66.4426C53.5578 66.4048 53.648 66.2954 53.6576 66.225C53.7238 65.7378 53.5502 65.0776 53.2655 64.5036C53.1098 64.1895 53.0392 63.8289 52.9705 63.4993C52.8467 62.9067 52.7728 62.3027 52.6048 61.7165C52.5774 61.6214 52.6027 61.5071 52.6316 61.3917C52.758 60.8889 52.6793 60.4128 52.3637 59.9809C52.2008 59.7582 52.2158 59.6231 52.2029 59.1833C52.1962 58.971 52.1267 58.7502 52.0811 58.5426C51.8943 57.6895 51.6099 56.8621 51.4391 56.01C51.3355 55.4942 50.8607 55.1196 50.9566 54.5513C50.5974 54.3604 50.7534 53.9973 50.6706 53.7119C50.4681 53.0136 50.4063 52.2579 50.0038 51.6418C49.8598 51.4218 50.2678 51.1988 49.9202 51.0727C49.7761 50.3841 49.4255 49.7622 49.2713 49.0825C49.2122 48.822 49.2721 48.4843 49.1121 48.2875C48.8079 47.9128 49.0437 47.3308 48.5858 47.0436C48.7478 46.544 48.3919 46.2169 48.2182 45.8166C48.0841 45.5073 48.1715 45.1417 47.8989 44.824C47.6699 44.5569 47.6049 44.1441 47.4842 43.7896C47.3628 43.4341 47.3591 43.0378 47.1163 42.7243C47.3485 42.348 47.0342 42.0623 46.9225 41.7661C46.8022 41.4469 46.76 41.0705 46.491 40.825C46.2815 40.6337 46.6678 40.2874 46.267 40.1371C46.0198 40.0444 46.0639 39.7131 45.9604 39.4967C45.8607 39.2883 45.6586 39.0831 45.8833 38.8067C45.9474 38.7281 45.8982 38.534 45.8626 38.4038C45.7211 37.8863 45.2585 37.4603 45.431 36.8527C45.1617 36.6628 45.1907 36.279 45.009 36.0884C44.4183 35.4697 44.2803 34.6509 43.9909 33.913C43.7769 33.3668 43.3033 32.9169 43.3394 32.2729C42.9436 32.0354 43.021 31.5309 42.7558 31.2253C42.4457 30.8683 42.4594 30.36 42.1662 30.001C41.8728 29.6413 41.7886 29.1768 41.5532 28.7877C41.5137 28.7224 41.5387 28.6176 41.5316 28.4906C40.8102 28.1466 40.9229 27.1466 40.1654 26.6391C40.3033 26.9872 40.3974 27.2247 40.5426 27.5907C39.9163 27.0921 39.8288 26.4 39.4475 25.8945C39.0718 25.3957 38.8467 24.7715 38.5363 24.2117C38.2266 23.6525 37.9873 23.046 37.6225 22.5274C37.2498 21.9975 37.0028 21.4007 36.6256 20.8749C36.2523 20.3547 35.9522 19.7824 35.6024 19.2043C35.6722 19.1116 35.7552 19.0016 35.838 18.8915C35.7532 18.3417 35.1892 18.0988 35.0139 17.6036C34.9885 17.5325 34.8434 17.4943 34.833 17.4283C34.7391 16.8274 34.197 16.4983 33.9754 15.9773C33.7466 15.4393 33.215 15.1284 32.9532 14.6089C32.6489 14.0051 32.1416 13.5363 31.815 12.9417C31.6461 12.6338 31.2314 12.5001 31.1788 12.0958C30.7252 11.8332 30.5073 11.3553 30.1998 10.9682C29.923 10.6203 29.6751 10.2558 29.3228 9.9781C29.3538 9.44646 28.6084 9.42501 28.613 8.89589C28.6135 8.81957 28.4574 8.73664 28.3657 8.66709C27.7824 8.22367 27.4092 7.5966 26.9489 7.04597C26.8148 6.88585 26.5525 6.9388 26.4446 6.72779C26.0152 5.88879 25.1663 5.46118 24.551 4.80437C24.2922 4.52788 23.9814 4.38082 23.6178 4.31552C23.6154 4.36833 23.6136 4.42088 23.6111 4.48179C23.2033 4.75743 22.8529 4.58624 22.6382 4.24877C22.4602 3.96823 22.7111 3.71975 22.9389 3.51768C22.8206 3.20964 22.6443 2.88805 23.0205 2.63459C23.2338 2.49125 23.2386 2.25984 23.3006 2.04766C23.5306 1.96653 23.8211 1.94763 23.9741 1.7929C24.3152 1.44775 24.7173 1.50034 25.0804 1.58231C25.4637 1.66935 25.8261 1.86231 26.1859 2.05588C27.1793 2.591 27.9172 3.42327 28.7558 4.13664C29.5894 4.84603 30.3913 5.59246 31.2165 6.31183C31.5121 6.56986 31.5947 6.97483 31.9384 7.21642C32.2435 7.43089 32.6396 7.62561 32.6847 8.08688C33.2299 8.41628 33.4186 9.06522 33.9295 9.44262C34.5776 9.92145 35.0022 10.6181 35.4659 11.2664C35.5692 11.4111 35.7287 11.5408 35.7807 11.6736C35.864 11.887 36.0197 12.0071 36.1719 12.0997C36.4828 12.2891 36.5295 12.6499 36.746 12.9033C36.9674 13.1623 37.14 13.4832 37.3904 13.6528C37.3907 13.8475 37.2162 13.9005 37.3339 14.0886C37.7619 14.0815 37.9452 14.4243 38.1607 14.7966C38.5816 15.5231 39.0775 16.2035 39.6389 16.835C39.8135 17.0316 39.9285 17.2833 40.0571 17.5178C40.3837 18.1142 40.7069 18.7122 41.2702 19.2205C41.2593 19.3366 41.2434 19.5075 41.2333 19.6114C41.3545 19.7421 41.4627 19.5796 41.5459 19.7559C41.6936 20.0691 41.812 20.4118 42.1002 20.6419C42.1419 20.6756 42.1771 20.7218 42.2038 20.7686C42.2876 20.9176 42.0301 21.2731 42.4696 21.206C42.3567 21.5174 42.7705 21.5739 42.7755 21.8619C42.7786 22.0535 42.9795 22.2525 43.0925 22.402C43.2294 22.5833 43.2589 22.8052 43.407 22.9692C43.6975 23.2896 43.6415 23.8383 44.0904 24.019C44.156 24.1793 44.0149 24.2435 44.0011 24.3514C44.2559 24.4947 44.6822 25.1908 44.8144 25.6834C44.7341 25.7173 44.6523 25.7516 44.5699 25.7866C44.5995 25.8385 44.6166 25.9147 44.654 25.9266C44.9101 26.0059 45.2307 25.998 45.221 26.396C45.6478 26.8269 45.8619 27.4038 46.0708 27.9339C46.2537 28.3991 46.517 28.7892 46.7676 29.1964C47.0073 29.5859 46.9816 30.0972 47.3493 30.4202C47.389 31.0901 47.935 31.5754 48.0253 32.2682Z" fill="#229A87"/>
<path fill-rule="evenodd" clip-rule="evenodd" d="M62.442 53.7644C62.1566 53.5552 62.1875 53.0554 61.7349 53.0002C61.5123 53.103 61.6489 53.3009 61.597 53.4815C62.0156 53.7939 62.1867 54.2238 62.3654 54.7158C62.5416 55.2014 62.5556 55.7233 62.8113 56.198C63.0518 56.6451 63.1244 57.1824 63.2569 57.6833C63.3908 58.1884 63.5069 58.6975 63.6328 59.2043C63.7314 59.6041 63.8728 59.9982 63.9264 60.4031C64.0546 61.3696 64.2934 62.3133 64.4856 63.2668C64.5854 63.7619 64.6006 64.2689 64.7 64.7721C64.8706 65.6358 64.8693 66.5302 65.0326 67.3963C65.208 68.3285 65.1852 69.2761 65.3455 70.1996C65.7068 72.2815 65.6737 74.3836 65.8622 76.4735C65.8931 76.813 65.9 77.1557 65.9327 77.4985C66.0041 78.2508 66.1386 79.0215 65.8355 79.7445C65.7188 80.0231 66.0595 80.1373 65.9681 80.4522C65.8881 80.7262 65.8845 81.1171 65.9618 81.4522C66.0402 81.7925 65.9736 82.141 65.9897 82.4792C66.0089 82.886 65.9747 83.3136 65.9884 83.7516C65.8082 84.0189 65.6135 84.2958 65.4362 84.5839C65.406 84.6328 65.4525 84.729 65.4622 84.7935C65.6306 84.8548 65.6614 84.5253 65.9138 84.7623C65.9842 85.1285 66.0292 85.5618 65.8507 86.0196C65.7674 86.0614 65.7046 85.9159 65.6026 85.9039C65.5069 85.8929 65.3843 85.9649 65.3831 85.7719C65.3817 85.5613 65.214 85.7285 65.1323 85.6694C65.1098 85.4114 65.4209 85.3471 65.4671 85.1294C65.4494 84.7808 65.1018 85.0525 64.981 84.8348C64.9688 84.5976 65.0808 84.3586 65.1559 84.0988L64.9132 83.8831C64.8582 83.2837 65.2392 82.7022 64.895 82.1172C64.7316 81.8387 65.0742 81.5707 64.8566 81.253C64.7048 81.031 64.9013 80.727 64.9597 80.4757C65.0365 80.3329 65.1776 80.4292 65.2847 80.3485C65.1643 79.9814 64.8535 80.2296 64.6414 80.1628C64.6283 79.963 64.6148 79.7611 64.6012 79.5588C64.6824 79.5506 64.7644 79.5422 64.846 79.5336C64.7994 79.279 65.0331 79.058 64.9204 78.8124C64.8248 78.6505 64.6752 78.6905 64.5431 78.691C64.5344 78.5615 64.5267 78.446 64.5191 78.3322C64.6005 78.3243 64.6825 78.3163 64.7666 78.3078C64.5047 77.9156 64.5047 77.9156 64.4553 77.377C64.6013 77.2255 64.7287 77.6209 64.9552 77.2779C65.0211 77.0371 64.4302 76.7492 64.76 76.3699C64.6538 76.3563 64.5503 76.3434 64.3801 76.322C64.4025 75.9173 64.3044 75.5126 64.3326 75.1411C64.3642 74.7217 64.1845 74.343 64.2427 73.9059L64.5911 73.5144C64.3741 73.311 64.5086 72.9684 64.3433 72.7703C63.7872 72.1044 63.9296 71.3236 63.9262 70.5839C63.9248 70.3128 64.0139 70.0487 63.863 69.7915C63.8145 69.7091 63.7934 69.6477 63.8641 69.5688C64.1616 69.2349 64.1149 68.9147 63.8179 68.5899C63.6676 68.4258 63.6586 68.2309 63.8061 68.055C64.045 67.7706 63.8908 67.4846 63.8662 67.2497C63.6223 67.0524 63.5898 67.366 63.394 67.2935C63.5057 67.1056 63.1458 66.7921 63.5933 66.6731C63.621 66.6656 63.641 66.4199 63.5854 66.3658C63.3634 66.1487 63.2695 65.9032 63.2969 65.6046C62.9263 65.3805 62.9917 65.0043 62.9979 64.6787C63.0064 64.2452 62.8444 63.8433 62.7528 63.441C62.639 62.9398 62.5767 62.4713 62.6806 61.9755C62.7096 61.8376 62.6959 61.6905 62.7004 61.5834C62.4015 61.3739 62.2822 61.1677 62.2214 60.8502C62.0198 59.8004 61.8477 58.7392 61.4541 57.7326C61.3169 57.3815 61.4356 57.076 61.6229 56.8129C61.7458 56.6409 61.6729 56.4869 61.6864 56.3644C61.1463 56.1504 61.2645 55.4211 60.7436 55.2952C60.7792 55.0008 61.0077 54.9264 61.0884 54.7115C60.8249 54.3065 60.5445 53.8746 60.2665 53.4469C60.1051 53.3923 60.0613 53.6532 59.8395 53.5351C59.7142 53.3641 59.7423 53.0381 59.2952 52.8936C59.5679 52.8637 59.6493 52.8549 59.7285 52.8462C59.7796 52.6911 59.5016 52.6466 59.6081 52.4719C59.743 52.2662 59.9711 52.3869 60.1508 52.3412C60.2158 52.0873 60.2807 51.835 60.3416 51.5969C60.6416 51.5663 60.6507 51.7418 60.6547 51.9239C60.8142 51.9308 60.9863 51.9995 61.1175 51.8235C61.2657 51.6546 60.9406 51.6186 61.005 51.4398C61.6153 51.441 61.6414 52.1974 62.1862 52.2795C62.1666 52.506 62.152 52.6771 62.1371 52.8456C62.251 52.8458 62.3059 52.846 62.4065 52.8461C62.5144 53.115 62.6309 53.4008 62.7421 53.6882C62.747 53.7011 62.7068 53.7304 62.6876 53.7518C62.6118 53.8443 62.5298 53.8484 62.442 53.7644Z" fill="#229A87"/>
<path fill-rule="evenodd" clip-rule="evenodd" d="M62.4369 54.519C62.5222 54.6008 62.6036 54.5949 62.6808 54.501C63.1697 54.8697 63.2253 55.4761 63.4018 55.9926C63.6959 56.8513 63.8798 57.752 64.1151 58.6317C64.2893 59.2815 64.3561 59.9843 64.4905 60.6582C64.6731 61.5731 64.7414 62.5083 64.959 63.4182C65.0871 63.9558 65.0742 64.5305 65.1372 65.0854C65.2254 65.867 65.4237 66.636 65.4052 67.4371C65.3952 67.8515 65.3861 68.2731 65.5571 68.6788C65.6311 68.8546 65.6362 69.0975 65.4994 69.3316C65.432 69.4468 65.6176 69.6608 65.6345 69.8637C65.7969 71.8781 65.9452 73.8929 66.0229 75.9155C66.0711 77.1665 66.0079 78.4196 66.0302 79.6717C66.048 80.6664 66.0135 81.6796 65.9158 82.6753C65.878 83.0586 65.9963 83.4991 65.77 83.8657C65.5396 83.8717 65.4728 83.7522 65.5029 83.5948C65.697 82.5875 65.6904 81.5791 65.6059 80.5719C65.5772 80.2333 65.744 79.9214 65.7002 79.5762C65.6632 79.2818 65.6122 78.9818 65.7538 78.6634C65.838 78.4733 65.8196 78.174 65.725 77.9888C65.5678 77.6813 65.6786 77.3717 65.6259 77.0779C65.5703 76.7713 65.6305 76.4894 65.6336 76.1992C65.6381 75.7787 65.4008 75.3656 65.5973 74.923C65.2978 74.6165 65.6343 74.2136 65.5018 73.9276C65.3447 73.5889 65.4983 73.2708 65.454 72.9454C65.4124 72.6387 65.3235 72.3292 65.3447 72.0036C65.3674 71.6599 65.3227 71.3134 65.3074 70.9687C65.2921 70.6235 65.2811 70.2782 65.2602 69.9332C65.2406 69.6018 65.1535 69.2728 65.1226 68.9541C65.0548 68.2538 64.8681 67.5752 64.8674 66.8602C64.8666 66.0879 64.6936 65.3328 64.5585 64.5732C64.424 63.8158 64.2553 63.0461 64.2309 62.282C64.2126 61.7075 63.8847 61.2083 63.9928 60.63C63.7008 60.3249 63.8733 59.8933 63.7366 59.5266C63.6352 59.2537 63.5295 58.8892 63.63 58.5149C63.6797 58.3303 63.342 58.0297 63.4085 57.8746C63.5355 57.5772 63.3313 57.5049 63.2573 57.3239C63.2005 57.1852 63.1105 57.0381 63.0921 56.8755C63.0036 56.0889 62.7216 55.3703 62.3869 54.6686C62.3709 54.635 62.4187 54.5695 62.4369 54.519Z" fill="#229A87"/>
</g>
</svg>
