<svg width="140" height="133" viewBox="0 0 140 133" fill="none" xmlns="http://www.w3.org/2000/svg">
<path fill-rule="evenodd" clip-rule="evenodd" d="M22.4547 70.8671C21.3809 70.8537 20.3504 70.9593 19.3112 71.2537C18.5617 71.4669 17.7137 71.4947 16.8456 71.3963C15.893 71.2877 14.9138 71.5501 13.9239 71.441C13.3125 71.3733 12.5539 71.7682 12.269 70.7944C11.8584 70.7272 11.4477 70.66 10.9314 70.5758C10.9041 70.1441 10.8731 69.7256 10.8553 69.3086C10.8515 69.2197 10.9209 69.0594 10.91 69.055C10.0258 68.6907 10.2517 67.5565 9.44032 67.1082C8.99906 66.8646 8.70872 65.9926 8.98818 65.7184C9.55285 65.1644 9.31808 64.5598 9.22341 63.9087C9.67111 63.0236 10.4383 62.4761 11.3513 62.0503C12.2525 61.6296 13.0736 61.0462 13.9924 60.6685C15.8568 59.9014 17.7594 59.2172 19.6529 58.5132C21.6072 57.7866 23.5911 57.1466 25.61 56.5808C27.4529 56.0637 29.2806 55.4988 31.1237 54.9778C32.2467 54.6603 33.3638 54.3236 34.4805 53.9865C34.5284 53.9721 34.5417 53.8655 34.6357 53.6609C34.1962 53.6602 33.7633 53.7848 33.4782 53.6277C33.1032 53.422 32.8359 53.1953 32.4945 53.5617C32.058 52.9411 31.3259 53.7214 30.8793 53.1475C30.4679 53.359 29.9521 53.3187 29.5934 53.1846C29.1717 53.0277 28.8767 52.7993 28.4498 53.109C28.3294 53.1968 27.8895 53.0972 27.8002 52.9603C27.4096 52.3614 26.9196 53.0242 26.5549 52.7566C26.114 52.4327 25.7485 52.4309 25.4023 52.8118C24.7671 52.4882 24.1004 52.7017 23.4481 52.6047C22.8863 52.5205 22.2442 52.4185 21.766 52.6078C21.4595 52.7297 21.2904 52.7286 21.0223 52.6321C20.1468 52.3187 19.2493 52.5301 18.3545 52.3858C17.4524 52.24 16.5225 52.3535 15.6036 52.3411C14.4486 52.326 13.293 52.3043 12.1371 52.2764C11.4433 52.2597 11.076 51.7243 10.841 51.2269C10.6627 50.8496 10.6849 50.4537 10.1159 50.4103C10.0403 50.4042 9.97304 49.9802 9.86696 49.6338C10.1971 49.6576 10.4845 49.6787 10.773 49.7002C10.7801 49.625 10.7879 49.5498 10.7945 49.4743C10.5555 49.3954 10.317 49.317 10.0435 49.2266C10.0777 49.1466 10.094 48.9692 10.1897 48.9101C10.4189 48.7694 10.6733 48.619 10.9384 48.5875C12.4238 48.4104 13.9072 48.1942 15.4053 48.1288C17.9265 48.0186 20.4563 47.9593 22.9872 47.9794C24.7187 47.9926 26.456 48.0465 28.1881 48.1018C29.7468 48.1513 31.3261 48.2668 32.8868 48.3555C34.8883 48.4692 36.8803 48.6502 38.8739 48.8653C40.1412 49.002 41.4053 49.1885 42.6709 49.3554C43.508 49.4663 44.06 50.0846 44.7043 50.5394C44.9694 51.096 44.8821 51.6951 45.4031 52.2656C45.996 52.9159 45.9278 55.6481 45.4747 56.4474C45.1392 57.0391 44.4393 57.3138 43.8723 57.6962C42.8796 58.3665 41.8151 58.877 40.6057 59.1002C40.4754 59.1247 40.2809 59.1893 40.2527 59.2819C40.021 60.0511 39.1118 59.6823 38.7067 60.1429C37.7888 60.0038 37.0061 60.4118 36.1727 60.6165C36.0299 60.6516 35.8 60.5926 35.7383 60.6742C34.9328 61.7454 33.5753 61.6532 32.4601 62.0646C32.1122 62.1931 31.7261 62.2434 31.3994 62.4056C31.1744 62.5167 31.0223 62.7581 30.8381 62.9413C30.9983 63.0962 31.0744 63.2262 31.1388 63.2238C32.5089 63.176 33.876 63.0346 35.2472 63.0728C37.0327 63.1233 38.7971 62.8918 40.5982 63.1067C41.4591 63.2089 42.327 62.9943 43.2232 63.041C44.8751 63.1276 46.5308 62.8794 48.178 63.014C51.008 63.2461 53.8226 62.8556 56.6515 63.3474C57.782 62.9598 58.9877 63.4232 60.1413 63.2413C60.4521 63.1918 60.7978 63.3133 61.1273 63.3352C61.606 63.3672 62.0848 63.3899 62.5631 63.3994C64.4896 63.4383 66.4157 63.4648 68.342 63.5076C69.1552 63.5263 69.971 63.6001 70.7833 63.6041C73.0768 63.6157 75.3703 63.8031 77.6639 63.9215C78.8571 63.9833 80.0457 63.8504 81.2295 64.2124C82.5527 63.8172 83.9189 64.2094 85.2636 64.2375C86.8894 64.2719 88.5175 64.3664 90.1449 64.445C92.2469 64.5463 94.3486 64.6535 96.4506 64.7669C97.7849 64.8394 99.1196 64.9215 100.454 65.0103C102.072 65.1179 103.688 65.2803 105.309 65.3565C107.773 65.4728 110.238 65.7433 112.702 65.9605C115.778 66.2314 118.854 66.4991 121.93 66.7981C123.624 66.9629 125.317 67.1761 127.009 67.3891C129.024 67.6429 131.042 67.8815 133.052 68.1986C134.5 68.4275 135.936 68.7381 137.402 68.8334C137.76 68.857 138.112 69.3402 138.609 69.7203C138.331 69.8124 138.162 69.9129 137.985 69.9189C137.451 69.9374 136.913 69.9189 136.279 69.9143C136.857 70.9644 138.28 70.2802 138.689 71.2459C138.3 71.2863 137.881 71.3295 137.462 71.3727C137.456 71.4758 137.449 71.5786 137.442 71.6818C137.755 71.809 138.067 71.936 138.483 72.1047C138.216 72.5744 137.955 73.0333 137.596 73.6638C137.115 73.6597 136.332 73.8599 135.745 73.5948C135.033 73.2729 134.306 73.8325 133.657 73.243C133.488 73.0896 133.155 73.7761 132.816 73.2895C132.454 72.7672 132.17 73.7149 131.828 73.27C131.508 72.8546 131.098 73.3397 131.001 73.2605C130.39 72.7621 129.774 73.2127 129.17 73.071C128.525 72.9202 127.852 72.8561 127.196 72.8495C126.611 72.8434 126.069 72.8007 125.531 72.5008C125.342 72.3947 124.945 72.3525 124.845 72.4619C124.511 72.8279 124.3 72.572 123.978 72.4239C123.747 72.3174 123.38 72.5406 123.135 72.4458C122.848 72.3348 122.629 72.0689 122.422 72.479C121.553 71.8842 120.507 72.8243 119.652 72.0228C119.568 71.9449 119.354 71.9259 119.241 71.9696C117.918 72.4809 116.549 72.008 115.201 71.9553C113.237 71.8782 111.272 71.8058 109.309 71.7158C107.734 71.6435 106.157 71.5806 104.583 71.4497C103.746 71.3801 102.845 71.7138 102.075 71.0192C102.022 70.9713 101.862 70.9751 101.794 71.0176C100.43 71.8699 99.0133 70.6997 97.632 70.8995C97.4007 70.9333 97.1305 70.8265 96.9173 70.8916C95.0172 71.473 93.0318 70.8896 91.0944 71.0042C89.6724 71.0882 88.2206 70.911 86.7833 70.8766C84.9994 70.8333 83.2169 70.8227 81.4339 70.7849C81.2542 70.7809 81.0698 70.6949 80.8918 70.6339C79.4367 70.1341 77.9565 70.3889 76.488 70.2568C76.1645 70.2281 75.7812 70.3026 75.5175 70.4661C74.9167 70.8387 74.1987 70.7069 73.714 70.4689C73.1979 70.2143 72.7843 70.2355 72.3032 70.2493C71.3561 70.2765 70.3799 70.1142 69.4998 70.5444C67.9622 70.3586 66.4222 70.451 64.8985 70.4532C63.6435 70.4555 62.3487 70.2098 61.0957 70.5467C60.2731 70.767 59.3794 70.5256 58.5673 70.2594C58.2285 70.1485 57.9315 70.0071 57.595 70.0873C57.232 70.1734 56.8734 70.4145 56.5249 70.3747C56.1427 70.3307 55.8488 70.4166 55.4994 70.4822C54.5174 70.6665 53.4947 70.7889 52.5579 70.105C52.483 70.0504 52.3826 70.0024 52.2954 70.0001C51.6675 69.9856 51.0302 69.9228 50.4161 69.9953C49.7019 70.0785 48.9224 69.9472 48.2966 70.4055C48.2285 70.4555 48.1029 70.4385 48.0031 70.4407C47.1773 70.458 46.3517 70.4854 45.5251 70.4833C44.6974 70.4809 43.9128 70.6888 43.0437 70.589C42.2489 70.4971 41.4145 70.5285 40.5958 70.4687C40.1293 70.4104 39.5465 70.1558 39.2185 70.3318C38.2258 70.8644 37.0831 70.027 36.1426 70.6123C35.1457 70.1704 34.1636 70.6809 33.1696 70.4983C32.8923 70.4472 32.5606 70.3001 32.3438 70.3893C31.1746 70.8722 29.8513 70.2919 28.6903 70.7502C27.8479 70.3499 27.0701 70.6268 26.2478 70.7567C25.6298 70.8545 24.9453 70.6436 24.2909 70.5698C23.7905 71.1764 23.0488 70.688 22.4547 70.8671Z" fill="#F9ED35"/>
</svg>
