<svg width="156" height="155" viewBox="0 0 156 155" fill="none" xmlns="http://www.w3.org/2000/svg">
<path fill-rule="evenodd" clip-rule="evenodd" d="M143.757 82.2071C143.456 81.9466 143.243 81.6441 143.126 81.6775C141.12 82.2518 139.136 82.9008 137.127 83.4651C135.358 83.9627 133.668 84.6782 131.921 85.232C130.981 85.5311 130.008 85.7307 129.059 86.0079C128.357 86.2138 127.651 86.707 126.98 86.6518C126.032 86.5745 125.56 87.3671 124.707 87.4912C123.333 87.6896 122.023 88.3096 120.678 88.7229C118.506 89.3903 116.323 90.0217 114.153 90.6936C112.894 91.0828 111.569 91.3197 110.485 92.2223C111.017 92.2613 111.542 92.2249 112.032 92.075C113.495 91.6278 114.939 91.1221 116.399 90.6659C117.106 90.4448 117.837 90.3002 118.55 90.093C119.314 89.8704 120.069 89.6173 120.829 89.3771C121.588 89.1369 122.34 88.8696 123.108 88.6626C124.706 88.2314 126.306 87.8138 127.814 87.1127C128.034 87.0101 128.276 86.9546 128.509 86.8782C129.729 86.4769 131.079 86.475 132.177 85.6886C132.322 85.5852 132.516 85.4604 132.672 85.4779C134.056 85.6383 135.303 85.0224 136.493 84.5659C137.726 84.0925 139.205 84.1266 140.191 83.0478C140.883 83.3407 141.403 82.5994 141.929 82.6664C142.617 82.753 143.042 82.4517 143.757 82.2071ZM124.522 81.5551C123.229 81.7487 121.943 82.0391 120.644 82.1187C115.772 82.4155 110.895 82.6629 106.018 82.8873C103.763 82.9919 101.521 83.4372 99.2414 83.1225C98.5414 83.0255 97.8022 83.1742 97.0866 83.2604C96.3786 83.3465 95.7238 82.8273 94.9199 83.3413C94.4518 83.641 93.5839 83.2838 92.8961 83.2795C91.7503 83.2715 90.5825 83.2558 89.4615 83.3104C86.636 83.4473 83.7907 82.9672 80.9841 83.558C80.8572 83.5855 80.6893 83.6348 80.5969 83.5794C79.7892 83.0901 78.9535 83.5372 78.1351 83.4874C77.3178 83.4376 76.4976 83.3834 75.6788 83.3858C74.0101 83.3904 72.3294 83.5575 70.6746 83.4117C69.5783 83.3157 68.5052 83.4529 67.4305 83.3881C64.844 83.2328 62.2639 83.0735 59.6677 83.075C58.658 83.0751 57.5955 83.211 56.6322 83.0145C54.8285 82.6461 53.0153 82.8129 51.2129 82.6412C48.7054 82.4026 46.165 82.507 43.659 82.2601C41.2983 82.0274 38.9337 81.8927 36.5732 81.6917C34.4657 81.5106 32.3623 81.2929 30.2564 81.0912C28.4621 80.919 26.6673 80.7407 24.8718 80.5809C24.5908 80.5558 24.3034 80.6151 23.997 80.6369C24.0499 80.827 24.0586 80.9348 24.084 80.9397C25.0553 81.0962 26.0282 81.3631 26.9997 81.3585C27.9427 81.3549 28.7884 82.2211 29.7657 81.6217C31.7481 81.8061 33.7301 81.9997 35.7134 82.1743C37.8262 82.3591 39.938 82.5574 42.0544 82.6908C43.8178 82.8028 45.6076 82.6883 47.35 82.9292C49.8384 83.2735 52.3377 83.2892 54.8308 83.4475C56.92 83.5803 59.027 83.4525 61.1142 83.6008C63.6364 83.7795 66.1533 83.928 68.682 83.8822C69.8922 83.8601 71.1233 83.7588 72.3114 83.9296C73.9543 84.1662 75.5919 83.9695 77.23 84.0884C78.5005 84.1806 79.7846 84.0755 81.0572 84.1467C81.279 84.1586 81.4778 84.6099 81.7818 84.9719C81.9835 84.3704 82.6189 84.0045 83.0988 84.286C84.0793 84.8613 85.0721 84.4147 86.0439 84.5661C86.4283 84.6263 86.882 84.2088 87.2755 84.254C88.9783 84.4491 90.679 84.5783 92.3863 84.4114C92.938 84.3579 93.4782 84.0412 94.0188 84.0554C94.9387 84.0796 95.9571 84.576 96.7465 84.3122C97.6982 83.9934 98.6652 84.3783 99.5615 83.9407C99.7721 83.8378 100.14 84.1108 100.436 84.1128C100.765 84.1145 101.257 83.8365 101.395 83.971C101.923 84.489 102.569 84.3755 103.036 84.1812C103.652 83.9246 104.361 83.6399 104.858 83.868C105.636 84.226 106.122 83.4794 106.817 83.6546C107.663 83.8681 108.561 83.7137 109.431 83.7301C110.364 83.7482 111.298 83.3867 112.24 83.3043C114.593 83.0982 116.951 82.9567 119.306 82.7893C120.287 82.7195 121.271 82.671 122.249 82.5729C123.088 82.4892 123.887 82.2636 124.522 81.5551ZM113.728 92.8343C114.337 93.836 115.122 93.9372 115.835 93.882C116.478 93.8316 117.085 93.2882 117.766 93.7795C118.306 93.0644 119.06 93.8195 119.632 93.5189C120.339 93.147 120.846 93.9063 121.492 93.7602C121.633 93.2161 121.633 93.2161 123.288 93.1087C124.362 93.038 124.362 93.038 125.264 93.5314C125.546 93.3042 125.831 93.0747 126.152 92.8161C126.187 93.0878 126.21 93.2728 126.275 93.7797C126.529 93.2384 126.665 92.9458 126.843 92.5664C127.277 92.9192 128.073 92.8596 128.341 93.685C128.367 93.7629 129.048 93.627 129.536 93.5806C129.352 94.3927 129.186 95.1339 129 95.9619C127.781 96.4342 126.475 96.7956 125.081 96.9049C123.681 97.0152 122.297 97.3397 120.896 97.4423C119.627 97.5366 118.345 97.4784 117.069 97.4505C115.853 97.4249 114.641 97.9111 113.423 97.4744C111.33 98.3638 109.214 97.1183 107.08 97.5575C105.966 97.7866 104.747 97.4426 103.655 96.9975C103.2 96.8129 102.823 96.4346 102.41 96.1437L101.671 93.8229C101.647 93.705 101.619 93.5872 101.596 93.4681C101.262 91.72 101.239 91.6777 102.68 90.8832C103.58 90.3875 104.563 90.043 105.527 89.6225C105.866 89.8869 106.214 90.1588 106.68 90.5221C106.695 90.2428 106.654 90.0626 106.72 89.9428C107.172 89.1311 107.695 88.4034 108.797 88.5583C109.433 87.6139 110.623 87.9222 111.462 87.3811C112.27 86.8603 113.203 86.5321 114.082 86.1238C114.304 86.0211 114.534 85.9362 114.781 85.8358C114.66 85.117 114.111 85.1039 113.489 85.1512C111.201 85.3256 108.911 85.4766 106.622 85.6455C104.721 85.7857 102.824 85.7845 100.923 85.6107C100.534 85.5755 100.124 85.8333 99.7205 85.8435C98.3145 85.8811 96.9066 85.8855 95.5001 85.8719C94.158 85.8589 92.8344 86.3003 91.4653 85.9153C90.9309 85.765 90.2814 86.069 89.7133 85.9784C89.2249 85.9006 88.8193 86.0082 88.3634 86.056C87.3079 86.1674 86.2016 86.1401 85.1627 85.9316C84.6376 85.8267 83.9395 86.526 83.572 85.6514C82.9679 85.7731 82.3682 85.9502 81.7583 86.0059C79.7921 86.186 77.8305 86.0713 75.8657 85.8964C74.6632 85.7885 73.4455 85.8633 72.2343 85.8568C69.8129 85.8428 67.3892 85.8765 64.9687 85.803C61.7588 85.7069 58.5501 85.5478 55.3431 85.3778C52.591 85.2308 49.8289 85.1371 47.093 84.8293C43.07 84.3757 39.0209 84.3177 34.9954 83.8218C31.8611 83.4359 28.705 83.0741 25.5614 82.8388C22.2688 82.5925 19.0236 82.035 15.7429 81.7496C13.6121 81.5635 11.5152 81.0133 9.39042 80.7255C7.56305 80.4769 5.76835 80.0474 3.93879 79.8256C3.71284 79.7987 3.49414 79.7083 3.26354 79.6449C3.48013 78.5615 4.27328 78.6668 4.95167 78.6544C5.58568 78.6435 6.22082 78.735 7.31341 78.8143C5.93471 77.9338 4.79634 78.0449 3.74085 77.9261C3.15612 77.8603 2.75734 77.7694 2.52768 77.086C2.80188 76.9714 3.07255 76.8575 3.37053 76.732C3.02609 76.247 2.64702 75.7139 2.22238 75.1154C2.65365 74.9078 3.04121 74.8409 3.11431 74.6531C3.19632 74.4396 2.99642 74.1172 2.9123 73.8188C3.37 73.6016 4.06085 73.9229 4.3934 73.2619C4.44178 73.1653 4.83976 73.1227 4.84972 73.1476C5.22753 74.0732 5.92416 73.1157 6.48165 73.4101C6.81327 73.585 7.46177 74.0299 8.0064 73.4383C8.07673 73.3627 8.66969 73.9113 8.94759 73.8486C9.29233 73.7694 9.55681 73.3884 9.90108 73.8494C9.97408 73.948 10.168 74.0923 10.1926 74.0716C11.2966 73.1962 12.1427 74.3493 13.1178 74.4232C13.6254 74.4623 14.1736 74.8413 14.6523 74.33C15.2546 74.9956 15.9822 73.638 16.4975 74.3973C16.994 75.1287 17.8699 73.8588 18.2959 74.8214C18.3251 74.8868 19.0537 74.6227 19.4641 74.547C19.9559 74.4568 20.3162 75.5381 20.9039 74.7183C21.4096 74.9248 21.9826 75.0416 22.4067 75.3588C23.0604 75.8473 23.5454 75.8067 24.0613 75.2054C24.1642 75.0855 24.42 74.9921 24.5655 75.0314C24.973 75.1441 25.3537 75.4408 25.7545 75.4589C26.1609 75.4781 26.858 75.0454 26.9447 75.1635C27.6138 76.0781 28.3555 74.985 29.0757 75.3517C29.1905 75.6279 29.3293 75.9623 29.5279 76.4392C30.9571 75.5755 32.5701 76.3421 34.0399 75.7553C34.4497 75.5911 34.9021 75.6377 35.2767 76.0505C36.0413 76.8903 36.8801 77.0628 37.7877 76.2024C37.9468 76.051 38.36 75.9137 38.467 76.0007C39.5215 76.8607 40.6964 75.7031 41.8133 76.26C42.3695 76.5371 43.2231 75.924 43.7942 76.6542C43.8319 76.7021 44.1012 76.5546 44.2679 76.5187C44.5747 76.4514 44.9427 76.4841 45.1834 76.3232C45.8653 75.8696 46.0537 77.0598 46.7339 76.7127C47.1643 76.4929 47.7087 76.4378 48.2052 76.4214C48.7599 76.403 49.3243 76.5848 49.8738 76.5448C50.485 76.5008 50.9402 76.7513 51.4735 76.9512C51.9071 77.1132 52.7388 76.4592 53.0439 76.6713C53.8614 77.2408 54.5653 76.71 55.308 76.738C56.1264 76.7678 56.9447 76.8165 57.7641 76.8375C58.3242 76.8525 58.9199 76.604 59.3979 77.1541C59.458 77.2235 59.7964 76.9974 60.0039 77.0016C60.806 77.0172 61.6463 76.469 62.4187 77.1742C62.5183 77.2653 62.8245 77.1116 63.0367 77.1036C64.8895 77.0343 66.7419 76.9722 68.5941 76.908C69.2191 77.7357 69.9488 77.0133 70.6238 77.0313C71.965 77.0684 73.3074 77.0349 74.649 77.0418C74.7626 77.0419 74.8816 77.1117 74.9879 77.1676C76.5916 78.0111 76.5911 78.0116 78.2694 77.9123C78.6822 78.4297 79.0087 79.1446 79.5537 79.4138C79.9285 79.5994 80.6077 79.1665 81.111 78.7282C80.5297 78.6386 79.9469 78.5485 78.883 78.3843C79.6794 78.0023 80.2675 78.2086 80.4507 77.9797C80.8438 77.4878 81.114 77.9418 81.4357 77.9353C83.7597 77.8877 86.0817 77.7764 88.4047 77.7509C89.0088 77.7447 89.6942 77.0029 90.2379 77.8804C91.2022 77.6231 92.355 78.1892 93.1562 77.2136C93.1938 77.1679 93.2551 77.1083 93.3038 77.1095C94.6316 77.1445 95.9583 77.1863 97.286 77.2269C97.7261 77.8416 98.3496 77.5753 98.9043 77.5359C101.223 77.3711 103.546 77.2632 105.84 76.8009C106.542 76.6584 107.39 76.3434 108.023 77.1347C108.097 77.2266 108.416 77.1927 108.582 77.1241C109.028 76.9374 109.443 76.556 109.89 76.5243C110.336 76.4925 110.839 76.9796 111.26 76.9066C112.349 76.7197 113.431 76.4162 114.471 76.0339C115.44 75.6776 116.932 75.6692 117.934 76.2133L118.724 75.3019C120.115 75.1539 121.544 75.2416 122.958 75.0229C124.378 74.8032 125.838 74.6596 127.268 74.7334C128.343 74.7895 129.338 74.9309 130.251 74.2124C130.379 74.1112 130.634 74.178 130.83 74.1574C133.466 73.8779 136.105 73.6126 138.739 73.3113C140.452 73.1154 142.138 72.7229 143.869 72.6576C144.082 72.6491 144.288 72.4314 144.485 72.3166L145.419 73.1264C145.696 73.0131 146.02 72.9522 146.249 72.7718C146.92 72.2463 147.551 72.0608 148.455 72.306C149.566 72.6071 149.6 72.4732 149.911 73.5569C149.961 73.7314 150.042 73.8975 150.109 74.0671C150.341 74.6512 151.33 74.0499 151.407 74.913C151.466 75.5676 151.931 75.6287 152.503 75.7225C153.072 75.8161 153.123 76.1214 153.246 77.3725C152.945 77.6425 152.703 77.8581 152.462 78.0738C152.653 78.1957 152.831 78.38 153.038 78.422C153.286 78.4725 153.559 78.4014 153.828 78.3822C153.839 78.4873 153.897 78.6193 153.854 78.695C153.486 79.3411 153.225 80.1335 152.681 80.5697C152.198 80.9575 151.366 80.8774 150.737 81.1263C148.523 82.0008 146.315 82.8866 144.024 83.5467C142.782 83.9045 141.631 84.5383 140.309 84.6711C139.924 84.7103 139.584 85.2045 139.198 85.2422C138.819 85.2804 138.404 84.8679 138.09 85.4457C138.021 85.5724 137.778 85.625 137.604 85.6696C136.056 86.0665 134.564 86.6662 133.029 87.0618C131.827 87.3713 130.671 87.7793 129.506 88.1721C127.995 88.681 126.377 88.8554 124.954 89.6389C124.903 89.6676 124.825 89.6583 124.76 89.6542C124.221 89.6193 123.684 89.5808 123.145 89.5434C123.016 90.2779 122.427 90.3049 121.859 90.4333C121.327 90.5535 120.832 90.871 120.299 90.9488C118.692 91.1828 117.216 91.8514 115.664 92.2589C115.075 92.4128 114.497 92.6048 113.728 92.8343Z" fill="#F9ED35"/>
</svg>
